<svg fill="#000000" xmlns="http://www.w3.org/2000/svg"  viewBox="0 0 50 50" width="50px" height="50px"><path d="M7.776 20.776l-.118-.565c0 0-3.753-.529-3.753 1.176 0 1.804 3.753 1.212 3.753 1.212l.118-.659c0 0-2.726.376-2.726-.541C5.051 20.371 7.776 20.776 7.776 20.776zM13.69 20.24L13.69 22.62 12.57 22.62 12.57 21.66 10.55 21.66 10.55 22.62 9.44 22.62 9.44 20.24 10.55 20.24 10.55 21.11 12.57 21.11 12.57 20.24zM18.582 21.641c.465 0 .894-.265.894-.706s-.765-.695-1.506-.695c-.741 0-1.382 0-1.382 0h-1.09v2.38h1.09v-1.922h1.165c0 0 .596-.008.596.282 0 .29-.573.294-.573.294H16.9v.155l1.306 1.19h1.424v-.249L18.582 21.641zM44.579 21.641c.465 0 .894-.265.894-.706s-.765-.695-1.506-.695c-.741 0-1.382 0-1.382 0h-1.09v2.38h1.09v-1.922h1.165c0 0 .596-.008.596.282 0 .29-.573.294-.573.294h-.876v.155l1.306 1.19h1.424v-.249L44.579 21.641zM21.922 22.62L23.059 22.62 23.059 21.678 24.635 20.24 23.773 20.24 22.729 21.137 21.647 20.24 20.29 20.24 21.914 21.671zM31.098 20.259L32.204 20.259 32.204 21.976 34.808 21.976 34.808 22.612 31.098 22.612zM36.118 20.259L36.118 22.612 39.929 22.612 39.929 22.012 37.271 22.012 37.271 21.647 39.829 21.647 39.829 21.118 37.271 21.118 37.271 20.747 39.929 20.747 39.929 20.259zM25.494 22.476c0 0 1.224.241 1.918.241.694 0 2.082-.153 2.082-.882s-1.388-.765-1.694-.8c-.306-.035-1.012-.059-1.035-.259-.024-.2.776-.188 1.059-.165.282.024.894.129 1.224.188.047-.224.082-.482.082-.482s-.976-.2-1.871-.2-1.724.182-1.724.712c0 .529.365.682 1.176.794.812.112 1.445.106 1.429.288-.018.2-.653.171-1.159.171s-1.263-.084-1.41-.137C25.537 22.145 25.494 22.476 25.494 22.476zM49.971 25.367c-.001 0-.002 0-.003.001C49.878 25.149 49.63 25 49.49 25H30.61c-.23 0-.45.08-.63.25C29.75 25.47 29 26 28 26c-2 0-4 0-6 0-1 0-1.75-.53-1.98-.75-.18-.17-.4-.25-.63-.25H.51c-.14 0-.388.149-.479.368-.001 0-.002 0-.003-.001-.063.184-.031.404.229.649.417.38 1.449 1.298 2.585 1.604 3.846 1.029 14.655 2.846 17.771 3.348.469.073.938-.025 1.334-.318C22.635 30.148 24.187 30 25 30s2.365.148 3.053.651c.396.294.865.392 1.334.318 3.116-.502 13.925-2.319 17.771-3.348 1.136-.306 2.168-1.225 2.585-1.604C50.003 25.772 50.034 25.551 49.971 25.367zM21 29c-1.1 0-3-.9-3-2h14c0 1.1-1.9 2-3 2H21z"/></svg>