<svg width="80" height="80" viewBox="0 0 80 80" fill="none" xmlns="http://www.w3.org/2000/svg">
<path d="M61.555 12L62.875 10.68C63.81 11.89 64.58 13.21 65.405 14.585H66.45V1.605H53.415V2.65C54.79 3.365 56 4.19 57.21 5.18L55.89 6.5C51.325 2.98 45.66 1 39.5 1C24.265 1 12 13.265 12 28.5C12 43.735 24.265 56 39.5 56C54.735 56 67 43.735 67 28.5C67 22.285 64.91 16.565 61.555 12ZM59.575 33.45C57.32 42.415 49.18 49.18 39.5 49.18C29.82 49.18 21.625 42.525 19.425 33.45H59.575ZM19.37 23.495C21.625 14.475 29.765 7.765 39.445 7.765C49.125 7.765 57.32 14.42 59.52 23.495H19.37V23.495ZM54.185 28.39C54.185 27.455 54.68 26.575 55.505 26.575C56.275 26.575 56.715 27.455 56.715 28.5C56.715 29.435 56.275 30.425 55.395 30.425C54.515 30.315 54.185 29.38 54.185 28.39ZM31.36 28.39C31.36 27.455 31.855 26.575 32.68 26.575C33.45 26.575 33.89 27.455 33.89 28.5C33.89 29.435 33.45 30.425 32.57 30.425C31.69 30.315 31.36 29.38 31.36 28.39ZM32.68 25.75C35.1 25.75 36.31 26.96 36.31 28.445C36.31 29.93 35.1 31.14 32.68 31.14C30.26 31.14 29.05 29.875 29.05 28.39C29.05 26.905 30.26 25.75 32.68 25.75ZM25.255 29.82L26.96 26.63H25.915V25.86H29.435V26.63H28.225L25.915 30.975H23.165L20.745 26.63H19.535V25.86H24.705V26.63H23.495L25.255 29.82ZM55.505 25.75C57.925 25.75 59.135 26.96 59.135 28.445C59.135 29.93 57.925 31.14 55.505 31.14C53.085 31.14 51.875 29.93 51.875 28.445C51.875 26.96 53.085 25.75 55.505 25.75ZM43.625 26.685H42.415V25.915H47.585V26.685H46.375L48.08 29.875L49.785 26.685H48.85V25.915H52.37V26.685H51.16L48.85 31.03H46.1C46.045 31.03 43.625 26.685 43.625 26.685V26.685ZM37.74 26.685H36.53V25.915H41.26V26.685H40.05V30.205H41.15C42.195 30.205 42.8 29.49 42.8 28.665H43.57V31.085H36.53V30.315H37.74V26.685V26.685Z" fill="white"/>
<path d="M19.022 59.2L16.628 64.926L14.29 59.2H10.734L14.878 69H18.126L22.27 59.2H19.022ZM28.4964 69.224C31.6884 69.224 34.0264 67.068 34.0264 64.1C34.0264 61.132 31.6884 58.976 28.4964 58.976C25.3044 58.976 22.9664 61.132 22.9664 64.1C22.9664 67.068 25.3044 69.224 28.4964 69.224ZM28.4964 66.55C27.2784 66.55 26.2984 65.626 26.2984 64.1C26.2984 62.574 27.2784 61.65 28.4964 61.65C29.7144 61.65 30.6944 62.574 30.6944 64.1C30.6944 65.626 29.7144 66.55 28.4964 66.55ZM36.1356 69H43.8636V66.438H39.4396V59.2H36.1356V69ZM52.2813 59.2L49.8873 64.926L47.5493 59.2H43.9933L48.1373 69H51.3853L55.5293 59.2H52.2813ZM61.7557 69.224C64.9477 69.224 67.2857 67.068 67.2857 64.1C67.2857 61.132 64.9477 58.976 61.7557 58.976C58.5637 58.976 56.2257 61.132 56.2257 64.1C56.2257 67.068 58.5637 69.224 61.7557 69.224ZM61.7557 66.55C60.5377 66.55 59.5577 65.626 59.5577 64.1C59.5577 62.574 60.5377 61.65 61.7557 61.65C62.9737 61.65 63.9537 62.574 63.9537 64.1C63.9537 65.626 62.9737 66.55 61.7557 66.55Z" fill="white"/>
</svg>
