<?xml version="1.0"?>
<svg xmlns="http://www.w3.org/2000/svg" xmlns:xlink="http://www.w3.org/1999/xlink" id="Layer_1" data-name="Layer 1" viewBox="0 0 512 512" width="512" height="512"><defs><linearGradient id="linear-gradient" x1="255.79" y1="20.644" x2="255.79" y2="476.683" gradientUnits="userSpaceOnUse"><stop offset="0" stop-color="#00efd1"/><stop offset="1" stop-color="#00acea"/></linearGradient></defs><title>Axel</title><path d="M456.841,22.143,400.225,13.1a8,8,0,0,0-5.955,1.422,7.827,7.827,0,0,0-3.207,5.133L386.2,50H122V20.5c0-4.418-3.828-7.5-8.246-7.5H56.421C52,13,48,16.082,48,20.5v108a8.809,8.809,0,0,0,8.421,8.5h57.333A8.654,8.654,0,0,0,122,128.5V99H229V381.271A54.361,54.361,0,0,0,201.27,413H122V383.5c0-4.418-3.828-7.5-8.246-7.5H56.421C52,376,48,379.082,48,383.5v108a8.809,8.809,0,0,0,8.421,8.5h57.333A8.654,8.654,0,0,0,122,491.5V462h86.93c9.883,13,25.915,22.5,43.991,22.5s34.108-9.5,43.991-22.5H384v29.5c0,4.418,3.669,8.5,8.087,8.5h57.334c4.418,0,7.579-4.082,7.579-8.5v-108a7.237,7.237,0,0,0-7.579-7.5H392.087c-4.418,0-8.087,3.082-8.087,7.5V413H304.572A55.231,55.231,0,0,0,278,381.613V99H378.43l-4.4,27.469a7.959,7.959,0,0,0,6.638,9.12l56.616,9.023a8.025,8.025,0,0,0,9.162-6.657L463.479,31.306A8,8,0,0,0,456.841,22.143ZM106,121H64V29h42Zm0,363H64V392h42Zm16-38V429h76.609s-.021.72-.021,1a55.212,55.212,0,0,0,2.359,16Zm278-54h41v92H400Zm-16,37v17H304.894a55.213,55.213,0,0,0,2.36-16c0-.28-.017-1-.021-1Zm-92.746,1a38.333,38.333,0,1,1-38.333-38.333A38.376,38.376,0,0,1,291.254,430ZM262,376.366a58.284,58.284,0,0,0-8.833-.7,61.16,61.16,0,0,0-8.167.593V99h17ZM122,83V66H383.648l-2.662,17Zm309.907,44.529-40.816-6.519L405.6,30.162l40.815,6.519Z" style="fill:url(#linear-gradient)"/></svg>
