<svg width="256" height="256" viewBox="0 0 256 256" fill="none" xmlns="http://www.w3.org/2000/svg">
<path d="M28.2105 250H56.877C57.9757 249.948 59.0134 249.48 59.7793 248.691C60.5452 247.901 60.9816 246.85 61 245.75V231H104.465C109.406 237.5 117.423 242.25 126.461 242.25C135.499 242.25 143.514 237.5 148.456 231H192V245.75C192 247.959 193.835 250 196.044 250H224.71C226.919 250 228.5 247.959 228.5 245.75V191.75C228.519 191.249 228.433 190.75 228.249 190.284C228.065 189.818 227.786 189.395 227.429 189.042C227.073 188.69 226.647 188.415 226.179 188.236C225.711 188.056 225.211 187.976 224.71 188H196.044C193.835 188 192 189.541 192 191.75V206.5H152.286C150.043 199.754 145.284 194.132 139 190.807V49.5H189.215L187.015 63.2345C186.932 63.752 186.953 64.2807 187.075 64.7903C187.197 65.2999 187.419 65.7803 187.727 66.204C188.036 66.6277 188.425 66.9863 188.872 67.2592C189.319 67.5322 189.816 67.7141 190.334 67.7945L218.642 72.306C219.691 72.4698 220.761 72.2115 221.62 71.5877C222.478 70.9639 223.055 70.0253 223.223 68.9775L231.74 15.653C231.822 15.1343 231.802 14.6043 231.68 14.0934C231.558 13.5824 231.337 13.1005 231.029 12.6751C230.721 12.2497 230.332 11.8892 229.884 11.6141C229.437 11.3391 228.939 11.1549 228.421 11.072L200.113 6.55001C199.065 6.38283 197.994 6.63858 197.135 7.26101C196.711 7.56094 196.35 7.94235 196.075 8.38299C195.8 8.82363 195.615 9.31469 195.531 9.82751L193.1 25H61V10.25C61 8.04101 59.086 6.50001 56.877 6.50001H28.2105C26 6.50001 24 8.04101 24 10.25V64.25C24.0379 65.3584 24.4924 66.4117 25.273 67.1995C26.0535 67.9874 27.1025 68.4518 28.2105 68.5H56.877C57.9757 68.4483 59.0134 67.9801 59.7793 67.1907C60.5452 66.4012 60.9816 65.3498 61 64.25V49.5H114.5V190.635C111.249 192.224 108.349 194.445 105.968 197.17C103.587 199.894 101.774 203.066 100.635 206.5H61V191.75C61 189.541 59.086 188 56.877 188H28.2105C26 188 24 189.541 24 191.75V245.75C24.0379 246.858 24.4924 247.912 25.273 248.7C26.0535 249.487 27.1025 249.952 28.2105 250ZM200 196H220.5V242H200V196ZM192 214.5V223H152.447C153.231 220.406 153.628 217.71 153.627 215C153.627 214.86 153.619 214.5 153.617 214.5H192ZM53 60.5H32V14.5H53V60.5ZM202.8 15.081L223.208 18.3405L215.952 63.7645L195.544 60.505L202.8 15.081ZM61 33H191.824L190.493 41.5H61V33ZM122.5 49.5H131V188.183C129.539 187.954 128.062 187.837 126.584 187.833C125.217 187.84 123.853 187.94 122.5 188.13V49.5ZM126.461 195.833C130.251 195.833 133.957 196.958 137.109 199.064C140.261 201.17 142.717 204.163 144.168 207.665C145.619 211.168 145.998 215.021 145.259 218.739C144.519 222.457 142.694 225.872 140.013 228.553C137.333 231.233 133.918 233.059 130.2 233.798C126.482 234.538 122.628 234.158 119.126 232.708C115.624 231.257 112.63 228.8 110.524 225.648C108.418 222.496 107.294 218.791 107.294 215C107.3 209.918 109.321 205.047 112.914 201.454C116.507 197.86 121.379 195.839 126.461 195.833ZM99.3045 214.5C99.3045 214.5 99.294 214.86 99.294 215C99.2924 217.71 99.6898 220.406 100.474 223H61V214.5H99.3045ZM32 196H53V242H32V196Z" fill="black"/>
<path d="M200 196.5H220.5V242.5H200V196.5ZM53.0001 61H32.0001V15H53.0001V61ZM202.8 15.581L223.208 18.8405L215.953 64.2645L195.545 61.005L202.8 15.581ZM126.461 196.333C130.251 196.333 133.957 197.458 137.109 199.564C140.261 201.67 142.717 204.663 144.168 208.165C145.619 211.668 145.998 215.521 145.259 219.239C144.519 222.957 142.694 226.372 140.013 229.053C137.333 231.733 133.918 233.559 130.2 234.298C126.482 235.038 122.628 234.658 119.126 233.208C115.624 231.757 112.63 229.3 110.524 226.148C108.418 222.996 107.294 219.291 107.294 215.5C107.3 210.418 109.321 205.547 112.914 201.954C116.507 198.36 121.379 196.339 126.461 196.333ZM32.0001 196.5H53.0001V242.5H32.0001V196.5Z" fill="#F0BC5E"/>
</svg>
