<svg id="_x33_0" enable-background="new 0 0 62 61.982" height="512" viewBox="0 0 62 61.982" width="512" xmlns="http://www.w3.org/2000/svg"><g><g><path d="m36.448 18.334c-1.114-.23-2.267-.353-3.448-.353-7.799 0-14.578 5.275-16.484 12.828l-.049.195c3.236.1 6.208 1.221 8.615 3.057l-.024-.038c.473-3.967 3.849-7.043 7.943-7.043 4.418 0 8 3.582 8 8s-3.582 8-8 8c-.828 0-1.627-.126-2.378-.359l-.023-.032c.253 1.092.4 2.224.4 3.393 0 2.024-.406 3.951-1.133 5.713l.189.033c.966.168 1.956.254 2.944.254 9.374 0 17-7.626 17-17 0-4.012-1.405-7.697-3.737-10.607z" fill="#f0bc5e"/></g><g><path d="m60.229 13.122-15.7-12.12c-1.289-1.145-3.29-1.332-4.766-.445l-8.306 4.984c-.899.539-1.457 1.525-1.457 2.573v.038c-13.076 1.444-23.226 12.135-23.951 25.323-3.68 2.934-6.049 7.446-6.049 12.507 0 8.822 7.178 16 16 16 2.641 0 5.128-.654 7.326-1.792 3.084 1.185 6.335 1.792 9.674 1.792 14.888 0 27-12.112 27-27 0-1.373-.12-2.746-.325-4.096.27-.357.46-.78.527-1.246l1.752-12.266c.031-.214.046-.429.046-.645 0-1.402-.662-2.75-1.771-3.607zm-21.229-4.14c-.551 0-1-.449-1-1s.449-1 1-1 1 .449 1 1-.449 1-1 1zm.278 2.404 13.724 9.435c.625.43.998 1.139.998 1.897v5.243l-21.524-13.245c-.156-.096-.276-.23-.358-.384l4.607-2.981c.766-.494 1.802-.481 2.553.035zm9.356 4.005-4.902-3.37c.562-.648 1.387-1.039 2.268-1.039 1.654 0 3 1.346 3 3 0 .501-.135.979-.366 1.409zm-46.634 30.591c0-6.689 4.718-12.29 11-13.668v4.668h-.395c-.593 0-1.168.174-1.664.504l-1.605 1.07c-.836.557-1.336 1.491-1.336 2.496v11.693c0 1.144.635 2.172 1.658 2.684l4 2c.724.361 1.533.553 2.341.553s1.618-.191 2.342-.553l4-2c1.024-.512 1.659-1.54 1.659-2.684v-11.693c0-1.005-.5-1.938-1.336-2.496l-1.606-1.07c-.495-.33-1.07-.504-1.664-.504h-.394v-4.668c6.282 1.378 11 6.979 11 13.668 0 7.72-6.28 14-14 14s-14-6.281-14-14zm17-1v9.882l-1.552.776c-.142.071-.297.111-.448.16v-10.818h-2v10.818c-.151-.048-.305-.089-.447-.16l-1.553-.777v-9.882h-2v8.882l-.447-.224c-.341-.17-.553-.513-.553-.894v-9.764h12v9.764c0 .381-.212.724-.553.895l-.447.223v-8.882h-2zm-8.991-4c.022-.307.178-.589.437-.762l1.605-1.07c.166-.109.357-.168.555-.168h6.789c.198 0 .39.059.555.168l1.605 1.07c.259.172.415.454.437.762zm4.991-4v-4.949c.332-.024.662-.051 1-.051s.668.027 1 .051v4.949zm11.138-3.367c.641-3.245 3.499-5.633 6.862-5.633 3.86 0 7 3.14 7 7 0 3.859-3.14 7-7 7-.536 0-1.062-.08-1.578-.199-.885-3.246-2.753-6.09-5.284-8.168zm27.604 15.307c-2.936.157-5.788-.81-8.019-2.704-.443.501-.916.975-1.414 1.421 2.234 1.942 5.015 3.081 7.942 3.274-3.612 4.357-8.673 7.47-14.436 8.599-2.187-1.966-3.524-4.666-3.763-7.583-.35.022-.697.053-1.052.053-.316 0-.632-.023-.947-.041.209 2.953 1.378 5.721 3.312 7.926-.779.073-1.567.115-2.364.115-2.573 0-5.088-.391-7.504-1.152 3.935-2.918 6.503-7.583 6.503-12.848 0-.709-.062-1.402-.152-2.086.381.049.765.086 1.152.086 4.962 0 9-4.037 9-9 0-4.962-4.038-9-9-9-4.026 0-7.491 2.662-8.615 6.399-2.442-1.511-5.309-2.399-8.385-2.399-2.838 0-5.5.75-7.813 2.052.473-4.033 1.891-7.777 4.05-10.991 2.938-.162 5.789.798 8.023 2.688.442-.501.91-.976 1.407-1.42-2.235-1.934-5.017-3.06-7.938-3.252 3.973-4.809 9.718-8.087 16.272-8.871v3.677c0 1.049.534 2.004 1.428 2.555l24.613 15.146c-1.75 1.355-3.863 2.179-6.087 2.365.021.348.045.696.045 1.051 0 .32-.031.633-.048.949 2.942-.209 5.722-1.376 7.93-3.307.073.783.118 1.57.118 2.358 0 5.157-1.57 9.955-4.258 13.94zm6.233-31.832-1.752 12.267c-.072.498-.697.773-1.125.511l-1.098-.676v-6.474c0-1.416-.697-2.741-1.864-3.544l-3.849-2.646c.456-.766.713-1.635.713-2.546 0-2.757-2.243-5-5-5-1.543 0-2.977.728-3.914 1.908l-1.048-.72c.588-.548.962-1.323.962-2.188 0-1.654-1.346-3-3-3s-3 1.346-3 3c0 .484.126.935.33 1.34-.239.097-.473.209-.692.351l-3.638 2.353v-3.912c0-.349.186-.678.486-.857l8.306-4.984c.317-.19.681-.291 1.051-.291.501 0 .983.183 1.411.56l15.752 12.164c.622.48.994 1.236.994 2.023 0 .12-.008.241-.025.361z"/><circle cx="33" cy="22.982" r="1"/><ellipse cx="27" cy="24.981" rx="1" ry="1" transform="matrix(.259 -.966 .966 .259 -4.118 44.596)"/><path d="m22.5 28.116c-.478.276-.642.888-.366 1.366s.888.642 1.366.366.642-.888.366-1.366-.888-.642-1.366-.366z"/><path d="m43.5 28.116c-.478-.276-1.09-.112-1.366.366s-.112 1.09.366 1.366 1.09.112 1.366-.366c.277-.478.113-1.09-.366-1.366z"/><path d="m45.5 34.116c-.478-.276-1.09-.112-1.366.366s-.112 1.09.366 1.366 1.09.112 1.366-.366.112-1.09-.366-1.366z"/><ellipse cx="39" cy="24.981" rx="1" ry="1" transform="matrix(.966 -.259 .259 .966 -5.137 10.945)"/><circle cx="33.999" cy="46.982" r="1"/><path d="m42.5 40.115c-.478.276-.642.888-.366 1.366s.888.642 1.366.366.642-.888.366-1.366-.887-.642-1.366-.366z"/><path d="m38.5 44.116c-.478.276-.642.888-.366 1.366s.888.642 1.366.366.642-.888.366-1.366-.888-.642-1.366-.366z"/><path d="m54 13.982h2v5h-2z" transform="matrix(.6 -.8 .8 .6 8.815 50.593)"/></g></g></svg>