<svg width="285" height="285" viewBox="0 0 285 285" fill="none" xmlns="http://www.w3.org/2000/svg">
<g clip-path="url(#clip0)">
<path d="M278.926 76.5185L229.026 26.618C221.765 19.3555 210.493 18.5083 202.226 24.6035L175.27 44.4791C174.292 45.2005 173.677 46.3133 173.585 47.5256C173.494 48.738 173.936 49.9298 174.796 50.7898L181.292 57.2858L152.753 85.8245H132.245L103.705 57.2842L110.202 50.7865C111.062 49.9264 111.503 48.7347 111.412 47.5223C111.321 46.3099 110.706 45.1972 109.727 44.4758L82.7719 24.6047C74.5086 18.5077 63.2376 19.3549 55.9728 26.6203L48.0713 34.5224C46.4414 36.1523 46.4414 38.7952 48.0713 40.4251C49.7011 42.0549 52.3441 42.0549 53.9739 40.4251L61.876 32.5229C66.1984 28.2006 72.9015 27.6957 77.8178 31.3228L86.7865 37.9346L17.3873 107.333L10.7755 98.3674C7.15116 93.4449 7.65548 86.7374 11.9745 82.4184L42.1703 52.2232C43.8001 50.5933 43.8001 47.9509 42.1703 46.3205C40.541 44.6906 37.898 44.6906 36.2676 46.3205L6.07183 76.5157C-1.18738 83.7749 -2.03626 95.0464 4.05566 103.319L23.934 130.275C24.6554 131.254 25.7682 131.869 26.9805 131.96C27.0852 131.968 27.1893 131.972 27.2934 131.972C28.3955 131.972 29.4587 131.535 30.2447 130.75L36.7413 124.252L41.588 129.099C31.348 137.915 25.3568 150.783 25.3568 164.411C25.3568 186.79 41.3286 205.9 62.9971 210.133C65.3534 222.619 74.2469 232.822 85.9782 237.03V252.022C85.9782 258.878 91.5536 264.456 98.407 264.456C103.799 264.456 108.399 261.005 110.118 256.196H116.094C117.812 261.005 122.41 264.456 127.8 264.456C133.192 264.456 137.792 261.005 139.511 256.196H145.488C147.206 261.003 151.805 264.454 157.196 264.454C162.588 264.454 167.186 261.003 168.904 256.196H174.882C176.601 261.003 181.2 264.454 186.59 264.454C193.445 264.454 199.021 258.878 199.021 252.023V219.21C205.567 218.306 211.451 215.31 215.978 210.918C224.321 210.394 232.339 207.645 239.262 202.916C241.166 201.616 241.655 199.019 240.355 197.116C239.056 195.212 236.458 194.723 234.555 196.023C230.887 198.527 226.845 200.35 222.599 201.446C223.939 198.438 224.803 195.176 225.097 191.751C235.875 187.014 242.933 176.373 242.933 164.412C242.933 155.146 238.678 146.569 231.553 140.957L237.489 135.021C246.19 142.264 251.294 153.014 251.294 164.41C251.294 171.871 249.135 179.103 245.05 185.326C243.785 187.254 244.322 189.841 246.249 191.106C246.956 191.57 247.75 191.791 248.536 191.791C249.895 191.791 251.227 191.128 252.029 189.907C257.009 182.319 259.641 173.503 259.641 164.411C259.641 150.78 253.65 137.913 243.409 129.102L248.259 124.252L254.755 130.749C255.541 131.534 256.604 131.971 257.706 131.971C257.81 131.971 257.914 131.968 258.019 131.96C259.231 131.868 260.344 131.253 261.065 130.275L280.941 103.319C287.036 95.0514 286.189 83.7805 278.926 76.5185V76.5185ZM211.634 115.068C211.634 114.021 212.042 113.036 212.783 112.295L224.542 100.535L230.089 106.082L218.329 117.842C217.589 118.582 216.604 118.991 215.556 118.991C214.509 118.991 213.523 118.582 212.783 117.842C212.042 117.101 211.634 116.116 211.634 115.068V115.068ZM201.301 77.2944L205.01 81.0028L193.25 92.7625C192.509 93.5034 191.524 93.9114 190.476 93.9114C189.428 93.9114 188.444 93.5034 187.702 92.7625C186.173 91.2334 186.173 88.7446 187.702 87.2155L199.462 75.4558L201.301 77.2944ZM187.195 63.1885L193.56 69.5532L181.8 81.3129C177.016 86.0967 177.016 93.8808 181.8 98.6646C184.118 100.982 187.199 102.258 190.476 102.258C193.754 102.258 196.835 100.982 199.152 98.6646L210.912 86.9049L218.64 94.6328L206.88 106.393C204.563 108.71 203.286 111.791 203.286 115.068C203.286 118.345 204.563 121.427 206.88 123.744C209.197 126.062 212.278 127.338 215.556 127.338C218.833 127.338 221.914 126.062 224.232 123.744L235.991 111.985L242.356 118.349L215.546 145.159L160.385 89.9988L187.195 63.1885ZM169.627 219.506H174.159V247.848H169.627V219.506ZM140.977 211.159L164.504 188.062C164.492 188.418 164.477 188.774 164.477 189.133C164.477 197.798 168.13 205.621 173.97 211.159H140.977ZM110.841 236.689C112.408 236.079 113.921 235.362 115.371 234.544V247.848H110.841V236.689ZM140.234 219.506H144.765V247.848H140.234V219.506ZM133.385 206.914C133.492 205.797 133.551 204.666 133.551 203.522C133.551 183.898 117.586 167.932 97.9617 167.932C97.1929 167.932 96.432 167.965 95.675 168.013L118.944 145.259C119.815 157.498 130.043 167.191 142.499 167.191C155.525 167.191 166.122 156.594 166.122 143.569C166.122 143.011 166.096 142.46 166.057 141.912L189.996 159.155C183.568 160.192 177.807 163.248 173.394 167.657L173.399 167.631L133.385 206.914ZM59.4034 146.915L65.792 153.304L73.6174 177.596C71.1698 179.896 69.0462 182.534 67.3245 185.441C57.6522 183.293 50.4097 174.53 50.4097 164.412C50.4103 157.402 53.7925 150.936 59.4034 146.915V146.915ZM142.499 128.294C150.922 128.294 157.774 135.146 157.774 143.569C157.774 151.991 150.922 158.844 142.499 158.844C134.077 158.844 127.225 151.991 127.225 143.569C127.225 135.146 134.077 128.294 142.499 128.294ZM207.722 161.636C207.722 161.636 157.264 125.128 156.677 124.685C152.725 121.711 147.814 119.946 142.499 119.946C136.353 119.946 130.749 122.308 126.542 126.169L80.3628 171.311L74.2091 152.208L132.245 94.1719H152.754L210.79 152.208L207.75 161.648C207.741 161.644 207.732 161.64 207.722 161.636V161.636ZM60.4572 100.535L72.2168 112.295C72.9577 113.036 73.3658 114.021 73.3658 115.068C73.3658 116.116 72.9577 117.101 72.2168 117.842C71.4759 118.582 70.4912 118.991 69.4431 118.991C68.3955 118.991 67.4108 118.582 66.6699 117.842L54.9102 106.082L60.4572 100.535ZM27.7726 121.416L22.3977 114.128L93.5814 42.9439L100.868 48.3155L27.7726 121.416ZM49.0081 111.985L60.7672 123.744C63.0845 126.062 66.1656 127.338 69.4431 127.338C72.7206 127.338 75.8016 126.062 78.119 123.744C80.4363 121.427 81.7127 118.345 81.7127 115.068C81.7127 111.791 80.4363 108.71 78.119 106.393L66.3593 94.6328L66.4561 94.536L74.0872 86.9049L85.8469 98.6646C88.1642 100.982 91.2452 102.258 94.5227 102.258C97.8003 102.258 100.881 100.982 103.199 98.6646C107.982 93.8808 107.982 86.0967 103.199 81.3129L91.4389 69.5532L97.8036 63.1885L124.614 89.9988L69.4525 145.159L42.6434 118.35L49.0081 111.985ZM85.5368 75.4558L97.2965 87.2155C98.8256 88.7446 98.8256 91.2334 97.2965 92.7625C96.5556 93.5034 95.5703 93.9114 94.5227 93.9114C93.4751 93.9114 92.4899 93.5034 91.749 92.7625L79.9898 81.0028L85.5368 75.4558ZM33.7042 164.411C33.7042 153.018 38.8076 142.266 47.5074 135.019L53.4445 140.956C46.3189 146.568 42.0623 155.145 42.0623 164.411C42.0623 171.903 44.8583 179.074 49.9355 184.604C53.7451 188.753 58.5829 191.704 63.9045 193.193C63.1023 195.832 62.5997 198.599 62.4355 201.456C45.7612 197.18 33.7042 182.029 33.7042 164.411V164.411ZM70.7195 203.522C70.7195 188.5 82.9406 176.279 97.9617 176.279C112.983 176.279 125.204 188.5 125.204 203.522C125.204 218.543 112.983 230.764 97.9617 230.764C82.9406 230.764 70.7195 218.543 70.7195 203.522ZM98.407 256.108C96.157 256.108 94.3257 254.275 94.3257 252.022V238.927C95.5213 239.049 96.7337 239.111 97.9611 239.111C99.4975 239.111 101.008 239.003 102.493 238.813V252.022C102.493 254.275 100.66 256.108 98.407 256.108V256.108ZM127.8 256.108C125.55 256.108 123.719 254.275 123.719 252.022V228.101L131.886 220.083V252.021C131.886 254.275 130.053 256.108 127.8 256.108ZM157.196 256.107C154.945 256.107 153.113 254.275 153.113 252.023V219.506H161.279V252.023C161.279 254.275 159.448 256.107 157.196 256.107ZM186.59 256.107C184.338 256.107 182.507 254.275 182.507 252.023V219.506H190.674V252.023C190.674 254.275 188.842 256.107 186.59 256.107ZM194.847 211.156C182.704 211.156 172.824 201.277 172.824 189.133C172.824 176.99 182.704 167.11 194.847 167.11C206.991 167.11 216.871 176.99 216.871 189.133C216.871 201.277 206.991 211.156 194.847 211.156ZM234.586 164.412C234.586 171.954 230.691 178.77 224.512 182.644C223.116 176.258 219.707 170.618 214.982 166.424L219.206 153.305L225.594 146.916C231.204 150.936 234.586 157.402 234.586 164.412V164.412ZM257.226 121.415L184.13 48.3183L191.418 42.9444L262.6 114.127L257.226 121.415ZM274.222 98.364L267.61 107.332L198.212 37.9341L207.18 31.3217C212.098 27.6951 218.803 28.1995 223.123 32.5201L273.024 82.4206C277.344 86.7413 277.848 93.4466 274.222 98.364V98.364Z" fill="black"/>
<path d="M110.559 203.522C110.559 196.575 104.908 190.924 97.9616 190.924C91.0153 190.924 85.3643 196.575 85.3643 203.522C85.3643 210.468 91.0153 216.119 97.9616 216.119C104.908 216.119 110.559 210.468 110.559 203.522V203.522ZM93.7116 203.522C93.7116 201.178 95.6181 199.272 97.9616 199.272C100.305 199.272 102.212 201.178 102.212 203.522C102.212 205.865 100.305 207.772 97.9616 207.772C95.6181 207.772 93.7116 205.865 93.7116 203.522Z" fill="#F0BC5E"/>
<path d="M194.847 176.536C187.901 176.536 182.25 182.187 182.25 189.133C182.25 196.08 187.901 201.731 194.847 201.731C201.794 201.731 207.445 196.08 207.445 189.133C207.445 182.187 201.794 176.536 194.847 176.536V176.536ZM194.847 193.383C192.504 193.383 190.597 191.477 190.597 189.133C190.597 186.79 192.504 184.884 194.847 184.884C197.191 184.884 199.097 186.79 199.097 189.133C199.097 191.477 197.191 193.383 194.847 193.383Z" fill="#F0BC5E"/>
</g>
<defs>
<clipPath id="clip0">
<rect width="285" height="285" fill="white"/>
</clipPath>
</defs>
</svg>
