<svg id="Capa_1" enable-background="new 0 0 512 512" height="512" viewBox="0 0 512 512" width="512" xmlns="http://www.w3.org/2000/svg"><path d="m512 104.828v-20.608c0-16.689-13.577-30.266-30.266-30.266h-.067v-12.964c11.024-.329 19.895-9.377 19.895-20.479 0-11.31-9.201-20.51-20.51-20.51h-101.561c-11.31 0-20.51 9.201-20.51 20.51 0 11.102 8.871 20.15 19.895 20.479v12.965h-146.799c-4.142 0-7.5 3.358-7.5 7.5s3.358 7.5 7.5 7.5h249.657c8.418 0 15.266 6.848 15.266 15.266v20.608c0 8.418-6.848 15.266-15.266 15.266h-451.468c-8.418 0-15.266-6.848-15.266-15.266v-74.563c0-8.418 6.848-15.266 15.266-15.266h80.152c4.726 0 9.26 2.241 12.129 5.996l27.567 36.071c5.689 7.444 14.679 11.888 24.047 11.888h27.914c4.142 0 7.5-3.358 7.5-7.5s-3.358-7.5-7.5-7.5h-27.914c-4.726 0-9.26-2.241-12.129-5.996l-27.567-36.071c-5.688-7.444-14.678-11.888-24.047-11.888h-80.152c-16.689 0-30.266 13.577-30.266 30.266v74.562c0 14.101 9.693 25.979 22.766 29.324v297.649c-13.073 3.346-22.766 15.224-22.766 29.325v20.608c0 16.689 13.577 30.266 30.266 30.266h451.468c16.689 0 30.266-13.577 30.266-30.266v-20.608c0-14.101-9.693-25.979-22.766-29.324v-297.649c13.073-3.346 22.766-15.224 22.766-29.325zm-138.02-84.318c0-3.039 2.472-5.51 5.51-5.51h101.561c3.039 0 5.51 2.472 5.51 5.51s-2.472 5.51-5.51 5.51h-6.885-87.791-6.885c-3.038.001-5.51-2.471-5.51-5.51zm19.895 33.444v-12.933h72.791v12.933zm57.737 376.906v-295.766h22.622v295.766zm-45.122-46.66c-4.142 0-7.5 3.358-7.5 7.5v39.16h-22.62v-79.474c11.521-20.192 18.112-43.544 18.112-68.409s-6.592-48.217-18.112-68.409v-79.474h22.62v226.606c0 4.142 3.358 7.5 7.5 7.5s7.5-3.358 7.5-7.5v-226.606h22.622v295.766h-22.622v-39.16c0-4.142-3.358-7.5-7.5-7.5zm-368.724 46.66v-295.766h22.622v295.766zm37.622-295.766h22.623v295.766h-22.623zm37.623 0h22.619v79.474c-11.521 20.192-18.112 43.544-18.112 68.409s6.592 48.217 18.112 68.409v79.474h-22.619zm142.989 271.365c-68.088 0-123.482-55.394-123.482-123.482s55.394-123.482 123.482-123.482 123.482 55.394 123.482 123.482-55.394 123.482-123.482 123.482zm82.74-234.463v-36.901h22.63v58.131c-6.727-7.887-14.316-15.016-22.63-21.23zm-15-9.763c-7.171-4.039-14.734-7.459-22.62-10.184v-16.954h22.62zm-37.62-14.43c-7.34-1.635-14.896-2.69-22.62-3.104v-9.605h22.62zm-37.62-3.103c-7.724.414-15.28 1.469-22.62 3.104v-12.709h22.62zm-37.62 7.348c-7.886 2.725-15.449 6.145-22.62 10.184v-27.138h22.62zm-37.62 19.948c-8.314 6.214-15.903 13.344-22.63 21.23v-58.131h22.63zm-22.63 200.732c6.727 7.886 14.316 15.016 22.63 21.23v36.902h-22.63zm37.63 30.993c7.171 4.039 14.734 7.459 22.62 10.184v16.954h-22.62zm37.62 14.43c7.34 1.635 14.896 2.69 22.62 3.104v9.605h-22.62zm37.62 3.104c7.724-.414 15.28-1.469 22.62-3.104v12.709h-22.62zm37.62-7.349c7.886-2.725 15.449-6.145 22.62-10.184v27.138h-22.62zm37.62-19.948c8.314-6.214 15.903-13.344 22.63-21.23v58.132h-22.63zm158.26 67.168v20.608c0 8.418-6.848 15.266-15.266 15.266h-451.468c-8.418 0-15.266-6.848-15.266-15.266v-20.608c0-8.418 6.848-15.266 15.266-15.266h451.468c8.418 0 15.266 6.848 15.266 15.266z"/><path d="m75.45 28.992c-21.26 0-38.556 17.296-38.556 38.556s17.296 38.555 38.556 38.555 38.556-17.296 38.556-38.555c-.001-21.26-17.297-38.556-38.556-38.556zm0 62.111c-12.989 0-23.556-10.567-23.556-23.555s10.567-23.556 23.556-23.556 23.556 10.567 23.556 23.556-10.568 23.555-23.556 23.555z"/><path d="m357.854 232.323c-7.021-17.873-20.713-30.139-37.565-33.652-11.613-2.422-22.846.099-29.321 6.575-6.221 6.22-8.168 15.398-10.229 25.114-1.849 8.717-3.754 17.672-8.685 25.063-2.683-1.569-5.614-2.756-8.719-3.49-1.255-26.237-9.917-55.854-27.569-67.884-9.059-6.173-19.577-7.186-30.418-2.926-17.873 7.021-30.138 20.713-33.652 37.564-2.42 11.61.099 22.846 6.575 29.322 6.22 6.221 15.398 8.168 25.115 10.229 8.717 1.849 17.672 3.754 25.062 8.685-1.569 2.683-2.756 5.614-3.49 8.72-26.237 1.255-55.853 9.917-67.884 27.569-6.174 9.059-7.186 19.577-2.926 30.418 7.021 17.873 20.713 30.139 37.565 33.652 2.917.608 5.811.905 8.611.905 8.345 0 15.862-2.631 20.71-7.48 6.221-6.22 8.168-15.398 10.229-25.114 1.849-8.717 3.754-17.672 8.685-25.063 2.683 1.569 5.614 2.756 8.719 3.49 1.255 26.237 9.917 55.853 27.569 67.884 5.383 3.669 11.282 5.515 17.458 5.515 4.216 0 8.562-.86 12.96-2.588 17.873-7.021 30.139-20.713 33.652-37.565 2.42-11.61-.099-22.845-6.575-29.321-6.22-6.221-15.398-8.168-25.115-10.229-8.717-1.85-17.672-3.754-25.062-8.685 1.569-2.683 2.756-5.614 3.49-8.72 26.237-1.255 55.853-9.917 67.884-27.569 6.174-9.059 7.185-19.577 2.926-30.419zm-168.979 5.08c-2.373-2.373-4.065-8.134-2.497-15.654 1.165-5.586 5.879-19.368 24.452-26.665 6.186-2.43 11.578-1.985 16.486 1.36 11.297 7.7 19.738 30.449 21.011 55.568-3.361.833-6.511 2.202-9.359 4.008-10.333-7.737-22.447-10.327-32.471-12.454-7.48-1.587-14.545-3.086-17.622-6.163zm27.714 95.077c-1.587 7.48-3.086 14.545-6.163 17.622-2.373 2.373-8.132 4.065-15.654 2.498-5.586-1.165-19.369-5.879-26.666-24.452-2.43-6.186-1.985-11.578 1.36-16.486 7.7-11.297 30.449-19.738 55.567-21.011.833 3.361 2.202 6.511 4.008 9.359-7.735 10.332-10.325 22.446-12.452 32.47zm22.507-49.503c0-9.321 7.583-16.904 16.904-16.904s16.904 7.583 16.904 16.904-7.583 16.904-16.904 16.904-16.904-7.583-16.904-16.904zm84.029 45.574c2.373 2.373 4.065 8.133 2.497 15.653-1.165 5.587-5.878 19.369-24.452 26.666-6.185 2.429-11.578 1.985-16.486-1.36-11.297-7.7-19.738-30.449-21.011-55.567 3.361-.833 6.511-2.202 9.359-4.008 10.333 7.737 22.446 10.327 32.471 12.454 7.48 1.587 14.545 3.086 17.622 6.162zm19.408-74.257c-7.7 11.297-30.448 19.737-55.567 21.01-.833-3.361-2.202-6.511-4.008-9.359 7.737-10.333 10.327-22.446 12.454-32.471 1.587-7.479 3.086-14.544 6.163-17.621 2.373-2.373 8.133-4.066 15.654-2.498 5.586 1.165 19.369 5.879 26.666 24.452 2.428 6.186 1.983 11.579-1.362 16.487z"/></svg>