<?xml version="1.0" encoding="iso-8859-1"?>
<!-- Generator: Adobe Illustrator 19.0.0, SVG Export Plug-In . SVG Version: 6.00 Build 0)  -->
<svg version="1.1" id="Layer_1" xmlns="http://www.w3.org/2000/svg" xmlns:xlink="http://www.w3.org/1999/xlink" x="0px" y="0px"
	 viewBox="0 0 389.12 389.12" style="enable-background:new 0 0 389.12 389.12;" xml:space="preserve">
<g>
	<g>
		<g>
			<path d="M194.56,0C87.04,0,0,87.04,0,194.56s87.552,194.56,194.56,194.56c107.52,0,194.56-87.04,194.56-194.56
				S301.568,0,194.56,0z M377.449,218.144l-33.385-10.272c-1.024-0.512-2.56,0-3.072,1.536c-0.512,1.024,0,2.56,1.536,3.072
				l34.251,10.539c-4.666,30.75-16.917,58.988-34.784,82.758l-42.681-46.165c10.04-16.326,16.373-35.145,17.809-55.264l11.582,3.525
				h0.512c1.024,0,2.048-0.512,2.56-1.536c0.512-1.024,0-2.56-1.536-3.072l-11.776-3.584c-0.329-0.164-0.711-0.211-1.094-0.165
				c0.042-1.306,0.07-2.615,0.07-3.931c0-19.273-4.502-37.542-12.498-53.819l61.453-13.556c8.058,20.724,12.485,43.27,12.485,66.863
				C378.88,202.887,378.39,210.586,377.449,218.144z M194.56,308.224c-61.952,0-112.64-50.688-112.64-112.64
				s50.176-112.64,112.64-112.64c61.952,0,112.64,50.688,112.64,112.64S256.512,308.224,194.56,308.224z M215.973,11.994
				L203.776,51.2c-0.512,1.024,0,2.56,1.536,3.072h0.512c1.024,0,2.048-0.512,2.56-1.536l12.479-40.112
				c31.247,4.455,59.958,16.717,84.084,34.77L289.792,61.44c-1.024,1.024-1.024,2.56,0,3.584c0.512,0.512,1.536,1.024,2.048,1.024
				c0.512,0,1.024-0.512,1.536-1.024l15.635-14.491c24.08,19.085,43.274,44.06,55.402,72.768l-61.956,13.667
				c-9.576-17.503-23.289-32.454-39.798-43.52l10.237-9.479c1.024-1.024,1.024-2.56,0-3.584c-1.024-1.024-2.56-1.024-3.584,0
				l-11.058,10.238c-16.656-10.171-35.891-16.485-56.439-17.697l1.449-4.83c0.512-1.024,0-2.56-1.536-3.072
				c-1.024-0.512-2.56,0-3.072,1.536l-1.852,6.173c-0.747-0.014-1.494-0.029-2.244-0.029c-20.089,0-39.093,4.887-55.881,13.529
				l-13.823-61.771c21.531-8.831,45.07-13.71,69.704-13.71C201.805,10.752,208.948,11.183,215.973,11.994z M119.973,26.545
				l13.937,62.282c-17.482,9.999-32.307,24.165-43.097,41.122l-7.357-8.093c-1.024-1.024-2.56-1.024-3.584,0s-1.024,2.56,0,3.584
				l8.199,9.019c-9.747,16.868-15.594,36.235-16.308,56.848L11.6,172.696C19.555,107.179,61.975,52.317,119.973,26.545z
				 M26.869,271.518l19.723-4.254c1.536-0.512,2.56-1.536,2.048-3.072c-0.512-1.536-1.536-2.56-3.072-2.048l-20.855,4.498
				c-9.321-22.033-14.473-46.225-14.473-71.57c0-5.889,0.289-11.71,0.831-17.457l60.619,18.753
				c0.128,20.4,5.247,39.659,14.212,56.595l-24.974,5.598c-1.536,0.512-2.56,1.536-2.048,3.072c0.512,1.024,1.536,2.048,2.56,2.048
				h0.512l26.603-5.963c9.863,16.789,23.597,31.05,40.002,41.525l-45.795,42.272C58.839,323.2,39.529,299.177,26.869,271.518z
				 M194.56,379.392c-6.479,0-12.879-0.339-19.184-0.993l10.48-33.823c0.512-1.024,0-2.56-1.536-3.072
				c-1.024-0.512-2.56,0-3.072,1.536l-10.777,34.78c-30.817-4.036-59.227-15.705-83.297-33.024l45.895-42.806
				c18.063,10.468,39.054,16.474,61.491,16.474c19.85,0,38.637-4.775,55.278-13.226l3.602,16.81c0.512,1.024,1.536,2.048,2.56,2.048
				h0.512c1.536-0.512,2.56-1.536,2.048-3.072l-3.933-18.355c16.764-9.468,31.12-22.752,41.855-38.659l42.367,45.825
				C305.095,352.233,253.036,379.392,194.56,379.392z"/>
			<path d="M194.56,93.184c-56.32,0-101.888,45.568-101.888,101.888S138.24,296.96,194.56,296.96s101.888-45.568,101.888-101.888
				S250.88,93.184,194.56,93.184z M194.56,291.84c-53.248,0-96.768-43.52-96.768-96.768S140.8,98.304,194.56,98.304
				c53.248,0,96.768,43.52,96.768,96.768S247.808,291.84,194.56,291.84z"/>
			<path d="M189.952,324.608c-1.024-0.512-2.56,0-3.072,1.536l-1.536,5.12c-0.512,1.024,0,2.56,1.536,3.072h0.512
				c1.024,0,2.048-0.512,2.56-1.536l1.536-5.12C192,326.656,191.488,325.12,189.952,324.608z"/>
			<path d="M276.48,79.872c1.024,0,1.536,0,1.536-1.024l5.12-4.608c1.024-1.024,1.024-2.56,0-3.584c-1.024-1.024-2.56-1.024-3.584,0
				l-5.12,4.608c-1.024,1.024-1.024,2.56,0,3.584C274.944,79.36,275.968,79.872,276.48,79.872z"/>
			<path d="M54.272,97.28c0.512,0.512,1.536,1.024,2.048,1.024c0.512,0,1.024,0,1.536-0.512c1.024-1.024,1.024-2.56,0-3.584
				l-3.072-3.584c-1.024-1.024-2.56-1.024-3.584,0c-1.024,1.024-1.024,2.56,0,3.584L54.272,97.28z"/>
			<path d="M69.632,114.176c0.512,0.512,1.536,1.024,2.048,1.024s1.024,0,1.536-1.024c1.024-1.024,1.024-2.56,0-3.584l-5.12-5.632
				c-1.024-1.024-2.56-1.024-3.584,0c-1.024,1.024-1.024,2.56,0,3.584L69.632,114.176z"/>
			<path d="M262.656,337.92c-0.512-1.536-1.536-2.56-3.072-2.048c-1.536,0.512-2.56,1.536-2.048,3.072l2.048,10.24
				c0.512,1.024,1.536,2.048,2.56,2.048h0.512c1.536-0.512,2.56-1.536,2.048-3.072L262.656,337.92z"/>
			<path d="M219.648,220.16c2.048-2.048,2.048-5.12,0-7.168l-3.585-3.585c1.788-2.771,3.052-5.893,3.667-9.215h5.55
				c3.072,0,5.12-2.048,5.12-5.12c0-3.072-2.048-5.12-5.12-5.12h-5.787c-0.746-3.152-2.096-6.106-3.919-8.726l4.074-4.074
				c2.048-2.048,2.048-5.12,0-7.168c-2.048-2.048-5.12-2.048-7.168,0l-4.175,4.175c-2.609-1.71-5.524-2.965-8.625-3.63v-6.177
				c0-3.072-2.048-5.12-5.12-5.12c-3.072,0-5.12,2.048-5.12,5.12v6.177c-3.101,0.665-6.016,1.92-8.625,3.63l-4.175-4.175
				c-2.048-2.048-5.12-2.048-7.168,0c-2.048,2.048-2.048,5.12,0,7.168l4.074,4.074c-1.823,2.619-3.172,5.573-3.919,8.726h-5.788
				c-3.072,0-5.12,2.048-5.12,5.12c0,3.072,2.048,5.12,5.12,5.12h5.55c0.615,3.322,1.879,6.444,3.667,9.215l-3.585,3.585
				c-2.048,2.048-2.048,5.12,0,7.168c1.024,1.024,2.048,1.536,3.584,1.536c1.024,0,2.56-0.512,3.584-1.536l3.468-3.468
				c2.758,1.902,5.913,3.28,9.332,3.977v5.124c0,3.072,2.048,5.12,5.12,5.12c3.072,0,5.12-2.048,5.12-5.12v-5.124
				c3.418-0.696,6.573-2.074,9.332-3.977l3.468,3.468c1.024,1.024,2.048,1.536,3.584,1.536
				C217.6,221.696,219.136,221.184,219.648,220.16z M179.2,195.584c0-8.192,6.656-15.36,15.36-15.36s15.36,7.168,15.36,15.36
				c0,8.192-7.168,15.36-15.36,15.36S179.2,203.776,179.2,195.584z"/>
			<path d="M231.424,126.976h-1.536c-0.512-0.512-1.024-0.512-1.024-0.512c-1.536,0-2.56,0.512-3.584,1.536l-5.12,5.12
				c-2.048,2.048-2.048,5.12,0,7.168l29.184,29.184c1.024,1.024,2.56,1.536,3.584,1.536c1.536,0,2.56-0.512,3.584-1.536l5.12-5.12
				c1.024-1.024,1.536-2.56,1.536-4.096v-1.536C261.12,141.824,248.32,129.024,231.424,126.976z M257.536,160.256l-5.12,5.12
				l-29.184-29.184l5.632-4.608h1.536c14.336,1.536,25.6,12.8,27.136,27.136V160.256z"/>
			<path d="M139.776,220.16c-0.512-0.512-2.048-1.024-3.072-1.024c-1.536,0-2.56,0.512-3.584,1.536l-5.12,5.12
				c-1.024,1.024-1.536,2.56-1.536,4.096v1.536c2.048,16.896,14.848,29.696,31.744,31.744h1.536h0.512
				c1.536,0,2.56-0.512,3.584-1.536l5.12-5.12c2.048-2.048,2.048-5.12,0-7.168L139.776,220.16z M160.768,258.56h-1.536
				c-14.336-1.536-25.6-12.8-27.136-27.136v-1.536l4.608-5.632l29.184,29.184L160.768,258.56z"/>
			<path d="M133.12,168.96c1.024,1.024,2.56,1.536,3.584,1.536c1.536,0,2.56-0.512,3.584-1.536l29.184-29.184
				c2.048-2.048,2.048-5.12,0-7.168l-5.12-5.12c-1.536-0.512-2.56-1.024-4.096-1.024h-0.512h-1.536
				c-16.896,2.048-29.696,14.848-31.744,31.744v1.536c0,1.536,0.512,3.072,1.536,4.096L133.12,168.96z M131.072,159.232
				c1.536-14.336,12.8-25.6,27.136-27.136l2.048-0.512l5.12,5.12l-29.184,29.184l-5.12-5.12V159.232z"/>
			<path d="M255.488,221.184c-0.512-1.536-1.536-2.048-3.072-2.048c-1.536,0-2.56,0.512-3.584,1.536l-29.184,29.184
				c-2.048,2.048-2.048,5.12,0,7.168l5.12,5.12c1.024,1.024,2.048,1.536,3.584,1.536h0.512h1.536
				c16.896-2.048,29.696-14.848,31.744-31.744V230.4c0-1.536-0.512-3.072-1.536-4.096L255.488,221.184z M257.536,230.912
				c-1.536,14.336-12.8,25.6-27.136,27.136h-1.536l-5.12-5.12l28.672-28.672l5.12,5.12V230.912z"/>
			<path d="M168.96,48.64c3.584,0,6.656-3.072,6.656-6.656c0-3.584-3.072-6.656-6.656-6.656c-3.584,0-6.656,3.072-6.656,6.656
				C162.304,45.568,165.376,48.64,168.96,48.64z"/>
			<path d="M220.16,342.528c-3.584,0-6.656,3.072-6.656,6.656s3.072,6.656,6.656,6.656c3.584,0,6.656-3.072,6.656-6.656
				S223.744,342.528,220.16,342.528z"/>
			<path d="M245.76,55.296c1.024,0.512,2.56,1.024,3.584,1.024c2.048,0,4.608-1.024,5.632-3.584c1.536-3.072,0.512-7.168-2.56-9.216
				c-3.072-1.536-7.168-0.512-9.216,2.56c-0.512,1.536-1.024,3.584-0.512,5.12C243.2,52.736,244.224,54.272,245.76,55.296z"/>
			<path d="M142.848,335.36c-3.072-1.536-7.168-0.512-9.216,2.56c-1.536,3.072-0.512,7.168,2.56,9.216
				c1.024,0.512,2.56,1.024,3.584,1.024c2.56,0,4.608-1.536,5.632-3.584c0.512-1.536,1.024-3.584,0.512-5.12
				C145.408,337.92,144.384,336.384,142.848,335.36z"/>
			<path d="M314.88,103.424c1.024,0,2.048-0.512,3.584-1.024c1.536-1.024,2.56-2.56,3.072-4.096c0.512-1.536,0.512-3.584-0.512-5.12
				c-1.536-3.072-6.144-4.608-9.216-2.56c-1.536,1.024-2.56,2.56-3.072,4.096c-0.512,1.536-0.512,3.584,0.512,5.12
				C310.272,101.888,312.32,103.424,314.88,103.424z"/>
			<path d="M80.384,290.816c-1.536-3.072-6.144-4.608-9.216-2.56c-3.072,2.048-4.608,6.144-2.56,9.216
				c1.024,2.048,3.072,3.584,5.632,3.584c1.536,0,2.56,0,3.584-1.024c1.536-1.024,2.56-2.56,3.072-4.096
				C81.408,294.4,81.408,292.352,80.384,290.816z"/>
			<path d="M348.16,163.328c-3.584,0-6.656,3.072-6.656,6.656c0,3.584,3.072,6.656,6.656,6.656s6.656-3.072,6.656-6.656
				C354.816,166.4,351.744,163.328,348.16,163.328z"/>
			<path d="M40.96,214.528c-3.584,0-6.656,3.072-6.656,6.656c0,3.584,3.072,6.656,6.656,6.656c3.584,0,6.656-3.072,6.656-6.656
				C47.616,217.6,44.544,214.528,40.96,214.528z"/>
			<path d="M334.336,246.784c-0.512,1.536-1.024,3.584-0.512,5.12c0.512,1.536,1.536,3.072,3.072,4.096
				c1.024,0.512,2.56,1.024,3.584,1.024c2.56,0,4.608-1.536,5.632-3.584c0.512-1.536,1.024-3.584,0.512-5.12
				c-0.512-1.536-1.536-3.072-3.072-4.096C340.48,242.688,335.872,243.712,334.336,246.784z"/>
			<path d="M41.984,142.336c0.512,1.536,1.536,3.072,3.072,4.096c1.024,0.512,2.56,1.024,3.584,1.024
				c2.56,0,4.608-1.024,5.632-3.584c0.512-1.536,1.024-3.584,0.512-5.12s-1.536-3.072-3.072-4.096
				c-3.072-1.536-7.168-0.512-9.216,2.56C41.984,138.752,41.472,140.8,41.984,142.336z"/>
			<path d="M290.304,309.76c-3.072,2.048-4.608,6.144-2.56,9.216c1.024,2.048,3.072,3.584,5.632,3.584
				c1.536,0,2.56-0.512,3.584-1.024c1.536-1.024,2.56-2.56,3.072-4.096c0.512-1.536,0.512-3.584-0.512-5.12
				C297.984,309.248,293.376,307.712,290.304,309.76z"/>
			<path d="M95.744,81.92c1.024,0,2.048,0,3.584-1.024c3.072-2.048,4.608-6.144,2.56-9.216c-1.536-3.072-6.144-4.608-9.216-2.56
				c-1.536,1.024-2.56,2.56-3.072,4.096c-0.512,1.536-0.512,3.584,0.512,5.12C91.136,80.384,93.184,81.92,95.744,81.92z"/>
		</g>
	</g>
</g>
<g>
</g>
<g>
</g>
<g>
</g>
<g>
</g>
<g>
</g>
<g>
</g>
<g>
</g>
<g>
</g>
<g>
</g>
<g>
</g>
<g>
</g>
<g>
</g>
<g>
</g>
<g>
</g>
<g>
</g>
</svg>
