<svg width="244" height="244" viewBox="0 0 244 244" fill="none" xmlns="http://www.w3.org/2000/svg">
<path d="M122 0C54.5789 0 0 54.5789 0 122C0 189.421 54.9 244 122 244C189.421 244 244 189.421 244 122C244 54.5789 189.1 0 122 0ZM236.682 136.788L215.747 130.347C215.105 130.026 214.142 130.347 213.821 131.311C213.5 131.953 213.821 132.916 214.784 133.237L236.262 139.845C233.336 159.127 225.654 176.834 214.45 191.739L187.687 162.791C193.982 152.554 197.953 140.753 198.854 128.138L206.116 130.348H206.437C207.08 130.348 207.722 130.027 208.043 129.385C208.364 128.743 208.043 127.78 207.08 127.459L199.695 125.211C199.489 125.108 199.25 125.079 199.009 125.108C199.036 124.289 199.053 123.468 199.053 122.643C199.053 110.557 196.23 99.1018 191.216 88.8952L229.751 80.3948C234.804 93.39 237.58 107.528 237.58 122.322C237.579 127.222 237.272 132.049 236.682 136.788ZM122 193.274C83.1526 193.274 51.3684 161.489 51.3684 122.642C51.3684 83.7947 82.8316 52.0105 122 52.0105C160.847 52.0105 192.632 83.7947 192.632 122.642C192.632 161.489 160.847 193.274 122 193.274ZM135.427 7.52091L127.779 32.1053C127.458 32.7474 127.779 33.7105 128.742 34.0316H129.063C129.705 34.0316 130.347 33.7105 130.668 33.0684L138.493 7.91595C158.087 10.7095 176.09 18.3984 191.219 29.7187L181.716 38.5263C181.074 39.1684 181.074 40.1316 181.716 40.7737C182.037 41.0947 182.679 41.4158 183 41.4158C183.321 41.4158 183.642 41.0947 183.963 40.7737L193.767 31.687C208.867 43.6544 220.902 59.3151 228.507 77.3166L189.657 85.8866C183.653 74.9112 175.054 65.5361 164.702 58.5971L171.121 52.6533C171.763 52.0112 171.763 51.048 171.121 50.4059C170.479 49.7638 169.516 49.7638 168.874 50.4059L161.94 56.8257C151.495 50.4479 139.434 46.4887 126.549 45.7287L127.458 42.7C127.779 42.0579 127.458 41.0947 126.495 40.7737C125.853 40.4526 124.889 40.7737 124.568 41.7368L123.407 45.6077C122.939 45.5989 122.47 45.5895 122 45.5895C109.403 45.5895 97.4865 48.6539 86.9595 54.0729L78.2917 15.339C91.7928 9.80151 106.553 6.74211 122 6.74211C126.543 6.74211 131.022 7.01237 135.427 7.52091ZM75.2298 16.6452L83.9691 55.6995C73.0069 61.9694 63.7108 70.8523 56.9448 81.4853L52.3316 76.4105C51.6895 75.7684 50.7263 75.7684 50.0842 76.4105C49.4421 77.0526 49.4421 78.0158 50.0842 78.6579L55.2254 84.3133C49.1135 94.8905 45.4471 107.035 44.9994 119.96L7.27385 108.29C12.2621 67.2072 38.8618 32.8057 75.2298 16.6452ZM16.8484 170.257L29.2158 167.589C30.1789 167.268 30.8211 166.626 30.5 165.663C30.1789 164.7 29.5368 164.058 28.5737 164.379L15.4964 167.199C9.65164 153.384 6.42105 138.214 6.42105 122.321C6.42105 118.628 6.60227 114.978 6.94214 111.375L44.9536 123.134C45.0339 135.926 48.2438 148.002 53.8654 158.622L38.2053 162.132C37.2421 162.453 36.6 163.095 36.9211 164.059C37.2421 164.701 37.8842 165.343 38.5263 165.343H38.8474L55.5289 161.604C61.7136 172.131 70.3256 181.074 80.6124 187.642L51.8964 214.149C36.8953 202.664 24.7869 187.601 16.8484 170.257ZM122 237.9C117.937 237.9 113.924 237.687 109.971 237.277L116.542 216.068C116.863 215.426 116.542 214.463 115.579 214.142C114.937 213.821 113.974 214.142 113.653 215.105L106.895 236.914C87.5709 234.383 69.7562 227.066 54.663 216.206L83.4417 189.365C94.7682 195.929 107.931 199.695 122 199.695C134.447 199.695 146.228 196.701 156.662 191.401L158.921 201.942C159.242 202.584 159.884 203.226 160.526 203.226H160.847C161.811 202.905 162.453 202.263 162.132 201.3L159.665 189.79C170.177 183.853 179.179 175.524 185.911 165.549L212.477 194.284C191.312 220.87 158.668 237.9 122 237.9Z" fill="black"/>
<path d="M122 58.4316C86.6843 58.4316 58.1106 87.0053 58.1106 122.321C58.1106 157.637 86.6843 186.211 122 186.211C157.316 186.211 185.89 157.637 185.89 122.321C185.89 87.0053 157.316 58.4316 122 58.4316ZM122 183C88.6106 183 61.3211 155.711 61.3211 122.321C61.3211 88.9316 88.2895 61.6422 122 61.6422C155.39 61.6422 182.679 88.9316 182.679 122.321C182.679 155.711 155.39 183 122 183Z" fill="#F0BC5E"/>
<path d="M119.11 203.547C118.468 203.226 117.505 203.547 117.184 204.511L116.221 207.721C115.9 208.363 116.221 209.326 117.184 209.647H117.505C118.147 209.647 118.789 209.326 119.11 208.684L120.074 205.474C120.395 204.832 120.074 203.868 119.11 203.547Z" fill="black"/>
<path d="M173.368 50.0843C174.01 50.0843 174.331 50.0843 174.331 49.4421L177.542 46.5527C178.184 45.9106 178.184 44.9474 177.542 44.3053C176.9 43.6632 175.937 43.6632 175.295 44.3053L172.084 47.1948C171.442 47.8369 171.442 48.8 172.084 49.4421C172.405 49.7632 173.047 50.0843 173.368 50.0843Z" fill="black"/>
<path d="M34.0317 61C34.3527 61.321 34.9948 61.6421 35.3159 61.6421C35.6369 61.6421 35.958 61.6421 36.279 61.321C36.9211 60.6789 36.9211 59.7158 36.279 59.0737L34.3527 56.8263C33.7106 56.1842 32.7475 56.1842 32.1054 56.8263C31.4633 57.4684 31.4633 58.4316 32.1054 59.0737L34.0317 61Z" fill="black"/>
<path d="M43.6633 71.5948C43.9843 71.9158 44.6265 72.2369 44.9475 72.2369C45.2686 72.2369 45.5896 72.2369 45.9107 71.5948C46.5528 70.9526 46.5528 69.9895 45.9107 69.3474L42.7001 65.8158C42.058 65.1737 41.0949 65.1737 40.4528 65.8158C39.8107 66.4579 39.8107 67.4211 40.4528 68.0632L43.6633 71.5948Z" fill="black"/>
<path d="M164.7 211.895C164.379 210.932 163.737 210.29 162.774 210.611C161.811 210.932 161.168 211.574 161.49 212.537L162.774 218.958C163.095 219.6 163.737 220.242 164.379 220.242H164.7C165.663 219.921 166.305 219.279 165.984 218.316L164.7 211.895Z" fill="black"/>
<path d="M137.732 138.053C139.016 136.768 139.016 134.842 137.732 133.558L135.484 131.31C136.605 129.572 137.397 127.615 137.783 125.532H141.263C143.189 125.532 144.474 124.247 144.474 122.321C144.474 120.395 143.189 119.111 141.263 119.111H137.634C137.167 117.134 136.32 115.282 135.177 113.639L137.732 111.084C139.016 109.8 139.016 107.874 137.732 106.59C136.447 105.305 134.521 105.305 133.237 106.59L130.619 109.207C128.983 108.135 127.155 107.348 125.21 106.931V103.058C125.21 101.132 123.926 99.8474 122 99.8474C120.074 99.8474 118.789 101.132 118.789 103.058V106.931C116.845 107.348 115.017 108.135 113.381 109.207L110.763 106.59C109.479 105.305 107.553 105.305 106.268 106.59C104.984 107.874 104.984 109.8 106.268 111.084L108.823 113.639C107.68 115.281 106.834 117.133 106.366 119.111H102.736C100.81 119.111 99.5256 120.395 99.5256 122.321C99.5256 124.247 100.81 125.532 102.736 125.532H106.216C106.602 127.615 107.395 129.572 108.516 131.31L106.268 133.558C104.984 134.842 104.984 136.768 106.268 138.053C106.91 138.695 107.552 139.016 108.515 139.016C109.157 139.016 110.12 138.695 110.762 138.053L112.937 135.878C114.667 137.071 116.645 137.935 118.789 138.372V141.585C118.789 143.511 120.073 144.795 121.999 144.795C123.926 144.795 125.21 143.511 125.21 141.585V138.372C127.353 137.935 129.331 137.071 131.062 135.878L133.236 138.053C133.878 138.695 134.52 139.016 135.484 139.016C136.447 139.016 137.41 138.695 137.732 138.053ZM112.368 122.642C112.368 117.505 116.542 113.011 122 113.011C127.458 113.011 131.632 117.505 131.632 122.642C131.632 127.779 127.137 132.274 122 132.274C116.863 132.274 112.368 127.779 112.368 122.642Z" fill="#F0BC5E"/>
<path d="M145.116 79.6211H144.153C143.832 79.3 143.511 79.3 143.511 79.3C142.547 79.3 141.905 79.6211 141.263 80.2632L138.053 83.4737C136.769 84.7579 136.769 86.6843 138.053 87.9685L156.353 106.268C156.995 106.911 157.958 107.232 158.6 107.232C159.563 107.232 160.205 106.911 160.847 106.268L164.058 103.058C164.7 102.416 165.021 101.453 165.021 100.49V99.5264C163.737 88.9316 155.711 80.9053 145.116 79.6211ZM161.49 100.49L158.279 103.7L139.979 85.4001L143.511 82.5106H144.474C153.463 83.4737 160.526 90.5369 161.49 99.5264V100.49Z" fill="black"/>
<path d="M87.6474 138.053C87.3264 137.732 86.3632 137.411 85.7211 137.411C84.7579 137.411 84.1158 137.732 83.4737 138.374L80.2632 141.584C79.6211 142.226 79.3 143.19 79.3 144.153V145.116C80.5843 155.711 88.6106 163.737 99.2053 165.021H100.168H100.49C101.453 165.021 102.095 164.7 102.737 164.058L105.947 160.847C107.232 159.563 107.232 157.637 105.947 156.353L87.6474 138.053ZM100.811 162.132H99.8474C90.8579 161.169 83.7948 154.105 82.8316 145.116V144.153L85.7211 140.621L104.021 158.921L100.811 162.132Z" fill="black"/>
<path d="M83.4737 105.947C84.1158 106.59 85.079 106.911 85.7211 106.911C86.6843 106.911 87.3264 106.59 87.9685 105.947L106.268 87.6474C107.553 86.3632 107.553 84.4369 106.268 83.1527L103.058 79.9422C102.095 79.6211 101.453 79.3 100.49 79.3H100.168H99.2053C88.6106 80.5843 80.5843 88.6106 79.3 99.2053V100.168C79.3 101.132 79.6211 102.095 80.2632 102.737L83.4737 105.947ZM82.1895 99.8474C83.1527 90.8579 90.2158 83.7948 99.2053 82.8316L100.49 82.5106L103.7 85.7211L85.4001 104.021L82.1895 100.811V99.8474Z" fill="black"/>
<path d="M160.205 138.695C159.884 137.732 159.242 137.411 158.279 137.411C157.316 137.411 156.674 137.732 156.031 138.374L137.731 156.674C136.447 157.958 136.447 159.884 137.731 161.169L140.942 164.379C141.584 165.021 142.226 165.342 143.189 165.342H143.51H144.474C155.068 164.058 163.095 156.032 164.379 145.437V144.474C164.379 143.511 164.058 142.547 163.416 141.905L160.205 138.695ZM161.489 144.795C160.526 153.784 153.463 160.847 144.474 161.811H143.51L140.3 158.6L158.279 140.621L161.489 143.832V144.795Z" fill="black"/>
<path d="M105.947 30.5C108.195 30.5 110.121 28.5736 110.121 26.3263C110.121 24.0789 108.195 22.1526 105.947 22.1526C103.7 22.1526 101.774 24.0789 101.774 26.3263C101.774 28.5736 103.7 30.5 105.947 30.5Z" fill="#F0BC5E"/>
<path d="M138.053 214.784C135.805 214.784 133.879 216.71 133.879 218.958C133.879 221.205 135.805 223.132 138.053 223.132C140.3 223.132 142.226 221.205 142.226 218.958C142.226 216.71 140.3 214.784 138.053 214.784Z" fill="#F0BC5E"/>
<path d="M154.105 34.6736C154.747 34.9947 155.71 35.3157 156.353 35.3157C157.637 35.3157 159.242 34.6736 159.884 33.0684C160.847 31.1421 160.205 28.5736 158.279 27.2894C156.353 26.3263 153.784 26.9684 152.5 28.8947C152.179 29.8579 151.858 31.1421 152.179 32.1052C152.5 33.0684 153.142 34.0315 154.105 34.6736Z" fill="#F0BC5E"/>
<path d="M89.5737 210.289C87.6474 209.326 85.079 209.968 83.7948 211.895C82.8316 213.821 83.4737 216.389 85.4001 217.674C86.0422 217.995 87.0053 218.316 87.6474 218.316C89.2527 218.316 90.5369 217.353 91.179 216.068C91.5001 215.105 91.8211 213.821 91.5001 212.858C91.179 211.895 90.5369 210.932 89.5737 210.289Z" fill="#F0BC5E"/>
<path d="M197.447 64.8528C198.089 64.8528 198.732 64.5317 199.695 64.2107C200.658 63.5685 201.3 62.6054 201.621 61.6422C201.942 60.6791 201.942 59.3949 201.3 58.4317C200.337 56.5054 197.447 55.5422 195.521 56.8264C194.558 57.4685 193.916 58.4317 193.595 59.3949C193.274 60.358 193.274 61.6422 193.916 62.6054C194.558 63.8896 195.842 64.8528 197.447 64.8528Z" fill="#F0BC5E"/>
<path d="M50.4052 182.358C49.4421 180.432 46.5526 179.468 44.6263 180.753C42.7 182.037 41.7368 184.605 43.021 186.532C43.6631 187.816 44.9473 188.779 46.5526 188.779C47.5158 188.779 48.1579 188.779 48.8 188.137C49.7631 187.495 50.4052 186.532 50.7263 185.568C51.0473 184.605 51.0473 183.321 50.4052 182.358Z" fill="#F0BC5E"/>
<path d="M218.316 102.416C216.068 102.416 214.142 104.342 214.142 106.589C214.142 108.837 216.068 110.763 218.316 110.763C220.563 110.763 222.489 108.837 222.489 106.589C222.489 104.342 220.563 102.416 218.316 102.416Z" fill="#F0BC5E"/>
<path d="M25.6842 134.521C23.4368 134.521 21.5105 136.447 21.5105 138.695C21.5105 140.942 23.4368 142.868 25.6842 142.868C27.9315 142.868 29.8579 140.942 29.8579 138.695C29.8579 136.447 27.9315 134.521 25.6842 134.521Z" fill="#F0BC5E"/>
<path d="M209.647 154.747C209.326 155.711 209.005 156.995 209.326 157.958C209.647 158.921 210.29 159.884 211.253 160.526C211.895 160.847 212.858 161.169 213.5 161.169C215.105 161.169 216.39 160.205 217.032 158.921C217.353 157.958 217.674 156.674 217.353 155.711C217.032 154.747 216.39 153.784 215.426 153.142C213.5 152.179 210.611 152.821 209.647 154.747Z" fill="#F0BC5E"/>
<path d="M26.3263 89.2527C26.6474 90.2158 27.2895 91.179 28.2527 91.8211C28.8948 92.1422 29.8579 92.4632 30.5 92.4632C32.1053 92.4632 33.3895 91.8211 34.0316 90.2158C34.3527 89.2527 34.6737 87.9685 34.3527 87.0053C34.0316 86.0421 33.3895 85.079 32.4263 84.4369C30.5 83.4737 27.9316 84.1158 26.6474 86.0422C26.3263 87.0053 26.0053 88.2895 26.3263 89.2527Z" fill="#F0BC5E"/>
<path d="M182.037 194.237C180.11 195.521 179.147 198.089 180.431 200.016C181.074 201.3 182.358 202.263 183.963 202.263C184.926 202.263 185.568 201.942 186.21 201.621C187.174 200.979 187.816 200.016 188.137 199.053C188.458 198.089 188.458 196.805 187.816 195.842C186.852 193.916 183.963 192.953 182.037 194.237Z" fill="#F0BC5E"/>
<path d="M60.0369 51.3684C60.679 51.3684 61.3211 51.3684 62.2843 50.7263C64.2106 49.4421 65.1737 46.8736 63.8895 44.9473C62.9264 43.021 60.0369 42.0579 58.1106 43.3421C57.1474 43.9842 56.5053 44.9473 56.1843 45.9105C55.8632 46.8736 55.8632 48.1579 56.5053 49.121C57.1474 50.4052 58.4316 51.3684 60.0369 51.3684Z" fill="#F0BC5E"/>
</svg>
