<svg id="Layer_5" enable-background="new 0 0 64 64" height="512" viewBox="0 0 64 64" width="512" xmlns="http://www.w3.org/2000/svg"><path d="m56.183 15.515-5.603-1.4-6.786-8.821c-2.067-2.689-5.326-4.294-8.718-4.294h-13.868c-4.742 0-8.936 3.023-10.436 7.521l-1.547 4.642-4.438 1.109c-2.229.558-3.787 2.552-3.787 4.851v8.877c0 2.757 2.243 5 5 5h3.685c1.126 2.361 3.53 4 6.315 4 .337 0 .67-.037 1-.084v23.084c0 1.654 1.346 3 3 3h40c1.654 0 3-1.346 3-3v-32-3.754c0-4.137-2.803-7.727-6.817-8.731zm4.012 5.485h-2.195c-1.654 0-3-1.346-3-3v-.719l.698.174c1.992.498 3.593 1.82 4.497 3.545zm-49.42-6.163 1.895-5.683c1.226-3.681 4.658-6.154 8.538-6.154h13.869c2.775 0 5.442 1.313 7.134 3.513l7.209 9.373 3.58.895v1.219c0 2.757 2.243 5 5 5h2.884c.073.406.116.822.116 1.246v.938c-.314-.112-.648-.184-1-.184h-15v-11.333l-4.4-5.867c-1.315-1.753-3.408-2.8-5.6-2.8h-13.842c-2.902 0-5.536 1.825-6.555 4.542l-1.603 4.277v7.181h4c2.743 0 5.175 1.596 6.316 4h-2.43c-1.303-1.272-3.055-2-4.886-2-2.785 0-5.189 1.639-6.315 4h-6.685v-2h1c2.757 0 5-2.243 5-5v-4.719zm14.712 10.163c-1.257-3.569-4.642-6-8.487-6h-2v-4h16v10zm9.513-18c1.565 0 3.061.748 4 2l3 4h-9v-6zm-4 6h-15.557l1.034-2.756c.727-1.94 2.608-3.244 4.681-3.244h9.842zm2 6h4v-2h-4v-2h10v10h-10zm-27.728-2.787 1.728-.432v4.219c0 1.654-1.346 3-3 3h-1v-3.877c0-1.379.935-2.576 2.272-2.91zm.728 14.787c-1.302 0-2.402-.839-2.816-2h5.896c-.047.328-.08.66-.08 1s.033.672.08 1zm10 4c-2.757 0-5-2.243-5-5s2.243-5 5-5c.799 0 1.575.198 2.273.555-.561.398-.973.984-1.157 1.665-.346-.139-.721-.22-1.116-.22-1.654 0-3 1.346-3 3s1.346 3 3 3c.352 0 .686-.072 1-.184v2.073c-.328.067-.661.111-1 .111zm45-4v26h-2v-26zm-4 26h-2v-26h2zm-4 0h-2v-26h2zm-13.085-21.996c-.137.747-.427 1.239-.772 1.813-.536.892-1.143 1.904-1.143 3.847 0 .375.029.721.074 1.055-.259.219-.479.478-.652.772-.104-.053-.204-.097-.312-.159-1.203-.694-1.56-1.337-2.011-2.151-.387-.696-.817-1.464-1.751-2.222 1.63-1.793 3.965-2.93 6.567-2.955zm7.825 4.427c-.712.253-1.282.248-1.95.236-1.042-.015-2.221-.037-3.905.935-.321.186-.605.383-.87.587-.313-.113-.646-.185-.997-.187-.006-.113-.018-.218-.018-.338 0-1.389.378-2.019.857-2.817.411-.685.862-1.445 1.05-2.639 2.481.538 4.577 2.102 5.833 4.223zm-7.655 13.565c.137-.748.427-1.24.772-1.815.536-.893 1.143-1.905 1.143-3.849 0-.373-.029-.719-.074-1.052.259-.219.478-.477.651-.771.102.052.202.095.308.156 1.204.695 1.561 1.338 2.014 2.152.387.697.818 1.465 1.752 2.223-1.629 1.794-3.964 2.931-6.566 2.956zm-7.825-4.427c.71-.252 1.278-.247 1.948-.235 1.04.021 2.22.038 3.903-.934.323-.187.607-.384.873-.589.313.114.647.185.999.188.005.11.017.214.017.333 0 1.39-.378 2.021-.857 2.819-.411.686-.862 1.446-1.05 2.641-2.481-.538-4.577-2.102-5.833-4.223zm8.74-4.569c0 .551-.449 1-1 1s-1-.449-1-1 .449-1 1-1 1 .449 1 1zm6.83 4.421c-.577-.491-.857-.988-1.183-1.574-.505-.91-1.079-1.942-2.762-2.914-.319-.185-.63-.333-.938-.46-.061-.342-.185-.659-.352-.951.096-.063.184-.127.29-.188 1.205-.695 1.943-.684 2.871-.667.795.012 1.682.023 2.812-.411.279.866.432 1.787.432 2.744 0 1.607-.429 3.114-1.17 4.421zm-15.66-8.842c.576.491.856.987 1.181 1.572.505.91 1.077 1.941 2.76 2.913.321.186.633.333.943.461.061.343.185.661.352.953-.098.064-.186.129-.294.191-1.203.694-1.938.678-2.869.667-.798-.013-1.682-.024-2.811.41-.279-.868-.432-1.789-.432-2.746 0-1.607.429-3.114 1.17-4.421zm.83 12.9v4.521h-2v-6.695c.569.81 1.239 1.544 2 2.174zm2 1.307c.634.325 1.302.59 2 .788v2.426h-2zm4 1.163c.33.03.662.051 1 .051s.67-.021 1-.051v2.051h-2zm4-.375c.698-.198 1.366-.463 2-.788v3.214h-2zm4-2.095c.761-.63 1.431-1.364 2-2.174v6.695h-2zm2-14.784c-.569-.81-1.239-1.544-2-2.174v-4.521h2zm-4-3.481c-.634-.325-1.302-.59-2-.788v-2.426h2zm-4-1.163c-.33-.03-.662-.051-1-.051s-.67.021-1 .051v-2.051h2zm-4 .375c-.698.198-1.366.463-2 .788v-3.214h2zm-4 2.095c-.761.63-1.431 1.364-2 2.174v-6.695h2zm-4 21.479h-2v-26h2zm-4 0h-2v-26h2zm-4 0h-2v-26h2zm-4-27c0 .551-.449 1-1 1s-1-.449-1-1 .449-1 1-1 1 .449 1 1zm43 31h-40c-.551 0-1-.449-1-1v-1h42v1c0 .551-.449 1-1 1zm1-32h-42v-1c0-.551.449-1 1-1h40c.551 0 1 .449 1 1z"/></svg>