<svg id="Layer_5" enable-background="new 0 0 64 64" height="512" viewBox="0 0 64 64" width="512" xmlns="http://www.w3.org/2000/svg"><g fill="#f0bc5e"><path d="m62 58h-44v2c0 1.105.895 2 2 2h40c1.105 0 2-.895 2-2z"/><path d="m62 30h-44v-2c0-1.105.895-2 2-2h40c1.105 0 2 .895 2 2z"/><path d="m18 30c0 1.103-.897 2-2 2s-2-.897-2-2 .897-2 2-2 2 .897 2 2v-2c0-1.105.895-2 2-2h1.736c-1.267-1.811-3.364-3-5.736-3-3.86 0-7 3.14-7 7s3.14 7 7 7c.695 0 1.366-.105 2-.295z"/><path d="m40 54c-5.514 0-10-4.486-10-10s4.486-10 10-10 10 4.486 10 10-4.486 10-10 10zm0-11.818c-1.003 0-1.818.816-1.818 1.818s.816 1.818 1.818 1.818 1.818-.816 1.818-1.818-.815-1.818-1.818-1.818z"/></g><path d="m56.183 15.515-5.603-1.4-6.786-8.821c-2.067-2.689-5.326-4.294-8.718-4.294h-13.868c-4.742 0-8.936 3.023-10.436 7.521l-1.547 4.642-4.438 1.109c-2.229.558-3.787 2.552-3.787 4.851v8.877c0 2.757 2.243 5 5 5h3.685c-.297-.622-.503-1.294-.605-2h-3.08c-1.302 0-2.402-.839-2.816-2h5.896c.102-.706.308-1.378.605-2h-6.685v-2h1c2.757 0 5-2.243 5-5v-4.719l1.775-.444 1.895-5.683c1.226-3.681 4.658-6.154 8.538-6.154h13.869c2.775 0 5.442 1.313 7.134 3.513l7.209 9.373 3.58.895v1.219c0 2.757 2.243 5 5 5h2.884c.073.406.116.822.116 1.246v.938c-.314-.112-.648-.184-1-.184h-15v-11.333l-4.4-5.867c-1.315-1.753-3.408-2.8-5.6-2.8h-13.842c-2.902 0-5.536 1.825-6.555 4.542l-1.603 4.277v7.181h4c2.743 0 5.175 1.596 6.316 4h-3.316c-1.383 0-2.538.945-2.884 2.22-.346-.139-.721-.22-1.116-.22-1.654 0-3 1.346-3 3s1.346 3 3 3c.352 0 .686-.072 1-.184v27.184c0 1.654 1.346 3 3 3h40c1.654 0 3-1.346 3-3v-32-3.754c0-4.137-2.803-7.727-6.817-8.731zm-49.183 4.485c0 1.654-1.346 3-3 3h-1v-3.877c0-1.379.935-2.576 2.272-2.91l1.728-.432zm51 1c-1.654 0-3-1.346-3-3v-.719l.698.174c1.993.498 3.594 1.82 4.497 3.545zm-25 4v-6h4v-2h-4v-2h10v10zm6-16 3 4h-9v-6h2c1.565 0 3.061.748 4 2zm-22.523 1.244c.727-1.94 2.608-3.244 4.681-3.244h9.842v6h-15.557zm.523 8.756h-2v-4h16v10h-5.513c-1.257-3.569-4.642-6-8.487-6zm-1 12c-.551 0-1-.449-1-1s.449-1 1-1 1 .449 1 1-.449 1-1 1zm45 29c0 .551-.449 1-1 1h-40c-.551 0-1-.449-1-1v-32c0-.551.449-1 1-1h40c.551 0 1 .449 1 1z"/><path d="m57 30h2v28h-2z"/><path d="m53 30h2v28h-2z"/><path d="m49 37.695c-.569-.81-1.239-1.544-2-2.174v-5.521h-2v4.214c-.634-.325-1.302-.59-2-.788v-3.426h-2v3.051c-.33-.03-.662-.051-1-.051s-.67.021-1 .051v-3.051h-2v3.426c-.698.198-1.366.463-2 .788v-4.214h-2v5.521c-.761.63-1.431 1.364-2 2.174v-7.695h-2v28h2v-7.695c.569.81 1.239 1.544 2 2.174v5.521h2v-4.214c.634.325 1.302.59 2 .788v3.426h2v-3.051c.33.03.662.051 1 .051s.67-.021 1-.051v3.051h2v-3.426c.698-.198 1.366-.463 2-.788v4.214h2v-5.521c.761-.63 1.431-1.364 2-2.174v7.695h2v-28h-2zm-3.356-.695c.837.676 1.545 1.501 2.096 2.431-.712.253-1.282.248-1.95.236-1.042-.015-2.221-.037-3.905.935-.321.186-.605.383-.87.587-.313-.113-.646-.185-.997-.187-.006-.113-.018-.218-.018-.338 0-1.389.378-2.019.857-2.817.411-.685.862-1.445 1.05-2.639 1.122.243 2.168.694 3.092 1.314v.478zm-6.644 7c0-.551.449-1 1-1s1 .449 1 1-.449 1-1 1-1-.449-1-1zm.915-8.996c-.137.747-.427 1.239-.772 1.813-.536.892-1.143 1.904-1.143 3.847 0 .375.029.721.074 1.055-.259.219-.479.478-.652.772-.104-.053-.204-.097-.312-.159-1.203-.694-1.56-1.337-2.011-2.151-.387-.696-.817-1.464-1.751-2.222.312-.343.646-.667 1.007-.958h.645v-.478c1.409-.946 3.098-1.501 4.915-1.519zm-7.745 4.575c.576.491.856.987 1.181 1.572.505.91 1.077 1.941 2.76 2.913.321.186.633.333.943.461.061.343.185.661.352.953-.098.064-.186.129-.294.191-1.203.694-1.938.678-2.869.667-.798-.013-1.682-.024-2.811.41-.279-.868-.432-1.789-.432-2.746 0-1.607.429-3.114 1.17-4.421zm2.186 11.421c-.837-.676-1.545-1.501-2.096-2.431.71-.252 1.278-.247 1.948-.235 1.04.021 2.22.038 3.903-.934.323-.187.607-.384.873-.589.313.114.647.185.999.188.005.11.017.214.017.333 0 1.39-.378 2.021-.857 2.819-.411.686-.862 1.446-1.05 2.641-1.122-.243-2.168-.694-3.092-1.314v-.478zm5.729 1.996c.137-.748.427-1.24.772-1.815.536-.893 1.143-1.905 1.143-3.849 0-.373-.029-.719-.074-1.052.259-.219.478-.477.651-.771.102.052.202.095.308.156 1.204.695 1.561 1.338 2.014 2.152.387.697.818 1.465 1.752 2.223-.312.343-.646.666-1.007.958h-.644v.478c-1.409.947-3.099 1.503-4.915 1.52zm7.745-4.575c-.577-.491-.857-.988-1.183-1.574-.505-.91-1.079-1.942-2.762-2.914-.319-.185-.63-.333-.938-.46-.061-.342-.185-.659-.352-.951.096-.063.184-.127.29-.188 1.205-.695 1.943-.684 2.871-.667.795.012 1.682.023 2.812-.411.279.866.432 1.787.432 2.744 0 1.607-.429 3.114-1.17 4.421z"/><path d="m25 30h2v28h-2z"/><path d="m21 30h2v28h-2z"/></svg>