<?xml version="1.0" encoding="iso-8859-1"?>
<!-- Generator: Adobe Illustrator 19.0.0, SVG Export Plug-In . SVG Version: 6.00 Build 0)  -->
<svg version="1.1" id="Layer_1" xmlns="http://www.w3.org/2000/svg" xmlns:xlink="http://www.w3.org/1999/xlink" x="0px" y="0px"
	 viewBox="0 0 424.96 424.96" style="enable-background:new 0 0 424.96 424.96;" xml:space="preserve">
<g>
	<g>
		<g>
			<path d="M294.912,350.72c-0.512,0.512-1.536,1.536-2.56,2.56c-1.024,1.024-1.024,2.56,0,3.584
				c0.512,0.512,1.536,0.512,2.048,0.512c0.512,0,1.024,0,1.536,0c0.512-1.024,1.536-2.048,2.56-3.072s1.024-2.56,0-3.584
				S295.936,349.696,294.912,350.72z"/>
			<path d="M316.416,327.68c-1.024-1.024-2.56-0.512-3.584,0.512c-3.072,4.608-6.144,8.704-9.216,12.8
				c-0.512,1.024-0.512,2.56,0.512,3.584c0.512,0.512,1.024,0.512,1.536,0.512c0.512,0,1.536-0.512,2.048-1.024
				c3.072-4.096,6.144-8.192,9.216-12.8C317.952,330.24,317.44,328.192,316.416,327.68z"/>
			<path d="M313.344,297.472c0.512,0,0.512,0,1.024,0c1.024,0,2.048-0.512,2.048-1.024c4.096-10.24,6.656-20.992,8.192-31.744
				c0.512-1.536-0.512-3.072-2.048-3.072c-1.536-0.512-3.072,0.512-3.072,2.048c-1.536,10.752-4.096,20.992-7.68,30.72
				C311.296,295.424,311.808,296.96,313.344,297.472z"/>
			<path d="M183.808,145.408c-53.76,0-97.28,44.032-97.28,98.304s43.52,98.304,97.28,98.304s97.28-44.032,97.28-98.304
				S237.568,145.408,183.808,145.408z M183.808,331.264c-48.128,0-87.04-39.424-87.04-88.064s38.912-88.064,87.04-88.064
				s87.04,39.424,87.04,88.064S231.936,331.264,183.808,331.264z"/>
			<path d="M183.808,221.184c-12.288,0-22.528,10.24-22.528,22.528c0,12.288,10.24,22.528,22.528,22.528s22.528-10.24,22.528-22.528
				C206.336,231.424,196.096,221.184,183.808,221.184z M183.808,256.512c-7.168,0-12.8-6.144-12.8-13.312s5.632-13.312,12.8-13.312
				s12.8,6.144,12.8,13.312S190.976,256.512,183.808,256.512z"/>
			<path d="M223.232,262.656c-3.584-2.56-8.192-1.536-10.752,2.048c-2.56,3.584-2.048,8.192,1.536,10.752
				c1.536,1.024,3.072,1.536,4.608,1.536c2.56,0,4.608-1.024,6.144-3.072l0.512-0.512
				C227.328,269.824,226.816,265.216,223.232,262.656z"/>
			<path d="M171.008,209.408c0.512,0,1.536-0.512,2.56,0c4.096-1.536,6.144-5.632,5.12-9.728c-1.536-4.096-5.632-6.144-9.728-5.12
				h-0.512c-4.096,1.536-6.144,5.632-4.608,9.728C164.864,207.36,167.936,209.408,171.008,209.408z"/>
			<path d="M172.544,277.504h-0.512c-4.096-1.024-8.192,1.024-9.728,5.12c-1.024,4.096,1.024,8.192,5.12,9.728h0.512
				c1.024,0.512,1.536,0.512,2.56,0.512c3.584,0,6.144-2.048,6.656-5.632C178.688,283.136,176.64,279.04,172.544,277.504z"/>
			<path d="M225.28,212.992c-2.56-3.584-7.168-4.096-10.752-1.536c-3.072,2.56-4.096,7.168-1.536,10.752
				c1.024,2.56,3.584,3.584,6.144,3.584c1.536,0,3.072-0.512,4.608-1.536c3.584-2.56,4.608-7.168,2.048-10.752L225.28,212.992z"/>
			<path d="M140.8,235.008c-4.096,0-7.68,3.584-7.68,7.68v1.024c0,4.096,3.584,7.68,7.68,7.68s7.68-3.584,7.68-8.192v-0.512
				C148.48,238.592,144.896,235.008,140.8,235.008z"/>
			<path d="M183.808,171.008c-39.424,0-71.168,32.256-71.168,72.704c0,39.936,31.744,72.704,71.168,72.704
				s71.168-32.256,71.168-72.704C255.488,203.264,223.232,171.008,183.808,171.008z M183.808,311.296
				c-36.352,0-66.048-30.208-66.048-67.584c0-37.376,29.696-67.584,66.048-67.584s66.048,30.208,66.048,67.584
				S220.16,311.296,183.808,311.296z"/>
			<path d="M173.568,375.296c-2.56-1.024-5.632-0.512-7.168,2.048v0.512c-1.024,2.56-0.512,5.632,2.048,7.168
				c1.024,0.512,1.536,0.512,2.56,0.512c2.048,0,3.584-1.024,4.608-2.56v-0.512C176.64,379.904,176.128,376.832,173.568,375.296z"/>
			<path d="M165.888,389.12c-2.56-1.024-5.632-0.512-7.168,2.048v0.512c-1.024,2.56-0.512,5.632,2.048,7.168
				c1.024,0.512,1.536,0.512,2.56,0.512c1.536,0,3.584-1.024,4.608-2.56v-0.512C168.96,393.728,168.448,390.656,165.888,389.12z"/>
			<path d="M181.76,361.984c-2.56-1.024-5.632-0.512-7.168,2.048v0.512c-1.536,2.56-0.512,5.12,2.048,6.656
				c1.024,0.512,1.536,0.512,2.56,0.512c1.536,0,3.584-1.024,4.608-2.56C184.832,366.592,184.32,363.52,181.76,361.984z"/>
			<path d="M61.44,330.752h-0.512c-2.56,0.512-4.096,3.584-3.584,6.144c1.024,2.048,3.072,3.584,5.12,3.584c0.512,0,1.024,0,1.024,0
				H64c2.56-0.512,4.096-3.584,3.584-6.144S64,330.24,61.44,330.752z"/>
			<path d="M77.312,326.656H76.8c-3.072,0.512-4.096,3.584-3.584,6.144c0.512,2.048,3.072,3.584,5.12,3.584c0.512,0,1.024,0,1.536,0
				c2.56-0.512,4.096-3.584,3.584-6.144S79.872,325.632,77.312,326.656z"/>
			<path d="M92.16,322.56h-0.512c-2.56,0.512-4.096,3.584-3.584,6.144c1.024,2.048,3.072,3.584,5.12,3.584c0.512,0,1.024,0,1.024,0
				h0.512c2.56-0.512,4.096-3.584,3.584-6.144C97.792,323.584,94.72,322.048,92.16,322.56z"/>
			<path d="M60.928,243.712c1.536,0,3.584-1.024,4.608-2.56c1.024-2.56,0.512-5.632-2.048-7.168h-0.512
				c-2.56-1.536-5.12-0.512-6.656,2.048c-1.536,2.56-0.512,5.632,2.048,7.168C59.392,243.712,59.904,243.712,60.928,243.712z"/>
			<path d="M35.84,218.112h-0.512c-2.56-1.024-5.632-0.512-7.168,2.048c-1.024,2.56-0.512,5.632,2.048,7.168h0.512
				c1.024,0.512,1.536,0.512,2.56,0.512c1.536,0,3.584-0.512,4.608-2.56C38.912,222.72,38.4,219.648,35.84,218.112z"/>
			<path d="M49.664,226.304h-0.512c-2.56-1.536-5.12-0.512-6.656,2.048s-0.512,5.632,2.048,7.168
				c1.024,0.512,1.536,0.512,2.56,0.512c1.536,0,3.584-1.024,4.608-2.56C52.736,230.912,52.224,227.84,49.664,226.304z"/>
			<path d="M270.848,345.6c2.56-0.512,4.096-3.584,3.584-6.144v-0.512c-0.512-2.56-3.584-4.096-6.144-3.584
				c-2.56,0.512-4.096,3.584-3.584,6.144v0.512c1.024,2.048,3.072,3.584,5.12,3.584C269.824,345.6,270.336,345.6,270.848,345.6z"/>
			<path d="M278.528,354.304c-0.512-2.56-3.584-4.096-6.144-3.584c-2.56,0.512-4.096,3.584-3.584,6.144v0.512
				c1.024,2.048,3.072,3.584,5.12,3.584c0.512,0,0.512,0,1.024,0c2.56-0.512,4.096-3.584,3.584-6.144V354.304z"/>
			<path d="M266.24,330.24c2.56-0.512,4.096-3.584,3.584-6.144v-0.512c-0.512-2.56-3.584-4.096-6.144-3.584
				c-2.56,0.512-4.096,3.584-3.584,6.144v0.512c1.024,2.048,3.072,3.584,5.12,3.584C265.728,330.24,266.24,330.24,266.24,330.24z"/>
			<path d="M94.208,132.608c-2.56,0.512-4.096,3.584-3.584,6.144v0.512c1.024,2.048,3.072,3.584,5.12,3.584c0.512,0,1.024,0,1.024,0
				c2.56-0.512,4.096-3.584,3.584-6.144v-0.512C99.84,133.632,96.768,132.096,94.208,132.608z"/>
			<path d="M86.528,123.904c1.024,2.048,3.072,3.584,5.12,3.584c0.512,0,1.024,0,1.024,0c2.56-0.512,4.096-3.584,3.584-6.144v-0.512
				c-0.512-2.56-3.584-4.096-6.144-3.584c-2.56,0.512-4.096,3.584-3.584,6.144V123.904z"/>
			<path d="M98.304,147.968c-2.56,0.512-4.096,3.584-3.584,6.144v0.512c1.024,2.048,3.072,3.584,5.12,3.584c0.512,0,1.024,0,1.024,0
				c2.56-0.512,4.096-3.584,3.584-6.144v-0.512C103.936,148.992,100.864,147.456,98.304,147.968z"/>
			<path d="M356.352,218.624c-0.512-1.024-1.536-2.048-3.072-1.536c-1.024,0.512-2.048,1.536-1.536,3.072
				c0.512,1.536,0.512,2.56,1.024,3.584c0.512,1.536,1.536,2.048,2.56,2.048c0.512,0,0.512,0,0-0.512
				c1.536-0.512,2.56-1.536,2.048-3.072C356.864,221.184,356.864,219.648,356.352,218.624z"/>
			<path d="M352.256,214.016c1.024-0.512,2.048-1.536,1.536-3.072c-1.024-3.072-2.048-5.632-3.072-8.704
				c-0.512-1.536-1.536-2.048-3.072-1.536c-1.536,0.512-2.048,1.536-1.536,3.072c1.024,2.56,2.048,5.12,3.072,8.192
				c0.512,1.024,1.536,1.536,2.56,1.536C352.256,213.504,352.256,213.504,352.256,214.016z"/>
			<path d="M207.872,65.536c-3.072-1.024-6.656-2.048-10.24-3.072c-1.536,0-3.072,0.512-3.072,2.048s0.512,2.56,2.048,3.072
				c3.584,1.024,7.168,2.048,10.24,3.072h0.512c1.024,0,2.048-0.512,2.048-2.048C209.92,67.584,209.408,66.048,207.872,65.536z"/>
			<path d="M415.232,243.2H403l-1.08-14.848c-0.705-13.387-5.046-26.289-12.188-37.539l-2.147-14.173
				c-2.048-14.336-8.192-27.648-17.408-38.912l-20.992-25.088c-0.086-0.114-0.18-0.222-0.278-0.327l2.326-4.281
				c3.072-6.144,2.048-13.824-2.56-18.432l-17.92-17.92c-5.12-4.608-12.288-5.632-18.432-2.56l-3.852,2.092l-24.82-20.524
				c-11.264-9.216-24.576-15.36-38.912-17.92l-16.896-2.56c-0.16-0.027-0.317-0.042-0.474-0.055
				c-10.599-6.064-22.518-9.723-34.854-10.697l-13.824-1.005V5.12c0-3.072-2.048-5.12-5.12-5.12c-3.072,0-5.12,2.048-5.12,5.12
				v12.586l-32.256-2.346c-0.512,0-1.024,0-1.024,0c-3.584,0-6.656,2.048-8.704,5.12c-1.536,3.072-1.536,7.168,0,10.24
				l19.266,34.878C63.503,83.555,4.608,157.484,4.608,243.2c0,100.352,80.384,181.76,179.2,181.76
				c87.196,0,160.158-61.806,175.7-147.483l30.636,16.923c1.536,1.024,3.584,1.536,5.12,1.536c3.072,0,5.632-1.536,8.192-3.584
				c2.048-2.048,2.56-4.608,2.56-7.68l-2.271-31.232h12c2.56,0,4.608-2.048,4.608-5.12C420.352,245.248,418.304,243.2,415.232,243.2
				z M391.68,229.888l0.968,13.312h-11.734l9.652-21.008C391.063,224.737,391.445,227.305,391.68,229.888z M362.496,144.384
				c7.631,9.062,12.594,19.902,14.893,31.277l-6.189-6.189c-2.048-2.56-5.632-3.584-8.704-3.072l-18.944,3.072l-1.024-1.536
				c-3.792-7.195-7.974-14.149-12.52-20.832l13.685-25.192L362.496,144.384z M316.928,77.824c2.048-1.024,4.608-0.512,6.144,1.024
				l17.92,17.92c1.536,1.536,2.048,4.096,1.024,6.144l-18.849,34.7c-11.632-15.238-25.283-28.85-40.658-40.427L316.928,77.824z
				 M276.48,58.368l22.057,18.239l-25.499,13.851c-6.284-4.202-12.818-8.085-19.597-11.611l-1.536-0.512l2.56-19.456
				c0.512-3.072-1.024-6.656-3.072-8.704l-6.825-6.824C256.174,45.593,267.249,50.595,276.48,58.368z M192,29.696
				c2.089,0.19,4.163,0.467,6.216,0.829l-19.528,8.592v-10.38L192,29.696z M168.556,43.135c-2.861,0.304-5.686-0.929-7.276-3.711
				l-7.022-12.448l14.19,1.023v13.985C168.448,42.387,168.487,42.77,168.556,43.135z M183.808,414.72
				c-92.672,0-168.448-76.8-168.96-171.52c0-82.223,57.361-152.36,136.165-168.038l5.147,9.318c1.536,2.56,3.072,4.608,5.12,6.656
				l19.456,19.456c7.168,7.68,15.872,13.312,25.6,17.408l15.36,6.656c29.184,12.288,52.224,35.328,64.512,64.512l6.656,15.36
				c4.096,9.728,10.24,18.432,17.408,25.6l19.456,19.456c1.946,1.946,3.905,3.428,6.29,4.888c-0.085,0.231-0.146,0.476-0.146,0.744
				c-2.048,16.384-6.656,32.768-14.336,47.616c-0.512,1.536,0,3.072,1.024,3.584c0,0.512,0.512,0.512,1.024,0.512
				c0.512,0,1.536-0.512,2.56-1.536c7.541-15.082,12.606-31.153,14.726-48.21l9.493,5.244
				C336.221,354.805,266.564,414.72,183.808,414.72z M342.016,256.512c-1.536-1.024-3.072-2.048-4.608-3.584l-19.456-19.456
				c-6.656-6.656-11.776-14.336-15.36-22.528l-6.656-15.36c-13.824-31.744-38.4-56.832-70.144-70.144l-15.36-6.656
				c-8.704-3.584-15.872-8.704-22.528-15.36l-19.456-19.456c-1.536-1.536-2.56-3.072-3.584-4.608L135.168,25.6l12.781,0.921
				l8.723,15.463c2.56,4.096,6.656,6.656,11.264,6.656c2.048,0,3.584,0,5.632-1.024l33.194-15.048
				c11.272,3.403,21.668,9.494,30.294,18.12l7.168,7.168l-2.81,21.077c-5.086-2.461-10.239-4.722-15.622-6.741
				c-1.024-0.512-2.56,0-3.072,1.536c-0.512,1.024,0,2.56,1.536,3.072c6.059,2.272,11.835,4.547,17.334,7.233
				c0.458,0.811,1.174,1.509,2.122,1.983l4.608,2.56c36.352,19.456,65.536,48.64,84.992,84.992l0.828,1.655
				c0.001,0.325,0.061,0.633,0.196,0.905c3.072,5.632,5.632,11.264,8.192,17.408c0.512,1.024,1.536,1.536,2.56,1.536
				c0.188,0,0.375,0,0.512,0c1.536-1.024,2.048-2.048,1.536-3.584c-1.473-3.536-2.959-7.059-4.529-10.497l20.913-3.327l7.168,7.168
				c8.381,8.032,14.375,18.209,17.83,29.229l-14.265,31.047c-0.383,0.513-0.662,1.115-0.824,1.794l-0.181,0.394
				c-3.072,6.144-0.512,13.312,5.12,16.384l16.427,9.035l0.981,13.493L342.016,256.512z M394.392,267.179l-13.464-7.595
				c-2.454-1.402-3.706-3.765-3.76-6.265c0.381,0.075,0.778,0.121,1.2,0.121h15.025L394.392,267.179z"/>
		</g>
	</g>
</g>
<g>
</g>
<g>
</g>
<g>
</g>
<g>
</g>
<g>
</g>
<g>
</g>
<g>
</g>
<g>
</g>
<g>
</g>
<g>
</g>
<g>
</g>
<g>
</g>
<g>
</g>
<g>
</g>
<g>
</g>
</svg>
