<svg id="Capa_1" enable-background="new 0 0 512 512" height="512" viewBox="0 0 512 512" width="512" xmlns="http://www.w3.org/2000/svg"><path d="m256.002 144.195c-61.651 0-111.808 50.156-111.808 111.808s50.157 111.807 111.808 111.807 111.808-50.157 111.808-111.808-50.157-111.807-111.808-111.807zm0 208.615c-53.38 0-96.808-43.428-96.808-96.808s43.428-96.808 96.808-96.808 96.808 43.428 96.808 96.808-43.428 96.808-96.808 96.808z"/><path d="m256.002 207.769c-26.596 0-48.233 21.637-48.233 48.233s21.637 48.233 48.233 48.233 48.233-21.637 48.233-48.233-21.637-48.233-48.233-48.233zm0 81.466c-18.325 0-33.233-14.908-33.233-33.233s14.908-33.233 33.233-33.233 33.233 14.908 33.233 33.233-14.908 33.233-33.233 33.233z"/><path d="m256.001 189.671c3.684 0 6.862-2.775 7.415-6.402 1.011-6.63-6.974-11.145-12.172-6.899-5.334 4.357-2.114 13.301 4.757 13.301z"/><path d="m251.021 324.228c-5.053 4.468-1.765 13.103 4.98 13.103 3.616 0 6.759-2.661 7.382-6.212 1.201-6.839-7.163-11.489-12.362-6.891z"/><path d="m219.081 199.561c3.661 0 6.894-2.762 7.42-6.398.971-6.717-7.125-11.22-12.285-6.804-5.189 4.441-1.945 13.202 4.865 13.202z"/><path d="m288.304 314.033c-2.628 2.03-3.59 5.717-2.313 8.778 1.155 2.77 3.925 4.63 6.93 4.63 3.68 0 6.862-2.769 7.415-6.398 1.007-6.596-6.828-11.029-12.032-7.01z"/><path d="m192.062 226.581c3.891 0 7.181-3.081 7.476-6.946.507-6.633-7.672-10.55-12.555-6.067-4.926 4.524-1.592 13.013 5.079 13.013z"/><path d="m323.476 286.306c-2.823-1.497-6.383-1.031-8.703 1.18-4.791 4.567-1.457 12.935 5.168 12.935 3.601 0 6.78-2.675 7.39-6.221.541-3.15-1.026-6.394-3.855-7.894z"/><path d="m189.438 257.846c1.722-6.739-6.279-11.985-11.797-7.82-2.552 1.926-3.601 5.392-2.56 8.413 1.032 2.992 3.918 5.062 7.09 5.062 3.389 0 6.43-2.376 7.267-5.655z"/><path d="m324.753 250.488c-4.944 4.52-1.561 13.013 5.078 13.013 3.802 0 7.103-2.973 7.464-6.765.64-6.733-7.579-10.786-12.542-6.248z"/><path d="m195.267 286.141c-2.727-1.287-6.059-.784-8.283 1.258-4.938 4.533-1.586 13.023 5.078 13.023 3.622 0 6.792-2.707 7.395-6.266.555-3.27-1.198-6.603-4.19-8.015z"/><path d="m319.941 226.591c3.729 0 7.001-2.885 7.442-6.587.346-2.906-1.054-5.848-3.585-7.348-2.87-1.7-6.6-1.303-9.025.999-4.789 4.548-1.47 12.936 5.168 12.936z"/><path d="m214.561 313.966c-2.639 1.982-3.663 5.603-2.467 8.674 1.113 2.858 3.91 4.801 6.987 4.801 3.526 0 6.676-2.56 7.36-6.03 1.313-6.653-6.499-11.486-11.88-7.445z"/><path d="m292.921 199.561c3.68 0 6.86-2.773 7.415-6.398 1.009-6.588-6.833-11.049-12.032-7.014-2.626 2.038-3.59 5.714-2.313 8.781 1.154 2.772 3.927 4.631 6.93 4.631z"/><path d="m343.691 395.19c.81 0 1.64-.14 2.45-.42 3.92-1.35 5.99-5.63 4.64-9.54-1.36-3.91-5.63-5.99-9.55-4.63-3.91 1.35-5.98 5.62-4.63 9.54 1.08 3.1 3.979 5.05 7.09 5.05z"/><path d="m357.991 441.99c.4-4.13-2.61-7.8-6.73-8.2-4.12-.41-7.79 2.61-8.2 6.73-.4 4.12 2.61 7.79 6.73 8.2.25.02.5.03.74.03 3.819 0 7.08-2.89 7.46-6.76z"/><path d="m339.111 359.24c-2.01-3.62-6.58-4.92-10.2-2.91s-4.92 6.58-2.91 10.2c1.37 2.47 3.93 3.86 6.56 3.86 1.23 0 2.48-.31 3.64-.95 3.62-2.01 4.919-6.58 2.91-10.2z"/><path d="m342.231 474.85c.82.29 1.65.42 2.46.42 3.11 0 6.01-1.95 7.09-5.05 1.35-3.91-.72-8.18-4.63-9.54-3.92-1.36-8.19.72-9.55 4.63-1.35 3.91.72 8.19 4.63 9.54z"/><path d="m342.591 415.09c.49 3.77 3.72 6.52 7.42 6.52.33 0 .66-.02 1-.07 4.1-.54 6.99-4.31 6.45-8.42-.55-4.11-4.32-6.99-8.42-6.45-4.11.54-7 4.31-6.45 8.42z"/><path d="m438.68 402.55c.47 0 .95-.04 1.43-.14 4.07-.78 6.73-4.71 5.95-8.78s-4.71-6.73-8.78-5.95c-4.07.79-6.73 4.72-5.95 8.78v.01c.69 3.58 3.83 6.08 7.35 6.08z"/><path d="m416.49 353.421c1.59 0 3.2-.51 4.56-1.55 3.29-2.53 3.9-7.23 1.38-10.52-2.52-3.28-7.23-3.9-10.52-1.38-3.28 2.53-3.9 7.24-1.37 10.52 1.47 1.919 3.7 2.93 5.95 2.93z"/><path d="m392.88 331.871c1.42 1.23 3.16 1.83 4.9 1.83 2.1 0 4.19-.87 5.68-2.59 2.71-3.13 2.37-7.86-.76-10.57-3.13-2.72-7.87-2.38-10.58.75s-2.369 7.869.76 10.58z"/><path d="m371.881 316.721c1.21.73 2.54 1.07 3.85 1.07 2.55 0 5.04-1.3 6.44-3.64 2.13-3.56.98-8.16-2.57-10.29-.01 0-.01 0-.01 0-3.55-2.13-8.15-.98-10.28 2.57-2.131 3.56-.981 8.16 2.57 10.29z"/><path d="m430.5 376.68c1.03 0 2.08-.22 3.09-.67 3.77-1.71 5.44-6.16 3.73-9.93s-6.15-5.44-9.92-3.73c-3.78 1.71-5.45 6.15-3.74 9.93 1.26 2.761 3.98 4.4 6.84 4.4z"/><path d="m54.402 249.601c2.41-3.37 1.63-8.05-1.73-10.46-3.37-2.42-8.06-1.64-10.47 1.72-2.41 3.37-1.64 8.06 1.73 10.47 1.32.95 2.85 1.4 4.36 1.4 2.34 0 4.64-1.09 6.11-3.13z"/><path d="m99.532 258.731c-4.07-.78-8 1.88-8.79 5.95-.78 4.07 1.88 8 5.95 8.78.48.09.96.14 1.43.14 3.52 0 6.66-2.5 7.35-6.08.79-4.07-1.88-8-5.94-8.79z"/><path d="m125.282 261.361c-4.14-.07-7.55 3.23-7.62 7.37s3.24 7.56 7.38 7.62h.12c4.09 0 7.43-3.27 7.5-7.37.07-4.14-3.23-7.56-7.38-7.62z"/><path d="m74.922 251.441c-3.82-1.58-8.21.24-9.79 4.06-1.59 3.83.24 8.22 4.06 9.8.94.39 1.91.57 2.87.57 2.94 0 5.73-1.75 6.93-4.64 1.58-3.82-.24-8.21-4.07-9.79z"/><path d="m23.352 221.261c-3.13 2.71-3.47 7.45-.76 10.58 1.48 1.71 3.57 2.59 5.67 2.59 1.74 0 3.49-.6 4.91-1.83 3.13-2.71 3.47-7.45.76-10.58s-7.45-3.47-10.58-.76z"/><path d="m442.81 246.701c-3.83-1.58-8.22.24-9.8 4.07s.24 8.21 4.07 9.8v-.01c.93.39 1.91.57 2.86.57 2.95.01 5.74-1.74 6.93-4.63 1.59-3.83-.23-8.22-4.06-9.8z"/><path d="m412.48 253.271c.47.09.95.14 1.42.14 3.52 0 6.67-2.5 7.36-6.09.78-4.06-1.88-8-5.95-8.78s-8 1.88-8.78 5.95c-.779 4.06 1.88 8 5.95 8.78z"/><path d="m457.61 262.401c-2.42 3.37-1.64 8.05 1.73 10.47 1.32.94 2.85 1.4 4.36 1.4 2.33 0 4.64-1.09 6.1-3.13 2.41-3.37 1.64-8.06-1.73-10.47s-8.05-1.64-10.46 1.73z"/><path d="m386.84 250.651c4.09 0 7.43-3.28 7.5-7.38.07-4.14-3.23-7.55-7.37-7.62-4.15-.07-7.56 3.23-7.63 7.37-.06 4.15 3.24 7.56 7.38 7.63z"/><path d="m483.74 292.571c1.74 0 3.49-.6 4.91-1.83 3.13-2.71 3.47-7.44.76-10.57-2.71-3.14-7.45-3.48-10.58-.77-3.13 2.72-3.47 7.45-.76 10.58 1.48 1.72 3.57 2.59 5.67 2.59z"/><path d="m70.012 357.99h.01c.24.02.49.04.74.04 3.81 0 7.07-2.9 7.45-6.77.41-4.12-2.61-7.79-6.73-8.2-4.12-.4-7.79 2.61-8.2 6.73-.4 4.12 2.61 7.791 6.73 8.2z"/><path d="m37.152 342.231c-1.36 3.92.71 8.19 4.63 9.55.81.28 1.64.41 2.45.41 3.11 0 6.02-1.94 7.09-5.04 1.36-3.92-.72-8.19-4.63-9.55-3.91-1.35-8.19.719-9.54 4.63z"/><path d="m96.912 342.591c-4.11.54-6.99 4.31-6.45 8.42.5 3.77 3.72 6.51 7.43 6.51.33 0 .66-.02.99-.06 4.11-.55 6.99-4.32 6.45-8.42-.54-4.111-4.31-7-8.42-6.45z"/><path d="m155.672 328.91c-2.01-3.62-6.58-4.93-10.2-2.91-3.62 2.01-4.92 6.57-2.91 10.2 1.37 2.46 3.93 3.85 6.56 3.85 1.24 0 2.49-.3 3.64-.94 3.62-2.009 4.919-6.58 2.91-10.2z"/><path d="m131.402 341.231c-1.35-3.91-5.62-5.98-9.54-4.63-3.91 1.36-5.99 5.63-4.63 9.54 1.07 3.1 3.98 5.05 7.08 5.05.82 0 1.65-.13 2.46-.42 3.91-1.35 5.99-5.62 4.63-9.54z"/><path d="m369.441 175.812c-2.01-3.62-6.58-4.93-10.2-2.92-3.62 2.02-4.92 6.58-2.91 10.2 1.37 2.47 3.93 3.86 6.56 3.86 1.24 0 2.49-.3 3.64-.95 3.62-2.011 4.919-6.571 2.91-10.19z"/><path d="m467.77 174.812c3.11 0 6.01-1.94 7.08-5.04 1.36-3.92-.71-8.19-4.63-9.55-3.91-1.35-8.18.72-9.54 4.63-1.36 3.92.72 8.19 4.63 9.54.82.289 1.64.42 2.46.42z"/><path d="m433.79 160.741c-.41 4.12 2.61 7.79 6.73 8.2.25.02.5.04.74.04 3.81 0 7.08-2.9 7.46-6.77.4-4.12-2.61-7.8-6.73-8.2-4.13-.4-7.8 2.611-8.2 6.73z"/><path d="m385.231 161.232c-3.92 1.35-5.99 5.62-4.63 9.54 1.07 3.1 3.98 5.04 7.08 5.04.82 0 1.65-.13 2.46-.41 3.91-1.36 5.99-5.63 4.63-9.54-1.35-3.911-5.631-5.99-9.54-4.63z"/><path d="m414.1 169.481c.33 0 .66-.02.99-.06 4.11-.55 6.99-4.32 6.45-8.42-.54-4.11-4.31-7-8.42-6.45-4.11.54-6.99 4.31-6.45 8.42.5 3.77 3.72 6.51 7.43 6.51z"/><path d="m139.732 423.66c-3.77 1.71-5.45 6.16-3.74 9.93 1.26 2.77 3.99 4.4 6.84 4.4 1.03 0 2.09-.21 3.09-.67 3.77-1.71 5.45-6.15 3.73-9.92-1.71-3.78-6.15-5.45-9.92-3.74z"/><path d="m115.542 431.33c-4.07.78-6.73 4.71-5.95 8.78.69 3.59 3.83 6.08 7.35 6.08.47 0 .95-.04 1.43-.13 4.07-.78 6.73-4.71 5.95-8.78s-4.71-6.73-8.78-5.95z"/><path d="m161.512 410.54c-3.28 2.52-3.9 7.23-1.38 10.51 1.48 1.93 3.71 2.93 5.96 2.93 1.59 0 3.2-.5 4.56-1.55 3.28-2.52 3.9-7.23 1.38-10.52-2.53-3.28-7.23-3.9-10.52-1.37z"/><path d="m195.281 371.88c-2.13 3.56-.98 8.16 2.58 10.29 1.2.73 2.53 1.07 3.85 1.07 2.54 0 5.03-1.3 6.43-3.65 2.13-3.55.98-8.15-2.57-10.28-3.549-2.13-8.16-.979-10.29 2.57z"/><path d="m180.132 392.88c-2.71 3.13-2.37 7.87.76 10.58 1.42 1.23 3.17 1.83 4.91 1.83 2.1 0 4.18-.88 5.67-2.59 2.71-3.13 2.37-7.87-.76-10.58-3.131-2.71-7.871-2.37-10.58.76z"/><path d="m310.281 143.762c2.55 0 5.04-1.3 6.44-3.64 2.13-3.55.98-8.16-2.57-10.29-3.56-2.13-8.16-.98-10.29 2.58-2.13 3.55-.98 8.16 2.57 10.29 1.21.72 2.54 1.06 3.85 1.06z"/><path d="m395.041 80.812c.47 0 .95-.04 1.42-.14 4.07-.78 6.74-4.71 5.95-8.78-.78-4.06-4.71-6.73-8.78-5.95-4.07.79-6.73 4.72-5.95 8.79.689 3.58 3.84 6.08 7.36 6.08z"/><path d="m326.201 121.712c2.1 0 4.19-.87 5.67-2.59 2.71-3.13 2.38-7.86-.76-10.58-3.13-2.71-7.86-2.37-10.58.76-2.71 3.13-2.37 7.87.76 10.58 1.42 1.23 3.17 1.83 4.91 1.83z"/><path d="m345.931 103.022c1.59 0 3.2-.51 4.56-1.56 3.29-2.52 3.9-7.23 1.38-10.51-2.53-3.28-7.23-3.9-10.52-1.38-3.28 2.53-3.9 7.23-1.38 10.52 1.48 1.92 3.71 2.93 5.96 2.93z"/><path d="m369.18 89.012c1.04 0 2.09-.21 3.09-.67 3.78-1.71 5.45-6.15 3.74-9.93-1.71-3.77-6.16-5.44-9.93-3.73s-5.44 6.15-3.73 9.93c1.25 2.77 3.98 4.4 6.83 4.4z"/><path d="m255.501 446.87c.94.39 1.91.57 2.87.57 2.94 0 5.73-1.74 6.93-4.63 1.58-3.83-.24-8.22-4.07-9.8-3.82-1.58-8.21.24-9.79 4.07-1.59 3.82.24 8.21 4.06 9.79z"/><path d="m249.601 457.61c-3.37-2.42-8.05-1.64-10.46 1.73-2.42 3.36-1.64 8.05 1.73 10.46 1.32.95 2.84 1.4 4.36 1.4 2.33 0 4.64-1.09 6.1-3.13 2.41-3.37 1.64-8.05-1.73-10.46z"/><path d="m222.021 478.07c-3.13 2.71-3.47 7.45-.76 10.58 1.48 1.71 3.57 2.59 5.67 2.59 1.74 0 3.49-.6 4.91-1.83 3.13-2.71 3.47-7.45.76-10.58s-7.45-3.47-10.58-.76z"/><path d="m276.351 386.97c0-.01 0-.01 0-.01.07-4.14-3.23-7.55-7.37-7.62-4.14-.06-7.56 3.24-7.62 7.38h-.01c-.06 4.14 3.24 7.55 7.38 7.62h.13c4.08 0 7.43-3.28 7.49-7.37z"/><path d="m273.461 415.31c.78-4.07-1.88-8-5.95-8.78-4.06-.78-7.99 1.88-8.78 5.95-.78 4.06 1.88 8 5.95 8.78.48.09.95.13 1.42.13 3.53 0 6.67-2.49 7.36-6.08z"/><path d="m238.541 96.692c-.78 4.07 1.88 8 5.95 8.78.48.09.95.14 1.42.14 3.53 0 6.67-2.5 7.36-6.08.78-4.07-1.88-8-5.95-8.79-4.06-.78-8 1.88-8.78 5.95z"/><path d="m235.651 125.042c-.07 4.14 3.23 7.55 7.38 7.62h.12c4.09 0 7.43-3.28 7.5-7.38.06-4.14-3.24-7.55-7.38-7.62s-7.55 3.24-7.62 7.38z"/><path d="m285.081 35.762c1.74 0 3.48-.6 4.9-1.83 3.13-2.71 3.47-7.45.76-10.58s-7.44-3.47-10.57-.76c-3.14 2.71-3.48 7.45-.77 10.58 1.49 1.71 3.58 2.59 5.68 2.59z"/><path d="m256.501 65.132c-3.83-1.58-8.22.24-9.8 4.06-1.58 3.83.24 8.22 4.07 9.8.93.39 1.91.57 2.86.57 2.95 0 5.74-1.74 6.93-4.64 1.59-3.82-.23-8.21-4.06-9.79z"/><path d="m262.401 54.402c1.33.94 2.85 1.4 4.36 1.4 2.34 0 4.64-1.09 6.11-3.13 2.41-3.37 1.63-8.06-1.73-10.47-3.37-2.41-8.06-1.64-10.47 1.73s-1.64 8.06 1.73 10.47z"/><path d="m170.244 80.556c0-12.937-10.525-23.462-23.462-23.462s-23.462 10.525-23.462 23.462 10.525 23.462 23.462 23.462c12.938 0 23.462-10.525 23.462-23.462zm-31.923 0c0-4.666 3.796-8.462 8.462-8.462s8.462 3.796 8.462 8.462-3.796 8.462-8.462 8.462-8.462-3.796-8.462-8.462z"/><path d="m80.556 170.244c12.936 0 23.461-10.525 23.461-23.462s-10.525-23.462-23.461-23.462c-12.937 0-23.462 10.525-23.462 23.462.001 12.937 10.525 23.462 23.462 23.462zm0-31.923c4.666 0 8.461 3.796 8.461 8.462s-3.796 8.462-8.461 8.462c-4.666 0-8.462-3.796-8.462-8.462 0-4.667 3.796-8.462 8.462-8.462z"/><path d="m463.877 106.559c-2.419-3.361-7.107-4.124-10.469-1.704-3.361 2.42-4.124 7.107-1.704 10.469 29.633 41.157 45.296 89.802 45.296 140.677 0 64.372-25.069 124.891-70.588 170.411s-106.039 70.588-170.411 70.588-124.891-25.069-170.411-70.588-70.588-106.039-70.588-170.411c0-21.887 2.921-43.484 8.687-64.339l17.92 11.003c3.53 2.167 8.148 1.063 10.316-2.467 2.167-3.53 1.062-8.148-2.467-10.316l-27.2-16.7c-3.996-2.453-6.602-6.53-7.15-11.185-.547-4.648 1.037-9.211 4.354-12.524l5.75-5.76c2.924-2.93 2.922-7.675-.004-10.602l-1.65-1.65c-4.536-4.536-4.534-11.923 0-16.463l91.436-91.436c4.545-4.538 11.931-4.539 16.466-.004l1.65 1.65c2.927 2.928 7.673 2.929 10.602.005l5.767-5.757c3.307-3.31 7.864-4.894 12.518-4.347 4.655.548 8.731 3.154 11.185 7.15l36.112 58.824c5 8.132 3.773 18.531-2.984 25.288l-99.939 99.939c-6.756 6.756-17.157 7.985-25.288 2.984l-6.05-3.72c-3.53-2.169-8.148-1.067-10.317 2.461s-1.067 8.147 2.461 10.317l6.05 3.72c5.785 3.557 12.23 5.292 18.629 5.292 9.168 0 18.239-3.565 25.122-10.448l99.939-99.939c11.687-11.688 13.808-29.679 5.158-43.747l-30.413-49.54c20.855-5.766 42.453-8.687 64.34-8.687 34.284 0 67.401 7.049 98.432 20.952 29.982 13.433 56.522 32.55 78.881 56.82 1.479 1.605 3.495 2.418 5.518 2.418 1.816 0 3.639-.656 5.08-1.984 3.046-2.807 3.241-7.551.434-10.598-23.745-25.773-51.933-46.076-83.78-60.345-32.973-14.773-68.154-22.264-104.566-22.264-24.829 0-49.313 3.544-72.867 10.53-4.899-5.728-11.747-9.422-19.384-10.321-9.237-1.087-18.309 2.062-24.876 8.635l-.812.81c-10.347-6.936-24.527-5.839-33.672 3.294l-91.443 91.443c-9.13 9.143-10.226 23.323-3.29 33.669l-.804.805c-6.58 6.574-9.73 15.643-8.643 24.882.899 7.638 4.593 14.485 10.321 19.385-6.986 23.554-10.53 48.038-10.53 72.867 0 68.379 26.629 132.665 74.981 181.018 48.354 48.352 112.641 74.981 181.019 74.981s132.665-26.629 181.018-74.981c48.352-48.353 74.981-112.639 74.981-181.018 0-54.04-16.641-105.716-48.123-149.442z"/></svg>