<svg height="502.624pt" viewBox="0 0 502.624 502.624" width="502.624pt" xmlns="http://www.w3.org/2000/svg" xmlns:xlink="http://www.w3.org/1999/xlink"><linearGradient id="a" gradientUnits="userSpaceOnUse" x1="251.312" x2="251.312" y1="502.6248" y2="-.0008"><stop offset="0" stop-color="#9f2fff"/><stop offset="1" stop-color="#0bb1d3"/></linearGradient><path d="m459.3125 230.625 43.3125-43.3125-187.3125-187.3125-43.3125 43.3125 32 32-20.6875 20.6875-12.6875-12.6875h-34.023438l-51.449218-17.152344-29.839844 29.839844-9.855469-9.855469c-6.992187-6.984375-16.273437-10.832031-26.144531-10.832031s-19.152344 3.847656-26.144531 10.832031l-55.03125 55.03125c-6.878907 6.871094-10.824219 16.398438-10.824219 26.136719 0 9.878906 3.847656 19.167969 10.824219 26.144531l9.863281 9.855469-21.839844 21.832031 17.152344 51.464844v33.816406l44.792969 44.789063-28.792969 28.785156-16-16-43.3125 43.3125 91.3125 91.3125 43.3125-43.3125-16-16 28.789062-28.792969 44.5625 44.558594 32 .210937 16.023438 16.023438h38.625l192-192-64-64 20.6875-20.6875zm-164.6875-187.3125 20.6875-20.6875 164.6875 164.6875-20.6875 20.6875zm97.375 232-12.6875 12.6875-164.6875-164.6875 12.6875-12.6875zm-273.585938 39.800781-47.789062-47.800781 12.6875-12.6875 32.222656 32.222656c-.070312 1.496094-.222656 2.960938-.222656 4.464844 0 8.222656 1.152344 16.167969 3.101562 23.800781zm-23.789062-71.800781 12.6875-12.6875 18.09375 18.09375c-2.910156 5.847656-5.222656 12.035156-6.902344 18.480469zm24-24 12.6875-12.6875 14.609375 14.597656c-4.386719 4.105469-8.378906 8.59375-11.945313 13.449219zm56.503906-16.863281c-5.839844 2.390625-11.402344 5.328125-16.609375 8.765625l-15.894531-15.902344 12.6875-12.6875zm-8.503906-31.136719 12.6875-12.6875 36.945312 36.933594c-1.648437-.078125-3.28125-.246094-4.945312-.246094-6.441406 0-12.726562.664062-18.816406 1.871094zm44.6875 40c44.113281 0 80 35.886719 80 80s-35.886719 80-80 80-80-35.886719-80-80 35.886719-80 80-80zm42.589844 165.902344 18.097656 18.097656-12.6875 12.6875-23.878906-23.871094c6.445312-1.679687 12.621094-3.992187 18.46875-6.914062zm14.058594-8.566406c4.847656-3.558594 9.34375-7.550782 13.4375-11.945313l14.601562 14.609375-12.6875 12.6875zm23.453124-24.550782c3.441407-5.203125 6.378907-10.761718 8.769532-16.601562l19.816406 19.816406-12.6875 12.6875zm14.027344-33.96875c1.207032-6.089844 1.871094-12.375 1.871094-18.816406 0-1.664062-.167969-3.289062-.25-4.9375l36.9375 36.9375-12.6875 12.6875zm-4.257812-52.257812c-9.71875-26.039063-30.382813-46.703125-56.421875-56.429688l-54.136719-54.128906 12.6875-12.6875 164.6875 164.6875-12.6875 12.6875zm-257.871094-90.558594c0-5.519531 2.238281-10.929688 6.144531-14.832031l55.03125-55.03125c7.925781-7.921875 21.726563-7.921875 29.65625 0l9.855469 9.863281-84.6875 84.6875-9.855469-9.855469c-3.96875-3.96875-6.144531-9.234375-6.144531-14.832031zm1.152344 62.167969 145.007812-145.015625 31.03125 10.335937-165.695312 165.695313zm46.847656 250.519531-68.6875-68.6875 20.6875-20.6875 68.6875 68.6875zm16-48-36.6875-36.6875 28.789062-28.792969 36.691407 36.6875zm91.335938 11.136719-139.335938-139.335938v-25.167969l164.664062 164.664063zm-11.128907-58.9375c7.625 1.960937 15.570313 3.113281 23.792969 3.113281 1.503906 0 2.96875-.160156 4.457031-.222656l32.230469 32.222656-12.6875 12.6875zm84.480469 75.113281h-25.375l-8-8 76.6875-76.6875 20.6875 20.6875zm75.3125-75.3125-20.6875-20.6875 12.6875-12.6875 20.6875 20.6875zm24-24-20.6875-20.6875 20.6875-20.6875 20.6875 20.6875zm32-32-20.6875-20.6875 12.6875-12.6875 20.6875 20.6875zm44.6875-44.6875-20.6875 20.6875-20.6875-20.6875 20.6875-20.6875zm-32-32-12.6875 12.6875-164.6875-164.6875h25.375zm-20.6875-43.3125-100.6875-100.6875 20.6875-20.6875 100.6875 100.6875zm-184 147.3125c35.289062 0 64-28.710938 64-64s-28.710938-64-64-64-64 28.710938-64 64 28.710938 64 64 64zm0-112c26.472656 0 48 21.527344 48 48s-21.527344 48-48 48-48-21.527344-48-48 21.527344-48 48-48zm0 80c17.648438 0 32-14.351562 32-32s-14.351562-32-32-32-32 14.351562-32 32 14.351562 32 32 32zm0-48c8.824219 0 16 7.175781 16 16s-7.175781 16-16 16-16-7.175781-16-16 7.175781-16 16-16zm0 0" fill="url(#a)"/></svg>