<svg height="502.624pt" viewBox="0 0 502.624 502.624" width="502.624pt" xmlns="http://www.w3.org/2000/svg"><path d="m432.96875 245.65625-26.34375-26.34375 20.6875-20.6875 32 32 43.3125-43.3125-187.3125-187.3125-43.3125 43.3125 32 32-20.6875 20.6875-12.6875-12.6875h-34.023438l-51.449218-17.160156-29.839844 29.847656-9.855469-9.855469c-6.992187-6.992187-16.273437-10.832031-26.144531-10.832031s-19.152344 3.839844-26.144531 10.832031l-55.03125 55.03125c-6.878907 6.871094-10.824219 16.398438-10.824219 26.136719 0 9.878906 3.847656 19.167969 10.832031 26.144531l9.855469 9.855469-21.839844 21.839844 17.152344 51.464844v33.808593l44.792969 44.789063-28.792969 28.785156-16-16-43.3125 43.3125 91.3125 91.3125 43.3125-43.3125-16-16 28.789062-28.792969 44.5625 44.558594 32 .210937 16.023438 16.023438h38.625l192-192zm-117.65625-223.03125 164.6875 164.6875-20.6875 20.6875-164.6875-164.6875zm0 64 100.6875 100.6875-20.6875 20.6875-100.6875-100.6875zm-51.3125 12.6875 152 152-12.6875 12.6875-164.6875-164.6875zm-28.6875 332.6875-47.792969-47.792969c7.625 1.953125 15.570313 3.105469 23.792969 3.105469 1.503906 0 2.96875-.160156 4.457031-.222656l32.230469 32.222656zm-8-321.375 164.6875 164.6875-12.6875 12.6875-164.6875-164.6875zm-24 24 164.6875 164.6875-12.6875 12.6875-54.128906-54.128906c-9.71875-26.039063-30.382813-46.703125-56.421875-56.421875l-54.136719-54.136719zm8 236.6875c-44.113281 0-80-35.886719-80-80s35.886719-80 80-80 80 35.886719 80 80-35.886719 80-80 80zm95.75-84.9375 36.9375 36.9375-12.6875 12.6875-25.871094-25.871094c1.207032-6.089844 1.871094-12.375 1.871094-18.816406 0-1.664062-.167969-3.289062-.25-4.9375zm-6.886719 41.113281 19.824219 19.824219-12.6875 12.6875-15.898438-15.902344c3.441407-5.203125 6.378907-10.761718 8.761719-16.609375zm-120.863281-168.863281 36.945312 36.933594c-1.648437-.078125-3.28125-.246094-4.945312-.246094-6.441406 0-12.726562.664062-18.816406 1.871094l-25.871094-25.871094zm-24 24 19.824219 19.824219c-5.847657 2.390625-11.402344 5.328125-16.609375 8.765625l-15.902344-15.902344zm-24 24 14.609375 14.597656c-4.386719 4.097656-8.378906 8.59375-11.9375 13.441406l-15.359375-15.351562zm-24 24 18.09375 18.09375c-2.910156 5.847656-5.222656 12.023438-6.902344 18.480469l-23.878906-23.886719zm-24 24 32.222656 32.230469c-.0625 1.488281-.222656 2.953125-.222656 4.457031 0 8.222656 1.152344 16.167969 3.101562 23.792969l-47.789062-47.792969zm176 153.375-23.878906-23.871094c6.445312-1.679687 12.621094-3.992187 18.46875-6.90625l18.097656 18.089844zm24-24-15.351562-15.351562c4.847656-3.558594 9.34375-7.550782 13.4375-11.9375l14.601562 14.601562zm56-33.375 20.6875 20.6875-12.6875 12.6875-20.6875-20.6875zm11.3125-11.3125 20.6875-20.6875 20.6875 20.6875-20.6875 20.6875zm32-32 12.6875-12.6875 20.6875 20.6875-12.6875 12.6875zm-333.167969-125.167969c-3.96875-3.96875-6.144531-9.234375-6.144531-14.832031 0-5.519531 2.238281-10.929688 6.144531-14.832031l55.03125-55.03125c7.925781-7.921875 21.726563-7.921875 29.65625 0l9.855469 9.863281-84.6875 84.6875zm140.015625-97.671875 31.03125 10.335938-165.695312 165.695312-10.34375-31.023437zm-98.160156 395.527344-68.6875-68.6875 20.6875-20.6875 68.6875 68.6875zm16-48-36.6875-36.6875 28.789062-28.792969 36.691407 36.6875zm-48-128.199219v-25.167969l164.664062 164.664063-25.328124-.152344zm212.6875 155.511719h-25.375l-8-8 76.6875-76.6875 20.6875 20.6875zm176-176-20.6875 20.6875-20.6875-20.6875 20.6875-20.6875zm0 0"/><path d="m211.3125 227.3125c-35.289062 0-64 28.710938-64 64s28.710938 64 64 64 64-28.710938 64-64-28.710938-64-64-64zm0 112c-26.472656 0-48-21.527344-48-48s21.527344-48 48-48 48 21.527344 48 48-21.527344 48-48 48zm0 0"/><path d="m211.3125 259.3125c-17.648438 0-32 14.351562-32 32s14.351562 32 32 32 32-14.351562 32-32-14.351562-32-32-32zm0 48c-8.824219 0-16-7.175781-16-16s7.175781-16 16-16 16 7.175781 16 16-7.175781 16-16 16zm0 0"/></svg>