<svg id="Capa_1" enable-background="new 0 0 585.866 585.866" height="512" viewBox="0 0 585.866 585.866" width="512" xmlns="http://www.w3.org/2000/svg"><g><g><path d="m292.933 54.634c15.195 0 90.995-.935 90.995-19.389 0-18.408-75.805-19.343-90.995-19.343s-90.995.935-90.995 19.343c0 18.455 75.804 19.389 90.995 19.389z"/><path d="m472.506 72.675v-30.595c0-27.629-90.335-42.08-179.573-42.08s-179.573 14.451-179.573 42.08v30.595c0 7.351 5.942 13.735 17.994 19.496v402.75c-4.868 3.534-8.667 7.677-11.173 12.424-6.672 12.629-2.929 28.405 8.9 37.519 19.901 15.316 67.654 41.001 163.852 41.001s143.951-25.685 163.857-41.001c11.824-9.109 15.567-24.89 8.895-37.519-2.506-4.747-6.305-8.89-11.173-12.424v-402.749c12.042-5.752 17.994-12.145 17.994-19.497zm-27.294 422.958c-1.516 1.776-5.222 5.677-11.624 10.508v-74.837c4.785-2.227 8.658-4.231 11.624-5.877zm-283.634 16.851v-77.088c4.938 2.041 10.127 3.976 15.484 5.798v79.575c-5.608-2.589-10.76-5.37-15.484-8.285zm-9.299-412.752v52.165c-5.603-2.776-9.495-5.031-11.624-6.347v-49.528c3.598 1.306 7.481 2.543 11.624 3.71zm292.933 314.94c-2.892 1.781-8.946 5.282-18.185 9.42-7.477 3.376-15.656 6.519-24.341 9.36-8.063 2.692-16.646 5.073-25.546 7.095-9.392 2.227-19.413 4.092-29.791 5.547-9.774 1.358-19.083 2.292-28.503 2.846-6.742.451-13.972.67-21.259.749v-11.341c7.551-.079 14.926-.307 21.844-.772 9.597-.567 19.148-1.52 29.2-2.915 10.68-1.493 20.994-3.413 30.609-5.701 9.123-2.069 17.999-4.538 26.359-7.319 8.941-2.925 17.404-6.175 25.146-9.667.005 0 .005-.005.009-.005.028-.014.06-.023.088-.037 6.105-2.739 10.843-5.189 14.372-7.147v9.885h-.002zm-178.229 34.269c-9.379-.553-18.692-1.483-28.456-2.846-10.383-1.455-20.408-3.315-29.837-5.556-8.858-2.013-17.441-4.394-25.532-7.095-8.658-2.827-16.837-5.975-24.323-9.355-9.234-4.138-15.288-7.635-18.176-9.416v-9.89c3.529 1.958 8.263 4.408 14.363 7.142.033.014.065.028.093.042.005 0 .009.005.014.005 7.751 3.492 16.204 6.742 25.118 9.658 8.388 2.794 17.264 5.259 26.341 7.319 9.662 2.292 19.975 4.217 30.66 5.71 10.048 1.395 19.599 2.348 29.158 2.911 6.956.465 14.335.693 21.886.777v11.341c-7.299-.078-14.539-.296-21.309-.747zm-111.942-285.438c.023.009.047.019.074.028.005 0 .009.005.014.005 8.3 3.683 16.525 6.849 25.113 9.657 8.356 2.785 17.232 5.25 26.345 7.323 9.811 2.33 20.133 4.236 30.632 5.654 9.644 1.395 19.473 2.395 29.182 2.967 6.956.465 14.335.693 21.882.777v11.294c-7.291-.079-14.53-.298-21.3-.753-9.351-.553-18.659-1.483-28.456-2.846-10.387-1.455-20.417-3.32-29.837-5.556-8.83-2.004-17.409-4.385-25.532-7.091-8.481-2.771-16.669-5.905-24.313-9.304-9.239-4.171-15.293-7.681-18.185-9.467v-9.881c3.524 1.967 8.266 4.431 14.381 7.193zm269.247 116.801c-4.896 2.125-10.085 4.134-15.484 6.045v-93.683c5.31-1.809 10.462-3.762 15.484-5.821zm-24.783 9.188c-5.37 1.711-10.936 3.264-16.646 4.682v-93.962c5.696-1.367 11.243-2.897 16.646-4.552zm-25.946 6.877c-6.71 1.507-13.712 2.813-20.924 3.934v-94.134c7.216-1.093 14.191-2.385 20.924-3.85zm-30.223 5.273c-6.621.851-13.103 1.502-19.529 1.971v-94.222c6.421-.46 12.912-1.107 19.529-1.934zm-28.828 2.581c-5.482.298-11.145.474-16.925.539v-94.25c5.817-.06 11.462-.242 16.925-.535zm109.78 100.369c-4.896 2.125-10.085 4.134-15.484 6.045v-93.729c5.361-1.823 10.55-3.757 15.484-5.794zm-24.783 9.188c-5.37 1.711-10.936 3.264-16.646 4.682v-94.055c5.71-1.372 11.252-2.901 16.646-4.552zm-25.946 6.876c-6.71 1.507-13.707 2.813-20.924 3.934v-94.227c7.212-1.093 14.191-2.385 20.924-3.845zm-30.223 5.273c-6.626.851-13.108 1.502-19.529 1.972v-94.315c6.435-.46 12.926-1.107 19.529-1.934zm-28.828 2.581c-5.482.298-11.145.474-16.925.539v-94.343c5.817-.06 11.462-.242 16.925-.535zm-173.854-34.483v-92.883c2.967 1.646 6.84 3.65 11.624 5.873v93.339c-5.602-2.762-9.494-5.013-11.624-6.329zm130.704-184.045c5.473.293 11.118.47 16.925.535v94.245c-5.77-.065-11.429-.242-16.925-.539zm-9.299 93.636c-6.417-.47-12.903-1.121-19.529-1.976v-94.185c6.626.832 13.117 1.479 19.529 1.934zm-28.829-3.32c-7.202-1.121-14.2-2.423-20.924-3.934v-94.041c6.742 1.465 13.717 2.757 20.924 3.85zm-30.223-6.124c-5.696-1.418-11.262-2.971-16.646-4.687v-93.827c5.417 1.66 10.964 3.19 16.646 4.552zm-25.945-7.825c-5.394-1.906-10.583-3.92-15.484-6.049v-93.455c5.022 2.064 10.178 4.017 15.484 5.821zm-24.783-10.281c-5.603-2.762-9.495-5.012-11.624-6.324v-92.79c2.967 1.651 6.84 3.664 11.624 5.905zm2.738 11.574c.033.014.065.028.093.042.005 0 .009.005.014.005 7.751 3.492 16.204 6.742 25.118 9.657 8.388 2.794 17.264 5.259 26.341 7.319 9.671 2.297 19.985 4.217 30.66 5.705 10.034 1.4 19.589 2.353 29.158 2.915 6.956.465 14.335.693 21.886.776v11.341c-7.291-.079-14.53-.298-21.3-.753-9.379-.553-18.692-1.483-28.456-2.846-10.383-1.455-20.408-3.315-29.837-5.556-8.858-2.013-17.441-4.394-25.532-7.096-8.658-2.827-16.837-5.975-24.323-9.355-9.234-4.138-15.288-7.635-18.176-9.416v-9.89c3.521 1.967 8.254 4.418 14.354 7.152zm6.561 23.467c4.938 2.041 10.127 3.976 15.484 5.798v93.734c-5.394-1.906-10.583-3.92-15.484-6.049zm24.783 8.746c5.408 1.655 10.95 3.185 16.646 4.552v94.055c-5.696-1.418-11.262-2.971-16.646-4.687zm25.946 6.663c6.742 1.465 13.721 2.757 20.924 3.845v94.227c-7.202-1.121-14.2-2.427-20.924-3.934zm30.223 5.133c6.612.832 13.103 1.479 19.529 1.934v94.315c-6.412-.47-12.894-1.121-19.529-1.972zm28.828 2.525c5.473.293 11.118.47 16.925.535v94.338c-5.77-.065-11.429-.242-16.925-.539zm173.854 59.851c-2.13 1.316-6.021 3.562-11.624 6.324v-93.334c4.785-2.227 8.658-4.231 11.624-5.877zm0-103.642c-2.892 1.781-8.946 5.282-18.185 9.42-7.477 3.376-15.656 6.519-24.341 9.36-8.063 2.692-16.646 5.073-25.546 7.096-9.392 2.227-19.413 4.092-29.791 5.547-9.774 1.358-19.083 2.292-28.503 2.846-6.742.451-13.972.67-21.259.749v-11.341c7.551-.079 14.926-.307 21.844-.772 9.606-.567 19.162-1.52 29.2-2.92 10.671-1.488 20.984-3.408 30.609-5.696 9.123-2.069 17.999-4.538 26.359-7.319 8.941-2.925 17.404-6.175 25.146-9.667.005 0 .005-.005.009-.005.028-.014.06-.023.088-.037 6.105-2.739 10.843-5.189 14.372-7.147v9.885h-.002zm0-20.645c-2.13 1.316-6.021 3.562-11.624 6.324v-93.204c4.785-2.241 8.658-4.255 11.624-5.905zm0-103.545c-2.887 1.785-8.941 5.291-18.162 9.453-7.667 3.408-15.856 6.542-24.365 9.323-8.095 2.697-16.674 5.082-25.55 7.091-9.378 2.227-19.403 4.096-29.786 5.547-9.802 1.362-19.11 2.292-28.503 2.85-6.742.451-13.972.67-21.259.749v-11.294c7.542-.079 14.921-.307 21.849-.772 9.741-.577 19.571-1.576 29.172-2.967 10.541-1.427 20.859-3.329 30.632-5.649 9.155-2.078 18.032-4.547 26.359-7.323 8.607-2.813 16.823-5.975 25.132-9.662.009-.005.019-.009.033-.014.028-.014.056-.023.088-.037 6.1-2.757 10.834-5.217 14.363-7.179v9.885h-.003zm-20.924-10.048c-5.11 2.204-10.267 4.199-15.484 6.049v-56.773c5.375-1 10.574-2.083 15.484-3.255zm-24.783 9.197c-5.357 1.706-10.922 3.259-16.646 4.687v-60.572c5.961-.763 11.494-1.558 16.646-2.399zm-25.946 6.877c-6.775 1.516-13.772 2.808-20.924 3.901v-63.612c7.398-.563 14.405-1.209 20.924-1.934zm-30.223 5.236c-6.472.856-12.996 1.52-19.529 2.004v-65.319c6.468-.251 12.987-.586 19.529-1.004zm-28.828 2.618c-5.487.298-11.15.474-16.925.539v-65.896c5.705-.033 11.35-.121 16.925-.27zm-26.225.539c-5.766-.065-11.429-.242-16.925-.539v-65.626c5.57.149 11.22.237 16.925.27zm-26.224-1.148c-6.519-.484-13.038-1.148-19.529-2.004v-64.32c6.542.418 13.061.753 19.529 1.004zm-28.829-3.344c-7.133-1.088-14.131-2.381-20.924-3.901v-61.646c6.524.721 13.526 1.367 20.924 1.934zm-30.223-6.095c-5.71-1.418-11.276-2.976-16.646-4.687v-58.28c5.157.846 10.69 1.637 16.646 2.399zm-25.945-7.826c-5.222-1.851-10.374-3.85-15.484-6.049v-53.983c4.919 1.176 10.113 2.26 15.484 3.255zm-36.408 263.226c2.967 1.646 6.84 3.65 11.624 5.873v74.837c-6.407-4.831-10.113-8.741-11.624-10.504zm45.707 18.715c5.408 1.655 10.95 3.185 16.646 4.552v81.64c-5.766-1.706-11.341-3.585-16.646-5.677zm25.946 6.663c6.742 1.465 13.721 2.757 20.924 3.845v82.733c-7.277-1.232-14.275-2.711-20.924-4.413zm30.223 5.134c6.612.832 13.103 1.479 19.529 1.934v82.937c-6.714-.535-13.242-1.223-19.529-2.06zm28.828 2.524c5.473.293 11.118.47 16.925.535v82.951c-5.719-.06-11.373-.228-16.925-.507zm26.225.53c5.817-.06 11.462-.242 16.925-.535v82.974c-5.556.279-11.206.451-16.925.507zm26.224-1.12c6.435-.46 12.926-1.107 19.529-1.934v82.812c-6.296.842-12.824 1.53-19.529 2.064zm28.829-3.222c7.212-1.093 14.191-2.385 20.924-3.845v82.165c-6.644 1.702-13.642 3.18-20.924 4.413zm30.223-5.957c5.71-1.372 11.252-2.901 16.646-4.552v80.515c-5.301 2.092-10.876 3.971-16.646 5.677zm25.945-7.5c5.361-1.823 10.55-3.757 15.484-5.794v77.088c-4.724 2.911-9.876 5.691-15.484 8.281zm36.408-295.643c-2.13 1.316-6.026 3.576-11.624 6.347v-52.166c4.138-1.167 8.021-2.404 11.624-3.71zm-152.279-136.252c105.493 0 170.273 19.092 170.273 32.781 0 13.666-64.78 32.734-170.273 32.734s-170.273-19.068-170.273-32.734c0-13.689 64.78-32.781 170.273-32.781z"/></g></g></svg>