<svg id="_x33_0" enable-background="new 0 0 62 62.783" height="512" viewBox="0 0 62 62.783" width="512" xmlns="http://www.w3.org/2000/svg"><g><g><path d="m27 33.783h-1c-.552 0-1-.448-1-1v-2c0-.552.448-1 1-1h7v-4c0-.489.182-.931.474-1.279l-11.474-17.548-14.553 22.258c-2.255 3.449-3.447 7.449-3.447 11.569 0 9.925 8.075 18 18 18 1.701 0 3.38-.246 5-.713z" fill="#f0bc5e"/></g><g><path d="m60 28.783h-6v-3c0-1.654-1.346-3-3-3h-13.566l-15.434-22.783-17.341 25.599c-3.048 4.499-4.659 9.75-4.659 15.184 0 12.131 9.869 22 22 22 1.929 0 3.835-.262 5.681-.754.656.47 1.453.754 2.319.754h26c2.206 0 4-1.794 4-4v-24c1.103 0 2-.897 2-2v-2c0-1.103-.897-2-2-2zm-8-3v3h-18v-3c0-.551.449-1 1-1h16c.551 0 1 .449 1 1zm-50 15c0-5.033 1.492-9.896 4.315-14.063l15.685-23.154 13.018 19.217h-.018c-1.654 0-3 1.346-3 3v3h-6c-1.103 0-2 .897-2 2v2c0 1.103.897 2 2 2v24c0 .543.111 1.06.308 1.533-1.408.309-2.852.467-4.308.467-11.028 0-20-8.971-20-20zm50 14v-20h2v20zm-2 0h-2v-20h2zm-4 0h-2v-20h2zm-4 0h-2v-20h2zm-4 0h-2v-20h2zm-4 0h-2v-20h2zm-4 0h-2v-20h2zm26 6h-26c-1.103 0-2-.897-2-2v-2h30v2c0 1.103-.897 2-2 2zm2-6h-2v-20h2zm-32-22v-2h34l.001 2z"/><path d="m22 34.783c0-3.309-2.691-6-6-6s-6 2.691-6 6 2.691 6 6 6 6-2.691 6-6zm-10 0c0-2.206 1.794-4 4-4s4 1.794 4 4-1.794 4-4 4-4-1.794-4-4z"/><path d="m22 27.783c2.206 0 4-1.794 4-4s-1.794-4-4-4-4 1.794-4 4 1.794 4 4 4zm0-6c1.103 0 2 .897 2 2s-.897 2-2 2-2-.897-2-2 .897-2 2-2z"/><path d="m20 42.783c-2.206 0-4 1.794-4 4s1.794 4 4 4 4-1.794 4-4-1.794-4-4-4zm0 6c-1.103 0-2-.897-2-2s.897-2 2-2 2 .897 2 2-.897 2-2 2z"/></g></g></svg>