<svg width="249" height="249" viewBox="0 0 249 249" fill="none" xmlns="http://www.w3.org/2000/svg">
<path d="M105.047 245.109H143.953C150.388 245.109 155.625 239.873 155.625 233.438V182.859H167.297C169.444 182.859 171.188 181.12 171.188 178.969V155.625C171.188 153.473 169.444 151.734 167.297 151.734H155.625V136.172H167.297C169.444 136.172 171.188 134.433 171.188 132.281V108.938C171.188 106.79 169.444 105.047 167.297 105.047H155.625V62.25C155.625 60.1024 153.882 58.3594 151.734 58.3594H147.844V27.2344C147.844 25.0868 146.101 23.3438 143.953 23.3438H140.062V7.78125C140.062 5.63363 138.319 3.89062 136.172 3.89062H112.828C110.681 3.89062 108.938 5.63363 108.938 7.78125V23.3438H105.047C102.899 23.3438 101.156 25.0868 101.156 27.2344V58.3594H97.2656C95.118 58.3594 93.375 60.1024 93.375 62.25V105.047H81.7031C79.5555 105.047 77.8125 106.79 77.8125 108.938V132.281C77.8125 134.433 79.5555 136.172 81.7031 136.172H93.375V151.734H81.7031C79.5555 151.734 77.8125 153.473 77.8125 155.625V178.969C77.8125 181.12 79.5555 182.859 81.7031 182.859H93.375V233.438C93.375 239.873 98.6118 245.109 105.047 245.109ZM101.156 213.984H147.844V221.766H101.156V213.984ZM101.156 206.203V198.422H147.844V206.203H101.156ZM143.953 237.328H105.047C102.903 237.328 101.156 235.585 101.156 233.438V229.547H147.844V233.438C147.844 235.585 146.097 237.328 143.953 237.328ZM147.844 190.641H101.156V182.859H147.844V190.641ZM116.719 11.6719H132.281V23.3438H116.719V11.6719ZM108.938 31.125H140.062V58.3594H108.938V31.125ZM101.156 66.1406H147.844V105.047H101.156V66.1406ZM85.5938 112.828H163.406V128.391H85.5938V112.828ZM101.156 136.172H147.844V151.734H101.156V136.172ZM85.5938 159.516H163.406V175.078H85.5938V159.516Z" fill="black"/>
<path d="M42.7969 112.828V87.2044L59.4993 103.907L65.0007 98.4055L41.6569 75.0617C40.5403 73.9451 38.8712 73.6105 37.4161 74.2175C35.9649 74.8205 35.0156 76.2406 35.0156 77.8124V108.937H7.78125C6.20944 108.937 4.78936 109.887 4.18632 111.338C3.58327 112.793 3.91786 114.466 5.03058 115.579L33.4049 143.953L8.92121 168.437C7.80849 169.549 7.47389 171.222 8.07694 172.678C8.67999 174.133 10.1001 175.078 11.6719 175.078H50.5781V167.297H21.0638L41.6569 146.704C43.1782 145.182 43.1782 142.724 41.6569 141.202L17.1732 116.719H38.9062C41.0539 116.719 42.7969 114.976 42.7969 112.828Z" fill="#F0BC5E"/>
<path d="M211.584 74.2175C210.125 73.6105 208.456 73.9451 207.343 75.0617L183.999 98.4055L189.501 103.907L206.203 87.2044V112.828C206.203 114.976 207.946 116.719 210.094 116.719H231.827L207.343 141.202C205.822 142.724 205.822 145.182 207.343 146.704L227.936 167.297H198.422V175.078H237.328C238.9 175.078 240.32 174.133 240.923 172.678C241.526 171.222 241.191 169.549 240.079 168.437L215.595 143.953L243.969 115.579C245.082 114.466 245.417 112.793 244.814 111.338C244.211 109.887 242.791 108.937 241.219 108.937H213.984V77.8124C213.984 76.2406 213.035 74.8205 211.584 74.2175Z" fill="#F0BC5E"/>
</svg>
