<svg width="243" height="243" viewBox="0 0 243 243" fill="none" xmlns="http://www.w3.org/2000/svg">
<path d="M121.5 27.4355C112.854 27.4355 105.823 34.4667 105.823 43.113C105.823 51.7593 112.854 58.7904 121.5 58.7904C130.146 58.7904 137.177 51.7593 137.177 43.113C137.177 34.4667 130.146 27.4355 121.5 27.4355ZM121.5 50.9517C117.177 50.9517 113.661 47.4361 113.661 43.113C113.661 38.7898 117.177 35.2743 121.5 35.2743C125.823 35.2743 129.339 38.7898 129.339 43.113C129.339 47.4361 125.823 50.9517 121.5 50.9517Z" fill="#F0BC5E"/>
<path d="M192.048 94.0645H207.726C214.208 94.0645 219.484 88.7883 219.484 82.3065V11.7581C219.484 5.2762 214.208 0 207.726 0H192.048C185.567 0 180.29 5.2762 180.29 11.7581V31.3548H150.547C145.883 19.8781 134.63 11.7581 121.5 11.7581C108.37 11.7581 97.1169 19.8781 92.4531 31.3548H62.7097V11.7581C62.7097 5.2762 57.4335 0 50.9516 0H35.2742C28.7923 0 23.5161 5.2762 23.5161 11.7581V82.3065C23.5161 88.7883 28.7923 94.0645 35.2742 94.0645H50.9516C57.4335 94.0645 62.7097 88.7883 62.7097 82.3065V54.871H92.4531C93.8176 58.2296 95.7582 61.2878 98.137 63.9517L101.409 83.6001C102.049 87.3932 105.298 90.1452 109.143 90.1452H117.581V154.941L94.0645 174.538V188.129H62.7097V160.694C62.7097 154.212 57.4335 148.935 50.9516 148.935H35.2742C28.7923 148.935 23.5161 154.212 23.5161 160.694V231.242C23.5161 237.724 28.7923 243 35.2742 243H50.9516C57.4335 243 62.7097 237.724 62.7097 231.242V211.645H94.0645V243H148.935V211.645H180.29V231.242C180.29 237.724 185.567 243 192.048 243H207.726C214.208 243 219.484 237.724 219.484 231.242V160.694C219.484 154.212 214.208 148.935 207.726 148.935H192.048C185.567 148.935 180.29 154.212 180.29 160.694V188.129H148.935V174.532L125.419 154.935V90.1452H133.857C137.698 90.1452 140.951 87.3932 141.591 83.5925L144.863 63.9517C147.242 61.2878 149.182 58.2296 150.547 54.871H180.29V82.3065C180.29 88.7883 185.567 94.0645 192.048 94.0645V94.0645ZM141.097 180.29V188.129H101.903V180.29H141.097ZM108.81 172.452L121.5 161.876L134.19 172.452H108.81ZM43.1129 181.913L54.871 170.155V182.587L43.1129 194.345L31.3548 182.587V170.155L43.1129 181.913ZM31.3548 193.671L43.1129 205.429L54.871 193.671V206.103L43.1129 217.861L31.3548 206.103V193.671ZM35.2742 156.774H50.9516C52.6376 156.774 54.0442 157.852 54.5973 159.344L43.1129 170.829L31.6285 159.344C32.1816 157.852 33.5882 156.774 35.2742 156.774V156.774ZM50.9516 235.161H35.2742C33.1116 235.161 31.3548 233.404 31.3548 231.242V217.187L43.1129 228.945L54.871 217.187V231.242C54.871 233.404 53.1141 235.161 50.9516 235.161ZM62.7097 203.806V195.968H94.0645V203.806H62.7097ZM101.903 235.161V195.968H141.097V235.161H101.903ZM199.887 181.913L211.645 170.155V182.587L199.887 194.345L188.129 182.587V170.155L199.887 181.913ZM211.645 206.103L199.887 217.861L188.129 206.103V193.671L199.887 205.429L211.645 193.671V206.103ZM207.726 235.161H192.048C189.886 235.161 188.129 233.404 188.129 231.242V217.187L199.887 228.945L211.645 217.187V231.242C211.645 233.404 209.888 235.161 207.726 235.161ZM192.048 156.774H207.726C209.412 156.774 210.818 157.852 211.371 159.344L199.887 170.829L188.403 159.344C188.956 157.852 190.362 156.774 192.048 156.774V156.774ZM180.29 195.968V203.806H148.935V195.968H180.29ZM199.887 32.9777L211.645 21.2196V33.6513L199.887 45.4094L188.129 33.6513V21.2196L199.887 32.9777ZM199.887 56.4938L211.645 44.7358V57.1675L199.887 68.9255L188.129 57.1675V44.7358L199.887 56.4938ZM207.726 86.2258H192.048C189.886 86.2258 188.129 84.469 188.129 82.3065V68.2519L199.887 80.01L211.645 68.2519V82.3065C211.645 84.469 209.888 86.2258 207.726 86.2258ZM192.048 7.83871H207.726C209.412 7.83871 210.818 8.91615 211.371 10.4089L199.887 21.8933L188.403 10.4089C188.956 8.91615 190.362 7.83871 192.048 7.83871V7.83871ZM54.871 57.1675L43.1129 68.9255L31.3548 57.1675V44.7358L43.1129 56.4938L54.871 44.7358V57.1675ZM43.1129 32.9777L54.871 21.2196V33.6513L43.1129 45.4094L31.3548 33.6513V21.2196L43.1129 32.9777ZM35.2742 7.83871H50.9516C52.6376 7.83871 54.0442 8.91615 54.5973 10.4089L43.1129 21.8933L31.6285 10.4089C32.1816 8.91615 33.5882 7.83871 35.2742 7.83871ZM50.9516 86.2258H35.2742C33.1116 86.2258 31.3548 84.469 31.3548 82.3065V68.2519L43.1129 80.01L54.871 68.2519V82.3065C54.871 84.469 53.1141 86.2258 50.9516 86.2258ZM62.7097 47.0323V39.1935H90.415C90.2542 40.4796 90.1451 41.7848 90.1451 43.1129C90.1451 44.441 90.2542 45.7462 90.415 47.0323H62.7097ZM125.419 82.3065H109.143L107.262 71.0115C111.537 73.2066 116.369 74.4677 121.5 74.4677C126.631 74.4677 131.463 73.2066 135.738 71.0115L133.857 82.3065H125.419ZM121.5 66.629C108.531 66.629 97.9839 56.0824 97.9839 43.1129C97.9839 30.1434 108.531 19.5968 121.5 19.5968C134.469 19.5968 145.016 30.1434 145.016 43.1129C145.016 56.0824 134.469 66.629 121.5 66.629ZM152.585 47.0323C152.746 45.7462 152.855 44.441 152.855 43.1129C152.855 41.7848 152.746 40.4796 152.585 39.1935H180.29V47.0323H152.585Z" fill="black"/>
<path d="M121.5 203.806C115.018 203.806 109.742 209.083 109.742 215.564C109.742 222.046 115.018 227.323 121.5 227.323C127.982 227.323 133.258 222.046 133.258 215.564C133.258 209.083 127.982 203.806 121.5 203.806ZM121.5 219.484C119.337 219.484 117.581 217.727 117.581 215.564C117.581 213.402 119.337 211.645 121.5 211.645C123.663 211.645 125.419 213.402 125.419 215.564C125.419 217.727 123.663 219.484 121.5 219.484Z" fill="#F0BC5E"/>
</svg>
