<svg height="496pt" viewBox="0 0 496 496" width="496pt" xmlns="http://www.w3.org/2000/svg"><path d="m248 0c-136.742188 0-248 111.257812-248 248s111.257812 248 248 248 248-111.257812 248-248-111.257812-248-248-248zm0 480c-127.929688 0-232-104.070312-232-232s104.070312-232 232-232 232 104.070312 232 232-104.070312 232-232 232zm0 0"/><path d="m248 32c-119.105469 0-216 96.894531-216 216s96.894531 216 216 216 216-96.894531 216-216-96.894531-216-216-216zm200 216c0 27.34375-5.527344 53.414062-15.503906 77.183594l-261.679688-261.679688c23.769532-9.976562 49.839844-15.503906 77.183594-15.503906 110.28125 0 200 89.71875 200 200zm-185.910156-70.59375c-4.5625-.910156-9.265625-1.40625-14.089844-1.40625-39.695312 0-72 32.304688-72 72s32.304688 72 72 72 72-32.304688 72-72c0-4.824219-.496094-9.527344-1.40625-14.089844l17.246094 17.25c-1.679688 47.046875-40.382813 84.839844-87.839844 84.839844-48.519531 0-88-39.480469-88-88 0-47.457031 37.792969-86.160156 84.847656-87.839844zm41.910156 70.59375c0 30.878906-25.121094 56-56 56s-56-25.121094-56-56 25.121094-56 56-56 56 25.121094 56 56zm-240.496094-77.183594 29.734375 29.734375c12.097657 12.105469 18.761719 28.183594 18.761719 45.289063 0 10.558594-2.648438 21.054687-7.65625 30.359375l-34.097656 63.3125c-14.183594-27.449219-22.246094-58.542969-22.246094-91.511719 0-27.34375 5.527344-53.414062 15.503906-77.183594zm92.984375 254.925782 63.3125-34.09375c9.296875-5 19.800781-7.648438 30.359375-7.648438 17.105469 0 33.183594 6.664062 45.28125 18.753906l29.734375 29.734375c-23.761719 9.984375-49.832031 15.511719-77.175781 15.511719-32.96875 0-64.0625-8.0625-91.511719-22.257812zm184.046875-.519532-33.773437-33.773437c-15.121094-15.121094-35.21875-23.441407-56.59375-23.441407-13.199219 0-26.328125 3.3125-37.945313 9.566407l-72 38.769531c-24.269531-15.601562-44.949218-36.28125-60.550781-60.550781l38.769531-72c6.246094-11.632813 9.558594-24.753907 9.558594-37.953125 0-21.375-8.328125-41.480469-23.441406-56.59375l-33.773438-33.773438c18.933594-36.121094 48.566406-65.753906 84.6875-84.6875l74.839844 74.839844c-48.9375 8.429688-86.3125 51.070312-86.3125 102.375 0 57.34375 46.65625 104 104 104 51.304688 0 93.945312-37.375 102.375-86.3125l74.839844 74.839844c-18.925782 36.121094-48.566406 65.761718-84.679688 84.695312zm0 0"/><path d="m414.457031 225.078125 15.847657-2.167969c-.761719-5.574218-1.792969-11.199218-3.082032-16.726562l-15.582031 3.617187c1.175781 5.054688 2.121094 10.191407 2.816406 15.277344zm0 0"/><path d="m407.320312 194.542969 15.167969-5.085938c-25.167969-75.042969-95.289062-125.457031-174.488281-125.457031v16c72.320312 0 136.335938 46.03125 159.320312 114.542969zm0 0"/><path d="m344 316.6875-35.3125 35.3125 51.3125 51.3125 35.3125-35.3125zm-12.6875 35.3125 12.6875-12.6875 28.6875 28.6875-12.6875 12.6875zm0 0"/><path d="m138.34375 101.65625 11.3125-11.3125 15.996094 16-11.3125 11.3125zm0 0"/><path d="m170.34375 133.65625 11.3125-11.3125 15.996094 16-11.3125 11.3125zm0 0"/><path d="m90.34375 149.65625 11.3125-11.3125 15.996094 16-11.3125 11.3125zm0 0"/><path d="m122.34375 181.65625 11.3125-11.3125 15.996094 16-11.3125 11.3125zm0 0"/><path d="m160 144c0 8.835938-7.164062 16-16 16s-16-7.164062-16-16 7.164062-16 16-16 16 7.164062 16 16zm0 0"/><path d="m208 248c0 22.054688 17.945312 40 40 40s40-17.945312 40-40-17.945312-40-40-40-40 17.945312-40 40zm64 0c0 13.230469-10.769531 24-24 24s-24-10.769531-24-24 10.769531-24 24-24 24 10.769531 24 24zm0 0"/></svg>