<svg width="250" height="250" viewBox="0 0 250 250" fill="none" xmlns="http://www.w3.org/2000/svg">
<path d="M178.13 13.587H180.848C183.837 13.587 186.283 16.0326 186.283 19.0217V24.4565C186.283 27.4457 183.837 29.8913 180.848 29.8913H156.392V38.0435C156.392 38.3651 156.338 38.6586 156.258 38.9341L158.566 38.3152C159.109 38.0435 159.924 38.0435 160.74 38.0435C164.544 38.0435 167.533 40.4891 168.62 44.0217C169.707 48.3696 167.261 52.7174 162.914 54.0761L134.653 61.6556V71.9026L147.388 68.4867L138.185 67.3913C137.37 67.3913 136.827 66.5761 137.098 65.7609C137.098 64.9457 137.914 64.4022 138.729 64.6739L154.514 66.5756L158.566 65.4891C159.109 65.2174 159.924 65.2174 160.74 65.2174C164.544 65.2174 167.533 67.663 168.62 71.1957C169.707 75.5435 167.261 79.8913 162.914 81.25L134.544 88.8587H134.653V99.0765L147.388 95.6607L138.185 94.5652C137.37 94.5652 136.827 93.75 137.098 92.9348C137.098 92.1196 137.914 91.5761 138.729 91.8478L154.514 93.7495L158.566 92.663C159.109 92.3913 159.924 92.3913 160.74 92.3913C164.544 92.3913 167.533 94.837 168.62 98.3696C169.707 102.717 167.261 107.065 162.914 108.424L145.522 113.088V121.976L158.566 118.478C159.381 118.207 159.924 118.207 160.74 118.207C164.544 118.207 167.533 120.652 168.62 124.185C169.707 128.533 167.261 132.88 162.914 134.239L145.522 138.903V152.174H167.261C170.251 152.174 172.696 154.62 172.696 157.609V163.043C172.696 166.033 170.251 168.478 167.261 168.478H151.229V205.978C151.229 209.511 149.055 212.5 145.794 213.587L144.164 214.13C143.285 214.423 142.413 214.693 141.544 214.946H142.533L135.105 231.658C136.195 233.455 136.826 235.55 136.826 237.772C137.098 244.565 131.663 250 125.141 250C118.348 250 112.913 244.565 112.913 237.772C112.913 235.046 113.865 232.512 115.446 230.484L108.293 214.946H108.387C107.536 214.693 106.689 214.423 105.848 214.13L104.761 213.587C101.5 212.5 99.3261 209.239 99.3261 205.978V168.478H83.0217C80.0326 168.478 77.587 166.033 77.587 163.043V157.609C77.587 154.62 80.0326 152.174 83.0217 152.174H85.2854C83.7128 151.115 82.534 149.501 81.9348 147.554C80.8478 143.207 83.2935 138.859 87.6413 137.5L104.761 132.909V124.02L91.9891 127.446C91.1739 127.717 90.3587 127.717 89.8152 127.717C86.0109 127.717 83.0217 125.272 81.9348 121.739C80.8478 117.391 83.2935 113.043 87.6413 111.685L115.63 104.178V93.931L100.482 97.9938L112.913 99.4565C113.728 99.4565 114.272 100.272 114 101.087C113.457 101.902 112.913 102.174 112.37 102.174L93.2735 99.9273L91.9891 100.272C91.1739 100.543 90.3587 100.543 89.8152 100.543C86.0109 100.543 83.0217 98.0978 81.9348 94.5652C80.8478 90.2174 83.2935 85.8696 87.6413 84.5109L115.63 77.0041V66.7571L100.482 70.8199L112.913 72.2826C113.728 72.2826 114.272 73.0978 114 73.913C113.457 74.7283 112.913 75 112.37 75L93.2735 72.7534L91.9891 73.0978C91.1739 73.3696 90.3587 73.3696 89.8152 73.3696C86.0109 73.3696 83.0217 70.9239 81.9348 67.3913C80.8478 63.0435 83.2935 58.6957 87.6413 57.337L115.63 49.8302V40.7609H96.6087C94.9783 40.7609 93.8913 39.6739 93.8913 38.0435V29.8913H69.4348C66.4457 29.8913 64 27.4457 64 24.4565V19.0217C64 16.0326 66.4457 13.587 69.4348 13.587H72.1522V8.15217C72.1522 6.52174 73.2391 5.43478 74.8696 5.43478C76.5 5.43478 77.587 6.52174 77.587 8.15217V13.587H123.783V2.71739C123.783 1.08696 124.87 0 126.5 0C128.13 0 129.217 1.08696 129.217 2.71739V13.587H172.696V8.15217C172.696 6.52174 173.783 5.43478 175.413 5.43478C177.043 5.43478 178.13 6.52174 178.13 8.15217V13.587Z" fill="#F0BC5E"/>
<path d="M180.706 13.587H177.989V8.15217C177.989 6.52174 176.902 5.43478 175.272 5.43478C173.641 5.43478 172.554 6.52174 172.554 8.15217V13.587H129.076V2.71739C129.076 1.08696 127.989 0 126.359 0C124.728 0 123.641 1.08696 123.641 2.71739V13.587H77.4456V8.15217C77.4456 6.52174 76.3586 5.43478 74.7282 5.43478C73.0978 5.43478 72.0108 6.52174 72.0108 8.15217V13.587H69.2934C66.3043 13.587 63.8586 16.0326 63.8586 19.0217V24.4565C63.8586 27.4457 66.3043 29.8913 69.2934 29.8913H93.75V38.0435C93.75 39.6739 94.8369 40.7609 96.4673 40.7609H115.489V49.8302L87.4999 57.337C83.1521 58.6957 80.7065 63.0435 81.7934 67.3913C82.8804 70.9239 85.8695 73.3696 89.6739 73.3696C90.2173 73.3696 91.0326 73.3696 91.8478 73.0978L93.1322 72.7534L112.228 75C112.772 75 113.315 74.7283 113.859 73.913C114.13 73.0978 113.587 72.2826 112.772 72.2826L100.341 70.8199L115.489 66.7571V77.0041L87.4999 84.5109C83.1521 85.8696 80.7065 90.2174 81.7934 94.5652C82.8804 98.0978 85.8695 100.543 89.6739 100.543C90.2173 100.543 91.0326 100.543 91.8478 100.272L93.1322 99.9273L112.228 102.174C112.772 102.174 113.315 101.902 113.859 101.087C114.13 100.272 113.587 99.4565 112.772 99.4565L100.341 97.9938L115.489 93.931V104.178L87.4999 111.685C83.1521 113.043 80.7065 117.391 81.7934 121.739C82.8804 125.272 85.8695 127.717 89.6739 127.717C90.2173 127.717 91.0326 127.717 91.8478 127.446L104.62 124.02V132.909L87.4999 137.5C83.1521 138.859 80.7065 143.207 81.7934 147.554C82.3926 149.501 83.5714 151.115 85.144 152.174H82.8804C79.8913 152.174 77.4456 154.62 77.4456 157.609V163.043C77.4456 166.033 79.8913 168.478 82.8804 168.478H99.1847V205.978C99.1847 209.239 101.359 212.5 104.62 213.587L105.706 214.13C106.548 214.423 107.395 214.692 108.246 214.946H108.152L115.304 230.484C113.723 232.512 112.772 235.046 112.772 237.772C112.772 244.565 118.206 250 125 250C131.522 250 136.956 244.565 136.685 237.772C136.685 235.55 136.053 233.455 134.964 231.658L142.391 214.946H141.403C142.272 214.692 143.144 214.423 144.022 214.13L145.653 213.587C148.914 212.5 151.087 209.511 151.087 205.978V168.478H167.12C170.109 168.478 172.555 166.033 172.555 163.043V157.609C172.555 154.62 170.109 152.174 167.12 152.174H145.381V138.903L162.772 134.239C167.12 132.88 169.566 128.533 168.479 124.185C167.392 120.652 164.403 118.207 160.598 118.207C159.783 118.207 159.24 118.207 158.424 118.478L145.381 121.976V113.088L162.772 108.424C167.12 107.065 169.566 102.717 168.479 98.3696C167.392 94.837 164.403 92.3913 160.598 92.3913C159.783 92.3913 158.968 92.3913 158.424 92.663L154.373 93.7495L138.587 91.8478C137.772 91.5761 136.957 92.1196 136.957 92.9348C136.685 93.75 137.229 94.5652 138.044 94.5652L147.247 95.6607L134.511 99.0765V88.8587H134.403L162.772 81.25C167.12 79.8913 169.566 75.5435 168.479 71.1957C167.392 67.663 164.403 65.2174 160.598 65.2174C159.783 65.2174 158.968 65.2174 158.424 65.4891L154.373 66.5756L138.587 64.6739C137.772 64.4022 136.957 64.9457 136.957 65.7609C136.685 66.5761 137.229 67.3913 138.044 67.3913L147.247 68.4868L134.511 71.9026V61.6556L162.772 54.0761C167.12 52.7174 169.566 48.3696 168.479 44.0217C167.392 40.4891 164.403 38.0435 160.598 38.0435C159.783 38.0435 158.968 38.0435 158.424 38.3152L156.116 38.9341C156.197 38.6586 156.25 38.3651 156.25 38.0435V29.8913H180.707C183.696 29.8913 186.142 27.4457 186.142 24.4565V19.0217C186.141 16.0326 183.696 13.587 180.706 13.587ZM125 245.109C120.924 245.109 117.663 241.848 117.663 237.772C117.663 233.696 120.924 230.435 125 230.435C129.076 230.435 132.337 233.696 132.337 237.772C132.337 241.848 129.076 245.109 125 245.109ZM135.598 216.576L130.631 227.414C128.881 226.401 126.864 225.815 124.728 225.815C122.91 225.815 121.176 226.239 119.621 226.99L114.946 216.576H115.251C118.478 217.12 121.739 217.391 125 217.391C128.125 217.391 131.25 217.12 134.409 216.576H135.598V216.576ZM120.924 40.7609H129.076V46.1861L120.924 48.3727V40.7609V40.7609ZM95.9005 152.174L104.62 149.835V152.174H95.9005ZM143.75 208.424L142.12 208.967C130.978 212.772 118.75 212.772 107.609 208.696L106.522 208.424C105.435 208.152 104.62 207.065 104.62 205.978V193.779C104.797 193.866 104.978 193.947 105.163 194.022L106.25 194.293C112.228 196.467 118.478 197.554 125 197.554C130.978 197.554 137.228 196.467 143.206 194.565L144.837 194.022C145.119 193.909 145.389 193.779 145.652 193.637V205.978C145.652 207.065 144.837 208.152 143.75 208.424ZM145.652 190.225C145.213 190.707 144.661 191.091 144.022 191.304L142.391 191.848C130.978 195.652 118.478 195.652 107.065 191.576L105.978 191.304C105.462 191.132 105.009 190.843 104.62 190.488V168.478H145.652V190.225ZM167.12 163.043H82.8804V157.609H167.12V163.043ZM139.946 152.174H110.054V148.378L139.946 140.361V152.174ZM159.783 123.641C160.054 123.641 160.326 123.641 160.598 123.641C161.685 123.641 162.772 124.457 163.043 125.543C163.315 126.902 162.5 128.533 161.141 128.804L90.2173 147.826C88.8586 148.37 87.2282 147.283 86.9565 145.924C86.6847 144.565 87.4999 142.935 88.8586 142.663L159.783 123.641ZM139.946 123.434L110.054 131.451V122.563L139.946 114.546V123.434ZM163.043 99.7283C163.315 101.087 162.5 102.717 161.141 102.989L90.2173 122.011C88.8586 122.554 87.2282 121.467 86.9565 120.109C86.6847 118.75 87.4999 117.12 88.8586 116.848L159.783 97.8261C160.054 97.8261 160.326 97.8261 160.598 97.8261C161.685 97.8261 162.772 98.6413 163.043 99.7283ZM129.076 100.534L120.924 102.721V92.4736L129.076 90.2869V100.534ZM163.043 72.5543C163.315 73.913 162.5 75.5435 161.141 75.8152L90.2173 94.837C88.8586 95.1087 87.2282 94.2935 86.9565 92.9348C86.6847 91.5761 87.4999 89.9457 88.8586 89.6739L159.783 70.6522C160.054 70.6522 160.326 70.6522 160.598 70.6522C161.685 70.6522 162.772 71.4674 163.043 72.5543ZM129.076 73.36L120.924 75.5467V65.2997L129.076 63.113V73.36ZM159.783 43.4783C160.054 43.4783 160.326 43.4783 160.598 43.4783C161.685 43.4783 162.772 44.2935 163.043 45.3804C163.315 46.7391 162.5 48.3696 161.141 48.6413L90.2173 67.663C88.8586 68.2065 87.2282 67.1196 86.9565 65.7609C86.6847 64.4022 87.4999 62.7717 88.8586 62.5L159.783 43.4783ZM134.511 44.7287V40.7609H149.305L134.511 44.7287ZM150.815 35.3261H99.1847V29.8913H150.815V35.3261ZM180.706 24.4565H153.533H96.4673H69.2934V19.0217H180.706V24.4565Z" fill="black"/>
</svg>
