<svg id="_x33_0" enable-background="new 0 0 62 62" height="512" viewBox="0 0 62 62" width="512" xmlns="http://www.w3.org/2000/svg"><g><g><g><path d="m41 36c-2.757 0-5-2.243-5-5s2.243-5 5-5 5 2.243 5 5-2.243 5-5 5z" fill="#f0bc5e"/></g></g><g><path d="m58 38h-2c-1.103 0-2 .897-2 2h-14c0-1.103-.897-2-2-2h-1.697l3.324-2.216c-.742-.214-1.411-.587-1.968-1.092l-3.659 2.439v-5.131c0-1.103-.897-2-2-2v-6c0-1.103-.897-2-2-2h-1v-2h-2v2h-1c-1.103 0-2 .897-2 2v6c-1.103 0-2 .897-2 2v4h-2v-11c0-2.757-2.243-5-5-5h-10c-2.757 0-5 2.243-5 5v32c0 2.757 2.243 5 5 5h10c2.757 0 5-2.243 5-5v-7h2v4c0 1.103.897 2 2 2h8c1.103 0 2-.897 2-2v-6h4c1.103 0 2-.897 2-2h14c0 1.103.897 2 2 2h2c1.103 0 2-.897 2-2v-6c0-1.103-.897-2-2-2zm-36 0v2h-2v-2zm-2 4h2v2h-2zm-8 12.465-2 1.333-2-1.333v-2.596l2 1.333 2-1.333zm0-5-2 1.333-2-1.333v-2.596l2 1.333 2-1.333zm0-5-2 1.333-2-1.333v-2.596l2 1.333 2-1.333zm0-5-2 1.333-2-1.333v-2.596l2 1.333 2-1.333zm0-5-2 1.333-2-1.333v-2.596l2 1.333 2-1.333zm0-5-2 1.333-2-1.333v-2.596l2 1.333 2-1.333zm-4 27.404 2 1.333 2-1.333v3.131h-4zm4-32.404-2 1.333-2-1.333v-2.465h4zm-10 32.535v-1h2v-2h-2v-2h2v-2h-2v-2h2v-2h-2v-2h2v-2h-2v-2h2v-2h-2v-2h2v-2h-2v-2h2v-2h-2v-2h2v-2h-2v-1c0-1.654 1.346-3 3-3h1v38h-1c-1.654 0-3-1.346-3-3zm13 3h-1v-38h1c1.654 0 3 1.346 3 3v1h-2v2h2v2h-2v2h2v2h-2v2h2v2h-2v2h2v2h-2v2h2v2h-2v2h2v2h-2v2h2v2h-2v2h2v1c0 1.654-1.346 3-3 3zm5-12v-2h2v2zm10-24v2h-4v-2zm-4 4h4v2h-4zm-2 4h3v22h-3zm5 22v-22h3l.002 22zm9-8h-4v-6h4zm2-2v-2h14v2zm16 2v-6h2l.002 6z"/><path d="m60 30.184v-4.369c1.161-.414 2-1.514 2-2.816 0-1.654-1.346-3-3-3-1.458 0-2.673 1.046-2.942 2.426l-10.058 6.707v-5.132c1.103 0 2-.897 2-2v-2c0-1.103-.897-2-2-2v-1.276l1.858.266.283-1.979-2.141-.307v-1.98l1.858.266.283-1.979-2.141-.307v-2.704c1.103 0 2-.897 2-2v-2c0-1.103-.897-2-2-2v-2h-2v2h-6v-2h-2v2c-1.103 0-2 .897-2 2v2c0 1.103.897 2 2 2v1.276l-1.858-.266-.283 1.979 2.141.307v1.98l-1.858-.266-.283 1.979 2.141.307v2.704c-1.103 0-2 .897-2 2v2c0 1.103.897 2 2 2v7c0-1.627.793-3.061 2-3.974v-3.026h6v3.026c.771.583 1.37 1.381 1.704 2.303l-.011.007c.093.261.17.531.223.808v.001c.054.277.084.562.084.855 0 .196-.036.383-.058.574l10.511-7.008c.356.577.899 1.018 1.547 1.249v4.369c-.847.302-1.514.969-1.816 1.816h-10.285c-.152.743-.482 1.416-.924 2h11.21c.414 1.161 1.514 2 2.816 2 1.654 0 3-1.346 3-3-.001-1.302-.84-2.402-2.001-2.816zm-24-26.184h10l.001 2h-10.001zm2 4h6v2.419l-6-.857zm0 3.581 6 .857v1.98l-6-.857zm0 4 6 .857v1.562h-6zm-2 4.419h10l.001 2h-10.001zm23 2c.552 0 1 .449 1 1s-.448 1-1 1-1-.449-1-1 .448-1 1-1zm0 12c-.552 0-1-.448-1-1s.448-1 1-1 1 .448 1 1-.448 1-1 1z"/><circle cx="41" cy="31" r="1"/></g></g></svg>