<?xml version="1.0" encoding="iso-8859-1"?>
<!-- Generator: Adobe Illustrator 19.0.0, SVG Export Plug-In . SVG Version: 6.00 Build 0)  -->
<svg version="1.1" id="Capa_1" xmlns="http://www.w3.org/2000/svg" xmlns:xlink="http://www.w3.org/1999/xlink" x="0px" y="0px"
	 viewBox="0 0 512 512" style="enable-background:new 0 0 512 512;" xml:space="preserve">
<g>
	<g>
		<path d="M115.775,354.109c-4.147,0-7.507,3.361-7.507,7.507v25.003c0,4.146,3.361,7.507,7.507,7.507
			c4.147,0,7.507-3.361,7.507-7.507v-25.003C123.282,357.47,119.922,354.109,115.775,354.109z"/>
	</g>
</g>
<g>
	<g>
		<path d="M182.014,354.109c-4.147,0-7.507,3.361-7.507,7.507v25.003c0,4.146,3.36,7.507,7.507,7.507
			c4.147,0,7.507-3.361,7.507-7.507v-25.003C189.521,357.47,186.161,354.109,182.014,354.109z"/>
	</g>
</g>
<g>
	<g>
		<path d="M148.894,275.974c-4.147,0-7.507,3.361-7.507,7.507v25.003c0,4.146,3.36,7.507,7.507,7.507s7.507-3.361,7.507-7.507
			v-25.003C156.402,279.335,153.041,275.974,148.894,275.974z"/>
	</g>
</g>
<g>
	<g>
		<path d="M374.616,311.304c-13.523,0-24.524,11.002-24.524,24.524s11.001,24.524,24.524,24.524
			c13.523,0,24.524-11.002,24.524-24.524S388.139,311.304,374.616,311.304z M374.616,345.337c-5.243,0-9.509-4.266-9.509-9.509
			c0-5.243,4.266-9.509,9.509-9.509c5.243,0,9.509,4.266,9.509,9.509C384.125,341.071,379.859,345.337,374.616,345.337z"/>
	</g>
</g>
<g>
	<g>
		<path d="M435.783,140.048c-3.893-3.276-8.801-4.802-13.815-4.291l-5.677,0.575V125.43l8.943-0.905
			c10.427-1.053,18.289-10.75,17.523-21.617c-0.383-5.433-2.925-10.504-6.974-13.911c-3.893-3.276-8.801-4.799-13.815-4.291
			l-5.677,0.575v-4.19c0-8.838-7.19-16.028-16.028-16.028h-2.991V12.711c0-7.009-5.702-12.711-12.71-12.711h-19.623
			c-7.009,0-12.71,5.703-12.71,12.711v52.352h-2.991c-8.838,0-16.028,7.19-16.028,16.028v12.592l-9.944,1.006
			c-10.427,1.053-18.289,10.75-17.523,21.617c0.662,9.368,7.354,16.814,16.275,18.106c0.871,0.126,1.752,0.189,2.638,0.189
			c0.625,0,1.25-0.031,1.876-0.094l6.678-0.676v10.902l-9.944,1.006c-10.427,1.053-18.289,10.751-17.523,21.616
			c0.66,9.369,7.353,16.815,16.273,18.107c0.871,0.126,1.754,0.189,2.64,0.189c0.625,0,1.25-0.031,1.876-0.094l6.679-0.676v10.309
			h-0.5c-4.147,0-7.507,3.361-7.507,7.507v24.096c0,5.981,3.22,11.211,8.008,14.089v9.794c0,7.51,5.708,13.708,13.013,14.495v26.524
			c-8.52,5.503-15.131,13.253-19.245,22.23h-35.602v-6.412c0-6.312-5.136-11.447-11.448-11.447h-19.896
			c-0.988-11.489-10.649-20.539-22.391-20.539h-8.774v-87.595c0-16.695-13.583-30.279-30.28-30.279H99.47
			c-16.696,0-30.279,13.583-30.279,30.279v53.304c0,4.146,3.36,7.507,7.507,7.507s7.507-3.361,7.507-7.507v-53.303
			c0-8.416,6.848-15.264,15.264-15.264h8.934V335.72c0,4.146,3.36,7.507,7.507,7.507s7.507-3.361,7.507-7.507V172.669h18.105v79.558
			c0,4.146,3.36,7.507,7.507,7.507c4.147,0,7.507-3.361,7.507-7.507v-79.558h18.105V335.72c0,4.146,3.36,7.507,7.507,7.507
			s7.507-3.361,7.507-7.507V172.669h8.933c8.417,0,15.265,6.848,15.265,15.264v293.789c0,8.416-6.848,15.264-15.265,15.264h-8.933
			v-79.111c0-4.146-3.36-7.507-7.507-7.507s-7.507,3.361-7.507,7.507v79.111h-18.105V334.381c0-4.146-3.36-7.507-7.507-7.507
			c-4.147,0-7.507,3.361-7.507,7.507v162.605h-18.105v-79.111c0-4.146-3.36-7.507-7.507-7.507s-7.507,3.361-7.507,7.507v79.111
			H99.47c-8.416,0-15.264-6.848-15.264-15.264V271.265c0-4.146-3.36-7.507-7.507-7.507s-7.507,3.361-7.507,7.507v210.457
			C69.191,498.417,82.774,512,99.47,512h99.119c16.696,0,30.28-13.583,30.28-30.279v-85.809h8.774
			c11.741,0,21.402-9.049,22.391-20.539h19.896c6.312,0,11.448-5.135,11.448-11.447v-6.412h35.526
			c8.274,18.185,26.603,30.865,47.848,30.865c28.976,0,52.551-23.574,52.551-52.551c0-17.975-9.097-34.492-24.023-44.132v-26.524
			c7.305-0.786,13.013-6.985,13.013-14.495v-9.794c4.788-2.878,8.008-8.108,8.008-14.089v-24.097c0-4.146-3.36-7.507-7.507-7.507
			h-0.5v-18.711l8.943-0.905c10.427-1.053,18.289-10.75,17.523-21.617C442.374,148.524,439.832,143.454,435.783,140.048z
			 M245.107,373.433c0,4.117-3.349,7.465-7.465,7.465h-8.774v-90.357h8.774c4.116,0,7.465,3.349,7.465,7.465V373.433z
			 M276.362,360.36h-16.241v-49.279h16.241V360.36z M322.638,342.5h-31.261v-13.561h31.279c-0.297,2.264-0.456,4.563-0.456,6.889
			C322.199,338.089,322.36,340.313,322.638,342.5z M367.243,15.015h15.015v50.049h-15.015V15.015z M349.238,80.078h51.027
			c0.559,0,1.013,0.454,1.013,1.013V86.8l-53.052,5.365V81.091h-0.001C348.225,80.533,348.679,80.078,349.238,80.078z
			 M325.026,119.569c-0.293,0.029-0.58,0.024-0.853-0.016h-0.002c-1.842-0.267-3.292-2.077-3.449-4.302
			c-0.197-2.806,1.659-5.38,4.056-5.622l98.704-9.983c0.123-0.013,0.243-0.019,0.359-0.019c1.024,0,1.793,0.453,2.273,0.858
			c0.973,0.819,1.564,2.054,1.664,3.479c0.197,2.806-1.659,5.38-4.056,5.622L325.026,119.569z M401.277,126.948v10.902
			l-53.052,5.365v-10.902L401.277,126.948z M412.287,335.828c0,20.698-16.838,37.537-37.537,37.537s-37.537-16.838-37.537-37.537
			c0-13.949,7.674-26.67,20.026-33.2c2.459-1.3,3.998-3.855,3.998-6.637v-30.732h27.026v30.731c0,2.782,1.539,5.336,3.998,6.636
			C404.614,309.158,412.287,321.879,412.287,335.828z M348.225,250.244v-7.007h53.052v7.007H348.225z M409.285,226.793
			c0,0.788-0.642,1.429-1.429,1.429h-66.21c-0.788,0-1.429-0.642-1.429-1.429v-16.588h0.5h68.066h0.502V226.793z M423.724,160.636
			l-26.206,2.651c-4.125,0.417-7.131,4.1-6.714,8.225c0.416,4.125,4.093,7.13,8.225,6.714l2.247-0.227v17.193h-53.052v-11.828
			L369,181.262c4.125-0.417,7.131-4.1,6.714-8.225c-0.416-4.125-4.09-7.132-8.225-6.714c-0.009,0.001-0.814,0.082-0.823,0.083
			l-41.641,4.211c-0.292,0.03-0.578,0.024-0.855-0.016c-1.842-0.267-3.292-2.076-3.448-4.302c-0.197-2.806,1.659-5.38,4.056-5.622
			l98.704-9.983c1.206-0.125,2.098,0.389,2.634,0.84c0.973,0.819,1.564,2.054,1.664,3.479
			C427.977,157.82,426.121,160.395,423.724,160.636z"/>
	</g>
</g>
<g>
</g>
<g>
</g>
<g>
</g>
<g>
</g>
<g>
</g>
<g>
</g>
<g>
</g>
<g>
</g>
<g>
</g>
<g>
</g>
<g>
</g>
<g>
</g>
<g>
</g>
<g>
</g>
<g>
</g>
</svg>
