<svg id="_x33_0" enable-background="new 0 0 62 62" height="512" viewBox="0 0 62 62" width="512" xmlns="http://www.w3.org/2000/svg"><g><g><g><path d="m37 34c-3.859 0-7-3.141-7-7s3.141-7 7-7 7 3.141 7 7-3.141 7-7 7zm0-9c-1.103 0-2 .897-2 2s.897 2 2 2 2-.897 2-2-.897-2-2-2z" fill="#f0bc5e"/></g></g><g><path d="m37 10c-9.374 0-17 7.626-17 17s7.626 17 17 17 17-7.626 17-17-7.626-17-17-17zm10.416 27.77c-.979-2.631-2.53-4.998-4.56-6.947-.368.561-.814 1.066-1.322 1.5 1.953 1.894 3.402 4.225 4.241 6.817-1.153.836-2.428 1.509-3.794 1.992-.099-2.717-.952-5.357-2.456-7.611-.668.26-1.385.417-2.133.459 1.678 2.2 2.608 4.902 2.608 7.677v.04c-.97.198-1.973.303-3 .303-1.431 0-2.811-.214-4.123-.59 1.792-2.164 3.067-4.694 3.741-7.43-.684-.037-1.342-.172-1.96-.393-.665 2.641-1.961 5.063-3.789 7.087-1.317-.593-2.532-1.368-3.615-2.297 2.303-1.445 4.161-3.503 5.361-5.932-.568-.459-1.063-1.004-1.465-1.615-1.066 2.553-2.94 4.709-5.342 6.095l-.015.008c-1.577-1.776-2.733-3.924-3.328-6.299 1.035.176 2.077.272 3.119.272 1.745 0 3.484-.262 5.177-.753-.298-.588-.517-1.221-.639-1.889-2.624.746-5.372.835-8.043.258-.053-.499-.079-1.008-.079-1.522 0-.942.098-1.86.265-2.753 2.124 1.127 4.489 1.718 6.879 1.718.316 0 .632-.019.948-.04.114-.736.341-1.434.667-2.076-2.745.353-5.549-.192-7.951-1.579l-.025-.015c.773-2.309 2.089-4.368 3.802-6.025.979 2.631 2.53 4.998 4.56 6.947.368-.561.813-1.066 1.322-1.5-1.953-1.894-3.402-4.225-4.241-6.817 1.153-.836 2.428-1.509 3.794-1.992.099 2.717.952 5.357 2.456 7.611.668-.26 1.385-.417 2.133-.459-1.679-2.2-2.609-4.902-2.609-7.677v-.04c.97-.198 1.973-.303 3-.303 1.431 0 2.811.214 4.123.59-1.792 2.164-3.067 4.694-3.741 7.43.684.037 1.342.172 1.96.393.665-2.641 1.961-5.063 3.789-7.087 1.317.593 2.532 1.368 3.615 2.297-2.303 1.445-4.161 3.503-5.361 5.932.568.459 1.063 1.003 1.465 1.615 1.066-2.553 2.94-4.709 5.342-6.095l.015-.008c1.577 1.777 2.734 3.925 3.328 6.3-2.768-.468-5.594-.308-8.298.476.3.589.519 1.224.642 1.894 2.624-.745 5.373-.834 8.043-.258.052.498.078 1.007.078 1.521 0 .942-.098 1.861-.265 2.756-2.404-1.276-5.121-1.858-7.826-1.681-.114.736-.341 1.434-.667 2.077 2.745-.352 5.549.192 7.951 1.579l.025.015c-.772 2.308-2.089 4.367-3.802 6.024z"/><path d="m37 24c-1.654 0-3 1.346-3 3s1.346 3 3 3 3-1.346 3-3-1.346-3-3-3zm0 4c-.552 0-1-.448-1-1s.448-1 1-1 1 .448 1 1-.448 1-1 1z"/><path d="m52 54v3c0 1.654-1.346 3-3 3s-3-1.346-3-3v-5c1.103 0 2-.897 2-2v-2.806c7.144-3.907 12-11.493 12-20.194 0-3.548-.809-6.911-2.25-9.914l3.707-5.929c.355-.57.543-1.225.543-1.95 0-1.064-.469-2.066-1.286-2.748l-4.356-3.631c-1.376-1.146-3.553-1.047-4.819.22l-3.683 3.682c-3.235-1.74-6.932-2.73-10.856-2.73h-21.277c-.881-2.38-3.136-4-5.723-4-1.103 0-2 .897-2 2v2.22l-6.484 1.621c-.893.222-1.516 1.02-1.516 1.94v6.438c0 .92.623 1.718 1.516 1.94l6.484 1.621v2.22h-6c-1.103 0-2 .897-2 2v6c0 1.103.897 2 2 2h2v7.22l-2.484.621c-.893.222-1.516 1.02-1.516 1.94v6.438c0 .92.623 1.718 1.516 1.94l6.484 1.621v4.22c0 1.103.897 2 2 2h16c1.103 0 2-.897 2-2v-4h9c1.717 0 3.389-.195 5-.554v.554c0 1.103.897 2 2 2v5c0 2.757 2.243 5 5 5s5-2.243 5-5v-3c0-1.103.897-2 2-2h6v-2h-6c-2.206 0-4 1.794-4 4zm-50-39.781v-6.439l6-1.5v9.439zm0 13.781v-6h6v2h-4v2h4v10.22l-2 .5v-8.72zm0 18.219v-6.439l6-1.5v9.439zm50.952-41.757c.558-.56 1.519-.602 2.124-.097l4.356 3.631c.361.3.568.741.568 1.265 0 .296-.083.585-.239.836l-3.106 4.969c-.482-.791-1.015-1.547-1.586-2.271 1.126-.433 1.931-1.518 1.931-2.795 0-1.654-1.346-3-3-3-1.277 0-2.362.805-2.794 1.931-.51-.402-1.037-.784-1.58-1.143zm1.048 6.538c-.552 0-1-.448-1-1s.448-1 1-1 1 .448 1 1-.448 1-1 1zm-28 43h-16v-52c1.894 0 3.539 1.283 4 3.124v44.876h12zm-10-6v-42h21c11.579 0 21 9.421 21 21s-9.421 21-21 21zm30 .164v1.836h-2v-1.093c.681-.218 1.348-.464 2-.743z"/><circle cx="19" cy="45" r="1"/><circle cx="5" cy="43" r="1"/><circle cx="19" cy="9" r="1"/><circle cx="5" cy="11" r="1"/></g></g></svg>