<svg width="41" height="29" viewBox="0 0 41 29" fill="none" xmlns="http://www.w3.org/2000/svg">
<path d="M12.8491 0.173583V1.80858H15.0691V10.6736H17.0191V0.173583H12.8491ZM28.537 6.63858H26.677V4.52358H24.847V6.63858H21.412L26.287 0.173583H24.202L19.027 6.93858V8.28858H24.787V10.6736H26.677V8.28858H28.537V6.63858ZM10.7006 25.0236V16.1736H3.00562L2.88562 19.5036C2.78062 22.5786 2.43562 24.9636 1.01062 25.0236H0.560625L0.545625 28.9086H2.36062V26.6736H10.4156V28.9086H12.2156V25.0236H10.7006ZM4.59562 19.6836L4.67062 17.8236H8.78063V25.0236H3.45562C4.26563 24.1836 4.50563 22.0686 4.59562 19.6836ZM21.5067 16.1736V20.5086H16.0767V16.1736H14.1267V26.6736H16.0767V22.1736H21.5067V26.6736H23.4567V16.1736H21.5067ZM26.4921 26.6736H28.4121V16.1736H26.4921V26.6736ZM38.3597 21.2136C39.3347 20.7936 39.9047 19.9986 39.9047 18.8736C39.9047 17.1336 38.4947 16.1736 36.1547 16.1736H31.4597V26.6736H36.4397C39.0497 26.6736 40.4147 25.5786 40.4147 23.7636C40.4147 22.4436 39.6797 21.5736 38.3597 21.2136ZM33.3797 17.6736H35.9897C37.2497 17.6736 37.9247 18.1836 37.9247 19.1736C37.9247 20.1486 37.2497 20.6586 35.9897 20.6586H33.3797V17.6736ZM36.3797 25.1736H33.3797V22.0836H36.3797C37.7297 22.0836 38.4497 22.5636 38.4497 23.6136C38.4497 24.6636 37.7297 25.1736 36.3797 25.1736Z" fill="#E53862"/>
</svg>
