<svg width="44" height="28" viewBox="0 0 44 28" fill="none" xmlns="http://www.w3.org/2000/svg">
<path d="M22.9222 4.71L25.4722 1.68V0.374999H18.3172V2.01H23.0872L20.7022 4.845V6.18H21.6622C23.2522 6.18 23.9422 6.795 23.9422 7.74C23.9422 8.715 23.1172 9.33 21.7222 9.33C20.5372 9.33 19.3972 8.925 18.6472 8.295L17.8072 9.81C18.7822 10.575 20.2672 11.025 21.7522 11.025C24.5722 11.025 25.9072 9.495 25.9072 7.725C25.9072 6.15 24.9022 4.965 22.9222 4.71ZM4.81757 16.375H0.497567V26.875H2.44757V23.845H4.81757C7.57757 23.845 9.28757 22.42 9.28757 20.11C9.28757 17.785 7.57757 16.375 4.81757 16.375ZM4.72757 22.195H2.44757V18.025H4.72757C6.43757 18.025 7.32257 18.79 7.32257 20.11C7.32257 21.43 6.43757 22.195 4.72757 22.195ZM16.1388 27.025C19.3938 27.025 21.7938 24.745 21.7938 21.625C21.7938 18.505 19.3938 16.225 16.1388 16.225C12.8838 16.225 10.4838 18.52 10.4838 21.625C10.4838 24.73 12.8838 27.025 16.1388 27.025ZM16.1388 25.315C14.0238 25.315 12.4488 23.77 12.4488 21.625C12.4488 19.48 14.0238 17.935 16.1388 17.935C18.2538 17.935 19.8288 19.48 19.8288 21.625C19.8288 23.77 18.2538 25.315 16.1388 25.315ZM30.8947 26.875H33.0997L29.3797 21.46L32.9647 16.375H30.8947L27.8797 20.77H25.8697V16.375H23.9497V26.875H25.8697V22.45H27.8197L30.8947 26.875ZM34.4383 26.875H36.2533L41.8933 19.435V26.875H43.8133V16.375H41.9983L36.3583 23.83V16.375H34.4383V26.875Z" fill="#E53862"/>
</svg>
