<svg width="39" height="55" viewBox="0 0 39 55" fill="none" xmlns="http://www.w3.org/2000/svg">
<path d="M19.5001 10.8584C14.3175 10.8584 10.1006 15.0754 10.1006 20.2579C10.1006 25.4405 14.3175 29.6574 19.5001 29.6574C24.6827 29.6574 28.8996 25.4405 28.8996 20.2579C28.8996 15.0754 24.6827 10.8584 19.5001 10.8584Z" fill="#E53862"/>
<path d="M32.4947 40.0043L31.0628 39.8507L30.6182 39.8035L28.7429 39.6015L25.6783 39.2717L22.8599 41.8217L21.6622 42.9055L21.6118 42.9517L20.3625 44.0816L25.5012 55L30.021 49.6789L37.0038 49.5865L32.4947 40.0043Z" fill="#E53862"/>
<path d="M17.3884 42.9517L17.3379 42.9055L16.1403 41.8217L13.3218 39.2717L10.2573 39.6015L8.38192 39.8024L7.9373 39.8507L6.50548 40.0043L1.99634 49.5865L8.97919 49.6789L13.499 55L18.6376 44.0816L17.3884 42.9517Z" fill="#E53862"/>
<path d="M35.9619 20.2578L38.7664 13.9979L32.818 10.5821L31.4077 3.86891L24.587 4.60142L19.5001 0L14.4131 4.60152L7.59247 3.86901L6.18213 10.5821L0.233643 13.9978L3.0381 20.2577L0.233643 26.5176L6.18213 29.9333L7.59247 36.6465L8.11239 36.5907L9.98884 36.3887L11.8642 36.1879L12.3669 36.1341H12.368L14.4131 35.9139L15.9513 37.3049L17.5743 38.7733L18.0803 39.2309L18.8235 39.9033L19.5002 40.5154L20.1768 39.9033L20.9201 39.2309L21.426 38.7733L22.6881 37.6326L22.6892 37.6315L24.5871 35.914L27.9019 36.2696H27.9029L28.2402 36.3061L29.0114 36.3888H29.0125L30.8879 36.5908L31.4078 36.6467L32.8181 29.9334L38.7666 26.5177L35.9619 20.2578ZM19.5001 32.8797C12.5409 32.8797 6.87811 27.218 6.87811 20.2577C6.87811 13.2985 12.5409 7.63576 19.5001 7.63576C26.4593 7.63576 32.122 13.2985 32.122 20.2577C32.122 27.218 26.4593 32.8797 19.5001 32.8797Z" fill="#E53862"/>
</svg>
