<svg width="36" height="46" viewBox="0 0 36 46" fill="none" xmlns="http://www.w3.org/2000/svg">
<path d="M17.5791 18.045C22.5542 18.045 26.6016 13.9976 26.6016 9.0225C26.6016 4.04741 22.5542 0 17.5791 0C12.604 0 8.55664 4.04741 8.55664 9.0225C8.55664 13.9976 12.604 18.045 17.5791 18.045Z" fill="#E53862"/>
<path d="M29.6861 22.4175C29.6823 22.4163 29.6749 22.4135 29.671 22.4126C28.4963 22.1256 24.8988 21.6224 24.8988 21.6224C24.4927 21.4974 24.0588 21.7124 23.9127 22.1132L18.4977 36.9704C18.1854 37.8274 16.9732 37.8274 16.6609 36.9704L11.2459 22.1132C11.128 21.7896 10.8226 21.5867 10.4953 21.5867C10.4177 21.5867 6.71884 22.1053 5.48742 22.4115C2.12246 23.2482 0 26.5571 0 30.0055V42.3678C0 44.2203 1.5019 45.7223 3.35449 45.7223H31.801C33.6536 45.7223 35.1555 44.2203 35.1555 42.3678V29.9644C35.1554 26.531 32.9498 23.4839 29.6861 22.4175Z" fill="#E53862"/>
<path d="M19.6211 21.339C19.405 21.1035 19.0891 20.9851 18.7695 20.9851H16.3856C16.066 20.9851 15.75 21.1036 15.534 21.339C15.1995 21.7036 15.1508 22.2302 15.3884 22.6417L16.6627 24.5628L16.0662 29.5953L17.241 32.7205C17.3555 33.0348 17.7999 33.0348 17.9145 32.7205L19.0892 29.5953L18.4927 24.5628L19.7671 22.6417C20.0043 22.2302 19.9557 21.7036 19.6211 21.339Z" fill="#E53862"/>
</svg>
