<svg width="26" height="49" viewBox="0 0 26 49" fill="none" xmlns="http://www.w3.org/2000/svg">
<path d="M25.9996 33.5831C26.0273 29.7066 24.5392 26.6407 21.5712 24.4756C19.2788 22.8087 16.4969 21.9391 13.8061 21.1035C8.20099 19.3536 6.57499 18.4318 6.57499 15.6714C6.57499 12.5966 10.4552 11.5025 13.7769 11.5025C16.1961 11.5025 18.9793 12.2771 20.7077 13.4251L24.1345 7.95971C21.8755 6.45157 18.7838 5.42288 15.7308 5.10359V0H9.40957V5.46147C3.79052 6.73444 0.250812 10.5165 0.250812 15.6714C0.250812 19.2816 1.70754 22.1446 4.57229 24.164C6.75114 25.7057 9.40845 26.5335 11.9754 27.3349C17.4733 29.0463 19.7059 30.0892 19.6805 33.5428L19.6804 33.5683C19.6804 36.467 15.9502 37.4975 12.7545 37.4975C9.73575 37.4975 6.45303 36.135 4.59222 34.1093L0 38.5827C2.35653 41.1494 5.78031 42.9641 9.40943 43.6754V49H15.7308V43.79C21.9747 42.8696 25.9934 38.9984 25.9996 33.5831Z" fill="#E53862"/>
</svg>
