<svg width="39" height="35" viewBox="0 0 39 35" fill="none" xmlns="http://www.w3.org/2000/svg">
<path d="M37.2969 0.26388C35.537 -0.683746 33.5741 1.14382 32.4234 2.22682C29.7837 4.79895 27.55 7.7772 25.0454 10.4847C22.2702 13.463 19.6981 16.4412 16.8552 19.3519C15.2307 20.9764 13.4709 22.7363 12.3879 24.7669C9.95111 22.3977 7.8528 19.8256 5.1453 17.7274C3.18236 16.2383 -0.0666466 15.1553 0.00104098 18.7427C0.136416 23.4132 4.26536 28.4221 7.3113 31.6033C8.59736 32.9571 10.2895 34.3785 12.2525 34.4462C14.6216 34.5816 17.0583 31.7387 18.4797 30.1819C20.9843 27.4744 23.0149 24.4283 25.3162 21.6533C28.2944 17.9981 31.3404 14.4106 34.2509 10.6878C36.0785 8.38639 41.832 2.70052 37.2969 0.26388ZM2.97918 18.4719C2.9115 18.4719 2.84381 18.4719 2.70843 18.5395C2.43768 18.4719 2.23462 18.4041 1.96387 18.2688C2.16693 18.1334 2.50537 18.2011 2.97918 18.4719Z" fill="#E53862"/>
</svg>
