<svg width="40" height="41" viewBox="0 0 40 41" fill="none" xmlns="http://www.w3.org/2000/svg">
<path d="M38.8791 33.4702L26.7862 21.3779C29.8709 15.9145 29.1043 8.84723 24.4592 4.19864C21.7512 1.49059 18.1512 0 14.3235 0C10.4944 0 6.89443 1.49059 4.18761 4.19864C-1.39681 9.78496 -1.39549 18.876 4.18926 24.4639C6.89831 27.1707 10.497 28.6613 14.326 28.6613C16.8404 28.6613 19.25 28.0065 21.3784 26.7979L33.4646 38.884C34.9583 40.3784 37.3812 40.3791 38.8778 38.884C39.5957 38.1657 39.9988 37.1925 40 36.1772C40 35.1615 39.5957 34.1881 38.8791 33.4702ZM7.03025 21.6221C3.01172 17.6014 3.01172 11.0598 7.02893 7.03963C8.97681 5.09119 11.567 4.01854 14.3234 4.01854C17.0784 4.01854 19.6686 5.09119 21.6177 7.03906C25.6351 11.0598 25.6337 17.6026 21.6164 21.6234C19.6686 23.5706 17.0796 24.6426 14.3259 24.6426C11.571 24.6426 8.97969 23.57 7.03025 21.6221Z" fill="#E53862"/>
</svg>
