<svg width="80" height="80" viewBox="0 0 80 80" fill="none" xmlns="http://www.w3.org/2000/svg">
<path d="M39.5384 0C30.3343 0.0765697 13 1.83767 13 24.9617C13 48.0858 30.7178 49.6937 39.4617 50C48.2822 49.7703 66 48.2389 66 24.9617C66 1.68453 48.7424 0.0765697 39.5384 0ZM38.3111 1.83767H40.7656V19.8315H38.3111V1.83767ZM15.9913 24.9617C15.9913 6.66156 28.0333 1.83767 37.6208 1.83767L29.7207 24.2726L26.2692 45.3292C25.3488 45.1761 15.9146 40.6585 15.9913 24.9617ZM39.6151 48.392C35.3198 48.3155 29.0304 46.9372 27.4964 45.9418L38.0043 22.9709H41.0724L51.5036 46.0949C49.9696 47.0904 43.8336 48.392 39.6151 48.392ZM52.7308 45.4824L49.5861 24.2726L41.4559 1.83767C51.0434 1.83767 63.0854 6.73813 63.0854 24.9617C63.1621 40.6585 53.6512 45.3292 52.7308 45.4824" fill="white"/>
<path d="M19.134 69H22.55L18.266 59.2H15.018L10.734 69H14.094L14.752 67.292H18.476L19.134 69ZM15.662 64.912L16.614 62.448L17.566 64.912H15.662ZM28.9186 69.224C30.8366 69.224 32.3486 68.524 33.3146 67.264L31.2286 65.402C30.6546 66.13 29.9686 66.55 29.0866 66.55C27.7146 66.55 26.7906 65.598 26.7906 64.1C26.7906 62.602 27.7146 61.65 29.0866 61.65C29.9686 61.65 30.6546 62.07 31.2286 62.798L33.3146 60.936C32.3486 59.676 30.8366 58.976 28.9186 58.976C25.7686 58.976 23.4586 61.09 23.4586 64.1C23.4586 67.11 25.7686 69.224 28.9186 69.224ZM39.7318 69.224C42.7418 69.224 44.5058 67.53 44.5058 64.59V59.2H41.2578V64.492C41.2578 65.99 40.6838 66.55 39.7598 66.55C38.8358 66.55 38.2618 65.99 38.2618 64.492V59.2H34.9578V64.59C34.9578 67.53 36.7218 69.224 39.7318 69.224ZM52.7963 69H56.3243L54.2663 65.976C55.4423 65.374 56.1143 64.31 56.1143 62.896C56.1143 60.628 54.3783 59.2 51.6483 59.2H46.9303V69H50.2343V66.536H51.1303L52.7963 69ZM52.7823 62.896C52.7823 63.61 52.3483 64.044 51.4383 64.044H50.2343V61.748H51.4383C52.3483 61.748 52.7823 62.182 52.7823 62.896ZM65.608 69H69.024L64.74 59.2H61.492L57.208 69H60.568L61.226 67.292H64.95L65.608 69ZM62.136 64.912L63.088 62.448L64.04 64.912H62.136Z" fill="white"/>
</svg>
