<svg width="80" height="80" viewBox="0 0 80 80" fill="none" xmlns="http://www.w3.org/2000/svg">
<path d="M79.4 22.988C79.2222 22.106 78.9487 21.2376 78.6 20.4034C78.2581 19.5897 77.8274 18.8034 77.3351 18.065C76.8427 17.3333 76.2752 16.6496 75.653 16.0274C75.0308 15.4051 74.347 14.8376 73.6154 14.3453C72.8769 13.8462 72.0975 13.4222 71.2769 13.0803C70.4496 12.7316 69.5812 12.4581 68.6923 12.2803C67.7829 12.0957 66.853 12 65.9231 12C64.9932 12 64.0564 12.0957 63.1539 12.2803C62.2718 12.4581 61.4034 12.7316 60.5692 13.0803C59.7556 13.4222 58.9692 13.853 58.2308 14.3453C57.9504 14.5299 57.6838 14.735 57.4171 14.9402C57.1504 14.735 56.8838 14.5368 56.6034 14.3453C55.865 13.8462 55.0855 13.4222 54.265 13.0803C53.4376 12.7316 52.5692 12.4581 51.6804 12.2803C50.7778 12.0957 49.841 12 48.9111 12C47.9812 12 47.0445 12.0957 46.1419 12.2803C45.2598 12.4581 44.3915 12.7316 43.5573 13.0803C42.7436 13.4222 41.9573 13.853 41.2188 14.3453C40.9248 14.5436 40.6376 14.7556 40.3573 14.9744C40.0769 14.7556 39.7897 14.5436 39.5026 14.3453C38.7641 13.8462 37.9846 13.4222 37.1641 13.0803C36.3368 12.7316 35.4684 12.4581 34.5795 12.2803C33.6769 12.0957 32.7402 12 31.8103 12C30.8803 12 29.9436 12.0957 29.041 12.2803C28.159 12.4581 27.2906 12.7316 26.4564 13.0803C25.6427 13.4222 24.8564 13.853 24.118 14.3453C23.8239 14.5436 23.5436 14.7487 23.2701 14.9675C22.9966 14.7487 22.7094 14.5436 22.4222 14.3453C21.6838 13.8462 20.9043 13.4222 20.0838 13.0803C19.2564 12.7316 18.388 12.4581 17.4991 12.2803C16.5966 12.0957 15.6598 12 14.7299 12C13.8 12 12.8632 12.0957 11.9607 12.2803C11.0786 12.4581 10.2103 12.7316 9.37607 13.0803C8.56239 13.4222 7.77607 13.853 7.03761 14.3453C6.30598 14.8376 5.62222 15.4051 5 16.0274C4.37778 16.6496 3.81026 17.3333 3.31795 18.065C2.84615 18.8034 2.42222 19.5897 2.08034 20.4034C1.73162 21.2308 1.45812 22.0991 1.28034 22.988C1.09573 23.8906 1 24.8274 1 25.7573C1 26.6872 1.09573 27.6239 1.28034 28.5265C1.45812 29.4086 1.73162 30.2769 2.08034 31.1043C2.42222 31.918 2.85299 32.7043 3.3453 33.4427C3.83761 34.1675 4.40513 34.8581 5.02735 35.4803C5.64957 36.1026 6.33333 36.6701 7.06496 37.1624C7.80342 37.6615 8.58291 38.0855 9.40342 38.4274C10.2308 38.7761 11.0991 39.0496 11.988 39.2274C12.8906 39.412 13.8274 39.5077 14.7573 39.5077C15.6872 39.5077 16.6239 39.412 17.5265 39.2274C18.4085 39.0496 19.2769 38.7761 20.1111 38.4274C20.9248 38.0855 21.7111 37.6547 22.4496 37.1624C22.7368 36.9641 23.0239 36.759 23.2974 36.5402C23.5709 36.759 23.8581 36.9641 24.1453 37.1624C24.8838 37.6615 25.6633 38.0855 26.4838 38.4274C27.3111 38.7761 28.1795 39.0496 29.0615 39.2274C29.9641 39.412 30.9009 39.5077 31.8308 39.5077C32.7607 39.5077 33.6974 39.412 34.6 39.2274C35.4821 39.0496 36.3504 38.7761 37.1846 38.4274C37.9983 38.0855 38.7846 37.6547 39.5231 37.1624C39.8171 36.9641 40.1043 36.7521 40.3846 36.5333C40.665 36.7521 40.9521 36.9641 41.2462 37.1624C41.9846 37.6615 42.7641 38.0855 43.5846 38.4274C44.412 38.7761 45.2803 39.0496 46.1692 39.2274C47.0718 39.412 48.0086 39.5077 48.9385 39.5077C49.8684 39.5077 50.8051 39.412 51.7077 39.2274C52.5898 39.0496 53.4581 38.7761 54.2923 38.4274C55.106 38.0855 55.8923 37.6547 56.6308 37.1624C56.9111 36.9778 57.1778 36.7727 57.4445 36.5675C57.7111 36.7727 57.9778 36.9709 58.2581 37.1624C58.9966 37.6615 59.7761 38.0855 60.5966 38.4274C61.4239 38.7761 62.2923 39.0496 63.1744 39.2274C64.0769 39.412 65.0137 39.5077 65.9436 39.5077C66.8735 39.5077 67.8103 39.412 68.7128 39.2274C69.5949 39.0496 70.4633 38.7761 71.2975 38.4274C72.1111 38.0855 72.8975 37.6547 73.6359 37.1624C74.3675 36.6701 75.0513 36.1026 75.6735 35.4803C76.2957 34.8581 76.8633 34.1744 77.3556 33.4427C77.8547 32.7043 78.2786 31.9248 78.6205 31.1043C78.9692 30.2769 79.2427 29.4086 79.4205 28.5197C79.6051 27.6103 79.7009 26.6803 79.7009 25.7504C79.6804 24.8274 79.5846 23.8906 79.4 22.988V22.988ZM8.75385 16.8684C9.32821 16.4786 9.93675 16.1504 10.5727 15.8769C11.2222 15.6034 11.8991 15.3915 12.5829 15.2547C13.2872 15.1111 14.0188 15.0359 14.7436 15.0359C15.4684 15.0359 16.2 15.1111 16.9043 15.2547C17.5949 15.3983 18.2718 15.6034 18.9145 15.8769C19.5504 16.1436 20.1658 16.4786 20.7333 16.8684C20.8564 16.9504 20.9795 17.0393 21.1026 17.1282C20.8564 17.4291 20.6239 17.7436 20.412 18.065C19.9128 18.8034 19.4889 19.5829 19.147 20.4034C18.7983 21.2308 18.5248 22.0991 18.347 22.988C18.1624 23.8906 18.0667 24.8274 18.0667 25.7573C18.0667 26.6872 18.1624 27.6239 18.347 28.5265C18.5248 29.4086 18.7983 30.2769 19.147 31.1043C19.4889 31.918 19.9197 32.7043 20.412 33.4427C20.6308 33.7641 20.8632 34.0786 21.1094 34.3795C20.9863 34.4684 20.8632 34.5573 20.7333 34.6462C20.159 35.0359 19.5504 35.3641 18.9145 35.6376C18.265 35.9111 17.588 36.1231 16.9043 36.2598C16.2 36.4034 15.4684 36.4786 14.7436 36.4786C14.0188 36.4786 13.2872 36.4034 12.5829 36.2598C11.8923 36.1162 11.2154 35.9111 10.5727 35.6376C9.93675 35.3709 9.32821 35.0359 8.75385 34.6462C8.18633 34.2633 7.65299 33.8188 7.16752 33.3402C6.68205 32.8547 6.24445 32.3214 5.86154 31.7539C5.4718 31.1795 5.14359 30.5709 4.87009 29.935C4.59658 29.2855 4.38462 28.6086 4.24786 27.9248C4.10427 27.2205 4.02906 26.4889 4.02906 25.7641C4.02906 25.0393 4.10427 24.3077 4.24786 23.6034C4.39145 22.9128 4.59658 22.2359 4.87009 21.5932C5.13675 20.9573 5.4718 20.3419 5.86154 19.7744C6.24445 19.2068 6.68889 18.6735 7.16752 18.188C7.65299 17.6957 8.18633 17.2513 8.75385 16.8684V16.8684ZM22.935 31.7539C22.5453 31.1795 22.2171 30.5709 21.9436 29.935C21.6701 29.2855 21.4581 28.6086 21.3214 27.9248C21.1778 27.2205 21.1026 26.4889 21.1026 25.7641C21.1026 25.0393 21.1778 24.3077 21.3214 23.6034C21.465 22.9128 21.6701 22.2359 21.9436 21.5932C22.2103 20.9573 22.5453 20.3419 22.935 19.7744C23.0444 19.6103 23.1675 19.4462 23.2906 19.2821C23.4137 19.4462 23.5299 19.6103 23.6462 19.7744C24.0359 20.3487 24.3641 20.9573 24.6376 21.5932C24.9111 22.2427 25.1231 22.9197 25.2598 23.6034C25.4034 24.3077 25.4786 25.0393 25.4786 25.7641C25.4786 26.4889 25.4034 27.2205 25.2598 27.9248C25.1162 28.6154 24.9111 29.2923 24.6376 29.935C24.3709 30.5709 24.0359 31.1863 23.6462 31.7539C23.5368 31.918 23.4137 32.0821 23.2906 32.2462C23.1675 32.0889 23.0444 31.9248 22.935 31.7539ZM26.1556 33.4496C26.6547 32.7111 27.0786 31.9316 27.4205 31.1111C27.7692 30.2838 28.0427 29.4154 28.2205 28.5265C28.4051 27.6239 28.5009 26.6872 28.5009 25.7573C28.5009 24.8274 28.4051 23.8906 28.2205 22.988C28.0427 22.106 27.7692 21.2376 27.4205 20.4034C27.0786 19.5897 26.6479 18.8034 26.1556 18.065C25.9368 17.7436 25.7043 17.4291 25.4581 17.1282C25.5812 17.0393 25.7043 16.9504 25.8274 16.8684C26.4017 16.4786 27.0103 16.1504 27.6462 15.8769C28.2957 15.6034 28.9727 15.3915 29.6564 15.2547C30.3607 15.1111 31.0923 15.0359 31.8171 15.0359C32.5419 15.0359 33.2735 15.1111 33.9778 15.2547C34.6684 15.3983 35.3453 15.6034 35.988 15.8769C36.6239 16.1436 37.2393 16.4786 37.8068 16.8684C37.9368 16.9573 38.0667 17.0462 38.1897 17.1419C37.9504 17.4427 37.718 17.7504 37.506 18.065C37.0068 18.8034 36.5829 19.5829 36.241 20.4034C35.8923 21.2308 35.6188 22.0991 35.441 22.988C35.2564 23.8906 35.1607 24.8274 35.1607 25.7573C35.1607 26.6872 35.2564 27.6239 35.441 28.5265C35.6188 29.4086 35.8923 30.2769 36.241 31.1043C36.5829 31.918 37.0137 32.7043 37.506 33.4427C37.7248 33.7641 37.9504 34.0718 38.1966 34.3727C38.0667 34.4684 37.9436 34.5573 37.8068 34.6462C37.2325 35.0359 36.6239 35.3641 35.988 35.6376C35.3385 35.9111 34.6615 36.1231 33.9778 36.2598C33.2735 36.4034 32.5419 36.4786 31.8171 36.4786C31.0923 36.4786 30.3607 36.4034 29.6564 36.2598C28.9658 36.1162 28.2889 35.9111 27.6462 35.6376C27.0103 35.3709 26.4017 35.0359 25.8274 34.6462C25.7043 34.5641 25.5744 34.4752 25.4581 34.3795C25.7043 34.0855 25.9368 33.7709 26.1556 33.4496V33.4496ZM40.0291 31.7539C39.6393 31.1795 39.3111 30.5709 39.0376 29.935C38.7641 29.2855 38.5521 28.6086 38.4154 27.9248C38.2718 27.2205 38.1966 26.4889 38.1966 25.7641C38.1966 25.0393 38.2718 24.3077 38.4154 23.6034C38.559 22.9128 38.7641 22.2359 39.0376 21.5932C39.3043 20.9573 39.6393 20.3419 40.0291 19.7744C40.1385 19.6103 40.2547 19.453 40.3709 19.2957C40.4872 19.453 40.6034 19.6103 40.7128 19.7744C41.1026 20.3487 41.4308 20.9573 41.7043 21.5932C41.9778 22.2427 42.1897 22.9197 42.3265 23.6034C42.4701 24.3077 42.5453 25.0393 42.5453 25.7641C42.5453 26.4889 42.4701 27.2205 42.3265 27.9248C42.1829 28.6154 41.9778 29.2923 41.7043 29.935C41.4376 30.5709 41.1026 31.1863 40.7128 31.7539C40.6034 31.918 40.4872 32.0752 40.3709 32.2325C40.2547 32.0752 40.1385 31.918 40.0291 31.7539ZM43.2291 33.4496C43.7282 32.7111 44.1521 31.9316 44.494 31.1111C44.8427 30.2838 45.1162 29.4154 45.294 28.5265C45.4786 27.6239 45.5744 26.6872 45.5744 25.7573C45.5744 24.8274 45.4786 23.8906 45.294 22.988C45.1162 22.106 44.8427 21.2376 44.494 20.4034C44.1521 19.5897 43.7214 18.8034 43.2291 18.065C43.0171 17.7436 42.7846 17.4359 42.5453 17.135C42.6684 17.0393 42.7983 16.9504 42.9282 16.8615C43.5026 16.4718 44.1111 16.1436 44.747 15.8701C45.3966 15.5966 46.0735 15.3846 46.7573 15.2479C47.4615 15.1043 48.1932 15.0291 48.918 15.0291C49.6427 15.0291 50.3744 15.1043 51.0786 15.2479C51.7692 15.3915 52.4462 15.5966 53.0889 15.8701C53.7248 16.1368 54.3402 16.4718 54.9077 16.8615C55.0171 16.9368 55.1265 17.012 55.2291 17.0872C54.9761 17.4017 54.7368 17.7231 54.5111 18.0581C54.012 18.7966 53.588 19.5761 53.2462 20.3966C52.8974 21.2239 52.6239 22.0923 52.4462 22.9812C52.2615 23.8838 52.1658 24.8205 52.1658 25.7504C52.1658 26.6803 52.2615 27.6171 52.4462 28.5197C52.6239 29.4017 52.8974 30.2701 53.2462 31.0974C53.588 31.9111 54.0188 32.6974 54.5111 33.4359C54.7368 33.7709 54.9761 34.0923 55.2359 34.4068C55.1265 34.4889 55.0171 34.5641 54.9077 34.6393C54.3333 35.0291 53.7248 35.3573 53.0889 35.6308C52.4393 35.9043 51.7624 36.1162 51.0786 36.253C50.3744 36.3966 49.6427 36.4718 48.918 36.4718C48.1932 36.4718 47.4615 36.3966 46.7573 36.253C46.0667 36.1094 45.3897 35.9043 44.747 35.6308C44.1111 35.3641 43.5026 35.0291 42.9282 34.6393C42.7983 34.5504 42.6684 34.4615 42.5453 34.3658C42.7846 34.0786 43.0103 33.7641 43.2291 33.4496V33.4496ZM57.0342 31.7539C56.6445 31.1795 56.3162 30.5709 56.0427 29.935C55.7692 29.2855 55.5573 28.6086 55.4205 27.9248C55.2769 27.2205 55.2017 26.4889 55.2017 25.7641C55.2017 25.0393 55.2769 24.3077 55.4205 23.6034C55.5641 22.9128 55.7692 22.2359 56.0427 21.5932C56.3094 20.9573 56.6445 20.3419 57.0342 19.7744C57.1573 19.5897 57.2872 19.412 57.4239 19.2342C57.5607 19.412 57.6906 19.5897 57.8137 19.7744C58.2034 20.3487 58.5316 20.9573 58.8051 21.5932C59.0786 22.2427 59.2906 22.9197 59.4274 23.6034C59.5709 24.3077 59.6462 25.0393 59.6462 25.7641C59.6462 26.4889 59.5709 27.2205 59.4274 27.9248C59.2838 28.6154 59.0786 29.2923 58.8051 29.935C58.5385 30.5709 58.2034 31.1863 57.8137 31.7539C57.6906 31.9385 57.5607 32.1162 57.4239 32.294C57.2872 32.1162 57.1573 31.9385 57.0342 31.7539ZM60.3231 33.4496C60.8222 32.7111 61.2462 31.9316 61.588 31.1111C61.9368 30.2838 62.2103 29.4154 62.388 28.5265C62.5727 27.6239 62.6684 26.6872 62.6684 25.7573C62.6684 24.8274 62.5727 23.8906 62.388 22.988C62.2103 22.106 61.9368 21.2376 61.588 20.4034C61.2462 19.5897 60.8154 18.8034 60.3231 18.065C60.0974 17.7299 59.8581 17.4085 59.6051 17.094C59.7145 17.0188 59.8239 16.9368 59.9333 16.8615C60.5077 16.4718 61.1162 16.1436 61.7521 15.8701C62.4017 15.5966 63.0786 15.3846 63.7624 15.2479C64.4667 15.1043 65.1983 15.0291 65.9231 15.0291C66.6479 15.0291 67.3795 15.1043 68.0838 15.2479C68.7744 15.3915 69.4513 15.5966 70.094 15.8701C70.7299 16.1368 71.3453 16.4718 71.9128 16.8615C72.4804 17.2444 73.0137 17.6889 73.4992 18.1744C73.9846 18.6598 74.4222 19.1932 74.8051 19.7607C75.1949 20.335 75.5231 20.9436 75.7966 21.5795C76.0701 22.2291 76.2821 22.906 76.4188 23.5897C76.5624 24.294 76.6376 25.0256 76.6376 25.7504C76.6376 26.4752 76.5624 27.2068 76.4188 27.9111C76.2752 28.6017 76.0701 29.2786 75.7966 29.9214C75.5299 30.5573 75.1949 31.1727 74.8051 31.7402C74.4222 32.3077 73.9778 32.841 73.4992 33.3265C73.0205 33.812 72.4804 34.2496 71.9128 34.6325C71.3385 35.0222 70.7299 35.3504 70.094 35.6239C69.4445 35.8974 68.7675 36.1094 68.0838 36.2462C67.3795 36.3898 66.6479 36.465 65.9231 36.465C65.1983 36.465 64.4667 36.3898 63.7624 36.2462C63.0718 36.1026 62.3949 35.8974 61.7521 35.6239C61.1162 35.3573 60.5077 35.0222 59.9333 34.6325C59.8239 34.5573 59.7145 34.4821 59.6051 34.4C59.8581 34.106 60.0974 33.7846 60.3231 33.4496V33.4496Z" fill="white"/>
<path d="M26.134 64H29.55L25.266 54.2H22.018L17.734 64H21.094L21.752 62.292H25.476L26.134 64ZM22.662 59.912L23.614 57.448L24.566 59.912H22.662ZM35.4722 64.224C38.4822 64.224 40.2462 62.53 40.2462 59.59V54.2H36.9982V59.492C36.9982 60.99 36.4242 61.55 35.5002 61.55C34.5762 61.55 34.0022 60.99 34.0022 59.492V54.2H30.6982V59.59C30.6982 62.53 32.4622 64.224 35.4722 64.224ZM42.6707 64H47.5007C50.7767 64 53.0307 62.138 53.0307 59.1C53.0307 56.062 50.7767 54.2 47.5007 54.2H42.6707V64ZM45.9747 61.424V56.776H47.3607C48.7467 56.776 49.6987 57.602 49.6987 59.1C49.6987 60.598 48.7467 61.424 47.3607 61.424H45.9747ZM55.1471 64H58.4511V54.2H55.1471V64Z" fill="white"/>
</svg>
