<svg width="80" height="80" viewBox="0 0 80 80" fill="none" xmlns="http://www.w3.org/2000/svg">
<path d="M39.5 53.6725C25.5988 53.6725 14.3275 42.4012 14.3275 28.5C14.3275 14.5988 25.5988 3.3275 39.5 3.3275C53.4012 3.3275 64.6725 14.5988 64.6725 28.5C64.6725 42.4012 53.4012 53.6725 39.5 53.6725V53.6725ZM39.5 2C24.8599 2 13 13.8599 13 28.5C13 43.1401 24.8599 55 39.5 55C54.1401 55 66 43.1401 66 28.5C66 13.8599 54.1276 2 39.5 2V2ZM39.5 53.8854C42.9315 53.8854 46.2502 53.2091 49.3811 51.8941C52.3993 50.6167 55.117 48.7883 57.4464 46.4589C59.7758 44.1295 61.6042 41.4119 62.8816 38.3937C64.2091 35.2628 64.8729 31.944 64.8729 28.5125C64.8729 25.081 64.1966 21.7623 62.8816 18.6314C61.6042 15.6132 59.7758 12.8956 57.4464 10.5662C55.117 8.23677 52.3993 6.40832 49.3811 5.13091C46.2502 3.8034 42.9315 3.13965 39.5 3.13965C36.0685 3.13965 32.7498 3.81593 29.6189 5.13091C26.6007 6.40832 23.883 8.23677 21.5536 10.5662C19.2242 12.8956 17.3958 15.6132 16.1184 18.6314C14.7909 21.7623 14.1271 25.081 14.1271 28.5125C14.1271 31.944 14.8034 35.2628 16.1184 38.3937C17.3958 41.4119 19.2242 44.1295 21.5536 46.4589C23.883 48.7883 26.6007 50.6167 29.6189 51.8941C32.7498 53.2091 36.0685 53.8854 39.5 53.8854V53.8854ZM39.5 2.2129C43.0442 2.2129 46.4882 2.9017 49.7318 4.2793C52.8627 5.60681 55.6805 7.49787 58.0851 9.91493C60.5021 12.332 62.3932 15.1373 63.7207 18.2682C65.0858 21.5118 65.7871 24.9558 65.7871 28.5C65.7871 32.0442 65.0983 35.4882 63.7207 38.7318C62.3932 41.8627 60.5021 44.668 58.0851 47.0851C55.668 49.5021 52.8627 51.3932 49.7318 52.7207C46.4882 54.0858 43.0442 54.7871 39.5 54.7871C35.9558 54.7871 32.5118 54.0983 29.2682 52.7207C26.1373 51.3932 23.3195 49.5021 20.9149 47.0851C18.5104 44.668 16.6068 41.8627 15.2793 38.7318C13.9142 35.4882 13.2129 32.0442 13.2129 28.5C13.2129 24.9558 13.9142 21.5118 15.2793 18.2682C16.6068 15.1373 18.4979 12.332 20.9149 9.91493C23.332 7.49787 26.1373 5.60681 29.2682 4.2793C32.4993 2.9017 35.9433 2.2129 39.5 2.2129" fill="white"/>
<path d="M23.7147 13.1601C23.4218 12.953 22.96 12.9436 22.7572 13.1507L21 14.9012L22.0814 15.6636L23.816 13.9318C24.0413 13.7059 24.0413 13.386 23.7147 13.1601ZM25.8436 15.1836C26.0914 14.9389 26.0463 14.5624 25.6971 14.3177C25.3817 14.1012 24.9199 14.1577 24.7172 14.3648L22.8698 16.2L24.0188 17L25.8436 15.1836Z" fill="white"/>
<path d="M39.5 3C25.4179 3 14 14.4179 14 28.5C14 42.5821 25.4179 54 39.5 54C53.5821 54 65 42.5821 65 28.5C65 14.4179 53.5821 3 39.5 3V3ZM35.5925 3.93881H37.6224L39.4619 8.74702L41.2888 3.93881H43.3187V10.6754H41.9739V5.96866L40.1978 10.6754H38.7261L36.95 5.96866V10.6754H35.6052L35.5925 3.93881V3.93881ZM18.5925 15.0269L21.8784 11.1067C22.5634 10.2948 23.5149 9.64776 24.4157 10.409C24.6948 10.65 24.809 10.7261 25.1515 11.3351C25.2276 11.5507 25.291 11.9567 25.1388 12.3373C25.9254 11.8552 26.7627 12.0075 27.3082 12.5403C28.1455 13.3522 28.0187 14.291 27.2321 15.2299L23.7687 19.3657L18.5925 15.0269V15.0269ZM39.5 45.6015C30.0612 45.6015 22.3985 37.9515 22.3985 28.5C22.3985 19.0612 30.0485 11.3985 39.5 11.3985C48.9388 11.3985 56.6015 19.0485 56.6015 28.5C56.5888 37.9388 48.9388 45.6015 39.5 45.6015ZM55.3075 19.1246L54.153 17.7291L56.3604 14.4052L56.3478 14.3925L52.6687 15.9657L51.5015 14.5828L55.3455 9.49552L56.3224 10.6754L53.9119 13.9104L57.6545 12.2485L58.7075 13.5172L56.3985 16.8791L60.0142 15.103L60.991 16.2828L55.3075 19.1246V19.1246Z" fill="white"/>
<path d="M24 28.5H39.4939V13C30.946 13 24 19.9365 24 28.5V28.5ZM39.5061 28.5V44C48.0663 44 55 37.0635 55 28.5H39.5061Z" fill="white"/>
<path d="M26.638 63.876C27.534 63.428 27.996 62.672 27.996 61.762C27.996 60.278 26.736 59.2 24.034 59.2H18.798V69H24.314C27.016 69 28.458 68.006 28.458 66.298C28.458 65.136 27.786 64.296 26.638 63.876ZM23.586 61.51C24.328 61.51 24.664 61.762 24.664 62.238C24.664 62.714 24.328 62.966 23.586 62.966H22.046V61.51H23.586ZM24.034 66.69H22.046V65.15H24.034C24.762 65.15 25.126 65.416 25.126 65.92C25.126 66.424 24.762 66.69 24.034 66.69ZM42.2961 69L42.2681 59.2H39.5521L36.4441 64.422L33.2521 59.2H30.5361V69H33.5461V64.688L35.6741 68.118H37.1301L39.2581 64.534L39.2861 69H42.2961ZM57.6135 59.2L55.8075 64.842L54.0995 59.2H51.0615L49.2555 64.772L47.5475 59.2H44.1455L47.2815 69H50.8235L52.4895 63.764L54.0715 69H57.6135L60.7495 59.2H57.6135Z" fill="white"/>
</svg>
