<svg width="80" height="80" viewBox="0 0 80 80" fill="none" xmlns="http://www.w3.org/2000/svg">
<path d="M78.6104 13.835L55.7221 13.8382C55.1395 13.8382 54.7588 13.6667 54.7588 12.8673V9.48867C54.7588 8.51456 54.2316 8 53.2748 8H27.0702C26.0906 8 25.5862 8.55016 25.5862 9.47896V12.8576C25.5862 13.5696 25.2477 13.8285 24.6196 13.8285L9.62005 13.8317C8.47124 13.8317 7.80083 14.3754 7.45586 15.0906L0.149703 29.2848C0.055325 29.466 0 29.6764 0 29.89C0 30.4498 0.367749 31.178 1.39289 31.178L24.6164 31.1748C25.3324 31.1748 25.5829 31.4984 25.5829 32.1456V35.521C25.5829 36.5405 26.1753 37 27.0702 37H53.2715C54.1632 37 54.7588 36.5696 54.7588 35.5307L54.7555 32.1553C54.7555 31.466 55.0484 31.1845 55.7188 31.1845L70.2856 31.1812C71.2879 31.1812 72.0104 30.9191 72.5149 29.9903L79.7364 15.9612C79.8959 15.657 80 15.4854 80 15.1262C80 14.1683 79.1734 13.835 78.6104 13.835V13.835ZM72.8403 19.4887L69.3581 26.2621C69.14 26.657 68.7527 26.6699 68.4794 26.6699H51.205C50.489 26.6699 50.2286 26.9903 50.2286 27.6375V31.534C50.2286 32.178 49.9422 32.4919 49.2458 32.4919H31.0959C30.4874 32.4919 30.1163 32.2783 30.1163 31.5243V27.6311C30.1163 26.9191 29.7877 26.6667 29.1368 26.6667H7.95379C7.43308 26.6667 7.0751 26.343 7.0751 25.89C7.0751 25.7573 7.10764 25.6375 7.16622 25.5243L10.6484 18.754C10.7819 18.5178 10.9999 18.3463 11.5239 18.3463L29.1368 18.3495C29.7453 18.3495 30.1229 18.1068 30.1229 17.3722V13.4757C30.1229 12.7864 30.4255 12.5113 31.0959 12.5113L49.2425 12.5081C49.8934 12.5081 50.2189 12.7961 50.2189 13.4854V17.3786C50.2189 18.0485 50.5313 18.343 51.205 18.343H72.0495C72.7134 18.343 72.9314 18.7767 72.9314 19.123C72.9314 19.2492 72.8989 19.3754 72.8403 19.4887Z" fill="white"/>
<path d="M5.609 56.176C7.116 56.176 8.304 55.626 9.063 54.636L7.424 53.173C6.973 53.745 6.434 54.075 5.741 54.075C4.663 54.075 3.937 53.327 3.937 52.15C3.937 50.973 4.663 50.225 5.741 50.225C6.434 50.225 6.973 50.555 7.424 51.127L9.063 49.664C8.304 48.674 7.116 48.124 5.609 48.124C3.134 48.124 1.319 49.785 1.319 52.15C1.319 54.515 3.134 56.176 5.609 56.176ZM15.5215 48.3V51.028H13.1235V48.3H10.5275V56H13.1235V53.162H15.5215V56H18.1175V48.3H15.5215ZM22.6354 54.042V53.03H25.8914V51.16H22.6354V50.258H26.3424V48.3H20.0834V56H26.4854V54.042H22.6354ZM33.7683 48.3L31.8873 52.799L30.0503 48.3H27.2563L30.5123 56H33.0643L36.3203 48.3H33.7683ZM41.9026 56H44.6746L43.0576 53.624C43.9816 53.151 44.5096 52.315 44.5096 51.204C44.5096 49.422 43.1456 48.3 41.0006 48.3H37.2936V56H39.8896V54.064H40.5936L41.9026 56ZM41.8916 51.204C41.8916 51.765 41.5506 52.106 40.8356 52.106H39.8896V50.302H40.8356C41.5506 50.302 41.8916 50.643 41.8916 51.204ZM50.2419 56.176C52.7499 56.176 54.5869 54.482 54.5869 52.15C54.5869 49.818 52.7499 48.124 50.2419 48.124C47.7339 48.124 45.8969 49.818 45.8969 52.15C45.8969 54.482 47.7339 56.176 50.2419 56.176ZM50.2419 54.075C49.2849 54.075 48.5149 53.349 48.5149 52.15C48.5149 50.951 49.2849 50.225 50.2419 50.225C51.1989 50.225 51.9689 50.951 51.9689 52.15C51.9689 53.349 51.1989 54.075 50.2419 54.075ZM56.2441 56H62.3161V53.987H58.8401V48.3H56.2441V56ZM66.3002 54.042V53.03H69.5562V51.16H66.3002V50.258H70.0072V48.3H63.7482V56H70.1502V54.042H66.3002ZM73.5366 56H76.1326V50.313H78.3876V48.3H71.2816V50.313H73.5366V56Z" fill="white"/>
</svg>
