<svg width="100" height="80" viewBox="0 0 100 80" fill="none" xmlns="http://www.w3.org/2000/svg">
<path d="M12.866 57.224C14.784 57.224 16.296 56.524 17.262 55.264L15.176 53.402C14.602 54.13 13.916 54.55 13.034 54.55C11.662 54.55 10.738 53.598 10.738 52.1C10.738 50.602 11.662 49.65 13.034 49.65C13.916 49.65 14.602 50.07 15.176 50.798L17.262 48.936C16.296 47.676 14.784 46.976 12.866 46.976C9.716 46.976 7.406 49.09 7.406 52.1C7.406 55.11 9.716 57.224 12.866 57.224ZM25.482 47.2V50.672H22.43V47.2H19.126V57H22.43V53.388H25.482V57H28.786V47.2H25.482ZM37.1539 57H40.6819L38.6239 53.976C39.7999 53.374 40.4719 52.31 40.4719 50.896C40.4719 48.628 38.7359 47.2 36.0059 47.2H31.2879V57H34.5919V54.536H35.4879L37.1539 57ZM37.1399 50.896C37.1399 51.61 36.7059 52.044 35.7959 52.044H34.5919V49.748H35.7959C36.7059 49.748 37.1399 50.182 37.1399 50.896ZM52.0128 47.2H48.8208L46.8048 50.588L44.8028 47.2H41.3168L45.0128 53.402V57H48.3168V53.444L52.0128 47.2ZM56.7912 57.224C59.8292 57.224 61.3552 55.712 61.3552 53.92C61.3552 50.308 55.9372 51.288 55.9372 50.112C55.9372 49.776 56.2452 49.496 57.2112 49.496C58.0652 49.496 58.9752 49.734 59.9412 50.224L60.9352 47.83C59.9132 47.256 58.5552 46.976 57.2392 46.976C54.2012 46.976 52.6752 48.46 52.6752 50.28C52.6752 53.934 58.0932 52.94 58.0932 54.172C58.0932 54.508 57.7572 54.704 56.8192 54.704C55.7412 54.704 54.5092 54.354 53.5852 53.808L52.5212 56.216C53.5012 56.818 55.1532 57.224 56.7912 57.224ZM63.2484 57H70.9764V54.438H66.5524V47.2H63.2484V57ZM76.047 54.508V53.22H80.191V50.84H76.047V49.692H80.765V47.2H72.799V57H80.947V54.508H76.047ZM88.9949 57H92.5229L90.4649 53.976C91.6409 53.374 92.3129 52.31 92.3129 50.896C92.3129 48.628 90.5769 47.2 87.8469 47.2H83.1289V57H86.4329V54.536H87.3289L88.9949 57ZM88.9809 50.896C88.9809 51.61 88.5469 52.044 87.6369 52.044H86.4329V49.748H87.6369C88.5469 49.748 88.9809 50.182 88.9809 50.896Z" fill="white"/>
<path d="M94.9493 21.9991C94.9493 21.9991 94.9457 21.9991 94.9439 22.0018C94.7801 21.4178 94.3287 21.0205 94.0739 21.0205H59.7112C59.2926 21.0205 58.8922 21.2338 58.5646 21.6871C58.146 22.2738 56.781 23.687 54.9609 23.687C51.3208 23.687 47.6807 23.687 44.0406 23.687C42.2205 23.687 40.8555 22.2738 40.4369 21.6871C40.1093 21.2338 39.7088 21.0205 39.2902 21.0205H4.92761C4.6728 21.0205 4.22143 21.4178 4.0558 22.0018C4.0558 22.0018 4.05216 22.0018 4.05034 21.9991C3.93568 22.4898 3.99392 23.0764 4.46713 23.7297C5.2261 24.743 7.10439 27.1908 9.17197 28.0068C16.1719 30.7506 35.8449 35.5956 41.5162 36.9342C42.3698 37.1289 43.2234 36.8676 43.9441 36.0863C45.1963 34.7477 48.021 34.3531 49.5007 34.3531C50.9804 34.3531 53.8052 34.7477 55.0574 36.0889C55.7781 36.8729 56.6317 37.1342 57.4853 36.9369C63.1566 35.5983 82.8296 30.7533 89.8295 28.0094C91.8971 27.1935 93.7754 24.743 94.5343 23.7323C95.0076 23.0791 95.064 22.4898 94.9493 21.9991ZM42.2205 31.6865C40.2185 31.6865 36.7604 29.2867 36.7604 26.3535H62.2411C62.2411 29.2867 58.783 31.6865 56.781 31.6865H42.2205Z" fill="white"/>
</svg>
