<svg width="80" height="80" viewBox="0 0 80 80" fill="none" xmlns="http://www.w3.org/2000/svg">
<path fill-rule="evenodd" clip-rule="evenodd" d="M68.1578 52.1009C68.1871 51.395 68.2133 50.5004 68.2133 49.5953C68.2133 47.6605 66.6298 45.8266 66.6163 45.8107C58.5235 36.8262 44.8497 23.5357 39.7641 23.0743C39.661 23.0633 39.5 23.0731 39.5 23.0731C39.5031 29.2074 39.7074 28.9208 36.0956 30.4492C35.7235 30.6063 23.6126 35.7347 12.0616 46.2165C10.6574 47.8066 10.7867 49.3967 10.7867 49.3967C10.7867 50.3586 10.8166 51.0162 10.8483 52.0966C16.1766 47.5206 31.986 34.5168 39.5 34.5168C47.0103 34.5168 62.8325 47.5292 68.1578 52.1009V52.1009ZM67.94 44.6007C68.0236 44.6942 70 46.9572 70 49.5953C70 51.6487 69.864 53.7161 69.8628 53.7319C69.8591 53.8309 69.8109 54.7048 69.3278 54.9419C69.2499 54.9799 69.1643 54.9995 69.0777 54.9994C68.8947 54.9994 68.6922 54.9163 68.4677 54.7507C68.2603 54.5667 47.6301 36.3189 39.5 36.3189C31.3711 36.3189 10.7409 54.5667 10.5232 54.7598C10.3054 54.9187 10.1053 55 9.92537 55C9.83817 55.0004 9.75208 54.9803 9.67405 54.9413C9.18971 54.7048 9.14213 53.8309 9.13786 53.7362C9.05175 52.3576 9.00578 50.9767 9 49.5953C9 46.9572 10.9764 44.6942 11.0606 44.6007L11.0618 44.5995C11.9201 43.6456 32.1709 21.2606 39.5 21.2606C46.8298 21.2606 67.0799 43.6456 67.94 44.6007V44.6007ZM68.1291 30.8098C68.1578 30.1046 68.1846 29.2117 68.1846 28.3073C68.1846 26.3743 66.6029 24.5416 66.5889 24.5257C58.5045 15.5503 44.8436 2.27333 39.7641 1.81194C39.6604 1.80094 39.5006 1.81133 39.5006 1.81133C39.5031 7.93955 39.7068 7.65233 36.0986 9.18011C35.7272 9.33655 23.6284 14.4601 12.0884 24.9321C10.6854 26.5204 10.816 28.1087 10.816 28.1087C10.816 29.0693 10.8452 29.7263 10.877 30.8055C16.1998 26.2344 31.994 13.2434 39.5006 13.2434C47.003 13.2434 62.8087 26.2429 68.1291 30.8098V30.8098ZM67.9114 23.3169C67.9949 23.4104 69.9695 25.6709 69.9695 28.3073C69.9695 30.3588 69.8335 32.4237 69.8329 32.4396C69.8292 32.5386 69.781 33.4113 69.2985 33.6478C69.2206 33.6857 69.135 33.7054 69.0484 33.7052C68.8654 33.7052 68.6629 33.6233 68.4384 33.4577C68.231 33.2726 47.6222 15.0431 39.5 15.0431C31.3791 15.0431 10.7696 33.2726 10.5525 33.4657C10.3347 33.6252 10.1346 33.7058 9.95465 33.7058C9.86774 33.706 9.78195 33.6862 9.70394 33.6478C9.22021 33.4107 9.17324 32.5386 9.16836 32.4439C9.16714 32.4237 9.0305 30.3588 9.0305 28.3067C9.0305 25.6709 11.0051 23.4104 11.0893 23.3169L11.0905 23.3157C11.9481 22.363 32.1782 0 39.5 0C46.8231 0 67.0519 22.363 67.9114 23.3169V23.3169Z" fill="white"/>
<path d="M8.866 69.224C10.784 69.224 12.296 68.524 13.262 67.264L11.176 65.402C10.602 66.13 9.916 66.55 9.034 66.55C7.662 66.55 6.738 65.598 6.738 64.1C6.738 62.602 7.662 61.65 9.034 61.65C9.916 61.65 10.602 62.07 11.176 62.798L13.262 60.936C12.296 59.676 10.784 58.976 8.866 58.976C5.716 58.976 3.406 61.09 3.406 64.1C3.406 67.11 5.716 69.224 8.866 69.224ZM15.126 69H18.43V59.2H15.126V69ZM23.0585 69H26.3625V61.762H29.2325V59.2H20.1885V61.762H23.0585V69ZM36.8667 69H40.3947L38.3367 65.976C39.5127 65.374 40.1847 64.31 40.1847 62.896C40.1847 60.628 38.4487 59.2 35.7187 59.2H31.0007V69H34.3047V66.536H35.2007L36.8667 69ZM36.8527 62.896C36.8527 63.61 36.4187 64.044 35.5087 64.044H34.3047V61.748H35.5087C36.4187 61.748 36.8527 62.182 36.8527 62.896ZM47.4803 69.224C50.6723 69.224 53.0103 67.068 53.0103 64.1C53.0103 61.132 50.6723 58.976 47.4803 58.976C44.2883 58.976 41.9503 61.132 41.9503 64.1C41.9503 67.068 44.2883 69.224 47.4803 69.224ZM47.4803 66.55C46.2623 66.55 45.2823 65.626 45.2823 64.1C45.2823 62.574 46.2623 61.65 47.4803 61.65C48.6983 61.65 49.6783 62.574 49.6783 64.1C49.6783 65.626 48.6983 66.55 47.4803 66.55ZM58.3675 66.508V65.22H62.5115V62.84H58.3675V61.692H63.0855V59.2H55.1195V69H63.2675V66.508H58.3675ZM71.8894 59.2V63.652L68.1654 59.2H65.4494V69H68.6694V64.548L72.3934 69H75.1094V59.2H71.8894Z" fill="white"/>
</svg>
