<svg width="80" height="80" viewBox="0 0 80 80" fill="none" xmlns="http://www.w3.org/2000/svg">
<path d="M12 28.022C12.3062 26.4986 13.0908 25.5344 13.9711 25.0138C15.5021 24.1074 15.904 21.7741 16.0571 20.3664L16.0762 20.2121C15.9805 21.1377 15.9231 22.0634 15.9231 23.0661C15.9231 25.0138 16.0762 27.0964 16.4015 29.4105C17.3584 36.1983 20.6308 43.4876 22.5445 45.7052L22.6594 45.8209L23.0995 46.303L23.1187 46.3223C27.8072 50.1791 32.1131 51.5482 39.5766 51.5482H39.634C47.0974 51.5482 51.4033 50.1791 56.0727 46.3223L56.0919 46.303L56.532 45.8402L56.6468 45.7052C58.5797 43.4683 61.833 36.1983 62.7898 29.4105C63.1152 27.0964 63.2683 25.0138 63.2683 23.0661C63.2683 22.0055 63.23 20.9835 63.1152 20L63.1343 20.0193C63.2683 21.4077 64.0146 25.0331 65.4499 26.0744C66.1771 26.595 66.6938 27.2121 67 27.9256C66.6555 42.9477 54.4843 55 39.5 55C24.5539 55 12.4019 42.9862 12 28.022Z" fill="white"/>
<path d="M39.5 55C24.3341 55 12 42.6511 12 27.4905C12 12.3299 24.3341 0 39.5 0C54.6658 0 67 12.3299 67 27.4905C67.019 42.6511 54.6658 55 39.5 55ZM39.5 0.360967C24.5432 0.360967 12.3611 12.5389 12.3611 27.4905C12.3611 42.4611 24.5432 54.62 39.5 54.62C54.4568 54.62 66.6389 42.4421 66.6389 27.4905C66.6389 12.5389 54.4758 0.360967 39.5 0.360967Z" fill="white"/>
<path d="M57.202 43.0218C56.2649 44.1615 55.3465 44.4513 55.0466 44.2774C54.7843 44.1229 54.6905 43.1184 54.878 41.7661C56.3024 37.3037 57.3519 32.4164 57.9892 27.8187C58.8701 21.5598 58.8326 15.9383 57.5394 12.5191C57.3707 12.0748 57.1833 11.7271 57.0333 11.5146C56.8834 11.3021 56.7897 11.2055 56.7897 11.2055C54.0908 8.42376 46.8188 7.03288 39.5469 7.03288C32.2749 7.03288 25.0029 8.42376 22.304 11.2055C22.304 11.2055 22.2103 11.3214 22.0604 11.5146C21.9105 11.7271 21.723 12.0555 21.5544 12.5191C20.2424 15.9383 20.2237 21.5598 21.0858 27.8187C21.723 32.3777 22.7726 37.2458 24.1783 41.7082C24.3844 43.0991 24.272 44.1229 24.0096 44.2774C23.7097 44.4706 22.6976 44.1229 21.723 42.8479C20.055 39.6219 18.162 34.4061 17.4686 29.4607C17.1499 27.1619 17 25.1336 17 23.2018C17 19.6474 17.5435 16.6145 18.6493 13.9293C19.4927 11.9203 20.8984 10.2203 22.7164 9.04192C27.252 6.10563 32.4061 4.38635 37.6164 4.05795C38.2349 4.01932 38.8534 4 39.4719 4H39.5281C40.1466 4 40.7838 4.01932 41.3836 4.05795C46.5939 4.38635 51.748 6.10563 56.2836 9.04192C58.1016 10.2203 59.5073 11.9203 60.3507 13.9293C61.4752 16.6145 62 19.6667 62 23.2018C62 25.1143 61.8501 27.1619 61.5314 29.4607C60.838 34.5027 58.8888 39.7957 57.202 43.0218V43.0218ZM49.5177 49.4546C50.3424 48.9523 51.242 48.141 51.167 47.8512C51.092 47.6001 49.5927 47.9671 48.3369 48.2762C47.7934 48.4501 47.2312 48.5853 46.6876 48.7012C44.551 49.1262 42.1333 49.3773 39.5843 49.3773H39.5281C36.9792 49.3773 34.5614 49.1455 32.4248 48.7012C31.9375 48.6046 31.4315 48.4694 30.9442 48.3342C29.651 48.0058 27.9829 47.5808 27.908 47.8512C27.833 48.1603 28.7514 48.991 29.5948 49.4932C32.3311 50.575 35.4236 51 39.5094 51H39.5656C43.6514 51 46.7626 50.5557 49.5177 49.4546V49.4546Z" fill="white"/>
<path d="M26.2158 10.8069C26.0997 10.8446 26.0031 10.8822 25.887 10.9199C25.9837 10.8822 26.0997 10.8446 26.2158 10.8069ZM27.9367 10.2799C27.956 10.2799 27.9753 10.2611 28.014 10.2611C27.9753 10.2611 27.956 10.2799 27.9367 10.2799ZM29.9863 9.80936C29.9863 9.80936 29.9863 9.82819 29.9863 9.80936C30.0636 9.79054 30.1603 9.77172 30.2376 9.77172C30.1603 9.79054 30.0636 9.80936 29.9863 9.80936ZM33.1574 47.4165C33.08 47.3977 33.022 47.3977 32.9447 47.3789C33.0027 47.3977 33.08 47.3977 33.1574 47.4165ZM36.4638 9.07529C36.3672 9.07529 36.2511 9.09411 36.1545 9.09411C36.2705 9.07529 36.3672 9.07529 36.4638 9.07529ZM34.1048 9.24469C34.1822 9.24469 34.2595 9.22587 34.3562 9.22587C34.2595 9.22587 34.1822 9.22587 34.1048 9.24469ZM30.2957 9.7529C30.2763 9.7529 30.257 9.7529 30.2376 9.77172C30.257 9.77172 30.2763 9.77172 30.2957 9.7529ZM32.3453 9.43291C32.2486 9.45174 32.1326 9.47056 32.0359 9.47056C32.1326 9.47056 32.2486 9.45174 32.3453 9.43291ZM34.6076 47.6236C34.6656 47.6236 34.7236 47.6424 34.7816 47.6424C34.7236 47.6424 34.6656 47.6236 34.6076 47.6236ZM38.6681 47.9059H38.3588H38.6681ZM40.6404 47.9059H40.331H40.6404ZM36.7539 47.8306C36.6765 47.8306 36.5799 47.8118 36.5025 47.8118C36.5799 47.8118 36.6765 47.8306 36.7539 47.8306ZM42.4967 47.8118C42.4 47.8118 42.3227 47.8306 42.226 47.8306C42.3227 47.8306 42.4193 47.8118 42.4967 47.8118ZM44.3916 47.6236C44.2949 47.6424 44.1789 47.6424 44.0822 47.6612C44.1789 47.6424 44.2756 47.6424 44.3916 47.6236ZM34.9363 47.6612C34.8976 47.6612 34.8396 47.6424 34.8009 47.6424C34.8396 47.6424 34.8783 47.6612 34.9363 47.6612ZM56.9793 13.8374C57.0373 13.9691 57.076 14.082 57.1147 14.2138C57.076 14.082 57.0373 13.9503 56.9793 13.8374ZM44.0629 47.6612C44.0629 47.6612 44.0822 47.6612 44.0629 47.6612C44.0822 47.6612 44.0629 47.6612 44.0629 47.6612ZM23.9148 11.8234C23.9921 11.7857 24.0695 11.7292 24.1661 11.6916C24.0695 11.7292 23.9921 11.7857 23.9148 11.8234ZM54.833 11.6916C54.8911 11.7292 54.9684 11.7669 55.0264 11.8045C54.9684 11.7669 54.9104 11.7292 54.833 11.6916ZM40.7371 9H40.4471H40.7371ZM52.7834 10.8069L53.0735 10.9199C52.9768 10.8634 52.8801 10.8446 52.7834 10.8069ZM55.2004 20.3875V17.0936H54.9297C54.9297 15.1361 54.8911 13.3103 54.833 11.7104C54.3303 11.4281 53.7502 11.1646 53.1121 10.9387C53.1508 12.7833 53.1701 14.8726 53.1895 17.1125H52.8608C52.8608 14.8349 52.8414 12.708 52.7834 10.8258C52.242 10.6375 51.6813 10.4681 51.0625 10.2987C51.1012 12.3504 51.1205 14.6655 51.1012 17.1125H50.7725C50.7725 14.6279 50.7531 12.2751 50.7338 10.2046C50.1731 10.0729 49.6123 9.94112 49.0129 9.82819C49.0322 12.0492 49.0516 14.515 49.0322 17.1125H48.7035C48.7035 14.4773 48.7035 11.9928 48.6842 9.77172C48.1234 9.67761 47.5434 9.58349 46.944 9.48938C46.9633 11.8234 46.9633 14.4208 46.9633 17.1313H46.6539C46.6539 14.402 46.6539 11.8045 46.6346 9.45174C46.0738 9.37645 45.4938 9.30116 44.8943 9.24469V17.1689L44.875 17.1313H44.585V9.22587C44.0049 9.1694 43.4248 9.13176 42.8447 9.09411C42.8447 11.5975 42.8447 14.3079 42.8254 17.1125H42.516C42.516 14.2891 42.5353 11.5787 42.5353 9.07529C41.9359 9.03765 41.3559 9.01882 40.7371 9.01882L40.7178 17.1313H40.4084L40.4277 9.01882C40.1183 9.01882 39.809 9 39.4996 9C38.4748 9 37.4693 9.03765 36.4832 9.07529C36.4832 11.5787 36.4832 14.2891 36.5025 17.0936H36.1931C36.1931 14.2891 36.1738 11.5975 36.1738 9.09411C35.5744 9.13176 34.9943 9.1694 34.4142 9.22587V17.1125H34.1048V9.26351C33.5054 9.31998 32.9254 9.39527 32.3646 9.45174C32.3453 11.8045 32.3453 14.402 32.3646 17.1501H32.0552C32.0552 14.4397 32.0552 11.8422 32.0746 9.5082C31.4752 9.58349 30.8951 9.67761 30.3343 9.79054C30.315 12.0116 30.2957 14.515 30.315 17.1501H29.9863C29.9863 14.5338 29.9863 12.0681 30.0056 9.84701C29.4062 9.95994 28.8261 10.0917 28.2847 10.2235C28.246 12.2939 28.2267 14.6467 28.2267 17.1313H27.898C27.898 14.6655 27.9173 12.3692 27.9367 10.3176C27.3372 10.4681 26.7572 10.6564 26.2158 10.8446C26.1771 12.7268 26.1384 14.8538 26.1384 17.1313H25.8097C25.8097 14.8914 25.829 12.8021 25.887 10.9575C25.249 11.2022 24.6689 11.4469 24.1661 11.7292C23.9148 19.8229 24.0501 32.9797 26.1191 44.4237C25.9451 44.2355 25.7904 44.0097 25.6744 43.7461C23.7408 32.5468 23.6054 19.8605 23.8374 11.9175C23.3734 12.1998 22.9866 12.4821 22.6579 12.8021C22.6579 12.8021 22.5806 12.8774 22.4839 13.028C22.3679 13.1974 22.1939 13.4797 22.0392 13.875C22.0585 13.8185 22.0779 13.7809 22.0972 13.7244C21.9038 19.277 22.0005 27.0507 23.0833 35.5772C22.832 34.5796 22.5999 33.5632 22.4066 32.5656C21.7105 25.7331 21.6138 19.5217 21.7298 14.7597C21.8265 14.4585 21.9232 14.1573 22.0198 13.8938C20.763 16.9995 20.7243 22.1945 21.5945 28.0859C22.3486 33.1868 23.6634 38.6641 25.5003 43.4073C25.8097 44.1979 26.0804 44.499 26.7378 45.0072C28.5941 46.2872 30.5084 46.9836 32.4613 47.36C32.5773 47.3789 32.6933 47.3977 32.8287 47.4165C32.3066 40.8098 32.0939 30.1752 32.0359 20.5005H32.3453C32.4033 30.2128 32.616 40.8663 33.138 47.473C33.6214 47.5483 34.1048 47.6236 34.6076 47.68C34.4916 45.3649 34.3949 42.5039 34.3369 39.3417H34.6463C34.7236 42.5227 34.8009 45.3837 34.917 47.7177C35.4197 47.7741 35.9224 47.8306 36.4252 47.8682C36.3672 45.4966 36.3285 42.5792 36.2898 39.3417H36.5992C36.6379 42.5792 36.6765 45.5154 36.7345 47.8871C37.2566 47.9247 37.7787 47.9435 38.3201 47.9624L38.3008 39.3417H38.6101L38.6295 47.9812C38.9002 47.9812 39.1515 48 39.4223 48H39.4803C39.751 48 40.0217 48 40.273 47.9812L40.2924 39.3417H40.6017L40.5824 47.9624C41.1238 47.9435 41.6459 47.9247 42.168 47.8871C42.2646 43.3132 42.342 36.6877 42.3807 29.667H42.69C42.6514 36.6689 42.574 43.2944 42.4773 47.8494C42.9994 47.8118 43.5021 47.7553 43.9855 47.6988C44.1016 45.3649 44.1982 42.5039 44.2563 39.3229H44.5656C44.4883 42.485 44.4109 45.346 44.2949 47.6612C44.7977 47.6047 45.2811 47.5294 45.7645 47.4542C45.9385 45.1578 46.0932 42.3721 46.2092 39.3229H46.5379C46.4219 42.3533 46.2865 45.1202 46.1125 47.3977C46.2285 47.3789 46.3445 47.36 46.4799 47.3412C48.4328 46.9648 50.3471 46.2683 52.2033 44.9884C52.4741 44.7814 52.6674 44.612 52.8414 44.4426C54.2723 36.5183 54.775 27.7659 54.8524 20.444L55.2004 20.3875V20.3875ZM27.5693 45.459C27.2599 43.5014 26.9892 41.4122 26.7765 39.2476H27.1052C27.3373 41.4875 27.608 43.6332 27.9367 45.666C27.8013 45.6096 27.6853 45.5343 27.5693 45.459ZM29.3289 46.3625C29.0388 44.2167 28.7874 41.8263 28.5941 39.2852H28.9228C29.1162 41.8827 29.3675 44.3296 29.6769 46.4942C29.5609 46.4566 29.4449 46.4001 29.3289 46.3625V46.3625ZM31.0691 46.9648C30.5664 42.3345 30.257 36.0478 30.1023 29.5729H30.431C30.5857 36.0854 30.8951 42.4097 31.3978 47.0589C31.3011 47.0212 31.1851 47.0024 31.0691 46.9648ZM32.1132 20.0676H29.0195V26.6366H31.3978V29.1776H29.0195L29.0582 38.89L26.3704 38.8711L25.7517 17.4701L32.1132 17.5077V20.0676V20.0676ZM30.3537 26.2413H30.025C29.9863 24.2838 29.9669 22.3451 29.9476 20.444H30.2763C30.2957 22.3451 30.3343 24.2838 30.3537 26.2413ZM36.4638 38.89H33.6988L33.2734 17.4701H36.5219L36.4638 38.89V38.89ZM46.6346 20.3875H46.9633C46.9633 21.3851 46.944 22.4015 46.944 23.3991C46.8473 22.8909 46.7506 22.4015 46.6346 21.9122V20.3875V20.3875ZM38.5715 9L38.5908 17.1125H38.2814L38.2621 9H38.5715V9ZM47.2147 38.89H44.6816V38.8335C44.6816 38.2688 44.643 30.9846 44.3529 29.2153H41.0465L41.0271 38.8711H38.4168L38.1654 17.4889H44.6236C47.7561 23.3427 47.3113 33.4691 47.2147 38.89V38.89ZM48.7809 33.582C48.6068 38.5888 48.3361 43.2944 47.9301 46.9648C47.8141 47.0024 47.6981 47.0212 47.6014 47.0589C48.3555 40.2264 48.6455 29.7611 48.7229 20.4064H48.8582C48.8389 20.8581 48.8002 28.1988 48.7809 33.582ZM49.6703 46.3625C49.5543 46.4189 49.4383 46.4566 49.3223 46.4942C49.6317 44.3296 49.883 41.8827 50.0764 39.2852H50.4051C50.2117 41.8263 49.9604 44.2167 49.6703 46.3625V46.3625ZM51.4299 45.459C51.3139 45.5343 51.1785 45.5907 51.0625 45.666C51.3912 43.652 51.6619 41.5063 51.894 39.2664H52.2227C52.01 41.431 51.7586 43.5203 51.4299 45.459ZM52.2227 39.2664C52.2227 39.0029 52.358 35.3325 52.4934 31.2857C52.6674 28.18 52.7641 25.0743 52.8028 22.1192C52.8414 21.1404 52.8608 20.5005 52.8608 20.3875H53.1508C53.1121 26.3919 52.8608 33.1115 52.2227 39.2664V39.2664ZM54.8137 20.0111H52.5127L51.8553 38.9088H49.1483L49.2449 20.0111H46.9053V17.5077L54.8137 17.4701V20.0111ZM56.9213 13.6868C56.9213 13.7056 56.9407 13.7056 56.9407 13.7244C56.9213 13.7056 56.9213 13.7056 56.9213 13.6868ZM57.1534 14.2891C57.192 14.4208 57.25 14.5526 57.2887 14.7032C57.4241 19.4653 57.3274 25.6766 56.612 32.5092C56.3993 33.5256 56.1866 34.5232 55.9352 35.5396C57.018 27.013 57.1147 19.2394 56.9213 13.6868C56.786 13.3856 56.6506 13.1409 56.5346 12.9903C56.4379 12.8398 56.3606 12.7645 56.3606 12.7645C56.0319 12.4445 55.6452 12.1622 55.1811 11.8798C55.4131 19.8417 55.2778 32.5092 53.3442 43.7085C53.2475 43.9155 53.1508 44.0849 53.0155 44.2355C53.2088 44.0097 53.3442 43.7273 53.4989 43.332C55.3358 38.5888 56.6506 33.1115 57.4047 28.0106C58.2362 22.4015 58.2362 17.4324 57.1534 14.2891V14.2891ZM42.6127 19.9358H42.574C42.4193 19.9358 40.9691 19.917 40.9691 19.917L40.9111 26.7307H44.2176C44.2176 26.7307 44.0822 25.5449 43.8309 24.152C43.5988 22.8721 43.2121 21.1404 42.6127 19.9358V19.9358ZM42.7867 26.3542H42.4773C42.4967 24.4532 42.4967 22.5521 42.4967 20.6887C42.6127 20.9522 42.7094 21.2534 42.8061 21.5922C42.8061 23.1733 42.7867 24.7732 42.7867 26.3542ZM51.0045 10.2611C51.0239 10.2611 51.0432 10.2799 51.0819 10.2799C51.0432 10.2799 51.0239 10.2611 51.0045 10.2611ZM44.585 9.20705C44.6623 9.22587 44.759 9.22587 44.8363 9.22587C44.759 9.22587 44.6623 9.22587 44.585 9.20705ZM49.0129 9.80936H48.9742H49.0129ZM44.8943 9.24469H44.8363C44.8557 9.22587 44.875 9.24469 44.8943 9.24469ZM42.8447 9.07529C42.748 9.07529 42.632 9.05647 42.5353 9.05647C42.632 9.07529 42.7287 9.07529 42.8447 9.07529ZM46.6346 9.43291C46.7313 9.45174 46.8279 9.45174 46.9246 9.47056C46.8279 9.47056 46.7313 9.45174 46.6346 9.43291ZM48.6842 9.7529L48.9742 9.80936C48.8969 9.79054 48.7809 9.77172 48.6842 9.7529ZM46.9633 9.48938H46.944C46.944 9.47056 46.944 9.47056 46.9633 9.48938Z" fill="white"/>
<path d="M28.764 64.692V62.2H20.798V72H24.102V68.864H28.19V66.372H24.102V64.692H28.764ZM30.7178 72H34.0218V62.2H30.7178V72ZM43.8583 72H47.2743L42.9903 62.2H39.7423L35.4583 72H38.8183L39.4763 70.292H43.2003L43.8583 72ZM40.3863 67.912L41.3383 65.448L42.2903 67.912H40.3863ZM50.3474 72H53.6514V64.762H56.5214V62.2H47.4774V64.762H50.3474V72Z" fill="white"/>
</svg>
