<svg width="80" height="80" viewBox="0 0 80 80" fill="none" xmlns="http://www.w3.org/2000/svg">
<path d="M39.9999 10C17.8193 10 0 18.2137 0 28.5C0 38.7095 17.9439 47 39.9999 47C62.0559 47 79.9998 38.7095 79.9998 28.5C80.0621 18.3672 62.0559 10 39.9999 10V10ZM39.9999 45.388C18.8162 45.388 1.68224 37.8651 1.68224 28.5C1.68224 19.2116 18.8785 11.612 39.9999 11.612C61.1837 11.612 78.3176 19.1349 78.3176 28.5C78.3799 37.8651 61.1837 45.388 39.9999 45.388ZM55.7631 32.2614V32.4149C55.7631 32.4917 55.8877 32.5685 55.95 32.6452C55.95 32.6452 56.0123 32.722 55.95 32.7988C55.7008 33.4896 55.4516 33.8734 55.1401 34.4108C54.8285 34.9481 54.517 35.3319 54.1432 35.7158C53.5824 36.3299 52.7102 36.944 52.0248 36.5602C51.7133 36.3299 51.5887 35.8693 51.5887 35.4087C51.5887 34.2573 52.0248 33.029 52.8348 31.8008C53.7694 30.3423 54.8909 29.5747 55.5762 30.0353C56.3239 30.4191 56.137 31.4938 55.7631 32.2614ZM35.9501 24.5851C35.8878 24.1245 36.0124 23.5871 36.3862 23.2033C36.5731 22.973 36.8224 22.973 37.0093 23.1266C37.1962 23.2801 37.0716 23.7407 36.947 24.1245C36.76 24.5083 36.4485 24.8154 36.137 24.8154C36.0124 24.7386 35.9501 24.7386 35.9501 24.5851V24.5851ZM39.9999 13.0705C19.5638 13.0705 2.99065 20.056 2.99065 28.5768C2.99065 37.0207 19.5638 44.0062 39.9999 44.0062C60.436 44.0062 77.0092 37.0207 77.0092 28.5C77.0092 19.9793 60.436 13.0705 39.9999 13.0705V13.0705ZM20.9968 38.7095C18.8162 38.7095 16.8847 37.0975 16.6355 34.1805C16.5109 32.5685 16.8847 31.1867 17.6324 29.9585C18.2554 28.8838 19.3769 28.0394 20.3115 27.8091C20.623 27.7324 20.9968 27.8091 21.1838 28.0394C21.433 28.4232 21.3707 28.8071 21.1215 29.0373C20.4361 29.4979 19.5638 30.2656 19.1277 31.2635C18.7539 32.1079 18.6916 33.1826 19.2523 34.1037C20.1246 35.7158 22.5545 35.7925 24.8598 33.1826C25.4205 32.5685 25.919 31.9544 26.4174 31.1867C27.4143 29.805 27.7258 29.2676 29.0965 26.9647V26.888L29.0342 26.8112C28.1619 26.8112 27.352 27.195 26.6043 27.8859C26.4174 28.1162 26.1059 28.0394 25.9189 27.8091C25.7943 27.5021 25.8566 27.1183 26.1059 26.9647C27.2897 25.89 28.6604 25.7365 29.9688 25.4295C29.9688 25.4295 30.0934 25.4295 30.1557 25.2759C30.7164 24.4315 31.1526 23.5871 31.7133 22.7427C32.3364 21.8216 33.084 21.0539 33.6448 20.3631C34.4548 19.5187 35.0155 19.2116 35.5139 18.8278C35.6386 18.751 35.5139 18.5975 35.4516 18.5975C32.461 17.9066 29.3457 16.9855 26.4174 18.3672C24.3613 19.2884 23.4891 21.2842 23.9252 22.666C24.2367 23.5871 25.2336 23.7407 26.2305 23.2033C27.0404 22.7427 27.7258 21.9751 28.2865 20.9772C28.5981 20.4398 29.1588 20.8237 28.8473 21.7448C27.975 24.278 26.2928 26.2739 24.299 26.3506C22.5545 26.4274 21.4953 24.8921 21.4953 22.973C21.4953 19.2116 24.9221 16.6784 28.5358 16.2946C32.8971 15.834 37.0093 17.2925 41.3083 17.9066C44.6105 18.3672 47.7881 18.444 51.0902 17.4461C51.4641 17.3693 51.7756 17.6763 51.7133 18.1369C51.651 18.8278 51.2149 19.5187 50.1557 20.2863C48.9096 21.1307 47.6011 21.361 46.2304 21.361C42.9283 21.361 39.8753 19.8257 36.6977 18.9813C36.6977 19.1349 36.7601 19.3651 36.6354 19.4419C34.8909 21.0539 33.271 22.666 32.2118 24.8921C32.1495 24.9689 32.2118 24.9689 32.2741 24.9689C33.2087 24.8921 34.0186 24.8921 34.8909 24.8154C35.0155 24.8154 35.0155 24.7386 35.0155 24.5851C34.9532 23.8174 35.1401 22.8963 35.7009 22.2822C36.2616 21.668 37.0093 21.5913 37.4454 22.0519C38.0062 22.5892 37.9438 23.5104 37.6323 24.2012C37.3208 24.8921 36.8224 25.2759 36.3862 25.5062C36.3862 25.5062 36.2616 25.5062 36.3239 25.6597C36.3239 25.8133 37.0093 26.2739 37.0716 26.4274C37.1339 26.5041 37.0716 26.7344 37.0093 26.8112C36.947 26.888 36.8224 26.9647 36.6977 26.9647C36.5731 26.9647 36.5108 26.888 36.3862 26.8112C36.0747 26.5809 35.7009 26.2739 35.5139 25.89C35.4516 25.7365 35.3893 25.7365 35.2024 25.7365C34.2678 25.8133 32.8348 25.9668 31.8379 26.1203C31.5887 26.1203 31.5887 26.1971 31.5264 26.3506C29.9688 29.4979 28.2865 32.9523 26.4174 35.2552C24.4236 38.0187 22.7414 38.7095 20.9968 38.7095ZM63.5513 23.2033C63.2397 23.8174 57.3831 34.8714 57.0092 35.9461C56.8846 36.3299 56.8846 36.5602 57.0092 36.7905C57.3208 37.3278 58.0061 37.0207 58.4423 36.6369C59.6884 35.5622 60.5606 34.2573 61.5575 33.1058C61.6198 33.029 61.6821 33.029 61.7444 33.1058C61.869 33.2593 62.1183 33.4896 62.2429 33.6432C62.3052 33.7199 62.3052 33.7967 62.2429 33.8734C61.3083 35.332 60.2491 36.6369 59.2522 37.6349C57.6946 39.0934 56.137 39.4772 55.327 38.556C55.0155 38.1722 54.8909 37.7116 54.8909 37.251C54.8909 37.0207 54.7662 37.0207 54.7039 37.0975C53.7694 38.249 52.1494 39.4772 50.7164 38.556C49.4703 37.7884 49.2211 36.0228 49.4703 34.4876C49.4703 34.4876 49.4703 34.2573 49.2834 34.334C49.0342 34.5643 48.7226 34.7946 48.2865 35.0249C47.7881 35.2552 47.5388 35.3319 47.0404 35.3319C46.4174 35.3319 45.9189 35.0249 45.5451 34.2573C45.3582 33.8734 45.2336 33.2593 45.2336 32.7988C45.2336 32.722 45.1712 32.6452 45.1089 32.7988C44.1121 34.6411 43.1775 36.4834 42.1806 38.4025C42.1183 38.4793 42.056 38.556 41.9937 38.556H40.0622C39.9376 38.556 39.8753 38.4793 39.9376 38.3257C40.3114 37.4813 42.1806 34.1037 43.489 31.1867C43.8628 30.4191 43.8005 29.9585 43.5513 29.805C43.3021 29.5747 42.7413 29.8817 42.2429 30.3423C40.9968 31.4938 39.9376 33.3361 39.3769 34.1805C39.0653 34.6411 38.7538 35.4087 37.9438 36.4834C36.6354 38.249 34.8909 39.2469 33.271 38.556C32.3364 38.1722 31.7133 37.251 31.4641 36.1764C31.4018 35.9461 31.3395 35.8693 31.2149 36.0228C30.9657 36.4066 30.4049 37.0207 29.9065 37.4046C29.8442 37.4813 29.7196 37.5581 29.595 37.4813C29.4703 37.4046 29.1588 36.8672 29.0965 36.6369C29.0342 36.4834 29.0965 36.4066 29.1588 36.3299C29.8442 35.639 30.1557 35.1784 30.4672 34.7946C30.6541 34.4876 30.8411 34.1037 31.028 33.4896C31.4018 32.2614 32.3364 29.9585 34.1432 28.7303C34.8286 28.2697 35.5139 27.9627 36.3239 27.8091C36.6354 27.7324 36.947 27.8091 37.0093 28.1162C37.0716 28.2697 37.1339 28.5768 37.1962 28.7303C37.2585 28.8838 37.1962 28.9606 37.0716 29.0373C36.0124 29.5747 34.9532 30.3423 34.2055 31.5705C33.3333 32.9523 33.1463 34.6411 33.7071 35.5622C34.1432 36.2531 34.7663 36.4066 35.4516 36.0996C36.4485 35.7158 37.2585 34.6411 37.6946 33.3361C38.1308 31.9544 38.2554 30.4191 37.8815 28.9606C37.8192 28.7303 37.8815 28.5 38.0062 28.4232C38.2554 28.1929 38.6292 27.9627 38.6915 27.8859C38.9407 27.7324 39.19 27.8091 39.3146 28.0394C39.6884 28.6535 39.8753 29.5747 39.8753 30.5726C39.8753 30.8029 39.9376 30.8029 40.0622 30.6494C40.6853 29.805 41.3083 28.9606 41.9314 28.2697C42.5544 27.6556 43.3644 27.195 44.0498 27.195C44.9843 27.195 45.4828 28.0394 45.4205 29.4212C45.4205 29.5747 45.5451 29.5747 45.6074 29.4979C45.9189 28.9606 46.1058 28.7303 46.4174 28.4232C47.1027 27.7324 47.7258 27.4253 48.4734 27.5021C49.3457 27.5788 50.0311 28.5768 49.9064 29.6515C49.8441 30.3423 49.4703 31.0332 48.9719 31.3402C48.5357 31.6473 47.975 31.5705 47.6012 31.1867C47.2896 30.8797 47.2273 30.3423 47.2896 29.8817C47.2896 29.805 47.2273 29.6515 47.1027 29.805C46.2304 30.8797 46.1681 32.2614 46.7289 32.9523C47.3519 33.6432 48.2242 33.1826 48.9096 32.6452C50.1557 31.6473 51.0902 30.3423 52.1494 29.2676C52.8971 28.5768 53.7071 27.9627 54.6416 27.8091C55.1401 27.7324 55.6385 27.7324 56.137 28.0394C56.8223 28.3465 57.1961 29.0373 57.2585 29.6515C57.2585 29.805 57.3831 29.8817 57.4454 29.7282C57.9438 28.7303 60.8098 23.5104 61.0591 22.973C61.1214 22.8195 61.1837 22.7427 61.3706 22.7427H63.3644C63.5513 23.0498 63.5513 23.1266 63.5513 23.2033V23.2033Z" fill="white"/>
</svg>
