<svg width="80" height="80" viewBox="0 0 80 80" fill="none" xmlns="http://www.w3.org/2000/svg">
<path d="M39.9243 45.9657C61.9834 45.9657 79.8485 36.7917 79.8485 25.4876C79.8485 14.1834 61.9834 5 39.9243 5C17.8746 5 0 14.174 0 25.4781C0 36.7822 17.8746 45.9657 39.9243 45.9657ZM47.4225 35.9018C46.7692 37.4355 45.6142 40.7396 42.9917 42.0462C42.187 42.4249 41.1929 42.6237 40.3314 42.6521C40.1325 42.6805 40 42.6521 39.9527 42.6521C32.5775 42.6521 25.7231 41.6485 19.9763 39.8876C19.929 39.8592 19.7965 39.8118 19.7965 39.8118C19.2189 39.632 18.9444 39.3858 18.9444 39.0828C18.9444 38.8272 19.0675 38.6284 19.2757 38.4296C19.3515 38.3539 19.4746 38.2497 19.626 38.0982C20.9325 36.9905 24.9657 34.0935 32.4544 31.187C35.1053 30.1834 38.4 28.9243 41.8556 28.1858C43.9006 27.7976 51.4083 26.671 47.4225 35.9018ZM67.6355 15.2722C67.7586 15.0166 67.9669 14.7988 68.3172 14.7988C68.516 14.7704 68.7432 14.8272 69.1219 15.0734C73.8083 17.9609 76.6107 21.568 76.6107 25.4781C76.6107 32.5503 67.5408 38.6095 54.5893 41.2698C53.7562 41.4497 53.2071 41.4497 53.0083 41.2225C52.8852 41.071 52.8284 40.8722 53.0083 40.5976C53.084 40.4462 53.1882 40.3231 53.3586 40.1432C60.4213 31.8118 65.8083 19.5136 67.3136 15.9444C67.4083 15.6509 67.5219 15.4237 67.6355 15.2722ZM32.5491 14.9976C33.2024 13.4639 34.3574 10.1598 36.9799 8.85325C37.7846 8.45562 38.7787 8.27574 39.6402 8.24734H40.0379C47.3846 8.24734 54.2485 9.27929 59.9858 11.0118C60.0331 11.0118 60.1657 11.0592 60.213 11.0876C60.7432 11.2675 61.0178 11.5136 61.0178 11.8166C61.0178 12.0911 60.8663 12.271 60.6864 12.4698C60.6107 12.5456 60.4876 12.6686 60.3361 12.8012C59.0012 13.9089 55.0249 16.8059 47.5077 19.6746C44.8568 20.7065 41.5621 21.9373 38.1065 22.7041C36.0615 23.1112 28.5633 24.2473 32.5491 14.9976V14.9976ZM25.316 9.68639C26.1491 9.50651 26.8024 9.50651 26.9728 9.73373C27.0959 9.8568 27.1527 10.084 26.9728 10.3586C26.897 10.5101 26.7929 10.6331 26.6414 10.832C19.5692 19.1633 14.1917 31.4615 12.6864 35.0024C12.5633 35.258 12.4592 35.5041 12.355 35.6556C12.2036 35.9112 12.0047 36.1101 11.6734 36.129C11.4935 36.129 11.2473 36.0817 10.8402 35.8544C6.15385 32.9669 3.26627 29.3598 3.26627 25.4497C3.30414 18.4059 12.374 12.3373 25.316 9.68639Z" fill="white"/>
<path d="M39.9243 5C17.8746 5 0 14.1456 0 25.4497C0 36.7538 17.8746 45.8994 39.9243 45.8994C61.9834 45.8994 79.8485 36.7254 79.8485 25.4497C79.8485 14.1456 61.9834 5 39.9243 5V5ZM67.6734 38.8083C60.2982 42.5858 50.4521 44.6781 39.9337 44.6781C29.4154 44.6781 19.5882 42.5763 12.213 38.8083C5.11243 35.1539 1.2213 30.4296 1.2213 25.4686C1.2213 20.5077 5.13136 15.774 12.2225 12.1195C19.5976 8.31361 29.4438 6.2497 39.9621 6.2497C50.4805 6.2497 60.3172 8.33254 67.7018 12.1195C74.8118 15.774 78.703 20.5077 78.703 25.4592C78.703 30.4107 74.7834 35.1539 67.6734 38.8083V38.8083Z" fill="white"/>
<path d="M8.154 54.2V57.672H5.102V54.2H1.798V64H5.102V60.388H8.154V64H11.458V54.2H8.154ZM23.48 54.2H20.288L18.272 57.588L16.27 54.2H12.784L16.48 60.402V64H19.784V60.444L23.48 54.2ZM29.3627 64.224C32.3727 64.224 34.1367 62.53 34.1367 59.59V54.2H30.8887V59.492C30.8887 60.99 30.3147 61.55 29.3907 61.55C28.4667 61.55 27.8927 60.99 27.8927 59.492V54.2H24.5887V59.59C24.5887 62.53 26.3527 64.224 29.3627 64.224ZM43.0012 54.2V58.652L39.2772 54.2H36.5612V64H39.7812V59.548L43.5052 64H46.2212V54.2H43.0012ZM48.7232 64H53.5532C56.8292 64 59.0832 62.138 59.0832 59.1C59.0832 56.062 56.8292 54.2 53.5532 54.2H48.7232V64ZM52.0272 61.424V56.776H53.4132C54.7992 56.776 55.7512 57.602 55.7512 59.1C55.7512 60.598 54.7992 61.424 53.4132 61.424H52.0272ZM68.3988 64H71.8148L67.5308 54.2H64.2828L59.9988 64H63.3588L64.0168 62.292H67.7408L68.3988 64ZM64.9268 59.912L65.8788 57.448L66.8308 59.912H64.9268ZM73.2521 64H76.5561V54.2H73.2521V64Z" fill="white"/>
</svg>
