<svg width="80" height="60" viewBox="0 0 80 60" fill="none" xmlns="http://www.w3.org/2000/svg">
<path d="M28.7678 14.99C26.2271 14.99 23.766 15.9908 22.1083 17.9922C20.4505 19.9897 19.6153 22.7555 19.6153 26.2896C19.6153 33.7596 24.0848 37.6246 29.2747 37.6246C32.6635 37.6246 36.2308 35.3079 37.6175 30.9426H32.5615C32.2076 32.3255 30.2789 33.0504 29.3321 33.0504C28.1685 33.0504 27.1898 32.5855 26.4056 31.6517C25.6214 30.7259 25.2165 29.4218 25.1814 27.7513H37.8885C38.0128 19.8085 34.6655 14.9822 28.7678 14.99V14.99ZM24.9742 24.1187C24.9647 22.5743 25.3153 21.3608 26.023 20.4665C26.7308 19.5682 27.6298 19.119 28.72 19.119C29.737 19.119 30.6041 19.5445 31.315 20.3916C32.0227 21.2426 32.3925 22.4837 32.4276 24.1187H24.9742V24.1187ZM49.2343 14.994C46.6936 14.994 44.2325 15.9947 42.5748 17.9962C40.917 20.0016 40.0818 22.7634 40.0818 26.3014C40.0818 33.7714 44.5449 37.6364 49.738 37.6364C53.1268 37.6364 56.6941 35.3198 58.0808 30.9544H53.0248C52.6709 32.3373 50.7422 33.0622 49.7954 33.0622C48.6318 33.0622 47.6531 32.5973 46.8689 31.6636C46.0847 30.7377 45.6798 29.4336 45.6447 27.7631H58.3518C58.4698 19.8164 55.1288 14.994 49.2343 14.994V14.994ZM45.4311 24.1266C45.4184 22.5822 45.7722 21.3687 46.48 20.4743C47.1877 19.576 48.0867 19.1269 49.1769 19.1269C50.1971 19.1269 51.061 19.5524 51.7719 20.3995C52.4796 21.2466 52.8494 22.4916 52.8845 24.1266H45.4311V24.1266ZM11.1322 26.5457C11.1322 30.064 10.8294 31.2459 8.70941 31.3011C5.3079 31.3878 6.073 28.4368 5.95505 25.4543H0C0.0127517 31.963 2.1391 38.0107 8.00488 37.8649C14.0173 37.7152 16.9757 34.3072 16.9757 26.1556V7H11.1322V26.5457V26.5457ZM71.3936 14.6355C69.1907 14.6355 67.023 16.0223 65.6617 18.4808V15.3486L60.7651 15.4628V44.8857L66.1813 45V34.2599C67.7881 36.222 69.4713 37.6009 71.6423 37.6009C76.3572 37.6009 79 33.2277 79 26.002C79 19.647 76.0225 14.6355 71.3936 14.6355V14.6355ZM72.2512 31.2065C71.3936 32.2624 70.9728 32.6682 69.6849 32.6682C67.109 32.6682 66.073 29.1026 65.9805 25.7616C65.9167 23.3032 66.9082 19.4382 69.5861 19.4382C70.8899 19.4382 71.3298 19.9779 72.2097 21.0574C73.096 22.1409 73.5423 23.7996 73.5423 26.0374C73.5423 28.4289 73.1087 30.1585 72.2512 31.2065V31.2065Z" fill="white"/>
</svg>
