<svg width="80" height="80" viewBox="0 0 80 80" fill="none" xmlns="http://www.w3.org/2000/svg">
<path d="M46.2863 33.6357C46.2312 33.6071 46.1854 33.5634 46.1541 33.5098C46.1228 33.4562 46.1074 33.3948 46.1096 33.3327C46.1096 33.3327 46.6903 31.439 47.3973 29.2928L49.9222 21.718L51.5129 16.9964C51.6897 16.4409 51.8664 15.9107 51.8664 15.8349C51.8847 15.7689 51.8847 15.699 51.8664 15.6329C51.8664 15.6329 51.5887 15.5067 51.3867 15.5067H50.9827V14.3705H58.5575L58.7595 14.4967C58.7595 14.4967 59.214 15.8097 61.1582 21.5918C64.3143 31.0098 65.0213 33.1812 65.0213 33.2822C65.023 33.3506 65.0048 33.418 64.969 33.4763C64.9331 33.5346 64.8811 33.5812 64.8193 33.6105C64.8193 33.6105 64.0366 33.6105 62.4206 33.6105C61.5831 33.7283 60.7332 33.7283 59.8957 33.6105L59.6685 33.4337C59.6685 33.4337 59.315 32.449 58.9615 31.338C55.6286 20.9606 55.7296 21.2383 55.6538 21.2383C55.5781 21.2383 55.5023 21.2383 55.4013 21.2383C55.3003 21.2383 55.2246 21.718 53.4066 27.4244L52.1442 31.3885C51.9674 31.8935 51.7654 32.5752 51.6644 32.8782C51.5634 33.1812 51.3867 33.6105 51.1847 33.7115C50.9827 33.8125 46.4883 33.7115 46.3621 33.7115L46.2863 33.6357Z" fill="white"/>
<path d="M37.3487 33.6352V33.4584C37.3487 33.4584 37.3487 31.4132 37.3487 24.5454V15.7587H37.2225C37.0962 15.7587 37.071 15.6324 36.6922 15.6324H36.3135V14.4962H42.3986H42.5248L42.651 14.6225V33.4584H42.5248H39.8736C39.0327 33.5069 38.1896 33.5069 37.3487 33.4584V33.6352Z" fill="white"/>
<path d="M16.6958 33.6351C16.6958 33.6351 16.5695 33.6351 16.519 33.5089C16.3593 30.54 16.3593 27.5647 16.519 24.5959V15.7586C16.519 15.7586 16.3928 15.6324 15.9888 15.6324H15.5596V14.4962H21.5689H21.6952V17.6776C21.6952 21.1872 21.6951 21.061 21.9476 21.061C22.2001 21.061 22.1496 21.061 23.0334 19.748C25.331 16.4908 26.5935 14.6981 26.7198 14.6981C26.846 14.6981 26.8713 14.4204 29.7749 14.4204H32.2999C32.3411 14.4797 32.3633 14.5502 32.3633 14.6224C32.3633 14.6946 32.3411 14.7651 32.2999 14.8244C32.2999 14.8244 31.1384 16.5666 27.25 22.3992C26.8208 23.0557 26.6945 23.2577 26.6945 23.3587C27.1116 24.1438 27.6019 24.8877 28.159 25.5806C30.0763 28.003 31.855 30.532 33.4866 33.1554C33.5087 33.1938 33.5204 33.2373 33.5204 33.2816C33.5204 33.326 33.5087 33.3695 33.4866 33.4079V33.4079H30.7596C28.058 33.4079 28.0075 33.4079 27.8307 33.4079C27.716 33.3764 27.6116 33.3155 27.5277 33.2311C27.5277 33.2311 26.2148 31.6152 24.7251 29.5447L21.9981 25.7573C21.9509 25.7111 21.8875 25.6852 21.8214 25.6852C21.7553 25.6852 21.6918 25.7111 21.6447 25.7573C21.6447 25.7573 21.6447 26.6916 21.6447 29.6205V33.3574H16.6958V33.6351Z" fill="white"/>
<path d="M37.7784 43.0029C35.1939 42.9411 32.6146 42.7388 30.0521 42.3969C19.5989 40.983 10.8626 37.3471 5.98952 32.5497C4.08895 30.7729 2.76149 28.4696 2.17687 25.9344C1.94104 24.6829 1.94104 23.3984 2.17687 22.147C2.52046 20.5337 3.20012 19.0109 4.17157 17.6779C7.2201 13.8978 11.2457 11.0249 15.8115 9.37084C25.8961 5.56918 36.7399 4.21911 47.4489 5.43195C60.6543 6.74491 71.5115 11.5675 75.8291 18.0566C76.7804 19.3796 77.4026 20.9104 77.6441 22.5219C77.8856 24.1334 77.7395 25.7793 77.2178 27.3231C76.4875 29.3194 75.3133 31.1238 73.7839 32.6002C69.1633 37.1956 61.033 40.68 51.2868 42.2202C46.8271 42.9076 42.314 43.1865 37.8036 43.0534L37.7784 43.0029ZM43.5352 40.478C48.3248 40.2097 53.0641 39.3619 57.6496 37.9531C60.8768 36.9772 63.9529 35.5581 66.7898 33.7364C67.9018 33.0044 68.9342 32.1581 69.8702 31.2115C70.9118 30.2282 71.7672 29.0649 72.3952 27.7776C73.0344 26.5585 73.3684 25.2026 73.3684 23.8261C73.3684 22.4496 73.0344 21.0936 72.3952 19.8746C71.7537 18.6178 70.8994 17.4816 69.8702 16.5164C68.0423 14.7266 65.9253 13.2584 63.6084 12.1735C58.0072 9.52534 51.9625 7.9414 45.7824 7.50239C41.843 7.14892 37.8799 7.14892 33.9405 7.50239C24.371 8.36087 16.266 11.214 11.0646 15.4054C10.2369 16.1069 9.46841 16.8754 8.76694 17.7031C7.15306 19.5686 6.31304 21.9802 6.41875 24.4447C6.69623 27.0502 7.92848 29.4607 9.87791 31.2115C11.6583 32.9582 13.7142 34.3998 15.963 35.4786C22.5405 38.6229 29.7076 40.3437 36.9957 40.5285C37.9299 40.5285 42.6263 40.5285 43.5352 40.5285V40.478Z" fill="white"/>
<path d="M32.238 59H36.06L31.944 53.512L35.864 49.2H32.266L29.046 52.756V49.2H25.798V59H29.046V56.578L29.788 55.752L32.238 59ZM37.4131 59H40.7171V49.2H37.4131V59ZM50.5536 59H53.9696L49.6856 49.2H46.4376L42.1536 59H45.5136L46.1716 57.292H49.8956L50.5536 59ZM47.0816 54.912L48.0336 52.448L48.9856 54.912H47.0816Z" fill="white"/>
</svg>
