<svg width="80" height="80" viewBox="0 0 80 80" fill="none" xmlns="http://www.w3.org/2000/svg">
<path d="M39.84 3C17.84 3 0 11.88 0 22.84C0 33.8 17.84 42.68 39.84 42.68C61.84 42.68 79.68 33.8 79.68 22.84C79.68 11.88 61.84 3 39.84 3ZM39.84 41C18.8 41 1.84 32.92 1.84 22.84C1.84 12.76 18.8 4.68 39.84 4.68C60.88 4.68 77.84 12.84 77.84 22.84C77.84 32.84 60.88 41 39.84 41Z" fill="white"/>
<path d="M39.8405 5.40027C19.2005 5.40027 2.48047 13.2403 2.48047 22.8403C2.48047 32.4403 19.2005 40.2803 39.8405 40.2803C60.4805 40.2803 77.2005 32.4403 77.2005 22.8403C77.2005 13.2403 60.4805 5.40027 39.8405 5.40027ZM55.6805 18.8403L59.5205 17.1603H56.1605L57.0405 14.6803H63.5205L62.7205 17.1603L55.4405 19.6403L55.6805 18.8403V18.8403ZM50.4005 10.8403C51.2805 10.8403 52.2405 11.0803 53.0405 11.4803C53.7605 11.9603 54.3205 12.7603 54.4005 13.6403C54.4805 14.8403 54.3205 16.0403 53.8405 17.1603C53.3605 18.2803 52.5605 19.2403 51.6005 19.9603C50.7205 20.6003 49.6805 20.9203 48.5605 20.9203H43.9205L47.0405 11.8003C47.1205 11.4803 47.1205 11.1603 47.0405 10.7603L50.4005 10.8403V10.8403ZM37.1205 11.8803C37.2805 11.5603 37.2805 11.1603 37.1205 10.8403H40.1605L41.0405 15.4003L42.6405 10.8403H45.5205L41.8405 20.9203H39.0405L38.2405 16.5203L36.4805 20.9203H33.9205L37.1205 11.8803V11.8803ZM29.6805 10.8403H32.8005L33.3605 20.9203H30.4805L30.3205 19.6403H27.4405L26.4805 20.9203H23.6005L29.5205 11.8003C29.6805 11.5603 29.7605 11.1603 29.6805 10.8403V10.8403ZM19.9205 11.8803C20.0005 11.5603 20.0005 11.1603 19.9205 10.8403H23.3605L20.7205 18.6803H23.6805L22.7205 21.0003H16.7205L19.9205 11.8803V11.8803ZM19.5205 26.5203L18.5605 29.0003H12.0005L12.9605 26.5203L20.2405 24.0403L19.9205 24.8403L16.0805 26.4403L19.5205 26.5203V26.5203ZM30.2405 27.0003C30.0005 27.6403 29.6005 28.1203 29.0405 28.5203C28.5605 28.9203 27.9205 29.1603 27.2805 29.2403L29.2805 33.0003H26.3205L24.4005 29.4003L23.1205 33.0003H20.1605L23.4405 23.8803C23.6005 23.5603 23.6005 23.1603 23.4405 22.8403H27.5205C28.1605 22.8403 28.8005 23.0003 29.4405 23.3203C29.8405 23.4803 30.1605 23.8003 30.4005 24.2003C30.7205 25.1603 30.7205 26.2003 30.2405 27.0003V27.0003ZM39.1205 30.8403C38.4805 31.6403 37.6805 32.2803 36.7205 32.7603C35.8405 33.1603 34.8805 33.2403 33.9205 33.1603C32.4805 32.8403 31.3605 31.7203 31.0405 30.2803C30.8005 29.2403 30.8005 28.2003 31.1205 27.2403C31.7605 25.2403 33.2805 23.6403 35.2005 22.9203C36.4005 22.5203 37.6805 22.7603 38.7205 23.4003C39.5205 23.9603 40.0805 24.7603 40.2405 25.7203C40.7205 27.4803 40.3205 29.4003 39.1205 30.8403ZM41.5205 33.0803L41.3605 23.9603C41.3605 23.6403 41.2805 23.2403 41.1205 22.9203H44.2405V28.3603L47.9205 22.9203H51.2805L43.7605 33.1603L41.5205 33.0803ZM54.8005 33.0803H48.4005L51.5205 24.2003C51.6805 23.8003 51.6805 23.3203 51.5205 22.9203H58.3205L57.6005 25.1603H54.2405L53.6805 26.9203H56.2405L55.4405 29.1603H52.9605C52.7205 29.7203 52.5605 30.2803 52.4005 30.9203H55.7605L54.8005 33.0803ZM66.2405 27.0003C66.0005 27.6403 65.6005 28.2003 65.0405 28.5203C64.5605 28.9203 63.9205 29.1603 63.2805 29.2403L65.2805 33.0003H62.3205L60.4005 29.4003L59.1205 33.0003H56.1605L59.4405 23.8803C59.6005 23.5603 59.6005 23.1603 59.4405 22.8403H63.5205C64.1605 22.8403 64.8005 23.0003 65.3605 23.3203C65.7605 23.4803 66.0805 23.8003 66.3205 24.2003C66.6405 25.1603 66.6405 26.1203 66.2405 27.0003V27.0003Z" fill="white"/>
<path d="M49.0394 18.4403C49.3594 18.2803 49.5994 18.1203 49.8394 17.8803C50.2394 17.4803 50.5594 17.0003 50.7194 16.4403C51.1194 15.4003 51.6794 13.4003 50.3994 13.4003H49.6794L47.8394 18.6003H48.5594C48.7194 18.6003 48.8794 18.5203 49.0394 18.4403V18.4403ZM62.5594 25.4003H61.9194L61.3594 27.0803H62.1594C63.1994 27.0803 64.2394 25.4003 62.5594 25.4003ZM26.5594 25.4003H25.9194L25.3594 27.0803H26.1594C27.3594 27.0803 28.2394 25.4003 26.5594 25.4003ZM30.3194 17.4003L30.1594 15.2403L28.8794 17.4003H30.3194ZM35.1194 25.8803C34.4794 26.6003 34.0794 27.5603 33.9994 28.5203C33.9194 29.0803 33.9994 29.6403 34.1594 30.1203C34.3994 30.6803 35.1194 30.9203 35.6794 30.6003C35.8394 30.5203 35.9994 30.4403 36.0794 30.2803C37.0394 29.2403 37.5194 27.8003 37.2794 26.3603C37.1994 25.7203 36.5594 25.2403 35.9194 25.4003C35.5194 25.4803 35.2794 25.6403 35.1194 25.8803Z" fill="white"/>
<path d="M1.57 57H7.09V55.17H3.93V50H1.57V57ZM13.7295 57H16.1695L13.1095 50H10.7895L7.72953 57H10.1295L10.5995 55.78H13.2595L13.7295 57ZM11.2495 54.08L11.9295 52.32L12.6095 54.08H11.2495ZM21.7962 50V53.18L19.1362 50H17.1962V57H19.4962V53.82L22.1562 57H24.0962V50H21.7962ZM25.8833 57H29.3333C31.6733 57 33.2833 55.67 33.2833 53.5C33.2833 51.33 31.6733 50 29.3333 50H25.8833V57ZM28.2433 55.16V51.84H29.2333C30.2233 51.84 30.9033 52.43 30.9033 53.5C30.9033 54.57 30.2233 55.16 29.2333 55.16H28.2433ZM42.633 57H45.153L43.683 54.84C44.523 54.41 45.003 53.65 45.003 52.64C45.003 51.02 43.763 50 41.813 50H38.443V57H40.803V55.24H41.443L42.633 57ZM42.623 52.64C42.623 53.15 42.313 53.46 41.663 53.46H40.803V51.82H41.663C42.313 51.82 42.623 52.13 42.623 52.64ZM50.2142 57.16C52.4942 57.16 54.1642 55.62 54.1642 53.5C54.1642 51.38 52.4942 49.84 50.2142 49.84C47.9342 49.84 46.2642 51.38 46.2642 53.5C46.2642 55.62 47.9342 57.16 50.2142 57.16ZM50.2142 55.25C49.3442 55.25 48.6442 54.59 48.6442 53.5C48.6442 52.41 49.3442 51.75 50.2142 51.75C51.0842 51.75 51.7842 52.41 51.7842 53.5C51.7842 54.59 51.0842 55.25 50.2142 55.25ZM60.5769 50L58.8669 54.09L57.1969 50H54.6569L57.6169 57H59.9369L62.8969 50H60.5769ZM66.1017 55.22V54.3H69.0617V52.6H66.1017V51.78H69.4717V50H63.7817V57H69.6017V55.22H66.1017ZM75.3502 57H77.8702L76.4002 54.84C77.2402 54.41 77.7202 53.65 77.7202 52.64C77.7202 51.02 76.4802 50 74.5302 50H71.1602V57H73.5202V55.24H74.1602L75.3502 57ZM75.3402 52.64C75.3402 53.15 75.0302 53.46 74.3802 53.46H73.5202V51.82H74.3802C75.0302 51.82 75.3402 52.13 75.3402 52.64Z" fill="white"/>
</svg>
