<svg width="80" height="80" viewBox="0 0 80 80" fill="none" xmlns="http://www.w3.org/2000/svg">
<path d="M40 0C24.5326 0 12 12.5326 12 28C12 43.4674 24.5326 56 40 56C55.4674 56 68 43.4674 68 28C68 12.5326 55.4674 0 40 0V0ZM40 54.4533C33.6147 54.4533 27.6261 52.3116 23.1445 48.4249C18.8215 44.6176 15.4504 38.5496 14.6176 32.1246C16.6006 44.3796 27.1898 53.6997 40 53.6997C54.1983 53.6997 65.6997 42.1983 65.6997 28C65.6997 22.0907 63.5184 16.3399 60.1473 12.017C63.5184 14.6346 66.4533 22.051 66.4533 28C66.4929 42.6346 54.6346 54.4533 40 54.4533V54.4533ZM37.5807 25.9773L39.8414 2.7762H40.0397L40.2776 27.2068L44.1643 24.8669L40.2776 2.7762C54.0793 2.89518 65.2238 14.1586 65.2238 27.9603C65.2238 32.4023 64.0737 36.5666 62.051 40.2153L44.5609 25.5807L42.8952 26.5326L61.932 40.4533C61.8924 40.5326 61.8527 40.6119 61.7734 40.6912L40.3569 28.3569V32.6799L61.6147 40.8895C57.2125 48.2266 49.1615 53.1445 40 53.1445C30.8385 53.1445 22.7875 48.2266 18.3853 40.9292L39.6431 32.6799V28.3173L18.2266 40.6119C18.187 40.5326 18.1473 40.4533 18.068 40.3739L37.0255 26.4929L35.3598 25.5411L17.9093 40.0963C15.9263 36.4873 14.7762 32.3626 14.7762 27.9207C14.7762 14.1983 25.762 3.05382 39.4051 2.73654L35.9943 25.0652L37.5807 25.9773ZM40 1.50708C25.4051 1.50708 13.5467 13.3654 13.5467 27.9603C13.5467 33.9093 15.6884 39.5014 18.9802 44.3796C20.0907 46.4816 21.2805 47.7507 22.9065 49.4561C16.6006 44.4193 12.5156 36.6459 12.5156 27.9603C12.5156 12.7705 24.8102 0.475921 40 0.475921C55.1898 0.475921 67.7224 13.3258 67.2465 27.9603C66.8895 13.6827 54.3966 1.50708 40 1.50708V1.50708Z" fill="white"/>
<path d="M13.867 70L13.845 62.3H11.711L9.269 66.403L6.761 62.3H4.627V70H6.992V66.612L8.664 69.307H9.808L11.48 66.491L11.502 70H13.867ZM18.3891 68.042V67.03H21.6451V65.16H18.3891V64.258H22.0961V62.3H15.8371V70H22.2391V68.042H18.3891ZM28.5625 70H31.3345L29.7175 67.624C30.6415 67.151 31.1695 66.315 31.1695 65.204C31.1695 63.422 29.8055 62.3 27.6605 62.3H23.9535V70H26.5495V68.064H27.2535L28.5625 70ZM28.5515 65.204C28.5515 65.765 28.2105 66.106 27.4955 66.106H26.5495V64.302H27.4955C28.2105 64.302 28.5515 64.643 28.5515 65.204ZM36.8468 70.176C38.3538 70.176 39.5418 69.626 40.3008 68.636L38.6618 67.173C38.2108 67.745 37.6718 68.075 36.9788 68.075C35.9008 68.075 35.1748 67.327 35.1748 66.15C35.1748 64.973 35.9008 64.225 36.9788 64.225C37.6718 64.225 38.2108 64.555 38.6618 65.127L40.3008 63.664C39.5418 62.674 38.3538 62.124 36.8468 62.124C34.3718 62.124 32.5568 63.785 32.5568 66.15C32.5568 68.515 34.3718 70.176 36.8468 70.176ZM44.3173 68.042V67.03H47.5733V65.16H44.3173V64.258H48.0243V62.3H41.7653V70H48.1673V68.042H44.3173ZM49.8817 70H53.6767C56.2507 70 58.0217 68.537 58.0217 66.15C58.0217 63.763 56.2507 62.3 53.6767 62.3H49.8817V70ZM52.4777 67.976V64.324H53.5667C54.6557 64.324 55.4037 64.973 55.4037 66.15C55.4037 67.327 54.6557 67.976 53.5667 67.976H52.4777ZM62.2366 68.042V67.03H65.4926V65.16H62.2366V64.258H65.9436V62.3H59.6846V70H66.0866V68.042H62.2366ZM70.6719 70.176C73.0589 70.176 74.2579 68.988 74.2579 67.58C74.2579 64.742 70.0009 65.512 70.0009 64.588C70.0009 64.324 70.2429 64.104 71.0019 64.104C71.6729 64.104 72.3879 64.291 73.1469 64.676L73.9279 62.795C73.1249 62.344 72.0579 62.124 71.0239 62.124C68.6369 62.124 67.4379 63.29 67.4379 64.72C67.4379 67.591 71.6949 66.81 71.6949 67.778C71.6949 68.042 71.4309 68.196 70.6939 68.196C69.8469 68.196 68.8789 67.921 68.1529 67.492L67.3169 69.384C68.0869 69.857 69.3849 70.176 70.6719 70.176Z" fill="white"/>
</svg>
