<svg width="80" height="80" viewBox="0 0 80 80" fill="none" xmlns="http://www.w3.org/2000/svg">
<path d="M54.563 14.2972L54.4466 14.1011L54.1524 13.6354L53.846 13.1819L53.5212 12.7407L53.1842 12.3056L52.8349 11.8828L52.4734 11.4722L52.0996 11.0739L51.7074 10.6879L51.3029 10.3141L50.8924 9.95251L50.4695 9.60934L50.0345 9.27844L49.5871 8.95978L49.1275 8.65339L48.6618 8.36538L48.1838 8.08962L47.6936 7.83225L47.1972 7.58713L46.6886 7.3604L46.1739 7.14592L45.653 6.94983L45.1199 6.77212L44.5806 6.61279L44.0352 6.47185L43.4837 6.34929L42.9261 6.24512L42.3623 6.15932L41.7924 6.09192L41.2164 6.04289L40.6342 6.01225L40.046 6L39.4577 6.01225L38.8755 6.04289L38.2995 6.09192L37.7296 6.15932L37.1658 6.24512L36.6082 6.34929L36.0567 6.47185L35.5113 6.61279L34.972 6.77212L34.4389 6.94983L33.918 7.14592L33.4033 7.3604L32.9008 7.58713L32.4044 7.83225L31.9142 8.08962L31.4362 8.36538L30.9705 8.65339L30.5109 8.95978L30.0636 9.27844L29.6285 9.60934L29.2057 9.95251L28.7951 10.3141L28.3907 10.6879L28.0046 11.0739L27.6247 11.4722L27.2631 11.8828L26.9138 12.3056L26.5768 12.7407L26.252 13.1819L25.9456 13.6354L25.6515 14.1011L25.535 14.2972H0L2.75144 18.1884L4.00766 19.6836L7.42704 23.5749L8.95902 25.0701L13.3282 28.9613L15.2401 30.4688L20.4489 34.3478H27.6737L27.8024 34.4826L28.1026 34.7951L28.409 35.0954L28.7277 35.3895L29.0525 35.6775L29.3834 35.9533L29.7204 36.2229L30.0636 36.4864L30.419 36.7376L30.7805 36.9828L31.1482 37.2156L31.522 37.4424L31.9019 37.6568L32.288 37.8652L32.6802 38.0613L33.0785 38.2512L33.483 38.429L33.8874 38.5944L34.298 38.7476L34.7147 38.8947L35.1375 39.0295L35.5664 39.1521L35.9954 39.2624L36.4305 39.3665L36.8717 39.4584L37.3129 39.5381L37.7602 39.6055L38.2137 39.6607L38.6672 39.7036L39.1268 39.7342L39.5864 39.7526L40.0521 39.7587L40.5178 39.7526L40.9774 39.7342L41.437 39.7036L41.8905 39.6607L42.3439 39.6055L42.7913 39.5381L43.2325 39.4584L43.6737 39.3665L44.1088 39.2624L44.5377 39.1521L44.9667 39.0295L45.3895 38.8947L45.8062 38.7476L46.2168 38.5944L46.6212 38.429L47.0257 38.2512L47.424 38.0613L47.8162 37.8652L48.2022 37.6568L48.5821 37.4424L48.9559 37.2156L49.3236 36.9828L49.6852 36.7376L50.0406 36.4864L50.3838 36.2229L50.7208 35.9533L51.0517 35.6775L51.3765 35.3895L51.6951 35.0954L52.0077 34.7951L52.3079 34.4826L52.4366 34.3478H59.5511L64.7599 30.4688L66.6718 28.9613L71.041 25.0701L72.573 23.5749L75.9923 19.6836L77.2486 18.1884L80 14.2972H54.563ZM76.936 17.6369H55.5067C55.7947 18.4703 56.0092 19.3405 56.1563 20.229H74.7545L72.2972 23.0234H56.3769C56.3707 23.9058 56.2911 24.7698 56.1501 25.6155H69.5764L66.4389 28.4098H55.4087C55.09 29.2922 54.6978 30.144 54.2382 30.9468L63.0992 31.0019L59.3489 33.7962H52.1792C49.1888 37.1176 44.8564 39.2133 40.0521 39.2133C35.2478 39.2133 30.9154 37.1176 27.9249 33.7962H20.6327L16.8824 31.0019L25.8537 30.9468C25.3941 30.144 25.0019 29.2922 24.6833 28.4098H13.5366L10.4052 25.6216H23.9479C23.807 24.7759 23.7273 23.9119 23.7212 23.0295H7.67216L5.21486 20.2352H23.9295C24.0766 19.3466 24.2972 18.4764 24.5791 17.643H3.03945L1.06013 14.8487H25.8414C28.6542 9.90348 33.9732 6.55764 40.046 6.55764C46.1187 6.55764 51.4378 9.90348 54.2505 14.8487H78.9154L76.936 17.6369Z" fill="white"/>
<path d="M40.0454 10.5779C33.2679 10.5779 27.7344 16.1053 27.7344 22.8889C27.7344 29.6664 33.2618 35.1999 40.0454 35.1999C46.829 35.1999 52.3564 29.6725 52.3564 22.8889C52.3564 16.1053 46.8229 10.5779 40.0454 10.5779ZM36.9446 26.7495H35.1553V21.3324L33.7643 26.7495H32.1465L30.7616 21.3324V26.7495H28.9661V19.6411H31.8462L32.9615 23.9674L34.0706 19.6411H36.9446V26.7495V26.7495ZM40.1066 26.7495H38.158V19.6411H40.1066V26.7495ZM48.0178 26.7495H46.0078L43.4219 22.846V26.7495H41.418V19.6411H43.4096L46.0078 23.5752V19.6411H48.0178V26.7495V26.7495ZM49.2495 26.7495V19.6411H51.1982V26.7495H49.2495Z" fill="white"/>
<path d="M33.558 59L33.53 49.2H30.814L27.706 54.422L24.514 49.2H21.798V59H24.808V54.688L26.936 58.118H28.392L30.52 54.534L30.548 59H33.558ZM36.0654 59H39.3694V49.2H36.0654V59ZM48.31 49.2V53.652L44.586 49.2H41.87V59H45.09V54.548L48.814 59H51.53V49.2H48.31ZM54.0319 59H57.3359V49.2H54.0319V59Z" fill="white"/>
</svg>
