<svg width="80" height="79" viewBox="0 0 80 79" fill="none" xmlns="http://www.w3.org/2000/svg">
<path d="M39.6292 0L30.2097 16.2949L49.1228 51.8402L69 51.7604L58.913 34.1874H20.7903L11 52H29.5422L49.4194 15.9754L39.6292 0Z" fill="white"/>
<path d="M10.867 67L10.845 59.3H8.711L6.269 63.403L3.761 59.3H1.627V67H3.992V63.612L5.664 66.307H6.808L8.48 63.491L8.502 67H10.867ZM12.8371 67H15.4331V59.3H12.8371V67ZM19.0698 67H21.6658V61.313H23.9208V59.3H16.8148V61.313H19.0698V67ZM28.1811 67.176C30.5681 67.176 31.7671 65.988 31.7671 64.58C31.7671 61.742 27.5101 62.512 27.5101 61.588C27.5101 61.324 27.7521 61.104 28.5111 61.104C29.1821 61.104 29.8971 61.291 30.6561 61.676L31.4371 59.795C30.6341 59.344 29.5671 59.124 28.5331 59.124C26.1461 59.124 24.9471 60.29 24.9471 61.72C24.9471 64.591 29.2041 63.81 29.2041 64.778C29.2041 65.042 28.9401 65.196 28.2031 65.196C27.3561 65.196 26.3881 64.921 25.6621 64.492L24.8261 66.384C25.5961 66.857 26.8941 67.176 28.1811 67.176ZM36.9396 67.176C39.3046 67.176 40.6906 65.845 40.6906 63.535V59.3H38.1386V63.458C38.1386 64.635 37.6876 65.075 36.9616 65.075C36.2356 65.075 35.7846 64.635 35.7846 63.458V59.3H33.1886V63.535C33.1886 65.845 34.5746 67.176 36.9396 67.176ZM48.7556 62.974C49.4596 62.622 49.8226 62.028 49.8226 61.313C49.8226 60.147 48.8326 59.3 46.7096 59.3H42.5956V67H46.9296C49.0526 67 50.1856 66.219 50.1856 64.877C50.1856 63.964 49.6576 63.304 48.7556 62.974ZM46.3576 61.115C46.9406 61.115 47.2046 61.313 47.2046 61.687C47.2046 62.061 46.9406 62.259 46.3576 62.259H45.1476V61.115H46.3576ZM46.7096 65.185H45.1476V63.975H46.7096C47.2816 63.975 47.5676 64.184 47.5676 64.58C47.5676 64.976 47.2816 65.185 46.7096 65.185ZM51.8184 67H54.4144V59.3H51.8184V67ZM59.2501 67.176C61.6371 67.176 62.8361 65.988 62.8361 64.58C62.8361 61.742 58.5791 62.512 58.5791 61.588C58.5791 61.324 58.8211 61.104 59.5801 61.104C60.2511 61.104 60.9661 61.291 61.7251 61.676L62.5061 59.795C61.7031 59.344 60.6361 59.124 59.6021 59.124C57.2151 59.124 56.0161 60.29 56.0161 61.72C56.0161 64.591 60.2731 63.81 60.2731 64.778C60.2731 65.042 60.0091 65.196 59.2721 65.196C58.4251 65.196 57.4571 64.921 56.7311 64.492L55.8951 66.384C56.6651 66.857 57.9631 67.176 59.2501 67.176ZM69.3176 59.3V62.028H66.9196V59.3H64.3236V67H66.9196V64.162H69.3176V67H71.9136V59.3H69.3176ZM73.8794 67H76.4754V59.3H73.8794V67Z" fill="white"/>
</svg>
