<svg width="80" height="80" viewBox="0 0 80 80" fill="none" xmlns="http://www.w3.org/2000/svg">
<path d="M39.4862 51.1175C26.5298 51.1175 15.7828 40.4103 15.7828 27.5C15.7828 26.829 15.8139 26.1636 15.8713 25.5057L35.7044 26.7388L27.1262 32.6438C27.0478 32.6984 26.9889 32.7764 26.9581 32.8666C26.9273 32.9568 26.9261 33.0544 26.9548 33.1453C26.9835 33.2362 27.0405 33.3156 27.1175 33.372C27.1946 33.4284 27.2877 33.4588 27.3833 33.4588H62.4086C59.7153 43.5446 50.3831 51.1175 39.4869 51.1175H39.4862ZM39.4869 3.88183C52.444 3.88183 63.1903 14.5904 63.1903 27.5C63.1903 28.1661 63.1612 28.8268 63.1046 29.4805L43.2901 28.2261L51.8877 22.3561C51.9664 22.302 52.0256 22.2241 52.0568 22.134C52.088 22.0439 52.0894 21.9462 52.061 21.8552C52.0325 21.7641 51.9756 21.6846 51.8985 21.6281C51.8215 21.5716 51.7283 21.5412 51.6327 21.5412H16.5652C19.2592 11.4547 28.5907 3.88183 39.4869 3.88183V3.88183ZM73.4824 30.1384L66.9977 29.7271C67.0572 28.9862 67.0872 28.2433 67.0875 27.5C67.0875 12.3116 54.7303 0 39.4869 0C26.2976 0 15.27 9.21787 12.538 21.5412H7.44584C7.11203 21.5412 6.81416 21.699 6.62479 21.9442L5.10986 24.0287C5.05002 24.1049 5.01293 24.1964 5.00281 24.2926C4.9927 24.3889 5.00998 24.486 5.05267 24.5729C5.09537 24.6598 5.16175 24.733 5.24422 24.7841C5.32669 24.8351 5.42192 24.862 5.519 24.8616L11.9789 25.2625C11.9181 26.0068 11.8874 26.7532 11.887 27.5C11.887 42.6877 24.2442 55 39.4876 55C52.6769 55 63.7045 45.7814 66.4372 33.4588H71.5549C71.8894 33.4588 72.1866 33.3003 72.376 33.0558L73.8916 30.9706C73.9509 30.8942 73.9875 30.8028 73.9973 30.7068C74.0071 30.6107 73.9898 30.5139 73.9472 30.4272C73.9046 30.3404 73.8385 30.2674 73.7563 30.2162C73.6742 30.1651 73.5793 30.1379 73.4824 30.1377" fill="white"/>
<path d="M23.936 69.224C27.128 69.224 29.466 67.068 29.466 64.1C29.466 61.132 27.128 58.976 23.936 58.976C20.744 58.976 18.406 61.132 18.406 64.1C18.406 67.068 20.744 69.224 23.936 69.224ZM23.936 66.55C22.718 66.55 21.738 65.626 21.738 64.1C21.738 62.574 22.718 61.65 23.936 61.65C25.154 61.65 26.134 62.574 26.134 64.1C26.134 65.626 25.154 66.55 23.936 66.55ZM36.2932 59.2H31.5752V69H34.8792V66.592H36.2932C39.0232 66.592 40.7592 65.164 40.7592 62.896C40.7592 60.628 39.0232 59.2 36.2932 59.2ZM36.0832 64.044H34.8792V61.748H36.0832C36.9932 61.748 37.4272 62.182 37.4272 62.896C37.4272 63.61 36.9932 64.044 36.0832 64.044ZM46.0008 66.508V65.22H50.1448V62.84H46.0008V61.692H50.7188V59.2H42.7528V69H50.9008V66.508H46.0008ZM53.0827 69H60.8107V66.438H56.3867V59.2H53.0827V69Z" fill="white"/>
</svg>
