<svg width="80" height="80" viewBox="0 0 80 80" fill="none" xmlns="http://www.w3.org/2000/svg">
<path fill-rule="evenodd" clip-rule="evenodd" d="M35.2045 0.673914C34.0664 1.04541 32.675 1.70075 32.1121 2.13012C31.5497 2.55949 30.0887 3.34105 28.8666 3.86632C26.3151 4.96427 26.165 5.41678 27.6596 7.5096C29.1669 9.62115 30.345 10.0538 31.5306 8.93163C32.3689 8.13849 34.2612 8.23164 34.7465 9.08982C35.2207 9.9276 34.3696 10.3151 32.3364 10.1878C29.7426 10.0257 29.1223 10.928 30.5363 12.8064C31.7555 14.4269 32.606 14.7261 34.0206 14.0344C35.4891 13.3157 35.8353 13.5648 35.1222 14.8265C34.2757 16.3229 34.0172 16.2733 28.0567 13.4678C20.0538 9.70107 16.0471 9.74572 13.8237 13.6265C13.0185 15.032 14.1455 16.4552 15.8593 16.1961C17.213 15.9916 17.3863 16.0594 17.7365 16.9297C17.9881 17.5564 18.4119 17.8893 18.9557 17.8893C19.4137 17.8893 20.4184 18.2575 21.1878 18.7078L22.5861 19.5258L20.0735 20.0075C15.058 20.9699 13.7878 21.5574 12.8266 23.3598C11.1128 26.5742 12.1622 28.5849 15.0667 27.6518C16.2819 27.2615 16.933 27.2114 17.2797 27.4814C17.584 27.7179 20.0323 27.8353 23.7091 27.7901C30.0064 27.7118 31.1706 27.9334 33.2026 29.6013C34.1551 30.3834 34.1557 30.3856 33.4386 31.5409C28.5269 39.4541 27.6132 41.4086 27.4729 44.3006C27.3975 45.8621 27.3106 47.1391 27.2793 47.1397C26.0745 47.1507 20.4834 48.3771 19.8503 48.7695C18.9841 49.3064 18.6659 50.3927 18.4241 53.6364L18.3348 54.8313L27.0311 54.8964L35.7274 54.9614L35.5929 52.3858L35.4596 49.8096L39.9625 45.0243L44.4661 40.239L47.4402 42.3367C52.1965 45.6917 52.7652 46.0219 54.3074 46.325C56.1006 46.6778 56.453 47.3982 54.9828 47.7068C51.0619 48.5314 50.4961 49.1178 50.0717 52.8063L49.8189 55L57.1441 54.9857L64.4699 54.9713L66.2346 53.1784C67.2057 52.1918 68 51.1682 68 50.902C68 50.0808 63.1556 41.4438 60.8806 38.2101C58.2654 34.4908 58.2665 34.9273 60.8603 32.5049C64.5812 29.028 64.5325 27.9891 60.2377 19.2866C57.0508 12.8284 56.5504 11.0989 57.3482 9.2921C58.005 7.80558 59.4973 7.46219 59.4973 8.79769C59.4973 12.0662 65.0125 18.3369 66.2381 16.4612C66.4689 16.1085 64.8844 9.96288 63.8994 7.39219C62.4894 3.71089 57.5082 3.05995 54.7219 6.19339L53.6546 7.3933L52.1147 5.97126C51.2677 5.18859 50.4781 4.1827 50.3593 3.73625C50.1969 3.12334 49.4044 2.65429 47.1323 1.82532C41.5882 -0.197495 38.7184 -0.473634 35.2045 0.673914ZM41.54 1.62414C46.2187 2.74799 48.2785 3.64696 48.5493 4.68206C48.6878 5.20954 49.9181 6.7385 51.2834 8.07951C53.6882 10.4419 53.7775 10.5978 54.1068 13.0158C54.9474 19.1824 54.9509 19.1763 50.2207 20.2886C45.4511 21.4108 45.5108 21.785 51.6225 29.0721C57.4096 35.9729 61.6946 41.9983 64.2704 46.8564L66.1448 50.3922L64.8502 51.8991L63.5556 53.4066L60.6951 53.1977C59.1217 53.083 57.0206 52.9893 56.0269 52.9893C54.2384 52.9893 54.2216 52.9783 54.3903 51.8903C54.5735 50.708 55.0309 50.5217 60.8493 49.2579C64.031 48.5667 64.0026 48.2057 60.3229 42.6493C51.5414 29.3852 45.2157 24.2268 26.9824 15.462C22.7705 13.4369 21.5617 13.0186 19.4723 12.8599C15.9555 12.5925 16.2976 11.9267 19.8642 12.0976C22.654 12.2304 23.0221 12.3666 31.3619 16.3482C41.9464 21.4014 41.6189 21.3645 43.5471 17.7069C46.1131 12.8384 45.9931 11.8755 42.2601 7.38172C39.468 4.01955 36.2933 3.6679 30.265 6.05008C28.9779 6.55882 28.1906 6.48 28.1906 5.84174C28.1906 5.67473 28.9292 5.26025 29.8325 4.92127C30.7363 4.5823 31.9103 3.92806 32.4414 3.46727C33.5429 2.51153 36.7426 1.33422 38.8349 1.11375C39.0552 1.09005 40.2727 1.31989 41.54 1.62414ZM34.1238 2.89625C33.0722 3.29806 32.6327 3.95672 33.1139 4.41199C33.6171 4.8882 36.6933 3.71144 36.6933 3.04232C36.6933 2.47571 35.4161 2.40295 34.1238 2.89625ZM59.3408 25.188C60.0614 26.7831 59.346 27.8937 56.809 29.1206C54.7689 30.1072 54.6361 30.0466 51.7124 26.8057C48.7394 23.5113 48.8072 23.0787 52.469 21.9658C54.5967 21.3188 55.4031 20.8866 55.7243 20.2197C56.169 19.297 57.5198 21.1534 59.3408 25.188ZM29.1362 25.1808C29.8058 25.8808 29.7392 25.893 24.7643 26.0037C19.2995 26.125 18.1452 25.3021 23.0789 24.8022C27.394 24.3651 28.4173 24.429 29.1362 25.1808ZM37.6273 30.8012C38.2714 31.2471 38.1015 31.575 35.3083 35.28C30.672 41.4295 29.622 43.5328 29.931 46.0522C30.2406 48.576 30.0331 48.7723 26.4438 49.3538C23.0302 49.906 22.5148 50.1695 22.2 51.5237C21.9009 52.8118 20.8463 53.0202 20.8463 51.7905C20.8463 50.1149 21.8168 49.4271 24.8054 48.9823C29.3884 48.3005 29.3426 48.3385 29.2423 45.2321C29.1484 42.3252 30.9642 38.1506 34.7337 32.6057C36.3953 30.1618 36.5571 30.0609 37.6273 30.8012Z" fill="white"/>
<path d="M5.516 59.2H0.798V69H4.102V66.592H5.516C8.246 66.592 9.982 65.164 9.982 62.896C9.982 60.628 8.246 59.2 5.516 59.2ZM5.306 64.044H4.102V61.748H5.306C6.216 61.748 6.65 62.182 6.65 62.896C6.65 63.61 6.216 64.044 5.306 64.044ZM15.2236 66.508V65.22H19.3676V62.84H15.2236V61.692H19.9416V59.2H11.9756V69H20.1236V66.508H15.2236ZM26.9955 69.224C30.0055 69.224 31.7695 67.53 31.7695 64.59V59.2H28.5215V64.492C28.5215 65.99 27.9475 66.55 27.0235 66.55C26.0995 66.55 25.5255 65.99 25.5255 64.492V59.2H22.2215V64.59C22.2215 67.53 23.9855 69.224 26.9955 69.224ZM40.676 66.312C40.27 66.48 39.878 66.55 39.472 66.55C38.058 66.55 37.134 65.57 37.134 64.1C37.134 62.588 38.058 61.65 39.514 61.65C40.382 61.65 41.096 62.014 41.712 62.728L43.826 60.866C42.832 59.648 41.278 58.976 39.346 58.976C36.112 58.976 33.802 61.09 33.802 64.1C33.802 67.11 36.112 69.224 39.276 69.224C40.718 69.224 42.356 68.79 43.546 67.978V63.834H40.676V66.312ZM49.1118 66.508V65.22H53.2558V62.84H49.1118V61.692H53.8298V59.2H45.8638V69H54.0118V66.508H49.1118ZM61.3317 69.224C64.5237 69.224 66.8617 67.068 66.8617 64.1C66.8617 61.132 64.5237 58.976 61.3317 58.976C58.1397 58.976 55.8017 61.132 55.8017 64.1C55.8017 67.068 58.1397 69.224 61.3317 69.224ZM61.3317 66.55C60.1137 66.55 59.1337 65.626 59.1337 64.1C59.1337 62.574 60.1137 61.65 61.3317 61.65C62.5497 61.65 63.5297 62.574 63.5297 64.1C63.5297 65.626 62.5497 66.55 61.3317 66.55ZM70.9622 69H74.2662V61.762H77.1362V59.2H68.0922V61.762H70.9622V69Z" fill="white"/>
</svg>
