<svg width="80" height="80" viewBox="0 0 80 80" fill="none" xmlns="http://www.w3.org/2000/svg">
<path d="M14.7754 36.6667C15.3137 41.6967 18.1104 48.2884 22.8271 54.0201C26.9071 58.9767 32.5321 63.2067 39.6571 65.0001H39.6621V36.6667H14.7754Z" fill="white"/>
<path d="M39.6632 1.67668C47.8932 1.81168 56.1249 3.37168 64.3582 6.35501L64.6449 6.46001V35C64.6299 40.1667 61.7332 47.6367 56.4832 54.02C52.4049 58.9783 46.7832 63.2067 39.6615 65H39.6565C32.5349 63.2067 26.9116 58.9783 22.8349 54.02C17.5832 47.6367 14.6865 40.1667 14.6715 35V6.46001L14.9582 6.35501C23.1916 3.37168 31.4232 1.81168 39.6532 1.67668H39.6632ZM39.6766 0.0100098H39.6632H39.6549C31.2516 0.146676 22.7616 1.75501 14.3916 4.78834L14.1015 4.89334L13.0049 5.29334V6.46001V35C13.0232 40.9117 16.3749 48.7917 21.5465 55.0783C26.3532 60.92 32.4732 64.91 39.2499 66.615L39.4499 66.665H39.6565H39.8632L40.0682 66.615C46.8432 64.91 52.9649 60.92 57.7715 55.0783C62.9432 48.79 66.2949 40.9117 66.3132 35.005V6.46001V5.29334L65.2165 4.89334L64.9299 4.78834C56.5565 1.75334 48.0649 0.146676 39.6916 0.0100098H39.6766Z" fill="#263238"/>
<path d="M39.6621 65C46.7871 63.2067 52.4121 58.9783 56.4921 54.02C61.7438 47.6367 64.6421 40.1667 64.6571 35H39.6621V65Z" fill="white"/>
<path d="M43.1852 49.9484C43.5585 49.6617 44.3918 49.39 44.8652 49.195C44.8518 48.5017 44.5602 47.85 44.7335 47.28C45.0502 46.24 45.7635 45.7834 46.4735 45.705C46.5185 45.72 46.5585 45.805 46.5152 45.83C46.1168 46.1967 45.9702 46.7067 45.8885 47.2834C45.8568 47.5067 45.8252 48.1667 46.0302 48.6384C46.4452 48.4334 47.4552 48.0884 47.7985 48.0017C47.8335 47.3117 47.9452 46.635 48.1468 46.14C48.5468 45.165 49.4252 44.3984 50.3118 44.8384C50.3585 44.8617 50.3952 44.9534 50.3468 44.97C49.7952 45.1684 49.4402 45.7334 49.1252 46.3717C49.0318 46.56 48.7202 47.6 49.0802 47.815C49.0868 47.8184 49.0935 47.8234 49.0985 47.8267C49.7335 47.7017 49.8385 47.7567 50.5218 47.7C50.6402 47.0217 50.9352 46.4567 51.2018 46.005C51.6068 45.2484 52.6218 44.645 53.5518 45.1884C53.6018 45.2184 53.6318 45.315 53.5768 45.3267C52.9418 45.4634 52.5285 45.8717 52.2918 46.23C52.1718 46.4034 51.5918 47.2134 51.8852 47.5317C51.9185 47.53 51.9518 47.53 51.9852 47.5284C52.5318 47.5117 52.9252 47.6184 53.5168 47.725C53.6852 47.325 53.8385 47.265 54.0152 47.0484C54.6435 46.29 55.7385 46.0234 56.1002 46.7467C56.1352 46.7867 56.1435 46.8867 56.0968 46.8834C55.7635 46.9334 55.2185 47.095 54.9435 47.43C54.8718 47.5017 54.6952 47.6917 54.5302 48.0484C55.2702 48.61 55.7035 49.0567 55.9002 49.8284C55.9352 49.9684 56.0152 50.7317 55.7368 50.3417C54.5285 48.8567 52.9002 48.5334 50.4402 48.76C47.8168 49.0034 46.6135 49.375 43.9768 50.765C45.4302 52.04 43.2468 53.2867 42.8918 51.4234C41.6135 53.3217 40.2652 50.93 41.9935 50.5817C40.3202 48.9167 42.7102 48.145 43.1852 49.9484ZM47.6602 41.7284C48.6035 41.4184 49.6368 41.0967 50.1635 40.9834C50.2618 39.4667 51.7085 37.5934 53.4268 38.2484C53.4902 38.2717 53.5368 38.3634 53.4735 38.38C53.0318 38.5 51.6268 39.8284 52.1085 40.665C52.4602 40.6834 53.4235 40.6667 53.7285 40.6817C54.1085 39.0084 55.5702 37.8434 57.2618 38.6C57.3268 38.63 57.3668 38.7267 57.2968 38.7384C56.6335 38.8467 55.1302 39.8867 55.3018 40.7584C55.6118 40.7784 56.4402 41.0634 56.9868 41.3484C57.1835 40.9467 57.4035 40.78 57.6135 40.565C58.3468 39.8067 59.8485 39.7534 60.2702 40.4784C60.3118 40.5184 60.3218 40.6184 60.2668 40.6167C59.6185 40.595 59.0518 40.685 58.5135 41.1634C58.4318 41.235 58.2468 41.4967 58.0552 41.8534C58.5802 42.13 59.1718 42.6817 59.2852 43.205C59.3702 43.46 59.4268 43.6817 59.3718 43.9467C59.3568 44.0167 59.2135 43.9484 59.1668 43.8967C57.7802 42.4117 54.7168 41.4867 51.7485 41.8517C49.7635 42.095 47.8335 42.6184 46.2152 43.3234C46.7568 42.8467 47.2418 42.3117 47.6602 41.7284ZM43.2852 45.1084C43.1485 45.23 43.0202 45.3534 42.9002 45.48C43.6152 46.4217 42.4935 47.1967 42.1618 46.235C41.3218 47.1217 40.6568 46.0917 41.2068 45.66C41.9302 45.55 42.6252 45.3634 43.2852 45.1084ZM42.8018 57.8634C43.0002 57.65 43.4785 57.2384 43.7202 57.05C42.9818 55.8934 43.3952 54.435 44.1085 54.3317C44.1452 54.3467 44.1868 54.4267 44.1552 54.4534C43.9618 54.7284 43.8602 56.2384 44.4318 56.5767C44.7168 56.3784 45.2752 56.0017 45.5202 55.92C45.1018 54.54 45.8368 52.6884 47.2335 52.9884C47.2718 53.01 47.3118 53.1 47.2785 53.1167C46.1235 53.6917 46.1202 55.42 46.4268 55.625C46.8852 55.5034 47.4052 55.3034 47.9085 55.2484C48.1302 53.4117 49.7902 52.5817 50.6135 53.055C50.6535 53.0817 50.6885 53.175 50.6485 53.1867C50.1852 52.9184 48.4552 54.6717 49.0218 55.1867C49.4285 55.1717 49.8885 55.3384 50.3435 55.4417C50.5385 54.4284 51.9985 53.575 52.6035 54.2217C52.6368 54.26 52.6552 54.355 52.6202 54.3534C52.0652 54.4617 51.3418 54.9684 51.2302 55.905C52.3985 56.4417 52.2718 57.5634 52.0752 57.2734C50.9818 55.8384 48.6318 56.0767 46.8518 56.445C45.8152 56.6584 44.3518 57.6334 43.7352 58.32C45.6135 59.1934 43.9018 60.8034 43.1168 58.9767C41.8168 61.2167 40.5485 59.18 42.0568 58.565C40.2468 57.1834 42.1735 56.2467 42.8018 57.8634Z" fill="black"/>
<path d="M39.671 1.7433V1.67664C31.4377 1.81164 23.2027 3.37164 14.9643 6.35497L14.6777 6.45997C14.6777 6.45997 14.6427 30.315 14.6777 35H14.6727C14.6743 35.5283 14.726 36.095 14.7877 36.6666H39.6627V35H39.6777V1.68997L39.671 1.7433Z" fill="white"/>
<path d="M18.8988 19.6567C19.3254 19.3917 19.7554 19.1467 20.1921 18.9201C20.1288 18.2517 20.0538 17.2101 20.2388 16.6451C20.5754 15.6134 21.5438 14.7584 22.6771 14.9484C22.7388 14.9584 22.7971 15.0367 22.7404 15.0651C22.1004 15.3951 21.5954 15.8834 21.3121 16.5734C21.2271 16.7767 20.9121 18.1501 21.3788 18.2634C21.4288 18.2751 21.4771 18.2834 21.5271 18.2867C22.3588 17.9334 23.2171 17.6351 24.1071 17.3867C24.1038 16.7184 24.1321 15.7834 24.3621 15.2867C24.8121 14.3117 25.9104 13.5967 27.0938 13.9401C27.1571 13.9584 27.2121 14.0434 27.1504 14.0651C26.4454 14.3051 25.8671 14.7184 25.5021 15.3634C25.3938 15.5534 24.9388 16.8701 25.4204 17.0467C25.4288 17.0501 25.4388 17.0534 25.4471 17.0551C26.2638 16.8767 27.1088 16.7334 27.9938 16.6184C28.0988 15.9534 28.2788 15.0817 28.5938 14.6234C29.2471 13.6717 30.5721 13.0301 31.8204 13.4701C31.8871 13.4934 31.9338 13.5851 31.8638 13.6001C31.0471 13.7884 30.3421 14.1634 29.8388 14.7884C29.6954 14.9651 29.0271 16.1784 29.4288 16.4584C29.4721 16.4534 29.5138 16.4501 29.5588 16.4451C30.2688 16.3801 31.0704 16.3601 31.8471 16.4084C32.0371 16.0067 32.2554 15.6217 32.4738 15.3984C33.2371 14.6117 34.9371 14.3384 35.4571 15.0051C35.5071 15.0401 35.5238 15.1351 35.4621 15.1367C34.7388 15.1651 33.9904 15.2701 33.4271 15.7717C33.3421 15.8484 33.0338 16.1567 32.8454 16.5151C34.0188 16.7017 34.9971 17.1001 35.3054 17.8267C35.4071 18.0684 35.4788 18.2767 35.4438 18.5351C35.4354 18.6034 35.2871 18.5484 35.2371 18.5017C33.7504 17.1651 31.4104 17.0151 28.2454 17.5567C25.0588 18.1017 22.3738 19.0301 19.5238 20.3584C20.6771 21.6284 18.8654 22.6101 18.2771 21.2701C16.8971 22.8951 15.6021 20.5384 17.5154 20.2567C16.4254 18.5834 18.6088 18.5251 18.8988 19.6567ZM19.2838 32.5634C19.6638 32.2801 20.1488 32.0434 20.5404 31.7984C20.1338 31.1701 19.9071 30.2567 20.0538 29.6817C20.3221 28.6351 20.9804 28.1567 21.7988 28.2001C21.8554 28.2084 21.9104 28.2834 21.8604 28.3151C21.2871 28.6734 21.1954 29.1551 21.0338 29.8801C20.9471 30.2701 21.1621 30.9267 21.4571 31.1501C22.1938 30.7634 22.1704 30.8151 22.9438 30.5434C22.7154 29.8634 22.7754 28.9701 23.0471 28.4001C23.4821 27.4834 24.2071 27.1551 24.9521 27.3034C25.0088 27.3184 25.0588 27.3984 25.0071 27.4201C24.4388 27.6617 23.2721 28.5634 24.0288 30.2817C24.7371 30.0351 24.7771 29.9967 25.6721 29.8067C25.7421 29.1367 25.7604 28.3317 26.0304 27.8584C26.5904 26.8767 27.8721 26.4317 28.4671 26.6634C28.5288 26.6834 28.5754 26.7734 28.5121 26.7917C28.1738 27.0151 27.7421 27.1784 27.3054 27.8251C27.0704 28.1734 26.6354 28.9717 26.7604 29.505C27.4071 29.4117 28.2438 29.3767 28.9554 29.3934C29.1138 28.9834 29.4171 28.4767 29.6071 28.2434C29.7371 28.0834 29.9054 27.9717 30.0971 27.8967V30.3151C28.8771 30.2567 27.5338 30.3901 26.2521 30.6884C23.3554 31.3651 22.6054 31.8767 20.0271 33.2317C21.5754 34.1834 20.0754 35.6317 19.1221 34.1967C17.4388 36.0784 16.3621 33.6517 18.1038 33.2917C16.7971 31.7317 18.9554 30.8934 19.2838 32.5634ZM18.5304 26.1351C18.9638 25.8801 19.5604 25.6851 20.0021 25.4667C19.9538 24.7967 19.8621 24.1867 20.0621 23.6251C20.4238 22.6017 20.9671 22.0817 21.8554 22.1817C21.9154 22.1934 21.9721 22.2734 21.9171 22.3001C21.2704 22.6167 21.4371 23.0534 21.1371 23.7367C21.0471 23.9384 20.8221 24.7551 21.2838 24.8784C21.3338 24.8917 21.3821 24.9001 21.4321 24.9067C22.2588 24.5717 21.9688 24.6067 22.8288 24.3884C22.8404 23.7484 22.8888 22.8534 23.1204 22.3834C23.5721 21.4584 24.4404 20.9934 25.2421 21.1917C25.3021 21.2101 25.4321 21.3717 25.3738 21.3917C24.7388 21.5917 23.6438 22.8551 24.0954 23.8551C24.6554 23.7634 25.0188 23.5901 26.0071 23.4634C26.1288 22.8001 26.3688 22.1301 26.6938 21.6784C27.3688 20.7401 28.4288 20.5617 29.0621 20.8334C29.1288 20.8584 29.2121 21.0284 29.1421 21.0434C28.3221 21.2134 28.2938 21.1401 27.7738 21.7534C27.4938 22.0834 26.9171 22.9617 27.3338 23.3651C28.0438 23.3151 28.5254 23.2351 29.2988 23.3001C29.4988 22.9034 29.6454 22.3667 29.8688 22.1467C31.3288 21.6667 31.3288 21.6667 32.4154 21.8184C32.4654 21.8551 32.4804 21.9501 32.4188 21.9501C31.6954 21.9617 31.4271 22.1684 30.8521 22.6584C30.7954 22.7084 30.6554 22.8734 30.5104 23.0801H30.0954V24.4117C28.8971 24.3084 27.6154 24.3434 26.3921 24.5234C23.1938 24.9967 22.0171 25.7084 19.3771 26.9717C20.5004 28.2667 18.6671 29.1667 18.1104 27.8151C16.6921 29.4084 15.4538 27.0234 17.3721 26.7851C16.3254 25.0834 18.2288 24.6417 18.5304 26.1351ZM39.6621 48.3334H18.9238C20.0304 50.2651 21.3204 52.1884 22.8288 54.0201C23.1038 54.3534 23.4021 54.6734 23.6904 55.0001H39.6621V48.3334ZM36.3288 36.6667H14.6621C14.6671 38.6201 15.0888 40.9051 15.8904 43.3334H36.3288V36.6667Z" fill="#263238"/>
<path d="M64.6571 6.45997L64.3704 6.35497C56.1338 3.37164 47.8988 1.81164 39.6638 1.67664L39.6621 1.68997V35H64.6571V34.9983C64.6921 30.315 64.6571 6.45997 64.6571 6.45997Z" fill="white"/>
<path d="M49.6621 21.6667H64.6621V28.3334H49.6621V21.6667ZM39.6621 8.33337H64.6621V15H39.6621V8.33337Z" fill="#263238"/>
<path d="M64.0906 15.4517C55.979 12.5134 47.7606 10.9567 39.664 10.8234C31.5673 10.9567 23.349 12.515 15.239 15.4517L13.834 15.9617V5.86837L14.6673 5.56171C22.9606 2.56004 31.364 0.970041 39.6456 0.833374C47.964 0.970041 56.3673 2.56004 64.659 5.56171L65.4956 5.86837V15.9617L64.0906 15.4517Z" fill="white"/>
<path d="M39.6683 1.66667C47.9017 1.80167 56.1367 3.36167 64.375 6.345L64.6617 6.45V14.7733L64.375 14.6683C56.1383 11.685 47.9033 10.125 39.6683 9.99L39.66 10.0567V9.99C31.4267 10.125 23.1917 11.685 14.9533 14.6683L14.6667 14.7733V6.45L14.9533 6.345C23.19 3.36167 31.425 1.80167 39.66 1.66667H39.6683ZM39.6817 0H39.6683H39.66C31.255 0.138333 22.76 1.745 14.3867 4.77833L14.095 4.88333L13 5.28333V6.45V14.7733V17.155L15.2367 16.34L15.5233 16.235C23.5383 13.3317 31.6617 11.7917 39.6633 11.6567C47.665 11.79 55.7867 13.3317 63.8067 16.235L64.0917 16.3383L66.3283 17.155V14.7733V6.45V5.28333L65.2317 4.88333L64.945 4.78C56.5683 1.745 48.0733 0.138333 39.695 0H39.6817Z" fill="#263238"/>
<path d="M18.3233 6.67165C18.9216 6.48332 19.5199 6.29498 20.1266 6.12498C20.3499 6.06332 20.5749 6.00498 20.8033 5.95665C21.0433 5.90998 21.2999 5.88665 21.5349 5.96165L21.6149 5.99998C21.6966 6.05332 21.7449 6.10665 21.7866 6.19165C21.8483 6.34165 21.8716 6.49665 21.8899 6.65665C21.9233 7.00165 21.9233 7.34998 21.8966 7.69665C21.8716 7.96998 21.8399 8.24998 21.7249 8.50165C21.6716 8.60498 21.6116 8.69332 21.5349 8.78165C21.4733 8.84665 21.4116 8.90332 21.3399 8.95832C21.1966 9.06665 21.0449 9.14998 20.8799 9.22498C20.4899 9.39998 20.0799 9.52165 19.6733 9.64998C18.9616 9.87832 18.2566 10.125 17.5516 10.37L17.5499 11.6367C17.1966 11.775 16.8416 11.915 16.4883 12.055V7.26165C17.0999 7.06332 17.7099 6.86498 18.3233 6.67165ZM17.5516 9.51665C18.2616 9.27832 18.9699 9.03998 19.6833 8.81165C19.8999 8.74165 20.1216 8.67832 20.3333 8.59165L20.4949 8.50165L20.5683 8.44832L20.6333 8.38832L20.6899 8.32165L20.7383 8.24832L20.7949 8.11665C20.8166 8.03332 20.8299 7.95498 20.8383 7.86998C20.8533 7.66165 20.8566 7.44998 20.7983 7.24832L20.7483 7.13998L20.6949 7.07332L20.6283 7.01498L20.5483 6.97665L20.4649 6.95332L20.3816 6.94498L20.2966 6.94665C20.0816 6.97165 19.8699 7.03498 19.6649 7.09498C18.9566 7.30498 18.2549 7.53998 17.5516 7.76665V9.51665ZM26.5116 4.49332C26.9866 4.40665 27.4633 4.32832 27.9449 4.28665C28.1033 4.27332 28.2566 4.26665 28.4149 4.27665C28.4916 4.28665 28.5616 4.29832 28.6349 4.31998C28.6966 4.34165 28.7466 4.36498 28.8033 4.39832C28.8533 4.43332 28.8916 4.46665 28.9316 4.50998C28.9699 4.56165 28.9983 4.60832 29.0266 4.66498C29.0599 4.74665 29.0833 4.82498 29.1016 4.90998C29.1566 5.20165 29.1699 5.49665 29.1849 5.79165C29.1999 6.12665 29.2016 6.45998 29.1916 6.79498C29.1866 6.93498 29.1799 7.07498 29.1733 7.21665C29.1566 7.47332 29.1416 7.73498 29.0816 7.98665C29.0666 8.04832 29.0466 8.10832 29.0249 8.16832C28.9833 8.26332 28.9366 8.34332 28.8749 8.42665L28.7166 8.58498L28.5149 8.71832C28.4333 8.75998 28.3516 8.79332 28.2666 8.82498C27.9216 8.93332 27.5633 9.00498 27.2116 9.07665C26.4883 9.22498 25.7633 9.36332 25.0383 9.50165C24.6866 9.56832 24.3366 9.63498 23.9849 9.68332C23.8866 9.69498 23.7899 9.70332 23.6933 9.70498L23.4733 9.68332C23.4133 9.66665 23.3649 9.64998 23.3099 9.62498L23.1899 9.53332L23.0983 9.39832L22.9549 8.68332L22.9516 6.75998C22.9666 6.53332 22.9933 6.30998 23.0449 6.08832L23.1033 5.89832C23.1466 5.79665 23.1933 5.70998 23.2566 5.61832L23.4183 5.43998L23.5499 5.33332C23.6933 5.23665 23.8383 5.16332 24.0033 5.10165L24.7949 4.86665C25.3616 4.72165 25.9349 4.60165 26.5116 4.49332ZM25.9599 5.47998L24.8216 5.74832C24.7299 5.77665 24.6416 5.80665 24.5549 5.84498L24.4699 5.88998L24.3899 5.94498L24.3166 6.00498L24.2516 6.07332L24.1916 6.14998L24.1416 6.22998C24.1066 6.30498 24.0799 6.37332 24.0599 6.45332C23.9999 6.72665 23.9949 7.00998 23.9899 7.28998C23.9866 7.58332 23.9816 7.88498 24.0416 8.17498L24.0783 8.28832L24.1349 8.39498L24.2149 8.48665L24.3133 8.55832L24.4249 8.60832L24.5449 8.63832L24.6716 8.64832C24.7499 8.64498 24.8233 8.63998 24.9016 8.62998C25.3416 8.57165 25.7816 8.47998 26.2166 8.39332C26.5783 8.32165 26.9399 8.25165 27.2983 8.15832C27.3766 8.13832 27.4483 8.11332 27.5249 8.08665L27.6433 8.02998L27.7499 7.96165L27.8449 7.87998L27.9266 7.78665L27.9949 7.68498L28.0466 7.57165L28.0799 7.45498C28.1399 7.13998 28.1333 6.81832 28.1299 6.49998C28.1266 6.33332 28.1233 6.16498 28.1066 5.99832L28.0866 5.86498C28.0649 5.77165 28.0416 5.68998 28.0033 5.60165L27.9616 5.52665L27.9099 5.45832L27.8466 5.39665L27.7733 5.34665L27.6949 5.30998L27.6116 5.28998L27.4283 5.26998C27.2399 5.26832 27.0549 5.28498 26.8683 5.31332C26.5649 5.36165 26.2633 5.42165 25.9599 5.47998ZM33.2333 3.68998C33.7833 3.64832 34.3333 3.61332 34.8866 3.59665C35.0049 3.59332 35.1249 3.59165 35.2433 3.59332C35.3749 3.59832 35.4866 3.62498 35.6049 3.68165C35.6483 3.70332 35.6866 3.72832 35.7266 3.75665C35.8149 3.82665 35.8699 3.89665 35.9249 3.99332C35.9616 4.06832 35.9883 4.13998 36.0083 4.21998C36.0416 4.39998 36.0449 4.58832 36.0483 4.76998C36.0516 4.99832 36.0516 5.22665 36.0316 5.45332C36.0233 5.54332 36.0133 5.63165 35.9883 5.71832L35.9533 5.80998C35.9199 5.87332 35.8883 5.92332 35.8433 5.97832L35.7433 6.06498C35.6966 6.09498 35.6499 6.12165 35.5983 6.14332C35.5233 6.17165 35.4466 6.18998 35.3683 6.20665L34.7666 6.32832L35.3599 6.65832C35.4399 6.71332 35.5083 6.76998 35.5749 6.83998L35.6466 6.92498C35.7399 7.05498 35.8049 7.18498 35.8583 7.33498C35.9416 7.58998 35.9849 7.85498 35.9933 8.12165C35.6433 8.13665 35.2916 8.15165 34.9433 8.16998C34.9266 7.98165 34.8899 7.79998 34.8383 7.61832L34.7583 7.41332L34.7049 7.31665L34.6433 7.22332L34.5699 7.14165L34.4783 7.06998L34.3716 7.01332C34.3066 6.99498 34.2449 6.97832 34.1766 6.96832C34.0366 6.95165 33.8949 6.96332 33.7549 6.97332C33.0766 7.02332 32.3983 7.07665 31.7216 7.14165L31.4666 7.16498V8.43998C31.1116 8.47832 30.7566 8.51665 30.4033 8.55665V3.95998C31.3449 3.85498 32.2883 3.76165 33.2333 3.68998ZM31.4666 6.32498C32.1716 6.25998 32.8783 6.19998 33.5849 6.14665C33.8283 6.12832 34.0716 6.10998 34.3133 6.08498C34.3833 6.07665 34.4499 6.06332 34.5199 6.04665L34.6016 6.01998L34.6799 5.98332L34.7516 5.93832L34.8149 5.88165L34.8683 5.81498L34.9083 5.74332C34.9299 5.68665 34.9449 5.63498 34.9583 5.57498C34.9883 5.37998 34.9899 5.18332 34.9716 4.98665C34.9599 4.91165 34.9466 4.84665 34.9199 4.77332L34.8816 4.70332L34.8299 4.63665L34.7666 4.57998L34.6949 4.53665L34.6183 4.50332L34.5383 4.48332C34.4683 4.47165 34.4033 4.46498 34.3333 4.46498C33.9866 4.46832 33.6366 4.49832 33.2916 4.52332C32.6833 4.56832 32.0749 4.62332 31.4666 4.67665V6.32498ZM38.9499 7.38832C39.3499 7.39165 39.7516 7.39165 40.1533 7.39165C40.4283 7.39165 40.7083 7.40165 40.9816 7.37332C41.0416 7.36498 41.0999 7.35498 41.1583 7.34332C41.2149 7.32665 41.2616 7.30998 41.3133 7.28332L41.3749 7.23665L41.4266 7.17832L41.4666 7.11332L41.4933 7.04498L41.5249 6.90498L41.5316 6.69498L41.4949 6.46165L41.4766 6.40332L41.4449 6.34165L41.3983 6.28332L41.3333 6.22998L41.2633 6.19165L41.1133 6.13998L40.8433 6.10498L40.5166 6.09998L38.2983 6.09165C38.0816 6.08998 37.8616 6.08832 37.6483 6.05332C37.5916 6.03998 37.5366 6.02832 37.4833 6.00332L37.4166 5.96665L37.3566 5.92332L37.3016 5.87332L37.2516 5.81665L37.2083 5.75332C37.1616 5.66665 37.1266 5.58332 37.1033 5.48665C37.0516 5.24665 37.0483 4.99498 37.0499 4.74998C37.0583 4.45165 37.0733 4.13832 37.2033 3.86332C37.2316 3.81332 37.2599 3.77165 37.2983 3.72998C37.4466 3.59498 37.6566 3.54332 37.8516 3.50332C38.0583 3.46332 38.2683 3.45832 38.4783 3.45165C38.9583 3.44165 39.4416 3.44332 39.9233 3.44165C40.7216 3.44998 41.5216 3.46165 42.3199 3.47998V4.17498C41.2633 4.15498 40.2049 4.13498 39.1466 4.14165C38.9066 4.14498 38.6649 4.14665 38.4266 4.16998C38.3733 4.17665 38.3249 4.18665 38.2733 4.19832L38.1866 4.23832L38.1099 4.30498L38.0599 4.38332L38.0299 4.46332L38.0099 4.60832C38.0066 4.72832 38.0066 4.84665 38.0166 4.96665L38.0316 5.04665L38.0616 5.13498L38.1233 5.22498L38.2266 5.29665L38.3349 5.31665C39.4449 5.33498 40.5566 5.36498 41.6649 5.40498L41.8016 5.42165C41.9733 5.46332 42.1466 5.53998 42.2783 5.65832C42.3383 5.71998 42.3849 5.78332 42.4216 5.85998C42.5216 6.10165 42.5433 6.37832 42.5516 6.63665C42.5549 6.93665 42.5399 7.23998 42.4549 7.52998C42.4399 7.57165 42.4249 7.61332 42.4083 7.65498L42.3516 7.74998C42.3066 7.80832 42.2616 7.85332 42.2033 7.90165C42.0999 7.97165 41.9933 8.01998 41.8699 8.04998C41.6916 8.08498 41.5033 8.09498 41.3199 8.10665C40.7749 8.13498 40.2316 8.13332 39.6883 8.12998C38.8333 8.13498 37.9799 8.14665 37.1249 8.16165C37.1216 7.91498 37.1216 7.66832 37.1216 7.42332C37.6983 7.40832 38.2733 7.39665 38.8499 7.39165H38.9499V7.38832ZM46.2549 8.35332C45.8066 8.31498 45.3583 8.27832 44.9149 8.21498C44.7199 8.18498 44.5249 8.14998 44.3383 8.08998C44.2399 8.05665 44.1516 8.01498 44.0649 7.96498C44.0033 7.92665 43.9533 7.88665 43.9016 7.83832C43.8516 7.78665 43.8133 7.73998 43.775 7.68165C43.74 7.61832 43.7133 7.55832 43.6899 7.49165C43.6233 7.24998 43.6083 6.99498 43.5966 6.74665C43.5766 6.12998 43.5716 5.51332 43.5983 4.89665L43.6066 4.74332C43.6266 4.45998 43.6516 4.17832 43.8266 3.93832C43.8833 3.86832 43.9449 3.81665 44.0249 3.76998C44.2433 3.65665 44.5049 3.62165 44.7483 3.60332C45.0066 3.58665 45.2649 3.58832 45.5249 3.59332C46.0416 3.60665 46.5599 3.63332 47.0749 3.67665C47.8166 3.74165 48.5599 3.80998 49.2999 3.88832V4.69998C48.3183 4.60665 47.3333 4.52332 46.3516 4.45998C46.0333 4.43998 45.7099 4.41832 45.3916 4.43665L45.2349 4.45665L45.1283 4.48832L45.0299 4.53498L44.9383 4.59832L44.8599 4.67665L44.8016 4.76665L44.7549 4.86665C44.7349 4.93165 44.7183 4.99332 44.7033 5.05998C44.6516 5.37165 44.6499 5.69165 44.6516 6.00498C44.6549 6.26498 44.6583 6.52832 44.7049 6.78498C44.7183 6.84998 44.7366 6.90832 44.7566 6.97165L44.8066 7.06832L44.8716 7.15665L44.9499 7.23332L45.0399 7.29665L45.1383 7.34832L45.2433 7.38665C45.33 7.40665 45.4133 7.42498 45.5016 7.43665C45.7933 7.47665 46.0899 7.50165 46.3866 7.52665C47.3866 7.60498 48.3849 7.70498 49.3866 7.81332C49.3883 8.06332 49.3916 8.31165 49.3949 8.55998V8.63832C48.7699 8.57332 48.1433 8.50998 47.5149 8.45665C47.0949 8.41832 46.6733 8.38832 46.2549 8.35332ZM52.9949 6.28498C53.8133 6.42665 54.6283 6.58498 55.4433 6.74498V4.91498C55.8233 4.99332 56.2016 5.07832 56.5816 5.16332V9.88665C56.2016 9.79665 55.8233 9.70832 55.4433 9.62165V7.75998C54.7933 7.62832 54.1416 7.49998 53.4899 7.38165C52.8833 7.26998 52.2766 7.16665 51.6716 7.06665V8.90498C51.2916 8.84665 50.9133 8.78832 50.5333 8.73498V4.10498C50.9133 4.15332 51.2933 4.20165 51.6716 4.25665V6.06498C52.1099 6.13665 52.5533 6.20998 52.9949 6.28498ZM61.6533 6.59332C62.0549 6.72332 62.4583 6.85498 62.8599 6.98998V7.76665C61.6866 7.37165 60.5033 6.99998 59.3149 6.65165L58.9216 6.53332V7.70998C59.7899 7.96332 60.6549 8.22332 61.5183 8.49998C61.8983 8.62165 62.2783 8.74832 62.6583 8.87498V9.57498C61.5483 9.20665 60.4316 8.85998 59.3083 8.53165L58.9199 8.41832V9.67665C59.7549 9.92165 60.5883 10.1733 61.4166 10.435C61.9066 10.59 62.3966 10.7483 62.8849 10.91V11.7166C61.2899 11.1983 59.6833 10.715 58.0666 10.265L57.8799 10.2133V5.47998C59.1483 5.82165 60.4049 6.19498 61.6533 6.59332Z" fill="#263238"/>
<path d="M39.6624 45.8333C33.6891 45.8333 28.8291 40.9733 28.8291 35V22.5H50.4958V35C50.4958 40.9733 45.6358 45.8333 39.6624 45.8333Z" fill="white"/>
<path d="M49.6618 23.3334V35.0001C49.6618 40.5234 45.1851 45.0001 39.6618 45.0001C34.1385 45.0001 29.6618 40.5234 29.6618 35.0001V23.3334H49.6618ZM51.3284 21.6667H49.6618H29.6618H27.9951V23.3334V35.0001C27.9951 41.4334 33.2285 46.6668 39.6618 46.6668C46.0951 46.6668 51.3284 41.4334 51.3284 35.0001V23.3334V21.6667Z" fill="#263238"/>
<path d="M34.6688 38.0367C34.7655 38.055 34.9821 37.77 35.0588 37.615C35.1355 37.46 35.1188 37.19 35.1021 37.1517C35.0838 37.1117 34.8421 37.1933 34.7121 37.1933C34.5821 37.1933 34.4988 37.17 34.3238 37.1517C34.1471 37.1317 34.1721 36.7367 34.1505 36.5183C34.0988 35.9717 34.0738 35.4217 34.1071 34.8733C34.1171 34.7217 34.1488 34.53 34.2805 34.4517C34.4538 34.3483 34.6871 34.3767 34.8855 34.41C35.2871 34.4767 35.6521 34.6833 36.0521 34.7467C36.2805 34.7833 36.5205 34.76 36.7455 34.705C36.9321 34.66 37.0788 34.51 37.2638 34.4533C37.3605 34.4233 37.4771 34.4083 37.5671 34.4533C37.8788 34.6117 38.0955 34.9383 38.4321 35.0433C38.8438 35.1717 39.2955 35.1117 39.7288 35.1283C40.0738 35.14 40.4255 35.08 40.7655 35.1283C40.9238 35.1517 41.1671 35.185 41.1988 35.3383C41.2438 35.56 40.8805 35.7517 40.9388 35.9717C41.0288 36.3 41.4238 36.4717 41.5888 36.7717C41.6488 36.8833 41.6471 37.0383 41.5888 37.1517C41.5321 37.2583 41.3588 37.2667 41.2855 37.3617C41.1805 37.4983 41.1705 37.685 41.0705 37.825C40.9655 37.9717 40.8255 38.0933 40.6805 38.205C40.3638 38.4467 40.0438 38.695 39.6871 38.88C39.5721 38.94 39.3538 38.8067 39.2988 38.9217C39.1971 39.1317 39.0988 39.4033 38.9955 39.555C38.8921 39.705 38.7655 39.7133 38.6921 39.8067C38.6188 39.9 38.5105 40.0717 38.5621 40.1017C38.6155 40.1317 39.0855 40.1233 39.2538 40.1017C39.4238 40.08 39.5288 40.0633 39.5805 40.0217C39.6338 39.98 39.5438 39.8383 39.5138 39.5533C39.4855 39.2667 40.3005 39.1467 40.6805 38.92C41.1071 38.6683 41.5055 38.3683 41.9338 38.12C42.1121 38.0167 42.3438 38.0033 42.4955 37.8667C42.5705 37.7983 42.5388 37.6717 42.5388 37.5717C42.5388 37.3317 42.4838 37.095 42.4955 36.855C42.5005 36.7383 42.4971 36.6 42.5821 36.5183C42.6538 36.4483 42.7955 36.4267 42.8838 36.475C43.0271 36.555 43.0538 36.7617 43.1855 36.855C43.3788 36.9917 43.6221 37.045 43.8355 37.15C44.0255 37.2417 44.3638 37.24 44.3971 37.445C44.4555 37.7967 44.2071 38.135 44.0505 38.4567C43.9721 38.62 43.8055 38.7267 43.7055 38.8783C43.6455 38.9683 43.6505 39.0967 43.5755 39.1733C43.3855 39.3683 43.1238 39.4883 42.9271 39.6783C42.7871 39.8133 42.6588 39.9667 42.5821 40.1417C42.5388 40.24 42.5188 40.345 42.4521 40.4383C42.3855 40.53 42.2538 40.5583 42.1938 40.69C42.1321 40.8217 41.9471 41.2233 42.1071 41.195C42.2655 41.17 43.1088 41.0217 43.1438 40.9433C43.1788 40.8633 43.0988 40.66 43.0571 40.395C43.0155 40.13 43.6105 39.9383 43.9221 39.7633C44.0921 39.6667 44.3288 39.7133 44.4838 39.595C44.5755 39.5217 44.5255 39.365 44.5688 39.2583C44.6405 39.0833 44.7021 38.895 44.8288 38.7533C44.9955 38.565 45.2905 38.4983 45.4338 38.29C45.5921 38.0583 45.7421 37.765 45.6921 37.4883C45.6555 37.2733 45.3621 37.19 45.2171 37.025C45.1021 36.895 44.9655 36.7683 44.9155 36.6033C44.8438 36.3733 44.7905 36.1133 44.8721 35.8867C44.9738 35.6033 45.2538 35.415 45.4338 35.17C45.5855 34.965 45.8088 34.785 45.8671 34.5367C45.9321 34.2467 45.8038 33.9467 45.7805 33.6517C45.7755 33.595 45.7371 33.52 45.7805 33.4833C45.9855 33.31 46.2021 33.095 46.4721 33.0617C46.7155 33.0317 46.9205 33.28 47.1655 33.3133C47.4221 33.35 47.6988 33.3583 47.9438 33.2717C48.0255 33.2417 48.0488 33.0783 47.9871 33.0183C47.8271 32.8617 47.4488 32.9333 47.3821 32.7233C47.3255 32.5533 47.6838 32.5017 47.7705 32.3433C47.8905 32.1233 48.0021 31.875 47.9871 31.6267C47.9821 31.5417 47.8005 31.54 47.7271 31.585C47.6121 31.6567 47.6155 31.8367 47.5105 31.9233C47.4305 31.9883 47.3121 32.015 47.2088 32.0083C47.0988 32 46.9738 31.965 46.9055 31.8817C46.8421 31.805 46.7771 31.6417 46.8621 31.5867C47.0571 31.46 47.3288 31.52 47.5555 31.46C47.6488 31.435 47.7771 31.42 47.8138 31.3333C47.8771 31.1917 47.8755 31.0133 47.8138 30.87C47.7871 30.8033 47.6688 30.81 47.5988 30.8267C47.4971 30.8533 47.4421 30.995 47.3388 30.995C47.1971 30.995 47.0405 30.9317 46.9488 30.8267C46.8738 30.74 46.8571 30.5917 46.9055 30.49C46.9838 30.3283 47.2188 30.2717 47.2955 30.11C47.4005 29.89 47.4771 29.6317 47.4238 29.3933C47.4021 29.2933 47.2138 29.26 47.1221 29.3083C47.0088 29.3683 47.0155 29.5383 46.9488 29.6467C46.8571 29.7933 46.8071 30 46.6455 30.0683C46.5405 30.1133 46.3705 30.01 46.3438 29.9C46.3005 29.7167 46.4055 29.5267 46.4738 29.3517C46.5505 29.1583 46.6455 28.9667 46.7771 28.8033C46.9071 28.6383 47.1455 28.5633 47.2521 28.3817C47.3321 28.2467 47.3855 28.045 47.2955 27.9183C47.2288 27.8267 47.0471 27.9 46.9488 27.96C46.8671 28.01 46.9071 28.1733 46.8205 28.2133C46.6071 28.3117 46.3338 28.2317 46.1271 28.34C45.9655 28.425 45.8788 28.6083 45.7805 28.7617C45.5988 29.0433 45.5888 29.55 45.5205 29.605C45.4438 29.6683 45.2788 29.6433 45.2188 29.5633C45.1338 29.4483 45.2738 29.2467 45.1755 29.1417C45.0988 29.0583 44.9188 29.07 44.8305 29.1417C44.7238 29.2267 44.7005 29.3883 44.7005 29.5217C44.7005 29.7367 44.7288 29.9633 44.8305 30.155C44.9938 30.4667 45.2705 30.7117 45.4805 30.9983C45.6905 31.2883 45.9571 31.5517 46.0838 31.885C46.1655 32.095 46.1788 32.3533 46.0838 32.56C46.0021 32.7433 45.8138 32.955 45.6105 32.94C45.3305 32.9183 45.1538 32.6217 44.9188 32.4767C44.6938 32.34 44.4888 32.1383 44.2255 32.0967C43.6555 32.0067 43.0721 32.0967 42.4955 32.0967C41.9771 32.0967 41.4538 32.165 40.9388 32.0967C40.6888 32.0633 40.4288 31.9717 40.2471 31.8017C40.0755 31.64 39.9588 31.4017 39.9438 31.1683C39.9271 30.865 40.0305 30.56 40.1605 30.2833C40.2521 30.0833 40.3988 29.8883 40.5938 29.7767C40.7421 29.6917 40.9805 29.63 41.1421 29.6917C41.3038 29.7533 41.7671 30.3967 41.8771 30.3617C41.9855 30.3267 41.9121 29.78 41.8471 29.6083C41.7488 29.3533 41.4638 29.1917 41.3705 28.9333C41.3438 28.8583 41.4621 28.76 41.5455 28.765C41.7055 28.7767 41.8588 28.8683 41.9788 28.975C42.0421 29.0333 42.3671 29.47 42.4538 29.4483C42.5388 29.4267 42.4155 28.79 42.3238 28.5967C42.2005 28.335 41.8088 28.1383 41.7755 28.075C41.7488 28.02 41.7838 27.97 41.8471 27.965C41.9955 27.9533 42.1371 28.04 42.2805 28.0917C42.4138 28.14 42.6021 28.295 42.6705 28.26C42.7371 28.2267 42.6621 28.0117 42.5838 27.9233C42.3188 27.62 41.9438 27.4217 41.6755 27.1217C41.5355 26.965 41.3855 26.7817 41.3721 26.5733C41.3655 26.445 41.5105 26.3317 41.6338 26.2783C41.8471 26.1833 42.1388 26.1367 42.3371 26.0183C42.4138 25.975 42.3621 25.9317 42.2788 25.8983C41.9671 25.7717 41.6221 25.73 41.2855 25.73C41.0905 25.73 40.9105 25.84 40.7238 25.8983C40.5938 25.9383 40.4721 26.025 40.3355 26.025C40.1005 26.025 39.8155 26.055 39.6421 25.8983C39.5355 25.8017 39.6621 25.6033 39.7288 25.4767C39.7955 25.3533 39.9271 25.275 40.0321 25.1817C40.0988 25.1217 40.3288 25.04 40.2471 25.0133C40.1671 24.9867 39.7788 25.0017 39.5555 25.055C39.3688 25.1 39.1771 25.1783 39.0371 25.3083C38.9055 25.4283 38.9321 25.6833 38.7771 25.7717C38.4821 25.94 38.3321 25.88 38.0238 26.0233C37.9421 26.0617 37.7871 26.265 37.6971 26.2767C37.2955 26.33 36.5271 26.13 36.4871 26.1917C36.4471 26.2533 37.1038 26.6233 37.2221 26.95C37.2755 27.0967 36.9055 26.89 36.7471 26.9083C36.5105 26.9333 36.2671 26.9733 36.0538 27.0767C35.8538 27.175 35.6938 27.3433 35.5355 27.4983C35.3905 27.64 35.3088 27.8433 35.1455 27.9617C35.0638 28.0217 34.9138 27.9367 34.8588 28.0183C34.7938 28.1133 34.7705 28.335 34.8855 28.3417L35.5771 28.3833C35.7071 28.3917 35.4621 28.6567 35.5338 28.7633C35.5888 28.845 35.7438 28.8033 35.8371 28.7633C35.9471 28.7133 35.9938 28.5767 36.0971 28.51C36.2155 28.4333 36.3438 28.335 36.4855 28.3417C36.6605 28.35 36.8838 28.4017 36.9621 28.5517C37.0355 28.695 36.8605 28.8583 36.8321 29.015C36.8021 29.1817 36.9155 29.405 36.7888 29.52C36.4188 29.86 36.2971 29.5733 35.7521 30.2367C35.3171 30.7667 35.5105 30.4783 35.3638 31.165C35.3355 31.3 35.3055 31.4633 35.1905 31.545C35.0721 31.6267 34.8838 31.6567 34.7571 31.5867C34.5188 31.455 34.3538 31.215 34.1955 30.9967C34.1055 30.8733 34.1555 30.6533 34.0221 30.575C33.8505 30.4733 33.6105 30.47 33.4171 30.5333C33.2705 30.5817 33.1988 30.7467 33.1138 30.8717C32.9238 31.1433 32.7788 31.44 32.5938 31.715C32.4455 31.9333 32.2455 32.1167 32.1188 32.3483C32.0555 32.4633 32.0838 32.61 32.0321 32.7283C31.8871 33.0517 31.7655 33.385 31.5988 33.6983C31.5321 33.8233 31.3671 33.8983 31.3388 34.0367C31.3055 34.19 31.3638 34.4883 31.4255 34.5C31.4888 34.5117 31.7388 34.3233 31.9021 34.2467C32.0705 34.1683 32.3988 34.0883 32.4205 34.0367C32.4421 33.985 32.2488 33.8117 32.1605 33.6983C31.9905 33.4767 32.3655 33.1817 32.5055 32.94C32.5555 32.8533 32.6771 32.8183 32.7221 32.73C32.8238 32.5317 32.8371 32.2967 32.9371 32.0967C33.0671 31.8417 33.2021 31.5767 33.4138 31.38C33.5105 31.2917 33.6938 31.2217 33.8021 31.295C33.9921 31.4267 34.0355 31.6883 34.1488 31.8867C34.2371 32.04 34.3605 32.18 34.4088 32.35C34.4488 32.4983 34.3088 32.6933 34.4088 32.8133C34.5338 32.965 34.7705 33.005 34.9705 33.0233L35.4038 33.0667L35.4471 33.6567C35.4638 33.8817 34.9821 33.6967 34.7538 33.7417C34.5488 33.7817 34.3521 33.8667 34.1488 33.91C33.9505 33.9517 33.5821 33.8 33.5438 33.995C33.3788 34.8233 33.5838 35.6817 33.6305 36.525C33.6421 36.7517 33.5021 37.1117 33.7171 37.2L34.1438 37.3733C34.2171 37.54 34.2738 37.7567 34.3655 37.8733C34.4571 37.985 34.5721 38.0183 34.6688 38.0367ZM39.6621 10H41.3288V23.3333H39.6621V10ZM37.9955 45H39.6621V65H37.9955V45ZM49.6621 35H64.6621V36.6667H49.6621V35Z" fill="#263238"/>
<path d="M5.516 69.2H0.798V79H4.102V76.592H5.516C8.246 76.592 9.982 75.164 9.982 72.896C9.982 70.628 8.246 69.2 5.516 69.2ZM5.306 74.044H4.102V71.748H5.306C6.216 71.748 6.65 72.182 6.65 72.896C6.65 73.61 6.216 74.044 5.306 74.044ZM17.2503 79.224C20.4423 79.224 22.7803 77.068 22.7803 74.1C22.7803 71.132 20.4423 68.976 17.2503 68.976C14.0583 68.976 11.7203 71.132 11.7203 74.1C11.7203 77.068 14.0583 79.224 17.2503 79.224ZM17.2503 76.55C16.0323 76.55 15.0523 75.626 15.0523 74.1C15.0523 72.574 16.0323 71.65 17.2503 71.65C18.4683 71.65 19.4483 72.574 19.4483 74.1C19.4483 75.626 18.4683 76.55 17.2503 76.55ZM30.7555 79H34.2835L32.2255 75.976C33.4015 75.374 34.0735 74.31 34.0735 72.896C34.0735 70.628 32.3375 69.2 29.6075 69.2H24.8895V79H28.1935V76.536H29.0895L30.7555 79ZM30.7415 72.896C30.7415 73.61 30.3075 74.044 29.3975 74.044H28.1935V71.748H29.3975C30.3075 71.748 30.7415 72.182 30.7415 72.896ZM39.8851 79.224C42.9231 79.224 44.4491 77.712 44.4491 75.92C44.4491 72.308 39.0311 73.288 39.0311 72.112C39.0311 71.776 39.3391 71.496 40.3051 71.496C41.1591 71.496 42.0691 71.734 43.0351 72.224L44.0291 69.83C43.0071 69.256 41.6491 68.976 40.3331 68.976C37.2951 68.976 35.7691 70.46 35.7691 72.28C35.7691 75.934 41.1871 74.94 41.1871 76.172C41.1871 76.508 40.8511 76.704 39.9131 76.704C38.8351 76.704 37.6031 76.354 36.6791 75.808L35.6151 78.216C36.5951 78.818 38.2471 79.224 39.8851 79.224ZM51.4103 79.224C53.3283 79.224 54.8403 78.524 55.8063 77.264L53.7203 75.402C53.1463 76.13 52.4603 76.55 51.5783 76.55C50.2063 76.55 49.2823 75.598 49.2823 74.1C49.2823 72.602 50.2063 71.65 51.5783 71.65C52.4603 71.65 53.1463 72.07 53.7203 72.798L55.8063 70.936C54.8403 69.676 53.3283 68.976 51.4103 68.976C48.2603 68.976 45.9503 71.09 45.9503 74.1C45.9503 77.11 48.2603 79.224 51.4103 79.224ZM64.0263 69.2V72.672H60.9743V69.2H57.6703V79H60.9743V75.388H64.0263V79H67.3303V69.2H64.0263ZM73.0802 76.508V75.22H77.2242V72.84H73.0802V71.692H77.7982V69.2H69.8322V79H77.9802V76.508H73.0802Z" fill="white"/>
</svg>
