<svg width="80" height="80" viewBox="0 0 80 80" fill="none" xmlns="http://www.w3.org/2000/svg">
<path fill-rule="evenodd" clip-rule="evenodd" d="M33.0777 0.560432C31.1301 4.03141 29.1829 7.50264 27.2362 10.9741L24.5583 15.7439C22.7406 18.9814 20.9234 22.2192 19.1066 25.4573L18 27.4282L18.5034 28.3244C18.7806 28.8171 20.3829 31.6606 22.064 34.6422C23.7461 37.6244 26.3442 42.2339 27.8389 44.8863C30.3588 49.3571 32.2039 52.63 33.152 54.3096L33.5417 55L40.0103 54.9989L46.4782 54.9978L46.7477 54.5166C47.2572 53.6066 50.107 48.5462 56.545 37.1185C57.8296 34.8393 59.5821 31.7261 60.4404 30.2011L62 27.4287L60.4132 24.5974C58.1844 20.6193 49.7682 5.59331 48.06 2.54176L46.6368 0H33.3904L33.0771 0.560432H33.0777ZM48.1604 3.61033C50.3391 7.48092 52.5173 11.3518 54.6949 15.2231C59.3005 23.4027 61.4755 27.2757 61.501 27.3428C61.5287 27.4133 60.8961 27.4221 55.7039 27.4221H49.8763L49.6435 27.018C49.5159 26.7956 49.068 26.0271 48.6477 25.3103C47.1729 22.7944 44.5117 18.2471 42.9881 15.6398C42.1415 14.1919 41.3603 12.858 41.2516 12.6752L41.0542 12.3433L41.2095 11.9816C41.2949 11.7823 41.7562 10.7583 42.2341 9.70682C43.8569 6.13833 45.35 2.77574 45.35 2.68986C45.35 2.67279 45.2019 2.65958 45.0217 2.66013L44.6935 2.66233L43.6883 4.4196C43.135 5.38687 41.2245 8.72304 39.4414 11.834L32.6253 23.7303C31.4804 25.7287 30.5439 27.3764 30.5439 27.3924C30.5439 27.4089 31.105 27.4227 31.7914 27.4232L33.0378 27.4243L33.6881 28.5832C34.2941 29.6622 38.7517 37.5765 39.641 39.1515C39.8595 39.5391 40.0552 39.8557 40.0762 39.8557C40.0967 39.8557 41.1058 38.0962 42.3189 35.9453L45.8173 29.742L47.1108 27.448L48.488 27.4337C49.2454 27.4265 49.8647 27.4326 49.8647 27.448C49.8647 27.4634 48.2424 30.2733 46.2592 33.692L41.9735 41.0806L39.4009 45.5123L36.5262 50.4648L35.5427 52.1587L35.1895 52.1742C34.9156 52.1863 34.8424 52.1742 34.8641 52.1224C34.8796 52.085 35.8509 49.9137 37.023 47.2965C37.7404 45.6988 38.4553 44.0999 39.1675 42.4998C39.1775 42.4701 32.8709 31.524 30.7957 27.9693L30.4907 27.448L24.4807 27.4221L18.4707 27.3957L19.9954 24.6849C20.8337 23.1941 21.6925 21.6691 21.9037 21.2964C22.1155 20.9237 23.0741 19.2226 24.035 17.5165C26.9568 12.3273 28.9389 8.80892 29.8343 7.22066C30.3039 6.38937 31.2481 4.71138 31.9345 3.49307C32.6197 2.27421 33.2983 1.07187 33.4414 0.82138L33.702 0.364446H46.3335L48.1604 3.60978V3.61033ZM40.3939 16.2801C40.542 16.5443 41.9801 19.0954 43.5908 21.9483C45.2008 24.8016 46.5542 27.2096 46.5974 27.3004L46.6773 27.465L45.5473 29.4634C44.9264 30.5634 43.4788 33.1283 42.3311 35.1641C41.6098 36.4467 40.8853 37.7276 40.1577 39.0068L40.0701 39.1482L38.9474 37.1564C37.3271 34.2778 35.7041 31.4006 34.0784 28.5248C33.7474 27.9412 33.4874 27.437 33.5002 27.4034C33.5129 27.3704 34.7587 25.1611 36.2668 22.4949L39.5334 16.7221C39.8206 16.2129 40.0712 15.7973 40.0906 15.7973C40.1101 15.7984 40.2464 16.0153 40.3939 16.2801" fill="white"/>
<path d="M8.664 69H12.192L10.134 65.976C11.31 65.374 11.982 64.31 11.982 62.896C11.982 60.628 10.246 59.2 7.516 59.2H2.798V69H6.102V66.536H6.998L8.664 69ZM8.65 62.896C8.65 63.61 8.216 64.044 7.306 64.044H6.102V61.748H7.306C8.216 61.748 8.65 62.182 8.65 62.896ZM17.3876 66.508V65.22H21.5316V62.84H17.3876V61.692H22.1056V59.2H14.1396V69H22.2876V66.508H17.3876ZM30.9096 59.2V63.652L27.1856 59.2H24.4696V69H27.6896V64.548L31.4136 69H34.1296V59.2H30.9096ZM43.9675 69H47.3835L43.0995 59.2H39.8515L35.5675 69H38.9275L39.5855 67.292H43.3095L43.9675 69ZM40.4955 64.912L41.4475 62.448L42.3995 64.912H40.4955ZM53.3057 69.224C56.3157 69.224 58.0797 67.53 58.0797 64.59V59.2H54.8317V64.492C54.8317 65.99 54.2577 66.55 53.3337 66.55C52.4097 66.55 51.8357 65.99 51.8357 64.492V59.2H48.5317V64.59C48.5317 67.53 50.2957 69.224 53.3057 69.224ZM60.5042 69H68.2322V66.438H63.8082V59.2H60.5042V69ZM71.2669 69H74.5709V61.762H77.4409V59.2H68.3969V61.762H71.2669V69Z" fill="white"/>
</svg>
