<svg width="80" height="80" viewBox="0 0 80 80" fill="none" xmlns="http://www.w3.org/2000/svg">
<path d="M29.1294 0.162144C40.8523 -0.24599 52.5865 0.159018 64.2886 0.900909C65.5206 1.00654 66.7683 0.997786 67.9814 1.25342C68.6377 1.40967 69.3467 1.65717 69.7307 2.24594C70.0809 2.88658 70.0878 3.63409 70.1789 4.33973C70.4574 7.8073 70.5391 11.2886 70.8012 14.7556C70.2946 14.8162 69.7879 14.74 69.2807 14.7243C60.255 14.2618 51.2218 13.8793 42.1823 13.8681C37.4995 13.8806 32.8122 13.8356 28.1344 14.0599C27.0005 14.2249 25.7175 14.5993 25.0626 15.5975C28.6014 16.2181 32.134 16.8875 35.6716 17.5194C47.3976 19.6863 59.1318 21.8051 70.8571 23.9695C70.8471 26.1646 70.8509 28.3602 70.8559 30.5559C64.2622 29.4784 57.6798 28.3152 51.0905 27.2033C36.9143 24.7908 22.7419 22.3439 8.56131 19.9551C8.58897 17.5181 8.69457 15.0825 8.74611 12.6437C8.83537 10.713 8.77943 8.75607 9.22194 6.85978C9.51926 5.52226 10.0705 4.1766 11.097 3.22096C12.8695 1.48717 15.4335 0.999661 17.8195 0.755906C21.5803 0.412149 25.3567 0.299022 29.1294 0.162144V0.162144ZM8 23.3326C28.3035 27.0265 48.5994 30.7809 68.9004 34.496C69.3442 34.6022 69.8181 34.6116 70.2449 34.7716L70.2958 34.8873C70.1846 38.1704 70.1198 41.4561 70.0004 44.7393C69.9225 46.765 69.7056 48.8844 68.649 50.6688C67.515 52.5139 65.403 53.5345 63.313 53.9202C60.233 54.4908 57.0877 54.5283 53.9687 54.697C40.5468 55.2971 27.0973 54.9658 13.6967 54.0558C12.6263 53.982 11.537 53.9633 10.4973 53.6708C9.958 53.5033 9.40171 53.2333 9.09686 52.742C8.77 52.0982 8.74989 51.3632 8.66943 50.662C8.38217 46.8319 8.22943 42.9943 8.0264 39.1598C14.9388 39.593 21.8625 39.8355 28.7881 39.9874C35.4749 40.0936 42.1616 40.0924 48.8483 40.1574C50.2909 40.2167 51.851 39.9449 52.9447 38.9461C53.1044 38.7661 53.3634 38.5986 53.337 38.3286C50.3236 37.8823 47.3272 37.3279 44.3189 36.8398C32.2163 34.7997 20.1082 32.7785 8.00754 30.7272C7.99246 28.2627 8.01006 25.7977 8 23.3333L8 23.3326Z" fill="white"/>
<path d="M23.452 69.224C26.49 69.224 28.016 67.712 28.016 65.92C28.016 62.308 22.598 63.288 22.598 62.112C22.598 61.776 22.906 61.496 23.872 61.496C24.726 61.496 25.636 61.734 26.602 62.224L27.596 59.83C26.574 59.256 25.216 58.976 23.9 58.976C20.862 58.976 19.336 60.46 19.336 62.28C19.336 65.934 24.754 64.94 24.754 66.172C24.754 66.508 24.418 66.704 23.48 66.704C22.402 66.704 21.17 66.354 20.246 65.808L19.182 68.216C20.162 68.818 21.814 69.224 23.452 69.224ZM33.1572 66.508V65.22H37.3012V62.84H33.1572V61.692H37.8752V59.2H29.9092V69H38.0572V66.508H33.1572ZM47.5751 69H50.9911L46.7071 59.2H43.4591L39.1751 69H42.5351L43.1931 67.292H46.9171L47.5751 69ZM44.1031 64.912L45.0551 62.448L46.0071 64.912H44.1031ZM54.0642 69H57.3682V61.762H60.2382V59.2H51.1942V61.762H54.0642V69Z" fill="white"/>
</svg>
