<svg width="80" height="80" viewBox="0 0 80 80" fill="none" xmlns="http://www.w3.org/2000/svg">
<path fill-rule="evenodd" clip-rule="evenodd" d="M37.4176 1.38325C31.5484 2.13184 26.3893 4.38314 22.2858 7.98754C21.9408 8.29006 21.5505 8.62792 21.4191 8.73834C21.2872 8.84875 20.7555 9.39142 20.2377 9.94403C7.56609 23.475 11.5041 45.0914 28.1382 53.3083C46.8345 62.5442 68.776 48.8907 68.4013 28.2542C68.3605 26.0255 68.3152 25.5276 67.982 23.6318C65.746 10.903 54.3062 1.44232 40.9295 1.25959C39.0329 1.23364 38.4184 1.25573 37.4182 1.38325H37.4176ZM43.6077 2.58508C60.3761 4.61225 70.9773 20.744 65.9976 36.6554C63.4944 44.6548 56.7848 51.2723 48.6209 53.7941C35.5971 57.8181 21.6931 51.5616 16.1655 39.1921C12.4993 30.9869 13.6344 20.2317 18.8773 13.4789C18.9131 13.4336 19.1558 13.1178 19.4169 12.7778C25.0205 5.47567 34.4961 1.48317 43.6066 2.58453L43.6077 2.58508ZM39.2566 3.91279C23.0127 4.82865 11.8524 20.5005 16.5239 35.8373C21.3515 51.6863 40.2367 58.5252 54.3062 49.519C54.966 49.0972 55.3137 48.8526 56.0596 48.2857C57.6464 47.0811 59.4284 45.3018 60.5791 43.7726C60.7843 43.5004 60.9749 43.2592 61.0023 43.2365C61.174 43.0957 62.6143 40.7793 62.9957 40.0291C71.3301 23.6511 59.7169 4.39142 41.2214 3.91886C40.4397 3.89954 39.5552 3.89678 39.2566 3.91334V3.91279ZM42.8093 6.17678C62.025 7.96656 70.4774 31.3198 56.7747 44.7635C44.2362 57.0656 23.3263 51.4639 18.4144 34.4864C17.6942 31.9982 17.4661 27.5415 17.9369 25.1698L18.1493 24.0861C20.3076 12.9881 31.1782 5.09364 42.8093 6.17733V6.17678ZM38.8395 8.64614C37.9873 8.72398 36.717 8.93542 35.7519 9.15956C33.8878 9.59292 33.8766 9.73536 35.5864 11.259C37.341 12.8225 38.9138 14.5769 40.0522 16.2403C40.7802 17.3035 40.7841 17.3168 40.3447 17.3168C39.6295 17.3168 38.9932 16.9646 37.8599 15.9405C35.7134 14.0022 32.1612 11.5268 31.0491 11.1956C30.4256 11.0095 28.1936 12.4962 26.3076 14.3533C24.9171 15.7224 24.7924 15.9891 25.4013 16.2938C27.4097 17.2997 32.6527 21.0272 32.6527 21.4501C32.6527 21.948 31.4477 21.7509 29.8514 20.9924C26.6269 19.4593 23.55 18.4883 22.94 18.8112C22.5352 19.0249 21.285 21.9844 20.8332 23.7969C20.2276 26.2248 20.2701 26.3369 21.9134 26.6521C28.4894 27.9141 32.4206 31.2497 33.5294 36.5086C33.776 37.6778 33.6899 38.1222 33.1715 38.3602C32.7421 38.5573 32.6135 38.5136 29.8699 37.24L28.3837 36.55H22.0219L21.7776 36.7912C21.3112 37.2522 21.3571 37.3604 22.7594 39.0867C23.4373 39.9336 24.081 40.8068 24.689 41.704C25.8022 43.3823 25.5657 43.2365 27.1749 43.2365C28.7063 43.2365 28.4502 43.316 30.2277 42.2826L31.3572 41.6267L41.1006 41.6046C52.4398 41.5798 51.2125 41.4633 51.2125 42.5663C51.2125 43.6533 51.5083 43.7074 53.6783 43.0201C55.4429 42.4609 58.0306 40.8086 58.2028 40.1312C58.4426 39.1888 54.2777 36.8172 51.9645 36.5787C51.3417 36.5146 51.2399 36.6333 51.1985 37.4714C51.1588 38.295 51.033 38.4485 50.4012 38.4485C50.0361 38.4485 49.912 38.411 49.7487 38.2498C49.3444 37.8501 49.3461 37.8296 49.9891 35.3399C52.3895 26.0542 51.2326 18.417 46.5309 12.499C45.7805 11.5555 43.1817 8.98014 42.7679 8.77091C42.4325 8.60143 40.1311 8.528 38.8395 8.64614V8.64614ZM45.3601 31.2784C46.9625 32.0098 47.3741 33.9823 46.1904 35.2609C44.5885 36.9922 41.7654 35.9123 41.7654 33.5694C41.7654 31.7012 43.6519 30.4989 45.3606 31.2784" fill="white"/>
<path d="M14.452 70.224C17.49 70.224 19.016 68.712 19.016 66.92C19.016 63.308 13.598 64.288 13.598 63.112C13.598 62.776 13.906 62.496 14.872 62.496C15.726 62.496 16.636 62.734 17.602 63.224L18.596 60.83C17.574 60.256 16.216 59.976 14.9 59.976C11.862 59.976 10.336 61.46 10.336 63.28C10.336 66.934 15.754 65.94 15.754 67.172C15.754 67.508 15.418 67.704 14.48 67.704C13.402 67.704 12.17 67.354 11.246 66.808L10.182 69.216C11.162 69.818 12.814 70.224 14.452 70.224ZM27.3492 70H31.1712L27.0552 64.512L30.9752 60.2H27.3772L24.1572 63.756V60.2H20.9092V70H24.1572V67.578L24.8992 66.752L27.3492 70ZM37.3068 70.224C40.4988 70.224 42.8368 68.068 42.8368 65.1C42.8368 62.132 40.4988 59.976 37.3068 59.976C34.1148 59.976 31.7768 62.132 31.7768 65.1C31.7768 68.068 34.1148 70.224 37.3068 70.224ZM37.3068 67.55C36.0888 67.55 35.1088 66.626 35.1088 65.1C35.1088 63.574 36.0888 62.65 37.3068 62.65C38.5248 62.65 39.5048 63.574 39.5048 65.1C39.5048 66.626 38.5248 67.55 37.3068 67.55ZM44.946 70H49.776C53.052 70 55.306 68.138 55.306 65.1C55.306 62.062 53.052 60.2 49.776 60.2H44.946V70ZM48.25 67.424V62.776H49.636C51.022 62.776 51.974 63.602 51.974 65.1C51.974 66.598 51.022 67.424 49.636 67.424H48.25ZM64.6217 70H68.0377L63.7537 60.2H60.5057L56.2217 70H59.5817L60.2397 68.292H63.9637L64.6217 70ZM61.1497 65.912L62.1017 63.448L63.0537 65.912H61.1497Z" fill="white"/>
</svg>
