<svg width="80" height="80" viewBox="0 0 80 80" fill="none" xmlns="http://www.w3.org/2000/svg">
<path d="M39.9085 2.21352C29.5556 2.21352 19.9608 5.00989 12.9281 9.20445C5.72549 13.4913 1.20261 19.2688 1.20261 25.1385C1.20261 30.9159 5.72549 36.601 12.8366 40.8879C19.9477 45.0824 29.4641 47.7865 39.9085 47.7865C50.3529 47.7865 59.9608 45.0824 67.0719 40.8879C74.2745 36.601 78.8105 30.9159 78.8105 25.1385C78.8105 19.2688 74.2876 13.4913 66.9804 9.20445C59.9477 5.00989 50.3399 2.21352 39.9085 2.21352V2.21352ZM12.2876 8.1756C19.5817 3.88871 29.281 1 39.9085 1C50.5359 1 60.3268 3.88871 67.6209 8.1756C75.2026 12.6472 80 18.8071 80 25.1385C80 31.2852 75.2026 37.4452 67.6209 41.9167C60.4183 46.2036 50.5359 49 39.9085 49C29.281 49 19.4902 46.2036 12.2876 41.9167C4.70588 37.4452 0 31.2984 0 25.1385C0 18.8994 4.79739 12.6472 12.2876 8.1756Z" fill="white"/>
<path d="M29.0086 16.9123L47.0183 20.8618L29.1916 24.5254L25.3099 34.2692L21.4414 24.3436L5 20.8618L21.4414 17.367L25.127 8L29.0086 16.9123ZM48.7696 26.0974L56.4414 27.6564L48.7696 29.3973L47.2013 33.4378L45.45 29.2154L38.4317 27.6564L45.45 26.0974L47.0183 22.2389L48.7696 26.0974ZM67.3413 26.0974L75 27.6564L67.3413 29.3973L65.773 33.4378L64.0086 29.2154L57.1863 27.6564L64.0086 26.0974L65.773 22.2389L67.3413 26.0974ZM62.4403 14.6128L70.112 16.1718L62.4403 17.7438L60.8719 21.9661L59.1206 17.7438L52.1023 16.1718L59.1206 14.6128L60.6889 10.7542L62.4403 14.6128ZM55.239 35.1786L63.0937 36.9325L55.422 38.4915L53.6707 42.6229L51.9193 38.4915L45.084 36.9325L51.9193 35.3605L53.6707 31.515L55.239 35.1786ZM35.112 36.5558L42.6792 38.3096L35.112 39.8686L33.5306 44L31.7793 39.6868L24.761 38.3096L31.7793 36.7376L33.3476 32.6972L35.112 36.5558Z" fill="white"/>
<path d="M8.452 69.224C11.49 69.224 13.016 67.712 13.016 65.92C13.016 62.308 7.598 63.288 7.598 62.112C7.598 61.776 7.906 61.496 8.872 61.496C9.726 61.496 10.636 61.734 11.602 62.224L12.596 59.83C11.574 59.256 10.216 58.976 8.9 58.976C5.862 58.976 4.336 60.46 4.336 62.28C4.336 65.934 9.754 64.94 9.754 66.172C9.754 66.508 9.418 66.704 8.48 66.704C7.402 66.704 6.17 66.354 5.246 65.808L4.182 68.216C5.162 68.818 6.814 69.224 8.452 69.224ZM19.5992 69.224C22.6092 69.224 24.3732 67.53 24.3732 64.59V59.2H21.1252V64.492C21.1252 65.99 20.5512 66.55 19.6272 66.55C18.7032 66.55 18.1292 65.99 18.1292 64.492V59.2H14.8252V64.59C14.8252 67.53 16.5892 69.224 19.5992 69.224ZM34.6377 63.876C35.5337 63.428 35.9957 62.672 35.9957 61.762C35.9957 60.278 34.7357 59.2 32.0337 59.2H26.7977V69H32.3137C35.0157 69 36.4577 68.006 36.4577 66.298C36.4577 65.136 35.7857 64.296 34.6377 63.876ZM31.5857 61.51C32.3277 61.51 32.6637 61.762 32.6637 62.238C32.6637 62.714 32.3277 62.966 31.5857 62.966H30.0457V61.51H31.5857ZM32.0337 66.69H30.0457V65.15H32.0337C32.7617 65.15 33.1257 65.416 33.1257 65.92C33.1257 66.424 32.7617 66.69 32.0337 66.69ZM45.8718 69H49.2878L45.0038 59.2H41.7558L37.4718 69H40.8318L41.4898 67.292H45.2138L45.8718 69ZM42.3998 64.912L43.3518 62.448L44.3038 64.912H42.3998ZM56.5911 69H60.1191L58.0611 65.976C59.2371 65.374 59.9091 64.31 59.9091 62.896C59.9091 60.628 58.1731 59.2 55.4431 59.2H50.7251V69H54.0291V66.536H54.9251L56.5911 69ZM56.5771 62.896C56.5771 63.61 56.1431 64.044 55.2331 64.044H54.0291V61.748H55.2331C56.1431 61.748 56.5771 62.182 56.5771 62.896ZM66.7567 69.224C69.7667 69.224 71.5307 67.53 71.5307 64.59V59.2H68.2827V64.492C68.2827 65.99 67.7087 66.55 66.7847 66.55C65.8607 66.55 65.2867 65.99 65.2867 64.492V59.2H61.9827V64.59C61.9827 67.53 63.7467 69.224 66.7567 69.224Z" fill="white"/>
</svg>
