<svg width="80" height="80" viewBox="0 0 80 80" fill="none" xmlns="http://www.w3.org/2000/svg">
<path d="M66.0647 35.6207C66.0647 35.6207 61.203 37.0072 51.7751 42.701C43.3118 47.814 39.9945 51.25 39.9945 51.25L13.9131 33.5328C13.9131 33.5328 24.8853 25.6031 34.0567 31.675L46.3559 39.9665L47.8557 38.9965L13.9131 15.6348C13.9131 15.6348 18.7915 14.2483 28.2194 8.55445C36.6883 3.43603 39.9945 0 39.9945 0L66.087 17.7172C66.087 17.7172 55.1148 25.6524 45.9433 19.575L33.6442 11.2781L32.1444 12.248L66.0647 35.6207" fill="white"/>
<path d="M13.452 69.224C16.49 69.224 18.016 67.712 18.016 65.92C18.016 62.308 12.598 63.288 12.598 62.112C12.598 61.776 12.906 61.496 13.872 61.496C14.726 61.496 15.636 61.734 16.602 62.224L17.596 59.83C16.574 59.256 15.216 58.976 13.9 58.976C10.862 58.976 9.336 60.46 9.336 62.28C9.336 65.934 14.754 64.94 14.754 66.172C14.754 66.508 14.418 66.704 13.48 66.704C12.402 66.704 11.17 66.354 10.246 65.808L9.182 68.216C10.162 68.818 11.814 69.224 13.452 69.224ZM24.5992 69.224C27.6092 69.224 29.3732 67.53 29.3732 64.59V59.2H26.1252V64.492C26.1252 65.99 25.5512 66.55 24.6272 66.55C23.7032 66.55 23.1292 65.99 23.1292 64.492V59.2H19.8252V64.59C19.8252 67.53 21.5892 69.224 24.5992 69.224ZM35.7457 66.438L40.2257 61.23V59.2H31.5877V61.762H35.9277L31.4477 66.97V69H40.4497V66.438H35.7457ZM47.009 69.224C50.019 69.224 51.783 67.53 51.783 64.59V59.2H48.535V64.492C48.535 65.99 47.961 66.55 47.037 66.55C46.113 66.55 45.539 65.99 45.539 64.492V59.2H42.235V64.59C42.235 67.53 43.999 69.224 47.009 69.224ZM60.6475 69H64.4695L60.3535 63.512L64.2735 59.2H60.6755L57.4555 62.756V59.2H54.2075V69H57.4555V66.578L58.1975 65.752L60.6475 69ZM65.8226 69H69.1266V59.2H65.8226V69Z" fill="white"/>
</svg>
