<svg width="80" height="80" viewBox="0 0 80 80" fill="none" xmlns="http://www.w3.org/2000/svg">
<path d="M39.9999 1.25C24.892 1.25 12.5713 13.6028 12.5713 28.75C12.5713 43.8972 24.892 56.25 39.9999 56.25C55.1077 56.25 67.4284 43.8972 67.4284 28.75C67.4179 13.6028 55.0972 1.25 39.9999 1.25ZM39.9999 53.0745C26.634 53.0745 15.7386 42.1507 15.7386 28.75C15.7386 15.3493 26.634 4.42552 39.9999 4.42552C53.3657 4.42552 64.2612 15.3493 64.2612 28.75C64.2612 42.1507 53.3552 53.0745 39.9999 53.0745Z" fill="white"/>
<path d="M32.7685 48.403C25.6054 45.3253 20.5713 38.1547 20.5713 29.8313C20.5713 27.7161 20.8964 25.6749 21.5047 23.75L32.7685 48.403ZM46.1193 49.2068C44.3573 49.725 42.4905 50 40.5608 50C38.6311 50 36.7748 49.725 35.0128 49.2068L40.5608 36.1452L46.1193 49.2068ZM59.6379 23.7606C60.2462 25.6749 60.5713 27.7161 60.5713 29.8313C60.5713 38.1547 55.5267 45.3253 48.3741 48.3924L59.6379 23.7606Z" fill="white"/>
<path d="M50.8325 11.25C53.3203 12.7223 55.4665 14.6996 57.1429 17.053L46.9993 38.75L43.5825 30.4645H37.5604L34.1436 38.75L24 17.053C25.6764 14.6996 27.8225 12.7115 30.3104 11.25L37.4216 27.9606H43.7213L50.8325 11.25V11.25Z" fill="white"/>
<path d="M40.5716 8.75C42.3529 8.75 44.0863 9.04562 45.7144 9.59307L40.5716 23.75L35.4287 9.59307C37.0568 9.04562 38.7807 8.75 40.5716 8.75Z" fill="white"/>
<path d="M7.157 61.7L5.618 65.381L4.115 61.7H1.829L4.493 68H6.581L9.245 61.7H7.157ZM13.2477 68.144C15.2997 68.144 16.8027 66.758 16.8027 64.85C16.8027 62.942 15.2997 61.556 13.2477 61.556C11.1957 61.556 9.69268 62.942 9.69268 64.85C9.69268 66.758 11.1957 68.144 13.2477 68.144ZM13.2477 66.425C12.4647 66.425 11.8347 65.831 11.8347 64.85C11.8347 63.869 12.4647 63.275 13.2477 63.275C14.0307 63.275 14.6607 63.869 14.6607 64.85C14.6607 65.831 14.0307 66.425 13.2477 66.425ZM18.1586 68H23.1266V66.353H20.2826V61.7H18.1586V68ZM28.4383 68H30.8953L28.2493 64.472L30.7693 61.7H28.4563L26.3863 63.986V61.7H24.2983V68H26.3863V66.443L26.8633 65.912L28.4383 68ZM33.9823 68.144C35.9353 68.144 36.9163 67.172 36.9163 66.02C36.9163 63.698 33.4333 64.328 33.4333 63.572C33.4333 63.356 33.6313 63.176 34.2523 63.176C34.8013 63.176 35.3863 63.329 36.0073 63.644L36.6463 62.105C35.9893 61.736 35.1163 61.556 34.2703 61.556C32.3173 61.556 31.3363 62.51 31.3363 63.68C31.3363 66.029 34.8193 65.39 34.8193 66.182C34.8193 66.398 34.6033 66.524 34.0003 66.524C33.3073 66.524 32.5153 66.299 31.9213 65.948L31.2373 67.496C31.8673 67.883 32.9293 68.144 33.9823 68.144ZM46.3683 61.7L45.2073 65.327L44.1093 61.7H42.1563L40.9953 65.282L39.8973 61.7H37.7103L39.7263 68H42.0033L43.0743 64.634L44.0913 68H46.3683L48.3843 61.7H46.3683ZM53.9285 68H56.1245L53.3705 61.7H51.2825L48.5285 68H50.6885L51.1115 66.902H53.5055L53.9285 68ZM51.6965 65.372L52.3085 63.788L52.9205 65.372H51.6965ZM61.1275 66.272C60.8665 66.38 60.6145 66.425 60.3535 66.425C59.4445 66.425 58.8505 65.795 58.8505 64.85C58.8505 63.878 59.4445 63.275 60.3805 63.275C60.9385 63.275 61.3975 63.509 61.7935 63.968L63.1525 62.771C62.5135 61.988 61.5145 61.556 60.2725 61.556C58.1935 61.556 56.7085 62.915 56.7085 64.85C56.7085 66.785 58.1935 68.144 60.2275 68.144C61.1545 68.144 62.2075 67.865 62.9725 67.343V64.679H61.1275V66.272ZM66.5505 66.398V65.57H69.2145V64.04H66.5505V63.302H69.5835V61.7H64.4625V68H69.7005V66.398H66.5505ZM75.2432 61.7V64.562L72.8492 61.7H71.1032V68H73.1732V65.138L75.5672 68H77.3132V61.7H75.2432Z" fill="white"/>
</svg>
