<svg width="50" height="45" viewBox="0 0 50 45" fill="none" xmlns="http://www.w3.org/2000/svg">
<path d="M47.8165 0.338308C45.5603 -0.876597 43.0437 1.46643 41.5684 2.8549C38.1842 6.1525 35.3205 9.97077 32.1095 13.4419C28.5516 17.2602 25.254 21.0785 21.6093 24.8101C19.5266 26.8928 17.2703 29.1491 15.8819 31.7524C12.7578 28.715 10.0677 25.4174 6.59653 22.7274C4.07994 20.8183 -0.0854443 19.4298 0.00133459 24.0291C0.174892 30.017 5.46841 36.4386 9.37346 40.5171C11.0223 42.2527 13.1917 44.075 15.7083 44.1618C18.7456 44.3354 21.8696 40.6906 23.692 38.6947C26.9029 35.2236 29.5063 31.3184 32.4566 27.7606C36.2749 23.0745 40.18 18.4751 43.9115 13.7023C46.2545 10.7518 53.6307 3.46221 47.8165 0.338308ZM3.81947 23.682C3.73269 23.682 3.64591 23.682 3.47235 23.7686C3.12523 23.682 2.8649 23.5951 2.51778 23.4215C2.77812 23.2479 3.21201 23.3347 3.81947 23.682Z" fill="#E53862"/>
</svg>
