<svg width="34" height="63" viewBox="0 0 34 63" fill="none" xmlns="http://www.w3.org/2000/svg">
<path d="M33.9995 43.1783C34.0357 38.1942 32.0898 34.2524 28.2085 31.4687C25.2107 29.3254 21.5728 28.2074 18.0542 27.1331C10.7244 24.8831 8.59807 23.6981 8.59807 20.1489C8.59807 16.1956 13.6722 14.789 18.016 14.789C21.1795 14.789 24.8191 15.7849 27.0794 17.2608L31.5605 10.2339C28.6064 8.29488 24.5634 6.97227 20.5711 6.56175V0H12.3048V7.02189C4.95684 8.65856 0.327985 13.5212 0.327985 20.1489C0.327985 24.7906 2.23294 28.4717 5.97915 31.068C8.82841 33.0502 12.3034 34.1145 15.6601 35.1449C22.8497 37.3453 25.7692 38.6861 25.736 43.1265L25.7358 43.1592C25.7358 46.8862 20.8579 48.211 16.6789 48.211C12.7314 48.211 8.43857 46.4593 6.00521 43.8548L0 49.6063C3.08162 52.9064 7.55887 55.2396 12.3046 56.1541V63H20.5711V56.3015C28.7362 55.1181 33.9914 50.1408 33.9995 43.1783Z" fill="#E53862"/>
</svg>
