<svg width="149" height="266" viewBox="0 0 149 266" fill="none" xmlns="http://www.w3.org/2000/svg">
<path d="M119.41 0H28.8119C12.9254 0 0 12.8235 0 28.5858V237.419C0 253.172 12.9254 266 28.8119 266H119.405C135.292 266 148.222 253.172 148.222 237.419V28.5858C148.226 12.8235 135.296 0 119.41 0ZM138.7 237.419C138.7 247.924 130.048 256.474 119.41 256.474H28.8119C18.1781 256.474 9.52565 247.924 9.52565 237.419V28.5858H9.53008C9.53008 18.0761 18.1825 9.53008 28.8163 9.53008H119.41C130.043 9.53008 138.7 18.0761 138.7 28.5858C138.705 28.5858 138.705 237.419 138.7 237.419ZM128.904 27.9918H19.3305C18.0141 27.9918 16.9502 29.0557 16.9502 30.3721V215.446C16.9502 216.758 18.0141 217.831 19.3305 217.831H128.904C130.221 217.831 131.289 216.763 131.289 215.446V30.3721C131.285 29.0557 130.221 27.9918 128.904 27.9918ZM126.524 213.062H21.7064V32.7524H126.52C126.52 32.7524 126.52 213.062 126.524 213.062ZM74.1174 221.798C66.09 221.798 59.5563 228.327 59.5563 236.355C59.5563 244.382 66.09 250.911 74.1174 250.911C82.1449 250.911 88.6696 244.378 88.6696 236.355C88.6696 228.327 82.1449 221.798 74.1174 221.798ZM74.1174 246.146C68.7141 246.146 64.3214 241.754 64.3214 236.355C64.3214 230.956 68.7141 226.559 74.1174 226.559C79.5163 226.559 83.909 230.956 83.909 236.355C83.909 241.754 79.5163 246.146 74.1174 246.146ZM58.3595 18.6346C58.3595 17.6639 59.3081 16.8793 60.4783 16.8793H87.7432C88.9134 16.8793 89.8576 17.6639 89.8576 18.6346C89.8576 19.6054 88.9179 20.3899 87.7477 20.3899H60.4828C59.317 20.3899 58.364 19.6054 58.3595 18.6346Z" fill="white"/>
</svg>
