<svg width="337" height="189" viewBox="0 0 337 189" fill="none" xmlns="http://www.w3.org/2000/svg">
<path d="M124.868 132.673C109.313 132.673 96.7421 145.289 96.7421 160.845C96.7421 176.355 109.313 188.971 124.868 188.971C140.424 188.971 152.995 176.355 152.995 160.845C152.994 145.289 140.424 132.673 124.868 132.673ZM124.868 174.908C117.09 174.908 110.805 168.577 110.805 160.844C110.805 153.067 117.09 146.781 124.868 146.781C132.646 146.781 138.932 153.067 138.932 160.844C138.931 168.577 132.646 174.908 124.868 174.908ZM337 111.865V141.898C337 149.39 330.927 155.463 323.434 155.463H308.919C306.296 137.466 290.786 123.629 272.065 123.629C253.39 123.629 237.88 137.466 235.257 155.463H161.686C159.063 137.466 143.553 123.629 124.877 123.629C106.202 123.629 90.6915 137.466 88.0693 155.463H69.8912C62.399 155.463 56.3258 149.39 56.3258 141.898V111.865H337ZM272.102 132.673C256.546 132.673 243.93 145.289 243.93 160.845C243.93 176.355 256.547 188.971 272.102 188.971C287.611 188.971 300.227 176.355 300.227 160.845C300.227 145.289 287.611 132.673 272.102 132.673ZM272.102 174.908C264.324 174.908 258.038 168.577 258.038 160.844C258.038 153.067 264.324 146.781 272.102 146.781C279.834 146.781 286.165 153.067 286.165 160.844C286.165 168.577 279.834 174.908 272.102 174.908ZM331.655 81.6206L278.342 28.895C274.951 25.5487 270.384 23.6495 265.635 23.6495H238.73V13.5653C238.73 6.05939 232.671 0 225.165 0H69.8818C62.4204 0 56.3164 6.05994 56.3164 13.5653V15.6909L1.2665 22.0355L98.8126 34.738L0 44.5539L98.4646 58.5532L0 67.0905L56.3197 77.7126L56.3159 104.366H336.991V94.4624C336.991 89.6238 335.046 85.0121 331.655 81.6206ZM308.412 83.3838H256.818C255.642 83.3838 254.692 82.4345 254.692 81.2589V41.4207C254.692 40.2451 255.642 39.2952 256.818 39.2952H266.63C267.173 39.2952 267.716 39.5215 268.123 39.8833L309.86 79.7214C311.261 81.0325 310.311 83.3838 308.412 83.3838Z" fill="white"/>
</svg>
