<svg width="130" height="65" viewBox="0 0 130 65" fill="none" xmlns="http://www.w3.org/2000/svg">
<path d="M24.24 29H34L21.76 0.999998H12.48L0.24 29H9.84L11.72 24.12H22.36L24.24 29ZM14.32 17.32L17.04 10.28L19.76 17.32H14.32ZM50.9206 29.64C59.5206 29.64 64.5606 24.8 64.5606 16.4V0.999998H55.2806V16.12C55.2806 20.4 53.6406 22 51.0006 22C48.3606 22 46.7206 20.4 46.7206 16.12V0.999998H37.2806V16.4C37.2806 24.8 42.3206 29.64 50.9206 29.64ZM77.1772 29H86.6172V8.32H94.8172V0.999998H68.9772V8.32H77.1772V29ZM114.158 29.64C123.278 29.64 129.958 23.48 129.958 15C129.958 6.52 123.278 0.359999 114.158 0.359999C105.038 0.359999 98.3584 6.52 98.3584 15C98.3584 23.48 105.038 29.64 114.158 29.64ZM114.158 22C110.678 22 107.878 19.36 107.878 15C107.878 10.64 110.678 8 114.158 8C117.638 8 120.438 10.64 120.438 15C120.438 19.36 117.638 22 114.158 22ZM3.28 64H25.36V56.68H12.72V36H3.28V64ZM39.8475 56.88V53.2H51.6875V46.4H39.8475V43.12H53.3275V36H30.5675V64H53.8475V56.88H39.8475ZM78.6016 56.32C77.4416 56.8 76.3216 57 75.1616 57C71.1216 57 68.4816 54.2 68.4816 50C68.4816 45.68 71.1216 43 75.2816 43C77.7616 43 79.8016 44.04 81.5616 46.08L87.6016 40.76C84.7616 37.28 80.3216 35.36 74.8016 35.36C65.5616 35.36 58.9616 41.4 58.9616 50C58.9616 58.6 65.5616 64.64 74.6016 64.64C78.7216 64.64 83.4016 63.4 86.8016 61.08V49.24H78.6016V56.32ZM108.104 64.64C117.224 64.64 123.904 58.48 123.904 50C123.904 41.52 117.224 35.36 108.104 35.36C98.9838 35.36 92.3038 41.52 92.3038 50C92.3038 58.48 98.9838 64.64 108.104 64.64ZM108.104 57C104.624 57 101.824 54.36 101.824 50C101.824 45.64 104.624 43 108.104 43C111.584 43 114.384 45.64 114.384 50C114.384 54.36 111.584 57 108.104 57Z" fill="white"/>
</svg>
