<svg width="48" height="48" viewBox="0 0 48 48" fill="none" xmlns="http://www.w3.org/2000/svg">
<path d="M10.8833 11.3959C10.4123 10.9242 9.64817 10.9257 9.17877 11.3959C5.98137 14.5949 5.98137 19.7964 9.17718 22.9923C9.41268 23.2277 9.72011 23.3455 10.0295 23.3455C10.3385 23.3455 10.6464 23.2277 10.8818 22.9923C11.3527 22.5213 11.3527 21.7585 10.8818 21.2877C8.62624 19.0313 8.62624 15.3584 10.8833 13.1005C11.3543 12.6297 11.3543 11.8661 10.8833 11.3959Z" fill="#E53862"/>
<path d="M46.649 40.1591L32.1394 25.6503C35.8405 19.095 34.9207 10.6153 29.3474 5.03773C26.0981 1.78848 21.7786 0 17.186 0C12.5917 0 8.27226 1.78848 5.0245 5.03773C-1.67595 11.7405 -1.67437 22.6484 5.02648 29.353C8.27691 32.6007 12.5948 34.3891 17.189 34.3891C20.2059 34.3891 23.097 33.6036 25.6509 32.1534L40.1524 46.6549C41.9446 48.4479 44.8517 48.4487 46.6474 46.6549C47.5088 45.7931 47.9924 44.6253 47.9939 43.4071C47.9939 42.1884 47.5088 41.0205 46.649 40.1591ZM8.43523 25.9432C3.6136 21.1189 3.6136 13.2701 8.43365 8.44649C10.7708 6.10864 13.8786 4.82163 17.1859 4.82163C20.4914 4.82163 23.5993 6.10864 25.9379 8.44579C30.7582 13.2701 30.7566 21.1204 25.9364 25.9447C23.5993 28.2811 20.4929 29.5674 17.1888 29.5674C13.8834 29.5674 10.7743 28.2804 8.43523 25.9432Z" fill="#E53862"/>
</svg>
