<svg width="44" height="56" viewBox="0 0 44 56" fill="none" xmlns="http://www.w3.org/2000/svg">
<path d="M21.5308 22.1013C27.6242 22.1013 32.5814 17.1441 32.5814 11.0507C32.5814 4.95723 27.6242 0 21.5308 0C15.4373 0 10.4801 4.95723 10.4801 11.0507C10.4801 17.1441 15.4373 22.1013 21.5308 22.1013Z" fill="#E53862"/>
<path d="M36.3593 27.4566C36.3546 27.4551 36.3455 27.4517 36.3408 27.4505C34.902 27.0991 30.4959 26.4827 30.4959 26.4827C29.9985 26.3296 29.4669 26.593 29.288 27.0838L22.6559 45.2808C22.2733 46.3305 20.7886 46.3305 20.4061 45.2808L13.7739 27.0838C13.6295 26.6875 13.2554 26.439 12.8545 26.439C12.7595 26.439 8.22917 27.0742 6.72094 27.4492C2.59957 28.474 0 32.5268 0 36.7503V51.8914C0 54.1605 1.83952 56 4.10855 56H38.9496C41.2186 56 43.0582 54.1605 43.0582 51.8914V36.7C43.058 32.4947 40.3566 28.7627 36.3593 27.4566V27.4566Z" fill="#E53862"/>
<path d="M24.0319 26.1359C23.7672 25.8474 23.3803 25.7024 22.9888 25.7024H20.0691C19.6777 25.7024 19.2906 25.8476 19.026 26.1359C18.6163 26.5824 18.5567 27.2274 18.8477 27.7314L20.4085 30.0843L19.6779 36.2481L21.1167 40.0757C21.257 40.4608 21.8013 40.4608 21.9416 40.0757L23.3805 36.2481L22.6498 30.0843L24.2107 27.7314C24.5012 27.2274 24.4416 26.5824 24.0319 26.1359V26.1359Z" fill="#E53862"/>
</svg>
