<svg width="47" height="65" viewBox="0 0 47 65" fill="none" xmlns="http://www.w3.org/2000/svg">
<path d="M23.5 12.8325C17.3752 12.8325 12.3915 17.8162 12.3915 23.941C12.3915 30.0659 17.3752 35.0496 23.5 35.0496C29.6249 35.0496 34.6085 30.0659 34.6085 23.941C34.6085 17.8162 29.6249 12.8325 23.5 12.8325Z" fill="#E53862"/>
<path d="M38.8573 47.2779L37.1651 47.0964L36.6396 47.0405L34.4233 46.8019L30.8016 46.4121L27.4707 49.4257L26.0553 50.7065L25.9956 50.7611L24.5193 52.0966L30.5922 65.0001L35.9338 58.7114L44.1862 58.6023L38.8573 47.2779Z" fill="#E53862"/>
<path d="M21.0044 50.7611L20.9447 50.7065L19.5293 49.4257L16.1984 46.4121L12.5767 46.8019L10.3604 47.0393L9.83489 47.0964L8.14273 47.2779L2.81375 58.6023L11.0662 58.7114L16.4078 65.0001L22.4807 52.0966L21.0044 50.7611Z" fill="#E53862"/>
<path d="M42.9549 23.9411L46.2693 16.543L39.2394 12.5062L37.5726 4.57234L29.5119 5.43804L23.5 0L17.4881 5.43816L9.42739 4.57247L7.76062 12.5062L0.730591 16.5429L4.04495 23.9409L0.730591 31.339L7.76062 35.3757L9.42739 43.3096L10.0418 43.2435L12.2595 43.0049L14.4758 42.7675L15.0699 42.704H15.0712L17.4881 42.4437L19.306 44.0876L21.2241 45.823L21.8221 46.3638L22.7005 47.1584L23.5001 47.8819L24.2998 47.1584L25.1782 46.3638L25.7762 45.823L27.2677 44.4749L27.269 44.4736L29.512 42.4439L33.4294 42.8641H33.4307L33.8293 42.9072L34.7407 43.005H34.742L36.9583 43.2437L37.5728 43.3097L39.2395 35.3759L46.2696 31.3391L42.9549 23.9411ZM23.5 38.8578C15.2755 38.8578 8.58315 32.1667 8.58315 23.9409C8.58315 15.7164 15.2755 9.02408 23.5 9.02408C31.7245 9.02408 38.4169 15.7164 38.4169 23.9409C38.4169 32.1667 31.7245 38.8578 23.5 38.8578Z" fill="#E53862"/>
</svg>
