<svg width="210" height="272" viewBox="0 0 210 272" fill="none" xmlns="http://www.w3.org/2000/svg">
<path d="M175.021 74.1813L161.653 100.109L177.472 21.8745C178.529 17.0235 177.535 11.9525 174.72 7.84873C171.905 3.74497 167.519 0.971776 162.585 0.172614C152.778 -1.15379 143.615 5.29763 141.628 14.9291L133.219 51.6574L124.309 92.6596L123.253 22.2918C123.105 12.2742 114.809 4.27429 104.724 4.42167C94.6394 4.56905 86.5858 12.8098 86.7341 22.8273V102.181L79.8863 87.8667C76.0705 79.7568 66.855 75.6405 58.2163 78.1896L33.6605 85.3633C30.7183 86.2642 28.1605 88.1137 26.3947 90.6191L14.4522 107.505C11.3449 111.8 10.4129 117.282 11.9279 122.351C11.9509 122.42 11.9906 122.478 12.0094 122.546C5.17195 123.37 0.022986 129.122 0 135.964V171.083C0 174.737 1.48158 178.236 4.1083 180.794L48.4889 222.448C49.9495 223.876 51.0801 225.603 51.8031 227.508C52.6034 229.474 53.6002 231.357 54.7788 233.125V258.398C54.7788 265.91 60.9099 272 68.4745 272H141.513C149.078 272 155.209 265.91 155.209 258.398V233.565C159.223 228.283 162.134 222.257 163.768 215.841C166.359 205.512 168.16 195.002 169.159 184.401C169.776 179.256 170.405 174.041 171.222 168.771C172.706 159.746 175.646 151.019 179.932 142.926L208.161 89.3861C210.353 84.9108 210.596 79.7402 208.834 75.0822C207.07 70.4263 203.457 66.6941 198.841 64.7636C189.642 61.1435 179.198 65.2722 175.021 74.1813ZM62.7217 150.253L53.0527 164.532C51.7529 164.055 50.5242 163.405 49.4021 162.596L42.9094 157.73C41.7601 156.873 41.083 155.53 41.083 154.102V149.568C41.0935 143.617 39.1208 137.832 35.4744 133.112C37.4407 132.257 39.2316 131.048 40.7591 129.548L51.2995 118.71C52.0894 118.017 53.1802 117.768 54.1937 118.05C55.2093 118.332 56.0096 119.107 56.321 120.107L63.1291 147.065C63.4196 148.138 63.2754 149.284 62.7258 150.253H62.7217ZM195.274 73.1164C197.602 74.0837 199.422 75.9706 200.296 78.3203C201.165 80.5871 201.062 83.107 200.009 85.2948L171.834 138.727C167.088 147.698 163.835 157.375 162.201 167.38C161.367 172.763 160.723 178.081 160.092 183.324C159.139 193.474 157.424 203.54 154.962 213.437C152.145 223.604 145.945 235.724 132.383 235.724C129.863 235.724 127.819 237.754 127.819 240.26C127.819 242.763 129.863 244.793 132.383 244.793C137.173 244.814 141.889 243.612 146.079 241.306V258.398C146.079 260.901 144.035 262.931 141.513 262.931H68.4745C65.9523 262.931 63.9086 260.901 63.9086 258.398V241.582C68.1339 243.768 72.842 244.87 77.6043 244.793C80.1245 244.793 82.1682 242.763 82.1682 240.26C82.1682 237.754 80.1245 235.724 77.6043 235.724C69.8391 236.251 62.7008 231.488 60.2558 224.148C59.048 221.016 57.161 218.184 54.7328 215.853L10.4526 174.29C9.59789 173.439 9.12144 172.285 9.1298 171.083V135.964C9.11099 133.504 11.0857 131.484 13.562 131.43C18.4268 131.395 23.1056 133.29 26.5598 136.697C30.0119 140.101 31.9532 144.734 31.9532 149.568V154.102C31.9637 158.382 33.9907 162.409 37.4324 164.985L43.9417 169.838C46.9132 171.986 50.3299 173.45 53.9429 174.122C54.0767 174.153 54.2 174.176 54.3316 174.199C59.8483 175.166 65.5323 174.311 70.5141 171.764C71.9747 171.04 72.9339 169.597 73.0321 167.98C73.1303 166.363 72.353 164.815 70.9926 163.922C69.6301 163.027 67.8936 162.924 66.4329 163.648C65.6472 164.024 64.8343 164.341 64.0005 164.601L70.3908 155.181C72.3133 152.092 72.8921 148.36 71.9935 144.838L65.2 117.93C63.894 112.541 59.0355 108.747 53.456 108.757C50.1439 108.726 46.9718 110.065 44.694 112.452L34.2373 123.19C31.224 126.121 26.4574 126.28 23.2518 123.559C20.0484 120.838 19.4653 116.136 21.9103 112.726L33.8716 95.8106C34.4671 94.9761 35.3239 94.3617 36.3081 94.0607L60.7991 86.9056C65.129 85.6249 69.7492 87.682 71.6696 91.7442L85.4511 120.655C86.5586 122.936 89.1017 124.159 91.5905 123.603C94.0773 123.044 95.8493 120.857 95.8639 118.324V22.7464C95.7783 17.7376 99.7988 13.6089 104.841 13.5259C109.884 13.4408 114.04 17.4325 114.124 22.4412L115.63 122.656C115.647 125.544 117.852 127.958 120.746 128.248C123.64 128.541 126.29 126.621 126.891 123.794L142.129 53.648L150.542 16.9197C151.443 11.9712 156.063 8.57109 161.093 9.15645C163.576 9.54669 165.785 10.9416 167.193 13.009C168.603 15.0765 169.088 17.6317 168.532 20.0666L147.502 124.035C146.95 126.691 148.451 129.346 151.023 130.26C153.595 131.173 156.45 130.065 157.718 127.661L183.187 78.2352C185.262 73.6665 190.518 71.4413 195.274 73.1164Z" fill="white"/>
</svg>
