<svg width="250" height="278" viewBox="0 0 250 278" fill="none" xmlns="http://www.w3.org/2000/svg">
<path d="M93.373 243.793H82.0247C79.0219 243.793 76.5878 246.224 76.5878 249.223C76.5878 252.221 79.0219 254.652 82.0247 254.652H93.373C96.3758 254.652 98.8099 252.221 98.8099 249.223C98.8099 246.224 96.3758 243.793 93.373 243.793Z" fill="white"/>
<path d="M234.181 50.9424H175.398V32.3718C175.398 14.5217 160.856 0 142.983 0H32.4145C14.5409 0 0 14.5222 0 32.3718V245.628C0 263.478 14.5414 278 32.4151 278H142.983C160.857 278 175.398 263.478 175.398 245.628V187.865H234.181C242.904 187.865 250 180.778 250 172.067V66.7401C249.999 58.0292 242.903 50.9424 234.181 50.9424ZM142.983 267.141H32.4145C20.5366 267.141 10.8732 257.49 10.8732 245.628V233.442H164.523V245.628C164.524 257.49 154.861 267.141 142.983 267.141ZM164.524 222.582H10.8737V32.3718C10.8737 20.5096 20.5372 10.8594 32.4145 10.8594H142.983C154.861 10.8594 164.524 20.5096 164.524 32.3718V50.9424H93.2121V43.6341C93.2121 40.6352 90.778 38.2044 87.7753 38.2044C84.7725 38.2044 82.3384 40.6352 82.3384 43.6341V195.018C82.3384 198.017 84.7725 200.448 87.7753 200.448C90.778 200.448 93.2121 198.017 93.2121 195.018V187.865H164.524V222.582ZM93.2121 88.1912H196.908C198.614 96.2227 204.79 102.625 212.702 104.671V135.061C205.096 137.028 199.095 143.021 197.126 150.617H93.2121V88.1912ZM239.126 172.067C239.126 174.79 236.908 177.006 234.181 177.006H93.2121V161.476H201.873C204.876 161.476 207.31 159.045 207.31 156.046C207.31 150.083 212.168 145.231 218.138 145.231C221.141 145.231 223.575 142.8 223.575 139.801V99.9296C223.575 96.9308 221.141 94.4999 218.138 94.4999C212.168 94.4999 207.31 89.6485 207.31 83.6851C207.31 83.476 207.316 83.2681 207.328 83.0617C207.41 81.5718 206.875 80.1134 205.848 79.0296C204.821 77.9459 203.393 77.3318 201.899 77.3318H93.2121V61.8018H234.181C236.908 61.8018 239.126 64.0171 239.126 66.7401V172.067Z" fill="white"/>
<path d="M144.801 101.111C134.701 101.111 126.485 109.317 126.485 119.404C126.485 129.491 134.701 137.697 144.801 137.697C154.901 137.697 163.118 129.491 163.118 119.404C163.118 109.317 154.901 101.111 144.801 101.111ZM144.801 126.837C140.697 126.837 137.358 123.503 137.358 119.404C137.358 115.305 140.697 111.971 144.801 111.971C148.906 111.971 152.244 115.305 152.244 119.404C152.244 123.503 148.906 126.837 144.801 126.837Z" fill="white"/>
</svg>
