<svg width="270" height="238" viewBox="0 0 270 238" fill="none" xmlns="http://www.w3.org/2000/svg">
<path d="M261.562 119.007H253.125V76.509C253.125 71.8173 249.345 68.0095 244.688 68.0095H236.25V42.5109C236.25 37.8192 232.47 34.0114 227.812 34.0114H199.277L184.731 4.705C182.638 0.48924 177.576 -1.19367 173.408 0.897215L153.967 10.7057L150.981 4.705C148.888 0.506239 143.826 -1.19367 139.658 0.914215L73.9463 34.0114H25.3125C11.3569 34.0114 0 45.4517 0 59.5099V212.501C0 226.56 11.3569 238 25.3125 238H244.688C249.345 238 253.125 234.192 253.125 229.5V187.003H261.562C266.22 187.003 270 183.195 270 178.503V127.506C270 122.814 266.22 119.007 261.562 119.007ZM219.375 51.0104V68.0095H216.152L207.714 51.0104H219.375ZM173.408 19.9192L197.286 68.0095H182.402L161.511 25.9028L173.408 19.9192ZM139.658 19.9192L163.536 68.0095H44.1787L139.658 19.9192ZM25.3125 51.0104H40.1963L17.55 62.4168C17.2125 61.4818 16.875 60.5299 16.875 59.5099C16.875 54.8182 20.655 51.0104 25.3125 51.0104ZM236.25 221.001H25.3125C20.655 221.001 16.875 217.193 16.875 212.501V83.3766C19.6425 84.3796 22.4775 85.0085 25.3125 85.0085H236.25V119.007H202.5C183.887 119.007 168.75 134.255 168.75 153.005C168.75 171.755 183.887 187.003 202.5 187.003H236.25V221.001ZM253.125 170.004H202.5C193.202 170.004 185.625 162.371 185.625 153.005C185.625 143.638 193.202 136.006 202.5 136.006H253.125V170.004Z" fill="white"/>
</svg>
